<?xml version="1.0" encoding="UTF-8" standalone="no"?>
<svg
   viewBox="0 0 24 24"
   width="24"
   height="24"
   version="1.1"
   id="svg1"
   sodipodi:docname="input-tablet.svg"
   inkscape:version="1.3.2 (091e20ef0f, 2023-11-25)"
   xmlns:inkscape="http://www.inkscape.org/namespaces/inkscape"
   xmlns:sodipodi="http://sodipodi.sourceforge.net/DTD/sodipodi-0.dtd"
   xmlns="http://www.w3.org/2000/svg"
   xmlns:svg="http://www.w3.org/2000/svg">
  <sodipodi:namedview
     id="namedview1"
     pagecolor="#ffffff"
     bordercolor="#999999"
     borderopacity="1"
     inkscape:showpageshadow="2"
     inkscape:pageopacity="0"
     inkscape:pagecheckerboard="0"
     inkscape:deskcolor="#d1d1d1"
     inkscape:zoom="31.833333"
     inkscape:cx="12"
     inkscape:cy="12"
     inkscape:window-width="1920"
     inkscape:window-height="996"
     inkscape:window-x="0"
     inkscape:window-y="0"
     inkscape:window-maximized="1"
     inkscape:current-layer="svg1" />
  <defs
     id="defs3051">
    <style
       type="text/css"
       id="current-color-scheme">.ColorScheme-Text { color: #fcfcfc; } </style>
  </defs>
  <g
     transform="translate(1,1)"
     id="g1">
    <path
       style="fill:#ffd42a;fill-opacity:1;stroke:none"
       d="M 3 4 L 3 5 L 3 6 L 3 17 L 3 18 L 15 18 L 15 19 L 16 19 L 16 18 L 18 18 L 19 18 L 19 6 L 19 5 L 19 4 L 3 4 z M 4 5 L 18 5 L 18 6 L 18 8 L 4 8 L 4 6 L 4 5 z M 5 6 L 5 7 L 7 7 L 7 6 L 5 6 z M 15 6 L 15 7 L 17 7 L 17 6 L 15 6 z M 4 9 L 18 9 L 18 17 L 16 17 L 16 12 L 15 12 L 15 17 L 4 17 L 4 9 z "
       class="ColorScheme-Text"
       id="path1" />
  </g>
</svg>
