<?xml version="1.0" encoding="UTF-8" standalone="no"?>
<svg
   version="1.1"
   viewBox="0 0 32 32"
   id="svg2"
   sodipodi:docname="call-missed.svg"
   inkscape:version="1.3.2 (091e20ef0f, 2023-11-25)"
   xmlns:inkscape="http://www.inkscape.org/namespaces/inkscape"
   xmlns:sodipodi="http://sodipodi.sourceforge.net/DTD/sodipodi-0.dtd"
   xmlns="http://www.w3.org/2000/svg"
   xmlns:svg="http://www.w3.org/2000/svg">
  <defs
     id="defs2" />
  <sodipodi:namedview
     id="namedview2"
     pagecolor="#ffffff"
     bordercolor="#999999"
     borderopacity="1"
     inkscape:showpageshadow="2"
     inkscape:pageopacity="0"
     inkscape:pagecheckerboard="0"
     inkscape:deskcolor="#d1d1d1"
     inkscape:zoom="23.875"
     inkscape:cx="16"
     inkscape:cy="16"
     inkscape:window-width="1920"
     inkscape:window-height="996"
     inkscape:window-x="0"
     inkscape:window-y="0"
     inkscape:window-maximized="1"
     inkscape:current-layer="svg2" />
  <style
     id="current-color-scheme"
     type="text/css">.ColorScheme-Text{color:#232629;}.ColorScheme-NegativeText { color: #da4453; } </style>
  <path
     class="ColorScheme-Text"
     d="m12.002 19.002c-3.424 0-6.377 1.842-8 4.578v2.088s0 1.333 1.333 1.333h4c1.334 0 1.334-1.333 1.334-1.333v-.667c0-1.108.892-2 2-2h6.666c1.108 0 2 .892 2 2v.667s0 1.333 1.334 1.333h4c1.333 0 1.333-1.333 1.333-1.333v-2.088c-1.623-2.736-4.576-4.578-8-4.578z"
     fill="currentColor"
     id="path1"
     style="fill:#da4453;fill-opacity:1" />
  <path
     class="ColorScheme-NegativeText"
     d="M 5.5,5.7929688 4.792969,6.5 16,17.707031 27,6.7070312 V 11 h 1 V 5 h -6 v 1 h 4.292969 L 16,16.292969 Z"
     fill="currentColor"
     id="path2" />
</svg>
