<?xml version="1.0" encoding="UTF-8" standalone="no"?>
<svg
   version="1.1"
   viewBox="0 0 32 32"
   id="svg1"
   sodipodi:docname="smartphoneconnected.svg"
   inkscape:version="1.3.2 (091e20ef0f, 2023-11-25)"
   xmlns:inkscape="http://www.inkscape.org/namespaces/inkscape"
   xmlns:sodipodi="http://sodipodi.sourceforge.net/DTD/sodipodi-0.dtd"
   xmlns="http://www.w3.org/2000/svg"
   xmlns:svg="http://www.w3.org/2000/svg">
  <defs
     id="defs1" />
  <sodipodi:namedview
     id="namedview1"
     pagecolor="#ffffff"
     bordercolor="#999999"
     borderopacity="1"
     inkscape:showpageshadow="2"
     inkscape:pageopacity="0"
     inkscape:pagecheckerboard="0"
     inkscape:deskcolor="#d1d1d1"
     inkscape:zoom="23.875"
     inkscape:cx="16"
     inkscape:cy="16"
     inkscape:window-width="1920"
     inkscape:window-height="996"
     inkscape:window-x="0"
     inkscape:window-y="0"
     inkscape:window-maximized="1"
     inkscape:current-layer="svg1" />
  <style
     id="current-color-scheme"
     type="text/css">.ColorScheme-PositiveText{color:#27ae60;}.ColorScheme-Text { color: #232629; } </style>
  <path
     id="smartphone"
     class="ColorScheme-Text"
     d="m11 3c-1.108 0-2 0.892-2 2v22c0 1.108 0.892 2 2 2h10c1.108 0 2-0.892 2-2v-22c0-1.108-0.892-2-2-2h-10zm0 1h10c0.554 0 1 0.446 1 1v22c0 0.554-0.446 1-1 1h-10c-0.554 0-1-0.446-1-1v-22c0-0.554 0.446-1 1-1zm0.5 1a0.5 0.5 0 0 0-0.5 0.5 0.5 0.5 0 0 0 0.5 0.5 0.5 0.5 0 0 0 0.5-0.5 0.5 0.5 0 0 0-0.5-0.5zm2 21c-0.277 0-0.5 0.223-0.5 0.5s0.223 0.5 0.5 0.5h5c0.277 0 0.5-0.223 0.5-0.5s-0.223-0.5-0.5-0.5h-5z"
     fill="currentColor"
     style="fill:#27ae60;fill-opacity:1" />
  <path
     id="checkmark"
     class="ColorScheme-PositiveText"
     d="m19 13-4 5-2-2-1 1 3 3 5-6z"
     fill="currentColor" />
</svg>
