<?xml version="1.0" encoding="UTF-8" standalone="no"?>
<svg
   version="1.1"
   viewBox="0 0 32 32"
   id="svg1"
   sodipodi:docname="smartphonedisconnected.svg"
   inkscape:version="1.3.2 (091e20ef0f, 2023-11-25)"
   xmlns:inkscape="http://www.inkscape.org/namespaces/inkscape"
   xmlns:sodipodi="http://sodipodi.sourceforge.net/DTD/sodipodi-0.dtd"
   xmlns="http://www.w3.org/2000/svg"
   xmlns:svg="http://www.w3.org/2000/svg">
  <defs
     id="defs1" />
  <sodipodi:namedview
     id="namedview1"
     pagecolor="#ffffff"
     bordercolor="#999999"
     borderopacity="1"
     inkscape:showpageshadow="2"
     inkscape:pageopacity="0"
     inkscape:pagecheckerboard="0"
     inkscape:deskcolor="#d1d1d1"
     inkscape:zoom="23.875"
     inkscape:cx="16"
     inkscape:cy="16"
     inkscape:window-width="1920"
     inkscape:window-height="996"
     inkscape:window-x="0"
     inkscape:window-y="0"
     inkscape:window-maximized="1"
     inkscape:current-layer="svg1" />
  <style
     id="current-color-scheme"
     type="text/css">.ColorScheme-NeutralText{color:#f67400;}.ColorScheme-Text { color: #232629; } </style>
  <path
     id="smartphone"
     class="ColorScheme-Text"
     d="m11 3c-1.108 0-2 0.892-2 2v22c0 1.108 0.892 2 2 2h10c1.108 0 2-0.892 2-2v-22c0-1.108-0.892-2-2-2h-10zm0 1h10c0.554 0 1 0.446 1 1v22c0 0.554-0.446 1-1 1h-10c-0.554 0-1-0.446-1-1v-22c0-0.554 0.446-1 1-1zm0.5 1a0.5 0.5 0 0 0-0.5 0.5 0.5 0.5 0 0 0 0.5 0.5 0.5 0.5 0 0 0 0.5-0.5 0.5 0.5 0 0 0-0.5-0.5zm2 21c-0.277 0-0.5 0.223-0.5 0.5s0.223 0.5 0.5 0.5h5c0.277 0 0.5-0.223 0.5-0.5s-0.223-0.5-0.5-0.5h-5z"
     fill="currentColor"
     style="fill:#ffb380" />
  <path
     id="questionMark"
     class="ColorScheme-NeutralText"
     d="m16 11.5c-0.72916 0-1.41 0.2557-1.8896 0.73535-0.47965 0.47965-0.73535 1.1605-0.73535 1.8896h1.5c0-0.39584 0.11929-0.6525 0.2959-0.82912 0.1766-0.1766 0.43327-0.2959 0.82912-0.2959 0.39583 0 0.6525 0.1193 0.82912 0.2959 0.1766 0.1766 0.2959 0.43327 0.2959 0.82912 0 0.34376-0.06776 0.48999-0.1582 0.61963-0.09043 0.12963-0.2386 0.25205-0.45922 0.40649-0.22064 0.15444-0.5137 0.33236-0.78443 0.6482-0.27072 0.31584-0.47314 0.7944-0.47314 1.3257v0.375h1.5v-0.375c0-0.2855 0.033-0.33578 0.61743-0.74487 0.24812-0.17368 0.56871-0.40282 0.8298-0.77708 0.26109-0.37425 0.42773-0.88425 0.42773-1.478 0-0.72917-0.2557-1.41-0.73535-1.8896-0.47965-0.47965-1.1605-0.73535-1.8896-0.73535zm-0.75 7.5v1.5h1.5v-1.5z"
     fill="currentColor" />
</svg>
