<?xml version="1.0" encoding="UTF-8" standalone="no"?>
<svg
   viewBox="0 0 22 22"
   version="1.1"
   id="svg2"
   sodipodi:docname="call-missed.svg"
   inkscape:version="1.3.2 (091e20ef0f, 2023-11-25)"
   xmlns:inkscape="http://www.inkscape.org/namespaces/inkscape"
   xmlns:sodipodi="http://sodipodi.sourceforge.net/DTD/sodipodi-0.dtd"
   xmlns="http://www.w3.org/2000/svg"
   xmlns:svg="http://www.w3.org/2000/svg">
  <defs
     id="defs2" />
  <sodipodi:namedview
     id="namedview2"
     pagecolor="#ffffff"
     bordercolor="#999999"
     borderopacity="1"
     inkscape:showpageshadow="2"
     inkscape:pageopacity="0"
     inkscape:pagecheckerboard="0"
     inkscape:deskcolor="#d1d1d1"
     inkscape:zoom="34.727273"
     inkscape:cx="11"
     inkscape:cy="11"
     inkscape:window-width="1920"
     inkscape:window-height="996"
     inkscape:window-x="0"
     inkscape:window-y="0"
     inkscape:window-maximized="1"
     inkscape:current-layer="svg2" />
  <style
     type="text/css"
     id="current-color-scheme">.ColorScheme-Text{color:#232629;}.ColorScheme-NegativeText { color: #da4453; } </style>
  <path
     d="m8 12.99999c-2.56828 0-4.78334 1.3818-6 3.43361l.00001.56641-.00001.99999s.00001.99999 1.00003 1h3c1 0 1-1 1-1v-.5c0-.831.66901-1.5 1.5-1.5l4.99997-.00001c.83098 0 1.5.669 1.5 1.50001v.5s0 .99999 1 .99999h3c1 0 1-.99999 1-.99999v-.99999-.56641c-1.21666-2.05181-3.43208-3.4336-6-3.4336z"
     class="ColorScheme-Text"
     fill="currentColor"
     id="path1"
     style="fill:#da4453;fill-opacity:1" />
  <path
     d="m4.5 3.7929688-.7070312.7070312 7.2070312 7.207031 7-6.9999998v3.2929688h1v-5h-5v1h3.292969l-6.292969 6.292969z"
     class="ColorScheme-NegativeText"
     fill="currentColor"
     id="path2" />
</svg>
