<?xml version="1.0" encoding="UTF-8" standalone="no"?>
<svg
   viewBox="0 0 22 22"
   version="1.1"
   id="svg1"
   sodipodi:docname="dialog-question.svg"
   inkscape:version="1.3.2 (091e20ef0f, 2023-11-25)"
   xmlns:inkscape="http://www.inkscape.org/namespaces/inkscape"
   xmlns:sodipodi="http://sodipodi.sourceforge.net/DTD/sodipodi-0.dtd"
   xmlns="http://www.w3.org/2000/svg"
   xmlns:svg="http://www.w3.org/2000/svg">
  <sodipodi:namedview
     id="namedview1"
     pagecolor="#ffffff"
     bordercolor="#999999"
     borderopacity="1"
     inkscape:showpageshadow="2"
     inkscape:pageopacity="0"
     inkscape:pagecheckerboard="0"
     inkscape:deskcolor="#d1d1d1"
     inkscape:zoom="34.727273"
     inkscape:cx="11"
     inkscape:cy="11"
     inkscape:window-width="1920"
     inkscape:window-height="996"
     inkscape:window-x="0"
     inkscape:window-y="0"
     inkscape:window-maximized="1"
     inkscape:current-layer="svg1" />
  <defs
     id="defs3051">
    <style
       type="text/css"
       id="current-color-scheme">.ColorScheme-Text { color: #fcfcfc; } </style>
  </defs>
  <path
     style="fill:#b380ff;fill-opacity:1;stroke:none"
     d="M 3 4 L 3 16 L 6 20 L 6 17 L 6 16 L 19 16 L 19 4 L 3 4 z M 4 5 L 18 5 L 18 15 L 4 15 L 4 5 z M 10.5 6 A 2.5 2.5 0 0 0 8 8.5 L 8 9 L 9 9 L 9 8.5 A 1.5 1.5 0 0 1 10.5 7 A 1.5 1.5 0 0 1 12 8.5 A 1.5 1.5 0 0 1 10.5 10 L 10 10 L 10 12 L 11 12 L 11 10.949219 A 2.5 2.5 0 0 0 13 8.5 A 2.5 2.5 0 0 0 10.5 6 z M 10 13 L 10 14 L 11 14 L 11 13 L 10 13 z "
     class="ColorScheme-Text"
     id="path1" />
</svg>
