<?xml version="1.0" encoding="UTF-8" standalone="no"?>
<svg
   width="32"
   height="32"
   version="1.1"
   id="svg1"
   sodipodi:docname="drive-harddisk-symbolic.svg"
   inkscape:version="1.3.2 (091e20ef0f, 2023-11-25)"
   xmlns:inkscape="http://www.inkscape.org/namespaces/inkscape"
   xmlns:sodipodi="http://sodipodi.sourceforge.net/DTD/sodipodi-0.dtd"
   xmlns:xlink="http://www.w3.org/1999/xlink"
   xmlns="http://www.w3.org/2000/svg"
   xmlns:svg="http://www.w3.org/2000/svg">
  <defs
     id="defs1">
    <linearGradient
       id="linearGradient1"
       inkscape:collect="always">
      <stop
         style="stop-color:#cd87de;stop-opacity:1"
         offset="0"
         id="stop1" />
      <stop
         style="stop-color:#ffdd55;stop-opacity:1"
         offset="1"
         id="stop2" />
    </linearGradient>
    <linearGradient
       inkscape:collect="always"
       xlink:href="#linearGradient1"
       id="linearGradient2"
       x1="29.083769"
       y1="3.9790576"
       x2="46.413612"
       y2="27.518324"
       gradientUnits="userSpaceOnUse" />
  </defs>
  <sodipodi:namedview
     id="namedview1"
     pagecolor="#ffffff"
     bordercolor="#999999"
     borderopacity="1"
     inkscape:showpageshadow="2"
     inkscape:pageopacity="0"
     inkscape:pagecheckerboard="0"
     inkscape:deskcolor="#d1d1d1"
     inkscape:zoom="23.875"
     inkscape:cx="16"
     inkscape:cy="16"
     inkscape:window-width="1920"
     inkscape:window-height="996"
     inkscape:window-x="0"
     inkscape:window-y="0"
     inkscape:window-maximized="1"
     inkscape:current-layer="svg1" />
  <style
     type="text/css"
     id="current-color-scheme">.ColorScheme-Text { color: #fcfcfc; } </style>
  <g
     id="drive"
     transform="translate(-22,0)">
    <path
       id="path14"
       d="m22 0v32h32v-32z"
       fill="none" />
    <path
       id="path927"
       d="m29 4v24h18v-24zm5 1h8c2.209139 0 4 1.790861 4 4v3.054688c-1.162442.237281-1.998017 1.258902-2 2.445312.000129 1.187878.836122 2.211643 2 2.449219v4.050781l-4 4h-8l-4-4v-4.054688c1.162442-.237281 1.998017-1.258902 2-2.445312-.000129-1.187878-.836122-2.211643-2-2.449219v-3.050781c0-2.209139 1.790861-4 4-4zm-2 21h7v1h-7zm9 0h3v1h-3z"
       class="ColorScheme-Text"
       fill="currentColor"
       style="fill:url(#linearGradient2)" />
  </g>
</svg>
