<?xml version="1.0" encoding="UTF-8" standalone="no"?>
<svg
   viewBox="0 0 22 22"
   version="1.1"
   id="svg4"
   sodipodi:docname="plasma-browser-integration.svg"
   inkscape:version="1.3.2 (091e20ef0f, 2023-11-25)"
   xmlns:inkscape="http://www.inkscape.org/namespaces/inkscape"
   xmlns:sodipodi="http://sodipodi.sourceforge.net/DTD/sodipodi-0.dtd"
   xmlns:xlink="http://www.w3.org/1999/xlink"
   xmlns="http://www.w3.org/2000/svg"
   xmlns:svg="http://www.w3.org/2000/svg">
  <sodipodi:namedview
     id="namedview4"
     pagecolor="#ffffff"
     bordercolor="#000000"
     borderopacity="0.25"
     inkscape:showpageshadow="2"
     inkscape:pageopacity="0.0"
     inkscape:pagecheckerboard="0"
     inkscape:deskcolor="#d1d1d1"
     inkscape:zoom="17.431818"
     inkscape:cx="11.014342"
     inkscape:cy="7.6870926"
     inkscape:window-width="1920"
     inkscape:window-height="994"
     inkscape:window-x="0"
     inkscape:window-y="0"
     inkscape:window-maximized="1"
     inkscape:current-layer="svg4" />
  <defs
     id="defs3051">
    <linearGradient
       id="linearGradient4"
       inkscape:collect="always">
      <stop
         style="stop-color:#00ccff;stop-opacity:1"
         offset="0"
         id="stop4" />
      <stop
         style="stop-color:#5599ff;stop-opacity:1"
         offset="1"
         id="stop5" />
    </linearGradient>
    <style
       type="text/css"
       id="current-color-scheme">
      .ColorScheme-Text {
        color:#eff0f1;
      }
      </style>
    <linearGradient
       inkscape:collect="always"
       xlink:href="#linearGradient4"
       id="linearGradient5"
       x1="2"
       y1="15"
       x2="12"
       y2="15"
       gradientUnits="userSpaceOnUse"
       gradientTransform="matrix(0.94117648,0,0,0.94117648,1.117647,0.1764706)" />
    <linearGradient
       inkscape:collect="always"
       xlink:href="#linearGradient4"
       id="linearGradient7"
       x1="12"
       y1="8"
       x2="19"
       y2="8"
       gradientUnits="userSpaceOnUse"
       gradientTransform="matrix(0.94117648,0,0,0.94117648,1.117647,0.1764706)" />
  </defs>
  <path
     style="fill:url(#linearGradient5);fill-opacity:1;stroke:none;stroke-width:0.94118"
     d="M 7.705882,9.588235 C 5.1068953,9.588235 3,11.695122 3,14.29412 3,16.893107 5.1068953,19 7.705882,19 c 2.598987,0 4.705878,-2.106893 4.705878,-4.70588 0,-2.598998 -2.106891,-4.705885 -4.705878,-4.705885 z m 1.887869,1.470583 c 0.003,0.04553 -0.0379,0.04292 -0.04963,0.07353 0.0071,0.01963 0.04652,0.02613 0.04963,0.04963 -0.0039,0.02507 -0.05906,0.02188 -0.04963,0.04778 0.04236,0.0329 0.08316,0.008 0.123161,0 0.08784,-0.01097 0.166473,-0.0033 0.220588,-0.04778 0.318685,-0.145757 0,0.04167 0,0.07351 -0.01803,0.01253 -0.05471,0.07353 -0.07353,0.07353 -0.02274,0 -0.05706,-0.03044 -0.07353,-0.02574 -0.02355,0.008 -0.02301,0.04023 -0.04963,0.04963 -0.05176,0.0188 -0.15292,-0.02802 -0.170956,0.04963 0.02196,0.0447 0.107848,0.02272 0.147059,0.04778 0.02433,0.01567 0.06726,0.07263 0.07353,0.09927 0.0063,0.02193 0.0094,0.12353 0,0.14706 -0.02433,0.06277 -0.100646,0.04861 -0.172794,0.04778 h -0.04779 c -0.121556,-0.008 -0.2392173,-0.06136 -0.2941173,0.02574 0.0039,0.06663 0.01493,0.112924 0,0.170961 -0.01096,0.04236 -0.075883,0.08663 -0.073529,0.123159 8.626e-4,0.0188 0.043095,0.04689 0.047791,0.07353 0.00301,0.0141 -0.00632,0.03444 0,0.04778 0.020404,0.03843 0.063189,-0.0081 0.099265,0 0.03451,0.008 0.07353,0.06067 0.07353,0.09926 0,0.02747 -0.0085,0.07087 -0.02573,0.09742 -0.03451,0.0518 -0.09765,0.04533 -0.1470593,0.07353 -0.040762,0.0235 -0.04921,0.08266 -0.073525,0.123159 -0.02588,0.04397 -0.058006,0.05851 -0.047791,0.121327 -0.035286,0.06977 -0.07413,0.113334 -0.147059,0.14706 -0.021184,0.009 -0.053924,0.01164 -0.07353,0.02574 -0.015703,0.01097 -0.027653,0.04846 -0.049634,0.07353 -0.027437,0.0306 -0.058631,0.05003 -0.073527,0.07353 -0.010998,0.01807 -0.012164,0.04846 -0.023901,0.07353 -0.017253,0.03292 -0.051577,0.04046 -0.073531,0.07353 -0.010177,0.01567 -0.014782,0.05316 -0.025734,0.07353 -0.025105,0.04553 -0.052502,0.08131 -0.047791,0.121327 0.00392,0.03763 0.045443,0.03906 0.047791,0.07353 0.00219,0.0188 -0.024676,0.02843 -0.023901,0.04963 8.629e-4,0.02977 0.021566,0.05002 0.023901,0.07353 0.00553,0.05807 -0.03684,0.08349 -0.047791,0.123165 -0.00553,0.0188 0.0047,0.03212 0,0.04778 -0.00939,0.02903 -0.04885,0.06463 -0.049634,0.09927 -8.627e-4,0.02433 0.047299,0.03906 0.049634,0.07353 0.00173,0.02277 -0.03044,0.05159 -0.025734,0.07353 0.00867,0.04237 0.090226,0.08841 0.1231624,0.121323 0.044708,0.0447 0.1035597,0.07611 0.1231614,0.123163 0.016478,0.04 0.017229,0.117176 0.047791,0.147058 0.022734,0.02193 0.070251,0.02613 0.099265,0.04963 0.027437,0.0212 0.044514,0.02428 0.073527,0.04778 0.047839,0.03762 0.1187764,0.128651 0.194853,0.123164 0.039988,-0.0081 0.078463,-0.0418 0.1231625,-0.04963 0.04628,-0.008 0.1000043,-0.02786 0.1470583,-0.02389 0.03607,0.008 0.08552,0.02629 0.123162,0.02389 0.03921,-0.008 0.07662,-0.0046 0.121324,-0.02389 0.07765,-0.03373 0.206924,-0.08978 0.319852,-0.07353 0.08627,0.01253 0.08667,0.108627 0.147059,0.147059 0.06902,0.0081 0.11606,-0.01337 0.170956,0 0.04158,0.01023 0.09351,0.06482 0.09743,0.09742 0.004,0.03373 -0.0431,0.0779 -0.04779,0.09926 -0.01096,0.04551 0.0078,0.09227 0,0.121324 -0.0063,0.02277 -0.02651,0.05076 -0.02573,0.07353 0,0.02037 0.02844,0.07247 0.04963,0.09926 0.02588,0.03292 0.06605,0.06195 0.09743,0.09742 0.05724,0.0659 0.08316,0.133532 0.123163,0.220589 0.01019,0.02193 -0.0093,0.04532 0,0.07353 -0.01725,0.131687 -0.06079,0.221842 -0.14706,0.367646 -0.04077,0.04709 -0.09821,0.08833 -0.09743,0.147059 -0.003,0.141178 0.0798,0.231176 0.07353,0.367647 -0.0141,0.183453 0.01415,0.196157 0,0.294118 0.06196,0.03133 0.01803,0.131514 0,0.196692 -0.312941,1.083161 -3.1088883,1.525196 -4.0698536,0.906234 0.014108,-0.0188 0.094151,-0.01841 0.1231624,-0.02389 0.041583,-0.008 0.099635,-0.01478 0.1231614,-0.02574 0.02588,-0.0165 0.052502,-0.07297 0.047791,-0.121326 -0.00219,-0.02277 -0.029809,-0.02927 -0.047791,-0.04963 -0.014883,-0.01723 0.010177,-0.03313 0,-0.04963 -0.018806,-0.02747 -0.065686,-0.03352 -0.073527,-0.07353 0.056466,-0.01097 0.1390282,0.04851 0.2205883,0.02574 0.038437,-0.01097 0.1032834,-0.08704 0.1213232,-0.123161 0.00553,-0.01097 -0.00625,-0.03553 0,-0.04963 0.00712,-0.0141 0.023363,-0.03995 0.025734,-0.04778 0.00552,-0.0212 -0.0047,-0.01164 0,-0.02574 0.014107,-0.04 0.049999,-0.06897 0.073525,-0.09742 0.018028,-0.02193 0.057038,-0.05076 0.073529,-0.07353 0.018803,-0.02433 0.011389,-0.0277 0.023901,-0.04963 0.011772,-0.07134 -0.041154,-0.132184 -0.023901,-0.194854 0.018803,-0.0706 0.1266265,-0.114901 0.1948522,-0.147058 0.023509,-0.01097 0.053923,-0.01864 0.07353,-0.02574 0.047055,-0.0165 0.1031404,-0.03211 0.147059,-0.04778 0.073719,-0.02663 0.087084,-0.07967 0.1231614,-0.14706 0.017253,-0.03133 0.046482,-0.07625 0.049634,-0.09927 0.00301,-0.02037 -0.00393,-0.02345 0,-0.04778 0.00392,-0.02277 -0.00625,-0.04689 0,-0.07353 0.00866,-0.03375 0.023901,-0.109513 0.023901,-0.14708 0,-0.03133 -0.023123,-0.04533 -0.023901,-0.07353 -0.00553,-0.101957 0.035895,-0.09138 0.073526,-0.147056 0.018808,-0.02747 0.034505,-0.07955 0.047791,-0.09927 0.063524,-0.0941 0.1806368,-0.125639 0.1727945,-0.268384 -0.00301,-0.04707 -0.039037,-0.157892 -0.073529,-0.172794 -0.019624,-0.0082 -0.044513,-0.01366 -0.073526,-0.02389 -0.092545,-0.0345 -0.1737612,-0.139208 -0.2702202,-0.147051 h -0.049633 c -0.037662,0 -0.078973,-0.01842 -0.1213241,-0.02389 -0.026655,-0.008 -0.083583,0.008 -0.099265,0 -0.02433,-0.0118 -0.028213,-0.06016 -0.047791,-0.07353 -0.015703,-0.01097 -0.049217,-0.01708 -0.073526,-0.02574 -0.038438,-0.0141 -0.054562,-0.04465 -0.099265,-0.04778 -0.014107,0 -0.03212,0.0081 -0.047791,0 -0.02433,-0.008 -0.050792,-0.01164 -0.073529,-0.02574 -0.028215,-0.01723 -0.061767,-0.02345 -0.073527,-0.04778 0.02588,-0.08462 -0.056272,-0.09765 -0.073528,-0.14706 -0.00784,-0.02277 0.00784,-0.0789 0,-0.09927 -0.010177,-0.02903 -0.041369,-0.04919 -0.073527,-0.07353 -0.056466,-0.04392 -0.092016,-0.06338 -0.1727941,-0.07353 -0.036066,-0.0081 -0.078187,0.008 -0.1213236,0 -0.045487,-0.0081 -0.1125533,-0.03432 -0.1470589,-0.07353 -0.032957,-0.03842 -0.044517,-0.07926 -0.073527,-0.09741 -0.027436,-0.01723 -0.054708,-0.03157 -0.073527,-0.04963 -0.00867,-0.0081 -0.017882,-0.0062 -0.025734,-0.02389 -0.014107,-0.02903 -0.041154,-0.03823 -0.023901,-0.07353 -0.031361,-0.01567 -0.015913,0.02942 -0.049634,0.02389 -0.030586,-0.04313 -0.052312,-0.08606 -0.1213236,-0.07353 -0.031361,0.0081 -0.062405,0.07276 -0.099265,0.07353 -0.030586,0 -0.057429,-0.06726 -0.097426,-0.07353 -0.030586,-0.0079 -0.07625,0.02965 -0.097426,0.02574 -0.033732,-0.0079 -0.042963,-0.02927 -0.073527,-0.04963 -0.022734,-0.01493 -0.060982,-0.0504 -0.073527,-0.04963 -0.039213,0 -0.069051,0.07817 -0.1231619,0.04963 -0.026655,-0.03373 0.055282,-0.04219 0.023901,-0.07353 -0.023509,-0.02277 -0.02896,0.01292 -0.047791,0.02389 -0.021959,0.0141 -0.049217,0.01708 -0.073528,0.02574 -0.054118,0.02037 -0.1047109,0.02502 -0.1470589,0.04778 -0.039213,0.02037 -0.050789,0.03327 -0.073526,0.07353 -0.018028,0.0329 -0.046081,0.09769 -0.073526,0.09926 -0.032957,0 -0.043729,-0.03627 -0.073529,-0.04963 -0.090184,-0.03922 -0.146086,0.02232 -0.2205882,0.02389 -0.069018,0 -0.1759303,-0.105854 -0.1727942,-0.170952 0.00219,-0.04 0.021035,-0.09765 0.025734,-0.147059 0.00393,-0.03921 0.047062,-0.08736 0.047791,-0.123165 8.628e-4,-0.04867 -0.089956,-0.06799 -0.1213234,-0.07353 -0.073719,-0.01337 -0.1624087,0.0329 -0.2463236,0 -0.015703,-0.02663 0.016332,-0.04689 0.025734,-0.07353 0.00552,-0.0141 -0.00552,-0.03132 0,-0.04778 0.00939,-0.02507 0.061771,-0.04689 0.073526,-0.07353 0.00867,-0.02037 -0.00867,-0.04762 0,-0.07353 0.010177,-0.0282 0.04542,-0.05316 0.047791,-0.07353 0.00301,-0.02663 -0.026654,-0.05629 -0.047791,-0.07353 -0.065093,0.0079 -0.109413,0.0054 -0.1470587,0.02389 -0.084699,0.03843 -0.061572,0.14429 -0.147059,0.170961 -0.1658843,-0.363592 0.1959381,-0.597375 0.3676478,-0.832726 0.061177,0.0082 0.091378,-0.008 0.147059,0 0.037663,0.0081 0.091525,0.0465 0.1213233,0.04963 0.025105,0 0.026103,-0.02888 0.049634,-0.02574 0.023509,0.0081 0.069608,0.04532 0.073528,0.07353 0.00393,0.0353 -0.034123,0.08423 -0.023901,0.123168 0.036881,0.03763 0.1184103,0.05159 0.1709559,0.07353 0.034507,-0.02903 0.00552,-0.08238 0,-0.123159 -8.628e-4,-0.01807 0.00219,-0.05703 0,-0.07353 -0.00393,-0.0282 -0.023901,-0.04919 -0.023901,-0.07353 0,-0.112157 0.095668,-0.151008 0.1709558,-0.194852 0.032136,-0.0188 0.069197,-0.05942 0.097426,-0.07353 0.039988,-0.01963 0.066325,-0.0073 0.099265,-0.02574 0.059596,-0.03373 0.1007855,-0.08312 0.1470588,-0.121324 0.021184,-0.05097 -0.00219,-0.122593 0,-0.172795 0.021184,-0.01337 0.050807,0 0.073526,0 0.036067,-0.008 0.053135,-0.05316 0.073528,-0.07353 0.011774,-0.0118 0.033666,-0.01209 0.047791,-0.02389 0.036067,-0.0282 0.042149,-0.06099 0.073527,-0.07353 0.010997,-0.0081 0.032359,-0.01842 0.049634,-0.02389 0.023555,-0.008 0.059782,-0.01164 0.097426,-0.02574 0.02433,-0.0082 0.089849,-0.01366 0.099265,-0.02389 0.011773,-0.0118 -0.00301,-0.05546 0,-0.07353 0.018804,-0.08858 0.1413797,-0.09331 0.2205881,-0.123159 0.054897,-0.02037 0.1097832,-0.08449 0.1709558,-0.07353 -0.011772,0.04238 -0.059828,0.04822 -0.049634,0.09927 0.013333,0.07133 0.098064,-0.01551 0.1231621,-0.02574 0.047839,-0.02037 0.1339479,-0.05003 0.1966912,-0.07353 0.054897,-0.01963 0.1491826,-0.03425 0.097426,-0.09742 -0.043133,-0.0079 -0.059781,0.03397 -0.097426,0.04963 -0.02588,0.0079 -0.027689,-0.02334 -0.049634,-0.02574 -0.021184,0 -0.028432,0.02965 -0.049634,0.02574 -0.021184,-0.0081 -0.04466,-0.04762 -0.047791,-0.07353 -0.00867,-0.0659 0.04687,-0.07458 0.073525,-0.123168 -0.018028,-0.05963 -0.09687,-0.02613 -0.1470588,-0.04963 0.00552,-0.0353 0.031964,-0.06569 0.073531,-0.07353 0.033732,-0.008 0.1266676,0.008 0.1470587,0.02574 0.011774,0.01023 -0.017995,0.03132 0,0.04778 0.020403,0.01807 0.046865,0.008 0.073526,0 0.00939,-0.0447 -0.057477,-0.01875 -0.049634,-0.04778 0.053329,-0.03447 0.1554945,-0.01708 0.2205882,-0.02574 0.037662,-0.008 0.089437,-0.02972 0.1231622,-0.04778 0.031361,-0.01807 0.040586,-0.05551 0.073526,-0.02574 0.00939,0.03217 -0.00773,0.05629 -0.025734,0.07353 -0.060392,0.05337 -0.1239018,0.110913 -0.1709564,0.172793 0.029034,0.0282 0.074536,0.01844 0.1231622,0.02389 0.018806,0.008 0.053919,-0.0042 0.073527,0 0.023555,0.008 0.054703,-0.0079 0.07353,0 0.032957,0.008 0.040591,0.07353 0.073527,0.07353 0.053333,0 0.030609,-0.06195 0,-0.09742 0.00939,-0.03687 0.037269,-0.0732 0.023901,-0.09926 -0.02433,-0.04867 -0.1184556,0.01572 -0.123162,-0.04778 -0.00301,-0.03925 0.035509,-0.04376 0.049634,-0.07353 -0.00625,-0.0753 0.057477,-0.07885 0.049634,-0.14706 -0.00393,-0.0282 -0.030014,-0.023 -0.049634,-0.04963 -0.010177,-0.0141 -0.012164,-0.06256 -0.023901,-0.07353 -0.040762,-0.03452 -0.1184558,-0.008 -0.1231622,-0.07353 -0.00219,-0.03922 0.00552,-0.08109 0,-0.123159 1.0262582,-0.434779 2.0763234,0.0553 2.6231619,0.343803 z M 9.397059,10.887869 c -0.01446,0.008 -0.01117,0.01606 -0.0239,0.02389 -0.02981,0.01807 -0.05078,0.04097 -0.07353,0.04963 -0.03213,0.0118 -0.06882,0.01875 -0.07353,0.04778 -0.0039,0.02433 0.02472,0.02687 0.0239,0.04963 -0.01177,0.02903 -0.0176,0.03823 -0.0239,0.07353 0.03999,0.06507 0.1215513,-0.01369 0.1709563,-0.02389 0.02196,-0.008 0.03786,-0.0073 0.04963,-0.02574 0.01333,-0.0212 0.01375,-0.04359 0.0239,-0.07353 0.1364067,-0.09147 -0.05304,-0.08748 -0.07353,-0.12132 z m -4.1415446,0.636032 c 0.018808,0 0.025824,0.04807 0.047791,0.04963 0.021184,0 0.037059,-0.02702 0.049634,-0.02389 0.032957,0.0082 0.055283,0.07292 0.023901,0.09742 -0.02588,0.008 -0.029002,-0.02702 -0.047791,-0.02389 -0.053333,0.009 -0.083163,0.12446 -0.1231622,0.121327 -0.037662,-0.0081 -0.062342,-0.09384 -0.023901,-0.121327 8.626e-4,-0.0235 -0.0016,-0.0253 0,-0.04963 0.011772,-0.0141 0.042147,-0.05194 0.073526,-0.04964 z m 5.1213246,0.147059 c 0.214352,0.07391 0.309958,0.328026 0.441182,0.466905 0.280939,-0.24101 0.219544,0.374231 0.270228,0.538604 -0.04154,0.0079 -0.08983,-0.03627 -0.147051,-0.04963 -0.02349,-0.008 -0.05473,0.0081 -0.07353,0 -0.04313,-0.0141 -0.03666,-0.07127 -0.07353,-0.09742 -0.0212,-0.01493 -0.08943,-0.04567 -0.123164,-0.04963 -0.02119,0 -0.02585,0.0081 -0.04779,0 -0.02665,-0.0079 -0.0773,0.01097 -0.09926,0 -0.02119,-0.01337 -0.06803,-0.05546 -0.07353,-0.07353 -0.0087,-0.02903 0.07196,-0.04894 0.07353,-0.07353 0.0017,-0.0188 -0.01997,-0.04449 -0.0239,-0.07353 -0.003,-0.01723 0.0039,-0.03599 0,-0.04778 -0.0055,-0.02037 -0.04138,-0.02492 -0.07353,-0.02574 h -0.07353 c -0.03451,0 -0.103927,-0.0033 -0.147059,0 -0.02588,0 -0.04921,-0.0025 -0.07353,0 -0.06823,0.0079 -0.117625,-0.0081 -0.170956,0 -0.03844,0 -0.110984,0.03313 -0.147059,0.04963 -0.01803,0.0082 -0.0261,0.01211 -0.04963,0.02389 -0.01096,0.008 -0.03548,0.01948 -0.04963,0.02574 -0.02195,0.01023 -0.05235,0.04152 -0.07353,0.04778 -0.03058,0.0078 -0.06565,-0.0082 -0.121323,0 -0.03998,0 -0.09848,-0.02569 -0.09927,-0.07353 -8.63e-4,-0.0729 0.12768,-0.03447 0.196691,-0.04778 0.02588,-0.0081 0.04214,-0.03083 0.07353,-0.04963 0.01493,-0.0082 0.0098,-0.01449 0.0239,-0.02389 0.02351,-0.0165 0.06961,-0.05472 0.07353,-0.07353 0.003,-0.01723 -0.0024,-0.03627 0,-0.04963 0.003,-0.0165 0.02845,-0.0277 0.04963,-0.04963 0.03296,-0.0329 0.05664,-0.07606 0.09743,-0.09742 0.02744,-0.0141 0.06098,-0.02687 0.07353,-0.04963 0.003,-0.02507 -8.62e-4,-0.02428 0,-0.04778 0.01725,-0.01567 0.03553,-0.02261 0.04963,-0.02574 0.04236,-0.009 0.07376,0.0025 0.123162,0 0.02118,0 0.05078,0.01023 0.07353,0 0.01881,-0.01253 0.02897,-0.03838 0.04779,-0.04778 0.0204,-0.01097 0.04841,-0.02418 0.07353,-0.02574 z m 0.441174,0.466904 h -0.09742 c -0.0345,0 -0.07704,-0.01807 -0.09743,0 0.02904,0.0471 0.08197,0.06173 0.147059,0.07353 0.0235,-0.01723 0.03684,-0.04351 0.04779,-0.07353 z m -5.3676454,-0.44117 h 0.073526 c 0.019624,0 0.041792,-0.0081 0.049634,0 -0.012554,0.0518 -0.1301739,0.04269 -0.1709557,0.02389 0.00219,-0.01963 0.022668,-0.02076 0.047796,-0.02389 z m -0.1709556,0.09742 c -0.034262,0.02488 -0.068783,0.05657 -0.1231624,0.07353 -0.029811,0.009 -0.06804,0.0086 -0.073525,-0.02389 -0.00629,-0.04081 0.046852,-0.02178 0.073525,-0.02574 0.034507,-0.008 0.083163,-0.02232 0.1231624,-0.0239 z m 5.097427,0 c -0.02588,0.0082 -0.03844,0.06569 0,0.07353 0.01803,-0.01097 0.03048,-0.03979 0.02573,-0.07353 -0.01018,-0.01097 -0.01792,-0.0081 -0.02573,0 z m -0.04779,0.123159 c 8.62e-4,0.04393 0.0087,0.08321 0,0.121327 0.0251,0.04867 0.08488,0.0086 0.09743,-0.02389 0.01493,-0.08157 -0.01198,-0.107619 -0.04963,-0.09742 -0.01255,0.008 -0.0345,-0.01023 -0.04779,-10e-7 z m -6.3731628,1.959562 c 0.019624,0.01023 0.048429,0.01948 0.073529,0.02574 0.020402,0.0079 0.030032,-0.0067 0.049634,0 0.041583,0.0141 0.08839,0.03286 0.1213233,0.04778 0.050192,0.02193 0.1039217,0.09807 0.147059,0.123162 0.00219,0.02507 -0.00784,0.05473 0,0.07353 0.020402,0.02747 0.040582,0.05473 0.073525,0.07353 0.039988,0.02193 0.061624,0.05613 0.099265,0.07353 0.013333,0.008 0.027374,-0.0081 0.047791,0 0.051759,0.01567 0.078462,0.08672 0.1231622,0.07353 0.029034,-0.0082 0.019195,-0.04533 0.023901,-0.07353 0.019624,-0.0212 0.042922,-0.04963 0.073526,-0.04963 0.048618,0 0.055487,0.07566 0.073529,0.123159 0.010177,0.02663 0.042604,0.04533 0.049634,0.07353 0.011772,0.04867 0.010177,0.191562 0,0.220585 -0.012557,0.03605 -0.06762,0.03411 -0.097426,0.07353 -0.014107,0.0188 -0.014782,0.06016 -0.025734,0.07353 -0.018803,0.02277 -0.033662,0.0277 -0.047791,0.04963 -0.00784,0.0118 -0.018703,0.03128 -0.025734,0.04778 -0.023555,0.05023 -0.067416,0.08668 -0.047791,0.14706 0.00784,0.02433 0.047791,0.04449 0.047791,0.07353 0,0.03453 -0.068041,0.0615 -0.073527,0.09927 -0.00393,0.02747 0.017153,0.0608 0.025734,0.09742 0.00625,0.02747 0.057056,0.05546 0.073525,0.07353 0.027439,0.0306 0.048429,0.08431 0.07353,0.123165 0.049403,0.07606 0.07271,0.169972 0.1213232,0.244485 0.02588,0.03843 0.082008,0.05693 0.099265,0.09743 0.00867,0.02037 -0.00784,0.05473 0,0.07353 0.028215,0.0635 0.1570645,0.141503 0.220588,0.172793 0.029811,0.01493 0.069986,0.0081 0.097426,0.02389 0.041583,0.0235 0.125887,0.08663 0.147059,0.123159 0.018806,0.0329 0.014489,0.118485 0.023901,0.170956 0.011773,0.06903 -0.00301,0.122101 0,0.196689 0.00219,0.04079 0.025734,0.05693 0.025734,0.09742 0,0.0141 8.626e-4,0.05859 0,0.07353 -8.627e-4,0.04867 0.00392,0.09764 0,0.147057 -0.00219,0.02663 -0.00173,0.05076 0,0.07353 0.00219,0.02433 0.022341,0.0277 0.023901,0.04963 0.00173,0.02277 -0.026272,0.05546 -0.023901,0.07353 0.00552,0.0494 0.03838,0.07579 0.047791,0.121326 0.00784,0.03605 0.03044,0.129658 0.025734,0.172793 C 4.7766387,17.597495 3.9443278,14.749983 3.9558803,13.87678 Z m 1.3970588,0.29412 c 0.037662,-0.01723 0.030586,0.0441 0,0.04963 -0.029032,0.0081 -0.028215,-0.03553 0,-0.04963 z"
     class="ColorScheme-Text"
     id="path1" />
  <path
     style="fill:url(#linearGradient7);fill-opacity:1;stroke:none;stroke-width:0.94118"
     d="m 14.29412,3 -1.88236,1.882353 2.82353,2.823529 -2.82353,2.823528 1.88236,1.88235 L 17.11765,9.588235 19,7.705882 Z"
     class="ColorScheme-Text"
     id="path2" />
  <path
     style="fill:#00ccff;fill-opacity:1;stroke:none;stroke-width:0.94118"
     d="M 7.235294,3 C 6.453176,3 5.823529,3.629647 5.823529,4.411765 c 0,0.782117 0.629647,1.411764 1.411765,1.411764 0.782118,0 1.411765,-0.629647 1.411765,-1.411764 C 8.647059,3.629647 8.017412,3 7.235294,3 Z"
     class="ColorScheme-Text"
     id="path3" />
  <path
     style="fill:#5599ff;fill-opacity:1;stroke:none;stroke-width:0.94118"
     d="M 3.941176,7.705882 C 3.419765,7.705882 3,8.125647 3,8.647059 c 0,0.521412 0.419765,0.941176 0.941176,0.941176 0.521412,0 0.941177,-0.419764 0.941177,-0.941176 0,-0.521412 -0.419765,-0.941177 -0.941177,-0.941177 z"
     class="ColorScheme-Text"
     id="path4" />
</svg>
