<?xml version="1.0" encoding="UTF-8" standalone="no"?>
<svg
   viewBox="0 0 24 24"
   width="24"
   height="24"
   version="1.1"
   id="svg3"
   sodipodi:docname="drive-harddisk-encrypted.svg"
   inkscape:version="1.3.2 (091e20ef0f, 2023-11-25)"
   xmlns:inkscape="http://www.inkscape.org/namespaces/inkscape"
   xmlns:sodipodi="http://sodipodi.sourceforge.net/DTD/sodipodi-0.dtd"
   xmlns="http://www.w3.org/2000/svg"
   xmlns:svg="http://www.w3.org/2000/svg">
  <defs
     id="defs3" />
  <sodipodi:namedview
     id="namedview3"
     pagecolor="#ffffff"
     bordercolor="#999999"
     borderopacity="1"
     inkscape:showpageshadow="2"
     inkscape:pageopacity="0"
     inkscape:pagecheckerboard="0"
     inkscape:deskcolor="#d1d1d1"
     inkscape:zoom="31.833333"
     inkscape:cx="12"
     inkscape:cy="12"
     inkscape:window-width="1920"
     inkscape:window-height="996"
     inkscape:window-x="0"
     inkscape:window-y="0"
     inkscape:window-maximized="1"
     inkscape:current-layer="svg3" />
  <style
     type="text/css"
     id="current-color-scheme">.ColorScheme-Text { color: #fcfcfc; } </style>
  <g
     transform="translate(1,1)"
     id="g3">
    <g
       fill="currentColor"
       class="ColorScheme-Text"
       id="g2">
      <path
         d="m5 3v16h12v-16zm4 1h4a3 3 0 0 1 3 3v2.088a1.5 1.5 0 0 0 -1 1.412 1.5 1.5 0 0 0 1 1.412v2.088l-2 2h-6l-2-2v-2.088a1.5 1.5 0 0 0 1-1.412 1.5 1.5 0 0 0 -1-1.412v-2.088a3 3 0 0 1 3-3zm-2 13h4v1h-4zm6 0h2v1h-2z"
         id="path1"
         style="fill:#d35f8d" />
      <path
         d="m11 6a2 2 0 0 0 -2 2v2h-1v4h6v-4h-1v-2a2 2 0 0 0 -2-2zm0 1a1 1 0 0 1 1 1v2h-2v-2a1 1 0 0 1 1-1z"
         id="path2"
         style="fill:#c83771" />
    </g>
  </g>
</svg>
