<?xml version="1.0" encoding="UTF-8" standalone="no"?>
<svg
   viewBox="0 0 16 16"
   version="1.1"
   id="svg1"
   sodipodi:docname="media-optical-video.svg"
   inkscape:version="1.3.2 (091e20ef0f, 2023-11-25)"
   xmlns:inkscape="http://www.inkscape.org/namespaces/inkscape"
   xmlns:sodipodi="http://sodipodi.sourceforge.net/DTD/sodipodi-0.dtd"
   xmlns:xlink="http://www.w3.org/1999/xlink"
   xmlns="http://www.w3.org/2000/svg"
   xmlns:svg="http://www.w3.org/2000/svg">
  <sodipodi:namedview
     id="namedview1"
     pagecolor="#ffffff"
     bordercolor="#999999"
     borderopacity="1"
     inkscape:showpageshadow="2"
     inkscape:pageopacity="0"
     inkscape:pagecheckerboard="0"
     inkscape:deskcolor="#d1d1d1"
     inkscape:zoom="47.75"
     inkscape:cx="8"
     inkscape:cy="8"
     inkscape:window-width="1920"
     inkscape:window-height="996"
     inkscape:window-x="0"
     inkscape:window-y="0"
     inkscape:window-maximized="1"
     inkscape:current-layer="svg1" />
  <defs
     id="defs3051">
    <linearGradient
       id="linearGradient1"
       inkscape:collect="always">
      <stop
         style="stop-color:#ffe680;stop-opacity:1"
         offset="0"
         id="stop1" />
      <stop
         style="stop-color:#ff61ff;stop-opacity:1;"
         offset="1"
         id="stop2" />
    </linearGradient>
    <style
       type="text/css"
       id="current-color-scheme">.ColorScheme-Text { color: #fcfcfc; } </style>
    <linearGradient
       inkscape:collect="always"
       xlink:href="#linearGradient1"
       id="linearGradient2"
       x1="2"
       y1="8"
       x2="14"
       y2="8"
       gradientUnits="userSpaceOnUse" />
  </defs>
  <path
     style="opacity:1;fill:url(#linearGradient2);fill-opacity:1;stroke:none"
     d="M 8 2 C 4.6862915 2 2 4.6862915 2 8 C 2 11.313708 4.6862915 14 8 14 L 8 13 C 5.2385763 13 3 10.761424 3 8 C 3 5.2385763 5.2385763 3 8 3 C 10.761424 3 13 5.2385763 13 8 L 14 8 C 14 4.6862915 11.313708 2 8 2 z M 8 6 C 6.8954305 6 6 6.8954305 6 8 C 6 9.1045695 6.8954305 10 8 10 L 8 9 C 7.4477153 9 7 8.5522847 7 8 C 7 7.4477153 7.4477153 7 8 7 C 8.5522847 7 9 7.4477153 9 8 L 10 8 C 10 6.8954305 9.1045695 6 8 6 z M 9.5 9 C 8.6715729 9 8 9.6715729 8 10.5 C 8 11.155838 8.413588 11.70241 9 11.90625 L 9 14 L 13 14 L 13 12 C 13.552285 12 14 11.552285 14 11 C 14 10.447715 13.552285 10 13 10 C 12.447715 10 12 10.447715 12 11 L 10.90625 11 C 10.959892 10.845681 11 10.672589 11 10.5 C 11 9.6715729 10.328427 9 9.5 9 z M 10 12 L 12 12 L 12 13 L 10 13 L 10 12 z "
     class="ColorScheme-Text"
     id="path1" />
</svg>
