<?xml version="1.0" encoding="UTF-8" standalone="no"?>
<svg
   viewBox="0 0 24 24"
   width="24"
   height="24"
   version="1.1"
   id="svg4"
   sodipodi:docname="network-wireless-hotspot.svg"
   inkscape:version="1.3.2 (091e20ef0f, 2023-11-25)"
   xmlns:inkscape="http://www.inkscape.org/namespaces/inkscape"
   xmlns:sodipodi="http://sodipodi.sourceforge.net/DTD/sodipodi-0.dtd"
   xmlns="http://www.w3.org/2000/svg"
   xmlns:svg="http://www.w3.org/2000/svg">
  <defs
     id="defs4" />
  <sodipodi:namedview
     id="namedview4"
     pagecolor="#ffffff"
     bordercolor="#999999"
     borderopacity="1"
     inkscape:showpageshadow="2"
     inkscape:pageopacity="0"
     inkscape:pagecheckerboard="0"
     inkscape:deskcolor="#d1d1d1"
     inkscape:zoom="31.833333"
     inkscape:cx="12"
     inkscape:cy="12"
     inkscape:window-width="1920"
     inkscape:window-height="996"
     inkscape:window-x="0"
     inkscape:window-y="0"
     inkscape:window-maximized="1"
     inkscape:current-layer="svg4" />
  <style
     type="text/css"
     id="current-color-scheme">.ColorScheme-Text { color: #fcfcfc; } </style>
  <g
     transform="translate(1,1)"
     id="g4">
    <g
       class="ColorScheme-Text"
       fill="currentColor"
       fill-rule="evenodd"
       id="g3">
      <path
         d="m11 3c-4.433594 0-8 3.566406-8 8 0 1.960938.699219 3.75 1.863281 5.140625l.710938-.710937c-.984375-1.207032-1.574219-2.746094-1.574219-4.429688 0-3.878906 3.121094-7 7-7s7 3.121094 7 7c0 1.683594-.589844 3.222656-1.574219 4.429688l.714844.710937c1.160156-1.390625 1.859375-3.179687 1.859375-5.140625 0-4.433594-3.566406-8-8-8zm0 3c-2.769531 0-5 2.230469-5 5 0 1.128906.382812 2.15625 1.007812 2.992188l.710938-.707032c-.453125-.648437-.71875-1.433594-.71875-2.285156 0-2.214844 1.785156-4 4-4s4 1.785156 4 4c0 .851562-.265625 1.636719-.71875 2.285156l.710938.707032c.625-.835938 1.007812-1.863282 1.007812-2.992188 0-2.769531-2.230469-5-5-5z"
         id="path1"
         style="fill:#00ccff" />
      <path
         d="m11 9c-1.109375 0-2 .890625-2 2s.890625 2 2 2 2-.890625 2-2-.890625-2-2-2zm0 1c.554688 0 1 .445312 1 1s-.445312 1-1 1-1-.445312-1-1 .445312-1 1-1z"
         id="path2"
         style="fill:#00ffcc" />
      <path
         d="m10 12h2v7h-2z"
         id="path3"
         style="fill:#00ffcc" />
    </g>
  </g>
</svg>
