<?xml version="1.0" encoding="UTF-8" standalone="no"?>
<svg
   version="1.1"
   viewBox="0 0 16 16"
   id="svg1"
   sodipodi:docname="phone-apple-iphone-symbolic.svg"
   inkscape:version="1.3.2 (091e20ef0f, 2023-11-25)"
   xmlns:inkscape="http://www.inkscape.org/namespaces/inkscape"
   xmlns:sodipodi="http://sodipodi.sourceforge.net/DTD/sodipodi-0.dtd"
   xmlns="http://www.w3.org/2000/svg"
   xmlns:svg="http://www.w3.org/2000/svg">
  <sodipodi:namedview
     id="namedview1"
     pagecolor="#ffffff"
     bordercolor="#999999"
     borderopacity="1"
     inkscape:showpageshadow="2"
     inkscape:pageopacity="0"
     inkscape:pagecheckerboard="0"
     inkscape:deskcolor="#d1d1d1"
     inkscape:zoom="47.75"
     inkscape:cx="8"
     inkscape:cy="8"
     inkscape:window-width="1920"
     inkscape:window-height="996"
     inkscape:window-x="0"
     inkscape:window-y="0"
     inkscape:window-maximized="1"
     inkscape:current-layer="svg1" />
  <defs
     id="defs1">
    <style
       id="current-color-scheme"
       type="text/css">.ColorScheme-Text { color: #fcfcfc; } </style>
  </defs>
  <path
     id="smartphone"
     class="ColorScheme-Text"
     d="m6 2c-0.96855 0-2 1.0314-2 2v8c0 0.96855 1.0314 2 2 2h4c0.96855 0 2-1.0314 2-2v-8c0-0.96855-1.0314-2-2-2h-0.5-3-0.5zm0 1a0.5 0.5 0 0 1 0.5 0.47461v0.025391c0 0.277 0.223 0.5 0.5 0.5h2c0.277 0 0.5-0.223 0.5-0.5a0.5 0.5 0 0 1 0.5-0.5c0.56208 0 1 0.43788 1 1v8c0 0.56208-0.43788 1-1 1h-4c-0.56208 0-1-0.43788-1-1v-8c0-0.56208 0.43788-1 1-1zm0.5 8c-0.277 0-0.5 0.223-0.5 0.5s0.223 0.5 0.5 0.5h3c0.277 0 0.5-0.223 0.5-0.5s-0.223-0.5-0.5-0.5h-3z"
     fill="currentColor"
     style="fill:#00ccff" />
</svg>
