<?xml version="1.0" encoding="UTF-8" standalone="no"?>
<!-- Generator: Gravit.io -->

<svg
   style="isolation:isolate"
   viewBox="0 0 16 16"
   width="16pt"
   height="16pt"
   version="1.1"
   id="svg2"
   sodipodi:docname="battery-ups.svg"
   inkscape:version="1.3.1 (91b66b0783, 2023-11-16)"
   xmlns:inkscape="http://www.inkscape.org/namespaces/inkscape"
   xmlns:sodipodi="http://sodipodi.sourceforge.net/DTD/sodipodi-0.dtd"
   xmlns:xlink="http://www.w3.org/1999/xlink"
   xmlns="http://www.w3.org/2000/svg"
   xmlns:svg="http://www.w3.org/2000/svg">
  <defs
     id="defs2">
    <linearGradient
       id="linearGradient2"
       inkscape:collect="always">
      <stop
         style="stop-color:#00b2b2;stop-opacity:1;"
         offset="0"
         id="stop3" />
      <stop
         style="stop-color:#00d455;stop-opacity:1"
         offset="1"
         id="stop4" />
    </linearGradient>
    <linearGradient
       inkscape:collect="always"
       xlink:href="#linearGradient2"
       id="linearGradient4"
       x1="6"
       y1="24.5"
       x2="42"
       y2="24.5"
       gradientUnits="userSpaceOnUse"
       gradientTransform="matrix(0.27777777,0,0,0.30232558,1.3333338,0.5930233)" />
  </defs>
  <sodipodi:namedview
     id="namedview2"
     pagecolor="#ffffff"
     bordercolor="#000000"
     borderopacity="0.25"
     inkscape:showpageshadow="2"
     inkscape:pageopacity="0.0"
     inkscape:pagecheckerboard="0"
     inkscape:deskcolor="#d1d1d1"
     inkscape:document-units="pt"
     inkscape:zoom="5.9921875"
     inkscape:cx="64.41721"
     inkscape:cy="15.269883"
     inkscape:window-width="1920"
     inkscape:window-height="994"
     inkscape:window-x="0"
     inkscape:window-y="0"
     inkscape:window-maximized="1"
     inkscape:current-layer="svg2" />
  <linearGradient
     id="_lgradient_27"
     x1="0"
     y1="0.5"
     x2="1"
     y2="0.5"
     gradientTransform="matrix(36,0,0,43,6,3)"
     gradientUnits="userSpaceOnUse">
    <stop
       offset="0%"
       stop-opacity="1"
       style="stop-color:#00d455;stop-opacity:1"
       id="stop1" />
    <stop
       offset="0.97826087"
       stop-opacity="1"
       style="stop-color:#00caca;stop-opacity:1;"
       id="stop2" />
  </linearGradient>
  <path
     d="M 6.8888876,3.0116279 V 2.7093023 H 9.111113 V 3.0116279 Z M 4.3888887,7.8488372 c 0,-0.3337674 0.2488889,-0.6046512 0.5555562,-0.6046512 0.3066663,0 0.555555,0.2708838 0.555555,0.6046512 0,0.3337675 -0.2488887,0.6046512 -0.555555,0.6046512 -0.3066673,0 -0.5555562,-0.2708837 -0.5555562,-0.6046512 z m 6.1111113,0 c 0,-0.3337674 0.248887,-0.6046512 0.555551,-0.6046512 0.306673,0 0.555561,0.2708838 0.555561,0.6046512 0,0.3337675 -0.248888,0.6046512 -0.555561,0.6046512 C 10.748887,8.4534884 10.5,8.1826047 10.5,7.8488372 Z m 1.388888,0 V 7.244186 4.8255814 C 11.888888,4.491814 11.64,4.2209302 11.333336,4.2209302 H 4.6666664 c -0.3066665,0 -0.5555552,0.2708838 -0.5555552,0.6046512 V 7.244186 7.8488372 8.4534884 12.686047 c 0,0.333767 0.2488887,0.604651 0.5555552,0.604651 h 6.6666696 c 0.306664,0 0.555552,-0.270884 0.555552,-0.604651 V 8.4534884 Z m 1.111112,0 V 7.244186 4.2209302 C 13,3.5533953 12.502223,3.0116279 11.888888,3.0116279 H 10.222224 V 2.1046512 C 10.222224,1.7708837 9.973336,1.5 9.666664,1.5 H 6.3333336 c -0.3066673,0 -0.555556,0.2708837 -0.555556,0.6046512 v 0.9069767 0 0 0 H 4.1111112 C 3.4977776,3.0116279 3,3.5533953 3,4.2209302 V 7.244186 7.8488372 8.4534884 13.290698 C 3,13.958233 3.4977776,14.5 4.1111112,14.5 H 11.888888 C 12.502223,14.5 13,13.958233 13,13.290698 V 8.4534884 Z M 7.550552,5.5599302 v 0 C 7.7275,5.2062093 7.871664,4.917186 7.871664,4.9147674 v 0 c 2.84e-4,-0.00242 0.05,0.00514 0.111112,0.01693 v 0 l -0.131664,3.0891628 1.948051,0.069837 c 0.369725,0.013 0.52695,0.3113953 0.350836,0.6654188 l -1.590275,3.200117 -0.320837,0.64093 v 0 l 0.0036,-0.03598 0.01694,-3.065884 -1.9480543,-0.06954 C 5.9413888,9.412465 5.7841663,9.11407 5.96,8.760047 Z"
     fill-rule="evenodd"
     id="path2"
     style="fill:url(#linearGradient4);stroke-width:0.289792" />
</svg>
