<?xml version="1.0" encoding="UTF-8" standalone="no"?>
<svg
   viewBox="0 0 16 16"
   version="1.1"
   id="svg2"
   sodipodi:docname="auth-sim-locked.svg"
   inkscape:version="1.3.2 (091e20ef0f, 2023-11-25)"
   xmlns:inkscape="http://www.inkscape.org/namespaces/inkscape"
   xmlns:sodipodi="http://sodipodi.sourceforge.net/DTD/sodipodi-0.dtd"
   xmlns="http://www.w3.org/2000/svg"
   xmlns:svg="http://www.w3.org/2000/svg">
  <defs
     id="defs2" />
  <sodipodi:namedview
     id="namedview2"
     pagecolor="#ffffff"
     bordercolor="#999999"
     borderopacity="1"
     inkscape:showpageshadow="2"
     inkscape:pageopacity="0"
     inkscape:pagecheckerboard="0"
     inkscape:deskcolor="#d1d1d1"
     inkscape:zoom="47.75"
     inkscape:cx="8"
     inkscape:cy="8"
     inkscape:window-width="1920"
     inkscape:window-height="996"
     inkscape:window-x="0"
     inkscape:window-y="0"
     inkscape:window-maximized="1"
     inkscape:current-layer="svg2" />
  <style
     type="text/css"
     id="current-color-scheme">.ColorScheme-Text { color: #fcfcfc; } </style>
  <g
     class="ColorScheme-Text"
     fill="currentColor"
     id="g2">
    <path
       d="m3 2v12h6v-1h-2v-2h2v-1h-3.2929688l-1-1h-.7070312v-1h.7070312l1-1h5.2929688v-.7070312l-.292969-.2929688h-.707031v-2h1c.554 0 1 .446 1 1v2h1v-2.7070312l-2.292969-2.2929688zm2 2h1v2h-.7070312l-1.2929688 1.2929688v-2.2929688c0-.554.446-1 1-1zm2 0h2v2h-2zm-3 5.7070312 1.2929688 1.2929688h.7070312v2h-1c-.554 0-1-.446-1-1z"
       id="path1" />
    <path
       d="m12.5 8.0000004a1.5 1.5 0 0 0 -1.5 1.5v1.4999996h-1v3h5v-3h-1v-1.4999996a1.5 1.5 0 0 0 -1.5-1.5zm0 1a.5.5 0 0 1 .5.5v1.4999996h-1v-1.4999996a.5.5 0 0 1 .5-.5z"
       fill-rule="evenodd"
       id="path2"
       style="fill:#c83771" />
  </g>
</svg>
