<?xml version="1.0" encoding="UTF-8" standalone="no"?>
<svg
   id="svg7"
   version="1.1"
   viewBox="0 0 16 16"
   sodipodi:docname="call-missed.svg"
   inkscape:version="1.3.2 (091e20ef0f, 2023-11-25)"
   xmlns:inkscape="http://www.inkscape.org/namespaces/inkscape"
   xmlns:sodipodi="http://sodipodi.sourceforge.net/DTD/sodipodi-0.dtd"
   xmlns="http://www.w3.org/2000/svg"
   xmlns:svg="http://www.w3.org/2000/svg">
  <defs
     id="defs1" />
  <sodipodi:namedview
     id="namedview1"
     pagecolor="#ffffff"
     bordercolor="#999999"
     borderopacity="1"
     inkscape:showpageshadow="2"
     inkscape:pageopacity="0"
     inkscape:pagecheckerboard="0"
     inkscape:deskcolor="#d1d1d1"
     inkscape:zoom="47.75"
     inkscape:cx="8"
     inkscape:cy="8"
     inkscape:window-width="1920"
     inkscape:window-height="996"
     inkscape:window-x="0"
     inkscape:window-y="0"
     inkscape:window-maximized="1"
     inkscape:current-layer="svg7" />
  <style
     id="current-color-scheme"
     type="text/css">.ColorScheme-Text{color:#232629;}.ColorScheme-NegativeText { color: #da4453; } </style>
  <path
     id="path5"
     class="ColorScheme-NegativeText"
     d="m3.5 2.7929688-.7070312.7070312 5.2070312 5.207031 5-4.9999998v2.2929688h1v-4h-4v1h2.292969l-4.292969 4.292969z"
     fill="currentColor" />
  <path
     id="rect850-9-2-9"
     d="m6 10c-1.637054 0-3.089012 0.791082-4 2v1.5c0 0.277 0.223 0.5 0.5 0.5h2c0.277 0 0.5-0.223 0.5-0.5v-0.5c0-0.554 0.446-1 1-1h4c0.554 0 1 0.446 1 1v0.5c0 0.277 0.223 0.5 0.5 0.5h2c0.277 0 0.5-0.223 0.5-0.5v-1.5c-0.910988-1.208918-2.362946-2-4-2z"
     class="ColorScheme-Text"
     fill="currentColor"
     fill-rule="evenodd"
     style="fill:#c83771" />
</svg>
