<?xml version="1.0" encoding="UTF-8" standalone="no"?>
<svg
   viewBox="0 0 16 16"
   version="1.1"
   id="svg1"
   sodipodi:docname="document-decrypt.svg"
   inkscape:version="1.3.2 (091e20ef0f, 2023-11-25)"
   xmlns:inkscape="http://www.inkscape.org/namespaces/inkscape"
   xmlns:sodipodi="http://sodipodi.sourceforge.net/DTD/sodipodi-0.dtd"
   xmlns="http://www.w3.org/2000/svg"
   xmlns:svg="http://www.w3.org/2000/svg">
  <sodipodi:namedview
     id="namedview1"
     pagecolor="#ffffff"
     bordercolor="#999999"
     borderopacity="1"
     inkscape:showpageshadow="2"
     inkscape:pageopacity="0"
     inkscape:pagecheckerboard="0"
     inkscape:deskcolor="#d1d1d1"
     inkscape:zoom="47.75"
     inkscape:cx="8"
     inkscape:cy="8"
     inkscape:window-width="1920"
     inkscape:window-height="996"
     inkscape:window-x="0"
     inkscape:window-y="0"
     inkscape:window-maximized="1"
     inkscape:current-layer="svg1" />
  <defs
     id="defs3051">
    <style
       type="text/css"
       id="current-color-scheme">.ColorScheme-Text { color: #fcfcfc; } </style>
  </defs>
  <path
     style="fill:#00ccff;fill-opacity:1;stroke:none"
     d="M 8 2 C 6.3431375 2 5 3.3431371 5 5 L 5 6 L 6 6 L 6 5 C 6 3.8954305 6.8954305 3 8 3 C 9.1045695 3 10 3.8954305 10 5 L 10 8 L 7 8 L 6 8 L 5 8 L 3 8 L 3 14 L 13 14 L 13 8 L 11 8 L 11 5 C 11 3.3431371 9.6568625 2 8 2 z M 4 9 L 12 9 L 12 13 L 4 13 L 4 9 z "
     class="ColorScheme-Text"
     id="path1" />
</svg>
