<?xml version="1.0" encoding="UTF-8" standalone="no"?>
<svg
   viewBox="0 0 16 16"
   version="1.1"
   id="svg1"
   sodipodi:docname="tools-media-optical-burn.svg"
   inkscape:version="1.3.2 (091e20ef0f, 2023-11-25)"
   xmlns:inkscape="http://www.inkscape.org/namespaces/inkscape"
   xmlns:sodipodi="http://sodipodi.sourceforge.net/DTD/sodipodi-0.dtd"
   xmlns:xlink="http://www.w3.org/1999/xlink"
   xmlns="http://www.w3.org/2000/svg"
   xmlns:svg="http://www.w3.org/2000/svg">
  <sodipodi:namedview
     id="namedview1"
     pagecolor="#ffffff"
     bordercolor="#999999"
     borderopacity="1"
     inkscape:showpageshadow="2"
     inkscape:pageopacity="0"
     inkscape:pagecheckerboard="0"
     inkscape:deskcolor="#d1d1d1"
     inkscape:zoom="47.75"
     inkscape:cx="8"
     inkscape:cy="8"
     inkscape:window-width="1920"
     inkscape:window-height="996"
     inkscape:window-x="0"
     inkscape:window-y="0"
     inkscape:window-maximized="1"
     inkscape:current-layer="svg1" />
  <defs
     id="defs3051">
    <linearGradient
       id="linearGradient1"
       inkscape:collect="always">
      <stop
         style="stop-color:#2ad4ff;stop-opacity:1"
         offset="0"
         id="stop1" />
      <stop
         style="stop-color:#d35f8d;stop-opacity:1"
         offset="1"
         id="stop2" />
    </linearGradient>
    <style
       type="text/css"
       id="current-color-scheme">.ColorScheme-Text { color: #fcfcfc; } </style>
    <linearGradient
       inkscape:collect="always"
       xlink:href="#linearGradient1"
       id="linearGradient2"
       x1="2.1884816"
       y1="2.1151834"
       x2="13.874346"
       y2="13.696335"
       gradientUnits="userSpaceOnUse" />
  </defs>
  <path
     style="fill:url(#linearGradient2);fill-opacity:1;stroke:none"
     d="M8 2A6 6.00001 0 0 0 2 8 6 6.00001 0 0 0 8 14 6 6.00001 0 0 0 9 13.910156V12.895A5 5 0 0 1 8 13 5 5 0 0 1 3 8 5 5 0 0 1 8 3 5 5 0 0 1 13 8H14A6 6.00001 0 0 0 8 2M8 4C5.791 4 4 5.791 4 8H6C6 6.895 6.895 6 8 6zM8 7A1 1 0 0 0 7 8 1 1 0 0 0 8 9 1 1 0 0 0 9 8 1 1 0 0 0 8 7M10.404 8C11.317 8.188 12 8.997 12 9.973 12 10.559 11.751 11.08 11.357 11.447 11.137 11.184 11 10.849 11 10.477 11 10.395 11.01 10.315 11.03 10.236 10.416 10.58 10 11.23 10 11.986 10 13.1 10.892 13.996 12 13.996 13.11 13.996 14 13.1 14 11.986 14 9.894 12.424 8.206 10.404 8"
     class="ColorScheme-Text"
     id="path1" />
</svg>
