<?xml version="1.0" encoding="UTF-8" standalone="no"?>
<svg
   version="1.1"
   viewBox="0 0 16 16"
   id="svg1"
   sodipodi:docname="view-refresh.svg"
   inkscape:version="1.3.2 (091e20ef0f, 2023-11-25)"
   xmlns:inkscape="http://www.inkscape.org/namespaces/inkscape"
   xmlns:sodipodi="http://sodipodi.sourceforge.net/DTD/sodipodi-0.dtd"
   xmlns="http://www.w3.org/2000/svg"
   xmlns:svg="http://www.w3.org/2000/svg">
  <sodipodi:namedview
     id="namedview1"
     pagecolor="#ffffff"
     bordercolor="#999999"
     borderopacity="1"
     inkscape:showpageshadow="2"
     inkscape:pageopacity="0"
     inkscape:pagecheckerboard="0"
     inkscape:deskcolor="#d1d1d1"
     inkscape:zoom="47.75"
     inkscape:cx="8"
     inkscape:cy="8"
     inkscape:window-width="1920"
     inkscape:window-height="996"
     inkscape:window-x="0"
     inkscape:window-y="0"
     inkscape:window-maximized="1"
     inkscape:current-layer="svg1" />
  <defs
     id="defs1">
    <style
       type="text/css"
       id="current-color-scheme">.ColorScheme-Text { color: #fcfcfc; } </style>
  </defs>
  <path
     d="m8 2a6 6 0 0 0-5.9082031 5h1.0234375a5 5 0 0 1 4.8847656-4 5 5 0 0 1 4.564453 3h-3.564453v1h3.896484 0.103516 0.914062 0.085938v-5h-1v2.6894531a6 6 0 0 0-5-2.6894531zm-6 7v5h1v-2.699219a6 6 0 0 0 5 2.699219 6 6 0 0 0 5.908203-5h-1.023437a5 5 0 0 1-4.884766 4 5 5 0 0 1-4.5546875-3h3.5546875v-1h-3.8847656-0.1152344-0.9082031-0.0917969z"
     class="ColorScheme-Text"
     fill="currentColor"
     id="path1"
     style="fill:#00ccff" />
</svg>
