<?xml version="1.0" encoding="UTF-8" standalone="no"?>
<svg
   id="SimpleNote"
   width="16"
   height="16"
   enable-background="new 0 0 1024 1024"
   image-rendering="optimizeSpeed"
   version="1.1"
   viewBox="0 0 16 16"
   sodipodi:docname="applications-multimedia.svg"
   inkscape:version="1.3.2 (091e20ef0f, 2023-11-25)"
   xmlns:inkscape="http://www.inkscape.org/namespaces/inkscape"
   xmlns:sodipodi="http://sodipodi.sourceforge.net/DTD/sodipodi-0.dtd"
   xmlns:xlink="http://www.w3.org/1999/xlink"
   xmlns="http://www.w3.org/2000/svg"
   xmlns:svg="http://www.w3.org/2000/svg"
   xmlns:rdf="http://www.w3.org/1999/02/22-rdf-syntax-ns#"
   xmlns:cc="http://creativecommons.org/ns#"
   xmlns:dc="http://purl.org/dc/elements/1.1/">
  <sodipodi:namedview
     id="namedview16"
     pagecolor="#ffffff"
     bordercolor="#000000"
     borderopacity="0.25"
     inkscape:showpageshadow="2"
     inkscape:pageopacity="0.0"
     inkscape:pagecheckerboard="0"
     inkscape:deskcolor="#d1d1d1"
     inkscape:zoom="16.948466"
     inkscape:cx="5.2512127"
     inkscape:cy="12.479005"
     inkscape:window-width="1920"
     inkscape:window-height="994"
     inkscape:window-x="0"
     inkscape:window-y="0"
     inkscape:window-maximized="1"
     inkscape:current-layer="SimpleNote" />
  <metadata
     id="metadata1">
    <rdf:RDF>
      <cc:Work
         rdf:about="">
        <dc:format>image/svg+xml</dc:format>
        <dc:type
           rdf:resource="http://purl.org/dc/dcmitype/StillImage" />
      </cc:Work>
    </rdf:RDF>
  </metadata>
  <defs
     id="defs12">
    <linearGradient
       id="linearGradient16"
       inkscape:collect="always">
      <stop
         style="stop-color:#ffff37;stop-opacity:1;"
         offset="0"
         id="stop16" />
      <stop
         style="stop-color:#ff50ff;stop-opacity:1;"
         offset="1"
         id="stop17" />
    </linearGradient>
    <linearGradient
       id="i"
       x1="400.39999"
       x2="400.39999"
       y1="545.62"
       y2="517.62"
       gradientTransform="matrix(1.5862,0,0,1.5862,-585.75,-804.34)"
       gradientUnits="userSpaceOnUse">
      <stop
         stop-color="#d3d3d3"
         offset="0"
         id="stop1" />
      <stop
         stop-color="#fcf9f9"
         offset="1"
         id="stop2" />
    </linearGradient>
    <linearGradient
       id="f"
       x1="400.39999"
       x2="400.39999"
       y1="545.62"
       y2="517.62"
       gradientTransform="matrix(1.6382,0,0,1.6382,-660.38,-809.85)"
       gradientUnits="userSpaceOnUse">
      <stop
         stop-color="#8d3aff"
         offset="0"
         id="stop3" />
      <stop
         stop-color="#ff3680"
         offset="1"
         id="stop4" />
    </linearGradient>
    <radialGradient
       id="radialGradient1813"
       cx="-41.678001"
       cy="-40.515999"
       r="28"
       gradientTransform="matrix(0.26824824,0,0,0.26784647,19.180651,18.852203)"
       gradientUnits="userSpaceOnUse">
      <stop
         stop-color="#e74b86"
         offset="0"
         id="stop5" />
      <stop
         stop-color="#e44c89"
         offset="1"
         id="stop6" />
    </radialGradient>
    <linearGradient
       id="linearGradient31502"
       x1="10.796"
       x2="9.8303003"
       y1="19.263"
       y2="26.26"
       gradientUnits="userSpaceOnUse">
      <stop
         stop-color="#e74b86"
         stop-opacity="0"
         offset="0"
         id="stop7" />
      <stop
         stop-color="#922153"
         offset="1"
         id="stop8" />
    </linearGradient>
    <linearGradient
       id="linearGradient37204"
       x1="10.796"
       x2="9.8303003"
       y1="19.263"
       y2="26.26"
       gradientTransform="rotate(120,32.035,32.048)"
       gradientUnits="userSpaceOnUse">
      <stop
         stop-color="#e74b86"
         stop-opacity="0"
         offset="0"
         id="stop9" />
      <stop
         stop-color="#922153"
         offset="1"
         id="stop10" />
    </linearGradient>
    <linearGradient
       id="linearGradient37208"
       x1="10.796"
       x2="9.8303003"
       y1="19.263"
       y2="26.26"
       gradientTransform="rotate(-120,32.147,32.089)"
       gradientUnits="userSpaceOnUse">
      <stop
         stop-color="#e74b86"
         stop-opacity="0"
         offset="0"
         id="stop11" />
      <stop
         stop-color="#922153"
         offset="1"
         id="stop12" />
    </linearGradient>
    <linearGradient
       inkscape:collect="always"
       xlink:href="#linearGradient16"
       id="linearGradient17"
       x1="0.50023848"
       y1="0.50023001"
       x2="15.499762"
       y2="15.49977"
       gradientUnits="userSpaceOnUse"
       gradientTransform="matrix(0.86669319,0,0,0.86669319,1.0664579,1.0664539)" />
  </defs>
  <circle
     cx="49.639"
     cy="39.205002"
     r="0"
     fill="url(#i)"
     id="circle12"
     style="fill:url(#i)" />
  <circle
     cx="-4.1496"
     cy="61.361"
     r="0"
     fill="none"
     stroke="url(#f)"
     stroke-width="2.1297"
     id="circle13"
     style="stroke:url(#f)" />
  <path
     id="path13"
     d="M 8.0001808,1.5001772 A 6.4999408,6.4999408 0 0 0 1.7672019,6.1597049 c 0.014016,0.1882686 0.073022,0.4429701 0.2924515,0.4429701 h 2.4713695 c 0,0 0.243029,-0.019751 0.243029,-0.258882 V 3.993367 c 0,0 -0.023395,-0.4921602 0.405782,-0.7399474 0.4291819,-0.2477873 0.8230077,-0.1734907 1.2844801,0.092946 l 1.9636784,1.1334976 c 0,0 0.5862714,0.3359539 0.3690572,1.0559614 C 8.6211246,6.118984 7.4571346,7.4595983 6.1046817,7.4595983 H 2.0060049 c 0,0 -0.3017133,0.041462 -0.5000998,0.4579438 a 6.4999408,6.4999408 0 0 0 -0.0059,0.082514 A 6.4999408,6.4999408 0 0 0 7.9999488,14.5 6.4999408,6.4999408 0 0 0 9.691581,14.266956 C 9.795992,14.165414 9.871079,14.03843 9.793596,13.904238 L 8.5576358,11.76373 c 0,0 -0.1388441,-0.200267 -0.3459371,-0.08072 l -2.0353168,1.175218 c 0,0 -0.4145797,0.265915 -0.843784,0.01813 C 4.9034158,12.62858 4.7708401,12.250823 4.7708401,11.717943 V 9.4504939 c 0,0 -0.00216,-0.6759711 0.7299655,-0.847847 C 6.093787,8.4634244 7.8370704,8.8011773 8.5132957,9.972369 l 2.0493623,3.549667 c 0,0 0.144718,0.186361 0.492836,0.206296 A 6.4999408,6.4999408 0 0 0 14.499995,8.000025 6.4999408,6.4999408 0 0 0 12.711328,3.5227271 C 12.542205,3.4448541 12.307476,3.3815666 12.202155,3.5639799 L 10.96663,5.704039 c 0,0 -0.104176,0.2209322 0.102908,0.3405052 l 2.035323,1.175212 c 0,0 0.437981,0.2257774 0.437981,0.7213549 0,0.4955735 -0.260788,0.7990499 -0.722261,1.0654787 l -1.964118,1.1339622 c 0,0 -0.584111,0.339994 -1.099046,-0.208109 C 9.3403575,9.488519 8.7615842,7.810141 9.4377644,6.6388293 L 11.487125,3.0887012 c 0,0 0.114944,-0.284024 -0.150075,-0.666034 A 6.4999408,6.4999408 0 0 0 8.0000291,1.5 Z"
     style="fill:url(#linearGradient17);stroke-width:0.866691" />
  <g
     fill-rule="evenodd"
     id="g16"
     transform="matrix(0.26784647,0,0,0.26784647,-0.5708835,-0.570952)" />
</svg>
