<?xml version="1.0" encoding="UTF-8" standalone="no"?>
<svg
   style="isolation:isolate"
   width="16"
   height="16"
   viewBox="0 0 16 16"
   version="1.1"
   id="svg1"
   sodipodi:docname="bleachbit.svg"
   inkscape:version="1.3.2 (091e20ef0f, 2023-11-25)"
   xmlns:inkscape="http://www.inkscape.org/namespaces/inkscape"
   xmlns:sodipodi="http://sodipodi.sourceforge.net/DTD/sodipodi-0.dtd"
   xmlns:xlink="http://www.w3.org/1999/xlink"
   xmlns="http://www.w3.org/2000/svg"
   xmlns:svg="http://www.w3.org/2000/svg">
  <defs
     id="defs1">
    <linearGradient
       id="linearGradient31"
       inkscape:collect="always">
      <stop
         style="stop-color:#ffdd55;stop-opacity:1"
         offset="0"
         id="stop30" />
      <stop
         style="stop-color:#ff7aff;stop-opacity:1;"
         offset="1"
         id="stop31" />
    </linearGradient>
    <linearGradient
       gradientUnits="userSpaceOnUse"
       x2="0"
       y2="503.79999"
       y1="544.79999"
       id="linearGradient12">
      <stop
         offset="0"
         stop-color="#44484c"
         id="stop11"
         style="stop-color:#44d2a8;stop-opacity:1" />
      <stop
         stop-color="#1d1e1e"
         offset="1"
         id="stop12"
         style="stop-color:#3cb1c3;stop-opacity:1" />
    </linearGradient>
    <linearGradient
       id="linearGradient1"
       inkscape:collect="always">
      <stop
         style="stop-color:#ffdd55;stop-opacity:1"
         offset="0"
         id="stop1" />
      <stop
         style="stop-color:#ff9eff;stop-opacity:1;"
         offset="1"
         id="stop2" />
    </linearGradient>
    <linearGradient
       xlink:href="#linearGradient4173"
       id="linearGradient4246"
       gradientUnits="userSpaceOnUse"
       gradientTransform="matrix(-0.18738467,-0.32480459,0.32455976,-0.18752602,-85.618183,239.39334)"
       y1="532.20502"
       x2="386.827"
       y2="524.41803"
       x1="428.02899" />
    <linearGradient
       gradientUnits="userSpaceOnUse"
       x2="0"
       y2="503.79999"
       y1="544.79999"
       id="linearGradient4173">
      <stop
         offset="0"
         stop-color="#44484c"
         id="stop1-7" />
      <stop
         stop-color="#1d1e1e"
         offset="1"
         id="stop2-5" />
    </linearGradient>
    <linearGradient
       xlink:href="#b"
       id="linearGradient4248"
       gradientUnits="userSpaceOnUse"
       gradientTransform="matrix(-0.18738467,-0.32480459,0.32455976,-0.18752602,-85.655142,239.41253)"
       y1="544.79999"
       x2="0"
       y2="503.79999" />
    <linearGradient
       id="b"
       y1="544.79999"
       y2="503.79999"
       gradientUnits="userSpaceOnUse"
       x2="0"
       gradientTransform="translate(-384.57,-499.8)">
      <stop
         stop-color="#4ea979"
         id="stop5" />
      <stop
         offset="1"
         stop-color="#5eb085"
         id="stop6" />
    </linearGradient>
    <linearGradient
       xlink:href="#b"
       id="linearGradient4193"
       gradientUnits="userSpaceOnUse"
       gradientTransform="matrix(0.37476934,0,0,0.37505204,-145.12227,-188.4949)"
       y1="544.79999"
       x2="0"
       y2="503.79999" />
    <linearGradient
       id="linearGradient4"
       y1="544.79999"
       y2="503.79999"
       gradientUnits="userSpaceOnUse"
       x2="0"
       gradientTransform="translate(-384.57,-499.8)">
      <stop
         stop-color="#4ea979"
         id="stop3" />
      <stop
         offset="1"
         stop-color="#5eb085"
         id="stop4" />
    </linearGradient>
    <linearGradient
       xlink:href="#b"
       id="linearGradient4219"
       gradientUnits="userSpaceOnUse"
       gradientTransform="matrix(-0.18738467,0.32480459,-0.32455976,-0.18752602,255.02064,-25.851019)"
       y1="544.79999"
       x2="0"
       y2="503.79999" />
    <linearGradient
       id="linearGradient8"
       y1="544.79999"
       y2="503.79999"
       gradientUnits="userSpaceOnUse"
       x2="0"
       gradientTransform="translate(-384.57,-499.8)">
      <stop
         stop-color="#4ea979"
         id="stop7" />
      <stop
         offset="1"
         stop-color="#5eb085"
         id="stop8" />
    </linearGradient>
    <linearGradient
       xlink:href="#linearGradient4"
       id="linearGradient4288"
       x1="7.6690001"
       y1="14.513"
       x2="42.223999"
       y2="34.463001"
       gradientUnits="userSpaceOnUse"
       gradientTransform="matrix(0.37476934,0,0,0.37505204,-0.99909658,-1.0022585)" />
    <linearGradient
       id="linearGradient4282">
      <stop
         style="stop-color:#000000;stop-opacity:1;"
         offset="0"
         id="stop9" />
      <stop
         style="stop-color:#000000;stop-opacity:0;"
         offset="1"
         id="stop10" />
    </linearGradient>
    <linearGradient
       inkscape:collect="always"
       xlink:href="#linearGradient1"
       id="linearGradient21"
       x1="3.8729022"
       y1="3.2952416"
       x2="6.4122162"
       y2="5.9226193"
       gradientUnits="userSpaceOnUse"
       gradientTransform="matrix(0.86666469,0,0,0.86666468,1.0666675,1.0666693)" />
    <linearGradient
       inkscape:collect="always"
       xlink:href="#linearGradient31"
       id="linearGradient23"
       x1="0.61929166"
       y1="8.9908476"
       x2="15.498445"
       y2="8.9908476"
       gradientUnits="userSpaceOnUse"
       gradientTransform="matrix(0.86666469,0,0,0.86666468,1.0666675,1.0666693)" />
    <linearGradient
       inkscape:collect="always"
       xlink:href="#linearGradient1"
       id="linearGradient25"
       x1="0.5"
       y1="8.0000153"
       x2="15.5"
       y2="8.0000153"
       gradientUnits="userSpaceOnUse"
       gradientTransform="matrix(0.86666469,0,0,0.86666468,1.0666675,1.0666693)" />
    <linearGradient
       inkscape:collect="always"
       xlink:href="#linearGradient1"
       id="linearGradient27"
       x1="2.2720668"
       y1="12.499488"
       x2="6.8718839"
       y2="12.499488"
       gradientUnits="userSpaceOnUse"
       gradientTransform="matrix(0.86666469,0,0,0.86666468,1.0666675,1.0666693)" />
    <linearGradient
       inkscape:collect="always"
       xlink:href="#linearGradient1"
       id="linearGradient29"
       x1="15.325856"
       y1="9.9305077"
       x2="11.382199"
       y2="8.8978024"
       gradientUnits="userSpaceOnUse"
       gradientTransform="matrix(0.86666469,0,0,0.86666468,1.0666675,1.0666693)" />
  </defs>
  <sodipodi:namedview
     id="namedview1"
     pagecolor="#ffffff"
     bordercolor="#000000"
     borderopacity="0.25"
     inkscape:showpageshadow="2"
     inkscape:pageopacity="0.0"
     inkscape:pagecheckerboard="0"
     inkscape:deskcolor="#d1d1d1"
     inkscape:zoom="11.984375"
     inkscape:cx="7.1760104"
     inkscape:cy="-7.3011734"
     inkscape:window-width="1920"
     inkscape:window-height="994"
     inkscape:window-x="0"
     inkscape:window-y="0"
     inkscape:window-maximized="1"
     inkscape:current-layer="svg1" />
  <path
     d="m 9.0515689,1.5013992 c 0,0 -2.078203,0.011278 -2.1778047,0.0146 C 6.635533,1.5513512 6.3681683,1.749625 6.3681683,1.749625 c 0.00603,0.0017 0.012245,-0.00828 0.019027,-0.00698 C 6.5707447,1.6329071 6.8583221,1.6113679 7.0380625,1.792793 L 7.4326454,2.4765026 8.1095218,3.6497097 8.963389,5.1295502 C 8.5777122,5.3499085 7.8380102,5.7796353 7.8380102,5.7796353 L 11.38733,6.731279 12.339526,3.1811848 c 0,0 -1.126817,0.6467887 -1.126016,0.6481847 L 10.038654,1.7934326 C 9.9068502,1.6074934 9.6899072,1.5374974 9.5032422,1.5064786 9.4615581,1.5005009 9.2647115,1.4983308 9.0515674,1.5013607 Z M 5.1520738,6.2932649 1.6033863,7.243638 c 0,0 1.1239398,0.6527557 1.1247452,0.6513594 L 1.5532711,9.9309677 c -0.095007,0.2071993 -0.046823,0.4302653 0.019664,0.6075533 0.015703,0.0391 0.1121882,0.21104 0.2213968,0.394247 0,0 1.0485904,1.795143 1.1012736,1.879799 0.1497082,0.188789 0.4548461,0.321869 0.4548461,0.321869 -0.00149,-0.007 -0.012987,-0.007 -0.015226,-0.01274 -0.1867289,-0.104181 -0.349421,-0.343254 -0.2822927,-0.589744 l 0.3945815,-0.683729 0.6768762,-1.17321 0.8538671,-1.47984 c 0.383534,0.2240788 1.1247451,0.6500888 1.1247451,0.6500888 z M 10.269567,9.2992909 7.6711717,11.899641 10.267666,14.5 c 0,0 0.0034,-1.300175 0.0019,-1.300175 h 2.349089 c 0.226812,-0.02123 0.395572,-0.17433 0.515745,-0.320594 0.02598,-0.03321 0.126978,-0.202921 0.230915,-0.389175 0,0 1.028981,-1.806411 1.075898,-1.894397 0.08854,-0.224148 0.05076,-0.554863 0.05076,-0.554863 -0.0042,0.0042 0.0016,0.01447 -0.0028,0.01967 0.0028,0.213947 -0.122335,0.473925 -0.369204,0.53899 h -0.78954 -1.353748 -1.707103 c 0.0021,-0.444439 0,-1.3001771 0,-1.3001771 z"
     id="path6"
     style="fill:url(#linearGradient25);fill-opacity:1;stroke-width:0.866668" />
  <path
     d="M 4.4245844,4.9241115 6.6239092,6.199595 C 6.6300622,6.1952619 6.8252721,5.8666855 7.0559484,5.4669212 7.2868303,5.0681622 7.6199552,4.4962305 7.7929462,4.1973545 l 0.00113,-6.5e-4 0.3154389,-0.5466959 -1.07135,-1.8570339 C 6.856769,1.6098962 6.5669462,1.6009471 6.3815055,1.7456289 6.2646072,1.8394438 6.2256891,1.8844496 6.1216715,2.0571482 5.9746218,2.3008763 4.4259885,4.9233025 4.423176,4.9249275"
     id="path7"
     style="fill:url(#linearGradient21);fill-opacity:1;stroke-width:0.866668" />
  <path
     d="m 12.660412,6.7363156 -2.147245,1.300827 c 6.49e-4,0.0075 0.187409,0.3409721 0.418017,0.7407762 0.229631,0.39948 0.558002,0.974159 0.73015,1.2735222 v 0.0013 l 0.315381,0.54672 h 2.142703 c 0.249121,-0.06566 0.401772,-0.312369 0.369291,-0.545426 C 14.465989,9.9057748 14.446489,9.8495418 14.349048,9.6730428 14.211656,9.4237694 12.660412,6.7379276 12.660412,6.7346776"
     id="path8"
     style="fill:url(#linearGradient29);stroke-width:0.866668" />
  <path
     d="m 7.0208699,13.199008 7.143e-4,-2.599541 c 0,0 -1.9850801,-5.5e-4 -2.8970418,0 l -1.071351,1.932448 c -0.067743,0.248735 0.069426,0.504395 0.2873468,0.59278 0.1396341,0.05438 0.1980409,0.06564 0.3994987,0.06941 0.2844513,0.0054 3.2794379,0.0037 3.2822509,0.0056"
     id="path9"
     style="fill:url(#linearGradient27);fill-opacity:1;stroke-width:0.866668" />
  <path
     d="m 4.6648743,4.5175825 c -0.0544,0.091811 -0.2412963,0.4073445 -0.2416966,0.407576 l 0.00126,-0.0013 2.1993733,1.2754188 c 0.00346,-0.00242 0.14674,-0.2489158 0.2416987,-0.4101142 z M 5.1520738,6.2932649 1.6033863,7.243638 c 0,0 1.1239398,0.6527557 1.1247452,0.6513594 l -0.00318,0.0057 2.2501241,1.3001774 0.00318,-0.0057 c 0.3835343,0.2240769 1.1247448,0.650087 1.1247448,0.650087 z m 5.4797212,1.6722019 -0.118628,0.071743 c 6.49e-4,0.0075 0.187443,0.3410682 0.41805,0.7408727 0.229632,0.3994799 0.558019,0.9741473 0.730171,1.2735095 v 0.0013 l 0.315281,0.546604 h -1.707102 c 0.0021,-0.444439 0,-1.3001764 0,-1.3001764 l -1.8752094,1.8766474 3.5023754,2.023908 h 0.721922 c 0.226805,-0.02123 0.395568,-0.17433 0.515742,-0.320604 0.02598,-0.03316 0.12698,-0.202912 0.230917,-0.389159 0,0 1.028974,-1.806416 1.075895,-1.894404 0.05234,-0.132645 0.05915,-0.280118 0.05708,-0.396781 z"
     id="path10"
     style="fill:url(#linearGradient23);stroke-width:0.866668" />
</svg>
