<?xml version="1.0" encoding="UTF-8" standalone="no"?>
<svg
   width="16"
   height="16"
   version="1.1"
   id="svg22"
   sodipodi:docname="bug.svg"
   inkscape:version="1.3.2 (091e20ef0f, 2023-11-25)"
   xmlns:inkscape="http://www.inkscape.org/namespaces/inkscape"
   xmlns:sodipodi="http://sodipodi.sourceforge.net/DTD/sodipodi-0.dtd"
   xmlns="http://www.w3.org/2000/svg"
   xmlns:svg="http://www.w3.org/2000/svg">
  <sodipodi:namedview
     id="namedview22"
     pagecolor="#ffffff"
     bordercolor="#000000"
     borderopacity="0.25"
     inkscape:showpageshadow="2"
     inkscape:pageopacity="0.0"
     inkscape:pagecheckerboard="0"
     inkscape:deskcolor="#d1d1d1"
     inkscape:zoom="16.948466"
     inkscape:cx="7.0212846"
     inkscape:cy="11.82998"
     inkscape:window-width="1920"
     inkscape:window-height="994"
     inkscape:window-x="0"
     inkscape:window-y="0"
     inkscape:window-maximized="1"
     inkscape:current-layer="svg22"
     showgrid="true">
    <inkscape:grid
       id="grid1"
       units="px"
       originx="0"
       originy="0"
       spacingx="1"
       spacingy="1"
       empcolor="#0099e5"
       empopacity="0.30196078"
       color="#0099e5"
       opacity="0.14901961"
       empspacing="5"
       dotted="false"
       gridanglex="30"
       gridanglez="30"
       visible="true" />
  </sodipodi:namedview>
  <defs
     id="defs22">
    <style
       id="current-color-scheme"
       type="text/css">
   .ColorScheme-Text { color:#d5c289; } .ColorScheme-Highlight { color:#5294e2; }
  </style>
    <linearGradient
       id="arrongin"
       x1="0%"
       x2="0%"
       y1="0%"
       y2="100%">
      <stop
         offset="0%"
         style="stop-color:#dd9b44; stop-opacity:1"
         id="stop1" />
      <stop
         offset="100%"
         style="stop-color:#ad6c16; stop-opacity:1"
         id="stop2" />
    </linearGradient>
    <linearGradient
       id="aurora"
       x1="0%"
       x2="0%"
       y1="0%"
       y2="100%">
      <stop
         offset="0%"
         style="stop-color:#09D4DF; stop-opacity:1"
         id="stop3" />
      <stop
         offset="100%"
         style="stop-color:#9269F4; stop-opacity:1"
         id="stop4" />
    </linearGradient>
    <linearGradient
       id="fitdance"
       x1="0%"
       x2="0%"
       y1="0%"
       y2="100%">
      <stop
         offset="0%"
         style="stop-color:#1AD6AB; stop-opacity:1"
         id="stop5" />
      <stop
         offset="100%"
         style="stop-color:#329DB6; stop-opacity:1"
         id="stop6" />
    </linearGradient>
    <linearGradient
       id="oomox"
       x1="832.37583"
       x2="832.37583"
       y1="465.3418"
       y2="479.35616"
       gradientTransform="matrix(1.0703309,0,0,1.0702868,-58.417093,-33.549198)"
       gradientUnits="userSpaceOnUse">
      <stop
         offset="0%"
         style="stop-color:#303b3d; stop-opacity:1"
         id="stop7" />
      <stop
         offset="100%"
         style="stop-color:#bc985d; stop-opacity:1"
         id="stop8" />
    </linearGradient>
    <linearGradient
       id="rainblue"
       x1="0%"
       x2="0%"
       y1="0%"
       y2="100%">
      <stop
         offset="0%"
         style="stop-color:#00F260; stop-opacity:1"
         id="stop9" />
      <stop
         offset="100%"
         style="stop-color:#0575E6; stop-opacity:1"
         id="stop10" />
    </linearGradient>
    <linearGradient
       id="sunrise"
       x1="0%"
       x2="0%"
       y1="0%"
       y2="100%">
      <stop
         offset="0%"
         style="stop-color: #FF8501; stop-opacity:1"
         id="stop11" />
      <stop
         offset="100%"
         style="stop-color: #FFCB01; stop-opacity:1"
         id="stop12" />
    </linearGradient>
    <linearGradient
       id="telinkrin"
       x1="0%"
       x2="0%"
       y1="0%"
       y2="100%">
      <stop
         offset="0%"
         style="stop-color: #b2ced6; stop-opacity:1"
         id="stop13" />
      <stop
         offset="100%"
         style="stop-color: #6da5b7; stop-opacity:1"
         id="stop14" />
    </linearGradient>
    <linearGradient
       id="60spsycho"
       x1="0%"
       x2="0%"
       y1="0%"
       y2="100%">
      <stop
         offset="0%"
         style="stop-color: #df5940; stop-opacity:1"
         id="stop15" />
      <stop
         offset="25%"
         style="stop-color: #d8d15f; stop-opacity:1"
         id="stop16" />
      <stop
         offset="50%"
         style="stop-color: #e9882a; stop-opacity:1"
         id="stop17" />
      <stop
         offset="100%"
         style="stop-color: #279362; stop-opacity:1"
         id="stop18" />
    </linearGradient>
    <linearGradient
       id="90ssummer"
       x1="0%"
       x2="0%"
       y1="0%"
       y2="100%">
      <stop
         offset="0%"
         style="stop-color: #f618c7; stop-opacity:1"
         id="stop19" />
      <stop
         offset="20%"
         style="stop-color: #94ffab; stop-opacity:1"
         id="stop20" />
      <stop
         offset="50%"
         style="stop-color: #fbfd54; stop-opacity:1"
         id="stop21" />
      <stop
         offset="100%"
         style="stop-color: #0f83ae; stop-opacity:1"
         id="stop22" />
    </linearGradient>
  </defs>
  <path
     d="M 15.25,2.4750015 V 13.525002 C 15.25,14.148164 14.943962,14.5 14.248991,14.5 H 1.8028039 C 1.1078286,14.5 0.75,14.148164 0.75,13.525002 V 2.4750015 c 0,-0.623156 0.3578286,-0.9749961 1.0528039,-0.9749961 H 14.19565 C 14.892308,1.4984054 15.25,1.8518455 15.25,2.4750015 Z M 1.5555556,12.875002 c 0,0.812499 0,0.812499 0.8055559,0.812499 H 13.638886 c 0.805557,0 0.805557,0 0.805557,-0.812499 V 3.125 c 0,-0.8125006 0,-0.8125006 -0.805557,-0.8125006 H 2.3611115 c -0.8055559,0 -0.8055559,0 -0.8055559,0.8125006 z"
     id="path2-5"
     style="color:#d6dbf1;fill:#c83771;fill-opacity:1;stroke-width:0.15973;enable-background:new"
     sodipodi:nodetypes="ssssssscssssssssss"
     class="ColorScheme-Text" />
  <path
     d="M 14.732148,4.2083327 H 1.2678571 v 0 0.5416667 H 14.732148 v 0 z"
     id="path2653-4-3"
     style="fill:#c83771;fill-opacity:1;stroke-width:0.185331"
     sodipodi:nodetypes="ccccccc" />
  <path
     d="m 12.913088,3.2873874 c 0,-0.224418 0.180218,-0.4061376 0.402774,-0.4061376 0.22237,0 0.402783,0.1817196 0.402783,0.4061376 0,0.2242121 -0.180413,0.4061251 -0.402783,0.4061251 -0.222556,0 -0.402774,-0.181913 -0.402774,-0.4061251 z"
     id="path72-3-6-5"
     style="color:#e5e9ef;fill:#c83771;fill-opacity:1;stroke-width:0.00481506"
     class="ColorScheme-Text" />
  <path
     d="m 9.6111136,3.2875054 c 0,-0.22448 0.1802298,-0.4062556 0.4027784,-0.4062556 0.222372,0 0.402774,0.1817756 0.402774,0.4062556 0,0.22428 -0.180402,0.4062455 -0.402774,0.4062455 -0.2225486,0 -0.4027784,-0.1819655 -0.4027784,-0.4062455 z"
     id="path72-3-6-6-6"
     style="color:#e5e9ef;fill:#c83771;fill-opacity:1;stroke-width:0.0048158"
     class="ColorScheme-Text" />
  <path
     d="m 11.222221,3.2875054 c 0,-0.22448 0.18023,-0.4062556 0.402777,-0.4062556 0.222378,0 0.402778,0.1817756 0.402778,0.4062556 0,0.22428 -0.1804,0.4062455 -0.402778,0.4062455 -0.222547,0 -0.402777,-0.1819655 -0.402777,-0.4062455 z"
     id="path72-3-6-7-2"
     style="color:#e5e9ef;fill:#c83771;fill-opacity:1;stroke-width:0.00481579"
     class="ColorScheme-Text" />
  <path
     d="m 8.0000166,10.095441 2.1728974,2.191739 c 0.240073,0.242103 0.629257,0.242103 0.869259,0 0.240066,-0.242106 0.240066,-0.634591 0,-0.876685 L 8.8691677,9.218759 11.042173,7.0270174 c 0.240072,-0.2420932 0.240072,-0.6346003 0,-0.8766926 -0.240002,-0.2420911 -0.629183,-0.2420911 -0.869252,0 L 8.0000166,8.3420647 5.8270151,6.1503237 c -0.2400599,-0.2420918 -0.6292151,-0.2420918 -0.8691996,0 -0.2400487,0.2420913 -0.2400487,0.6345965 0,0.8766937 l 2.172984,2.1917416 -2.172984,2.191738 c -0.2400487,0.242092 -0.2400487,0.63458 0,0.876683 0.2399837,0.242103 0.6291455,0.242103 0.8691996,0 z"
     style="fill:#c83771;fill-opacity:1;fill-rule:evenodd;stroke:none;stroke-width:0.411472"
     id="path2838-9" />
</svg>
