<?xml version="1.0" encoding="UTF-8" standalone="no"?>
<svg
   width="16"
   height="16"
   version="1.1"
   viewBox="0 0 16 16"
   id="svg4342"
   sodipodi:docname="calindori.svg"
   inkscape:version="1.3.2 (091e20ef0f, 2023-11-25)"
   xmlns:inkscape="http://www.inkscape.org/namespaces/inkscape"
   xmlns:sodipodi="http://sodipodi.sourceforge.net/DTD/sodipodi-0.dtd"
   xmlns:xlink="http://www.w3.org/1999/xlink"
   xmlns="http://www.w3.org/2000/svg"
   xmlns:svg="http://www.w3.org/2000/svg"
   xmlns:rdf="http://www.w3.org/1999/02/22-rdf-syntax-ns#"
   xmlns:cc="http://creativecommons.org/ns#"
   xmlns:dc="http://purl.org/dc/elements/1.1/">
  <sodipodi:namedview
     id="namedview4344"
     pagecolor="#ffffff"
     bordercolor="#666666"
     borderopacity="1.0"
     inkscape:showpageshadow="2"
     inkscape:pageopacity="0.0"
     inkscape:pagecheckerboard="0"
     inkscape:deskcolor="#d1d1d1"
     showgrid="false"
     inkscape:zoom="19.666667"
     inkscape:cx="3.8644067"
     inkscape:cy="11.059322"
     inkscape:window-width="1920"
     inkscape:window-height="994"
     inkscape:window-x="0"
     inkscape:window-y="0"
     inkscape:window-maximized="1"
     inkscape:current-layer="svg4342" />
  <defs
     id="defs4266">
    <linearGradient
       id="linearGradient1515">
      <stop
         stop-color="#f39c1f"
         offset="0"
         id="stop4215" />
      <stop
         stop-color="#fff"
         offset="1"
         id="stop4217" />
    </linearGradient>
    <linearGradient
       id="linearGradient1339">
      <stop
         offset="0"
         id="stop4220" />
      <stop
         stop-opacity="0"
         offset="1"
         id="stop4222" />
    </linearGradient>
    <linearGradient
       id="linearGradient3861"
       x1="23"
       x2="23.712858"
       y1="290.01785"
       y2="215.52565"
       gradientTransform="matrix(1.05,0,0,1.0199006,-94.149152,-267.28149)"
       gradientUnits="userSpaceOnUse">
      <stop
         stop-color="#eff0f1"
         offset="0"
         id="stop4225" />
      <stop
         stop-color="#bdc3c7"
         offset="1"
         id="stop4227" />
    </linearGradient>
    <linearGradient
       id="linearGradient1066"
       x1="23.064789"
       x2="23.064789"
       y1="2.9331775"
       y2="-9.4093714"
       gradientUnits="userSpaceOnUse"
       gradientTransform="matrix(2.9862985,0,0,2.9714413,-88.075951,-6.2895504)">
      <stop
         stop-color="#da4453"
         offset="0"
         id="stop4230" />
      <stop
         stop-color="#ed1515"
         offset="1"
         id="stop4232" />
    </linearGradient>
    <radialGradient
       id="radialGradient1341"
       cx="2.6748774"
       cy="4.5400662"
       r="1.7617654"
       gradientTransform="matrix(0.98103659,0,0,0.91815864,0.28626415,0.85858219)"
       gradientUnits="userSpaceOnUse"
       xlink:href="#linearGradient1339" />
    <radialGradient
       id="radialGradient1345"
       cx="2.6748774"
       cy="4.5400662"
       r="1.7617654"
       gradientTransform="matrix(0.98103659,0,0,0.91815864,2.6715797,0.85858219)"
       gradientUnits="userSpaceOnUse"
       xlink:href="#linearGradient1339" />
    <radialGradient
       id="radialGradient1349"
       cx="2.6748774"
       cy="4.5400662"
       r="1.7617654"
       gradientTransform="matrix(0.98103659,0,0,0.91815864,5.0466293,0.85858219)"
       gradientUnits="userSpaceOnUse"
       xlink:href="#linearGradient1339" />
    <radialGradient
       id="radialGradient1353"
       cx="2.6748774"
       cy="4.5400662"
       r="1.7617654"
       gradientTransform="matrix(3.7078548,0,0,3.4702059,28.197438,3.245035)"
       gradientUnits="userSpaceOnUse"
       xlink:href="#linearGradient1339" />
    <radialGradient
       id="radialGradient1385"
       cx="2.6748774"
       cy="4.5400662"
       r="1.7617654"
       gradientTransform="matrix(3.7078548,0,0,3.4702059,28.197438,12.153046)"
       gradientUnits="userSpaceOnUse"
       xlink:href="#linearGradient1339" />
    <radialGradient
       id="radialGradient1405"
       cx="2.6748774"
       cy="4.5400662"
       r="1.7617654"
       gradientTransform="matrix(3.7078548,0,0,3.4702059,1.0819432,21.211459)"
       gradientUnits="userSpaceOnUse"
       xlink:href="#linearGradient1339" />
    <radialGradient
       id="radialGradient1407"
       cx="2.6748774"
       cy="4.5400662"
       r="1.7617654"
       gradientTransform="matrix(3.7078548,0,0,3.4702059,10.097309,21.211459)"
       gradientUnits="userSpaceOnUse"
       xlink:href="#linearGradient1339" />
    <radialGradient
       id="radialGradient1409"
       cx="2.6748774"
       cy="4.5400662"
       r="1.7617654"
       gradientTransform="matrix(3.7078548,0,0,3.4702059,19.073875,21.211459)"
       gradientUnits="userSpaceOnUse"
       xlink:href="#linearGradient1339" />
    <radialGradient
       id="radialGradient1411"
       cx="2.6748774"
       cy="4.5400662"
       r="1.7617654"
       gradientTransform="matrix(3.7078548,0,0,3.4702059,28.197438,21.211459)"
       gradientUnits="userSpaceOnUse"
       xlink:href="#linearGradient1339" />
    <linearGradient
       id="linearGradient1439"
       x1="23.281746"
       x2="23.281746"
       y1="11.251275"
       y2="2.2961013"
       gradientUnits="userSpaceOnUse">
      <stop
         stop-color="#bdc3c7"
         offset="0"
         id="stop4244" />
      <stop
         stop-color="#eff0f1"
         offset="1"
         id="stop4246" />
    </linearGradient>
    <linearGradient
       id="linearGradient1441"
       x1="22.997158"
       x2="22.997158"
       y1="25.901901"
       y2="4.0953283"
       gradientTransform="matrix(3.7795276,0,0,3.7795276,-64.000003,0)"
       gradientUnits="userSpaceOnUse">
      <stop
         stop-color="#7f8c8d"
         offset="0"
         id="stop4249" />
      <stop
         stop-color="#bdc3c7"
         offset="1"
         id="stop4251" />
    </linearGradient>
    <linearGradient
       id="linearGradient1501"
       x1="19.511889"
       x2="19.511889"
       y1="5.8208332"
       y2="2.3392355"
       gradientUnits="userSpaceOnUse">
      <stop
         stop-color="#16a085"
         offset="0"
         id="stop4254" />
      <stop
         stop-color="#fff"
         offset="1"
         id="stop4256" />
    </linearGradient>
    <linearGradient
       id="linearGradient1505"
       x1="19.511889"
       x2="19.511889"
       y1="5.8208332"
       y2="3.0994468"
       gradientTransform="translate(4.7625,2.38125)"
       gradientUnits="userSpaceOnUse">
      <stop
         stop-color="#16a085"
         offset="0"
         id="stop4259" />
      <stop
         stop-color="#d9faf4"
         offset="1"
         id="stop4261" />
    </linearGradient>
    <linearGradient
       id="linearGradient1509"
       x1="19.511889"
       x2="19.511889"
       y1="5.8208332"
       y2="3.0994468"
       gradientTransform="translate(2.3918707,4.7625003)"
       gradientUnits="userSpaceOnUse"
       xlink:href="#linearGradient1515" />
    <linearGradient
       id="linearGradient1525"
       x1="19.511889"
       x2="19.511889"
       y1="5.8208332"
       y2="3.0994468"
       gradientTransform="translate(7.143749,-0.03049597)"
       gradientUnits="userSpaceOnUse"
       xlink:href="#linearGradient1515" />
    <radialGradient
       id="radialGradient1353-1"
       cx="2.6748774"
       cy="4.5400662"
       r="1.7617654"
       gradientTransform="matrix(3.7078548,0,0,3.4702059,28.197438,3.245035)"
       gradientUnits="userSpaceOnUse"
       xlink:href="#linearGradient1339" />
    <radialGradient
       id="radialGradient1341-2"
       cx="2.6748774"
       cy="4.5400662"
       r="1.7617654"
       gradientTransform="matrix(0.98103659,0,0,0.91815864,0.28626415,0.85858219)"
       gradientUnits="userSpaceOnUse"
       xlink:href="#linearGradient1339" />
    <radialGradient
       id="radialGradient1345-7"
       cx="2.6748774"
       cy="4.5400662"
       r="1.7617654"
       gradientTransform="matrix(0.98103659,0,0,0.91815864,2.6715797,0.85858219)"
       gradientUnits="userSpaceOnUse"
       xlink:href="#linearGradient1339" />
    <radialGradient
       id="radialGradient1349-0"
       cx="2.6748774"
       cy="4.5400662"
       r="1.7617654"
       gradientTransform="matrix(0.98103659,0,0,0.91815864,5.0466293,0.85858219)"
       gradientUnits="userSpaceOnUse"
       xlink:href="#linearGradient1339" />
    <radialGradient
       id="radialGradient1385-9"
       cx="2.6748774"
       cy="4.5400662"
       r="1.7617654"
       gradientTransform="matrix(3.7078548,0,0,3.4702059,28.197438,12.153046)"
       gradientUnits="userSpaceOnUse"
       xlink:href="#linearGradient1339" />
    <radialGradient
       id="radialGradient1405-3"
       cx="2.6748774"
       cy="4.5400662"
       r="1.7617654"
       gradientTransform="matrix(3.7078548,0,0,3.4702059,1.0819432,21.211459)"
       gradientUnits="userSpaceOnUse"
       xlink:href="#linearGradient1339" />
    <radialGradient
       id="radialGradient1407-6"
       cx="2.6748774"
       cy="4.5400662"
       r="1.7617654"
       gradientTransform="matrix(3.7078548,0,0,3.4702059,10.097309,21.211459)"
       gradientUnits="userSpaceOnUse"
       xlink:href="#linearGradient1339" />
    <radialGradient
       id="radialGradient1409-0"
       cx="2.6748774"
       cy="4.5400662"
       r="1.7617654"
       gradientTransform="matrix(3.7078548,0,0,3.4702059,19.073875,21.211459)"
       gradientUnits="userSpaceOnUse"
       xlink:href="#linearGradient1339" />
    <radialGradient
       id="radialGradient1411-6"
       cx="2.6748774"
       cy="4.5400662"
       r="1.7617654"
       gradientTransform="matrix(3.7078548,0,0,3.4702059,28.197438,21.211459)"
       gradientUnits="userSpaceOnUse"
       xlink:href="#linearGradient1339" />
    <linearGradient
       id="linearGradient1439-2"
       x1="23.281746"
       x2="23.281746"
       y1="11.251275"
       y2="2.2961013"
       gradientUnits="userSpaceOnUse">
      <stop
         stop-color="#bdc3c7"
         offset="0"
         id="stop4244-6" />
      <stop
         stop-color="#eff0f1"
         offset="1"
         id="stop4246-1" />
    </linearGradient>
    <linearGradient
       id="linearGradient1501-9"
       x1="19.511889"
       x2="19.511889"
       y1="5.8208332"
       y2="2.3392355"
       gradientUnits="userSpaceOnUse">
      <stop
         stop-color="#16a085"
         offset="0"
         id="stop4254-2" />
      <stop
         stop-color="#fff"
         offset="1"
         id="stop4256-0" />
    </linearGradient>
    <linearGradient
       inkscape:collect="always"
       xlink:href="#linearGradient22"
       id="linearGradient24"
       x1="5.5779462"
       y1="11.13398"
       x2="10.370274"
       y2="6.1538453"
       gradientUnits="userSpaceOnUse"
       gradientTransform="matrix(1.0833332,0,0,1.0833332,-0.66666665,-0.66666665)" />
    <linearGradient
       id="linearGradient22"
       inkscape:collect="always">
      <stop
         style="stop-color:#9955ff;stop-opacity:1"
         offset="0"
         id="stop23" />
      <stop
         style="stop-color:#ff68ff;stop-opacity:1;"
         offset="1"
         id="stop24" />
    </linearGradient>
  </defs>
  <metadata
     id="metadata4268">
    <rdf:RDF>
      <cc:Work
         rdf:about="">
        <dc:format>image/svg+xml</dc:format>
        <dc:type
           rdf:resource="http://purl.org/dc/dcmitype/StillImage" />
      </cc:Work>
    </rdf:RDF>
  </metadata>
  <flowRoot
     fill="#000000"
     font-family="sans-serif"
     font-size="10.5833px"
     letter-spacing="0px"
     stroke-width="0.264583"
     word-spacing="0px"
     style="line-height:1.25"
     xml:space="preserve"
     id="flowRoot4282"><flowRegion
       id="flowRegion4278"><rect
         x="-215.52615"
         y="-106.53525"
         width="190.08208"
         height="166.50893"
         stroke-width=".07000434"
         id="rect4276" /></flowRegion><flowPara
       id="flowPara4280" /></flowRoot>
  <path
     class="ColorScheme-Text"
     fill-rule="evenodd"
     d="M 4.9999997,1.5 C 4.725,1.5 4.5000003,1.725 4.5000003,2.000001 V 3.5 C 4.5000003,3.775 4.725,4 4.9999997,4 5.2749998,4 5.5000002,3.775 5.5000002,3.5 V 2.000001 C 5.5000002,1.725 5.2749998,1.5 4.9999997,1.5 Z M 11,1.5 c -0.274997,0 -0.5,0.225 -0.5,0.500001 V 3.5 C 10.5,3.775 10.725003,4 11,4 11.274997,4 11.500001,3.775 11.500001,3.5 V 2.000001 C 11.500001,1.725 11.274997,1.5 11,1.5 Z M 2.4999999,5.999999 H 13.5 V 12.99999 C 13.5,13.274997 13.274997,13.5 12.99999,13.5 H 2.9999998 C 2.7250002,13.5 2.4999999,13.274997 2.4999999,12.99999 Z M 2.9999998,2.5 C 2.1715723,2.5 1.5,3.171573 1.5,4 v 8.99999 C 1.5,13.828429 2.1715723,14.5 2.9999998,14.5 H 12.99999 C 13.828429,14.5 14.5,13.828429 14.5,12.99999 V 4 C 14.5,3.171573 13.828429,2.5 12.99999,2.5 H 12.000002 V 3.500001 C 12.000002,4.052283 11.552283,4.5 10.999999,4.5 10.447716,4.5 10.000001,4.052283 10.000001,3.500001 V 2.5 H 5.9999992 V 3.500001 C 5.9999992,4.052283 5.5522853,4.5 5.0000002,4.5 4.4477152,4.5 3.9999998,4.052283 3.9999998,3.500001 V 2.5 Z M 7.552018,12.152557 H 4.4545457 v 0 q 0,-1.619286 1.5871353,-2.481166 v 0 0 Q 6.3680668,9.495098 6.553659,9.309011 v 0 0 Q 6.7392522,9.122923 6.7392522,8.855218 v 0 0 q 0,-0.267704 -0.1887932,-0.437469 v 0 0 Q 6.361669,8.247985 6.0544798,8.247985 v 0 0 q -0.6015768,0 -0.8383658,0.561528 v 0 L 4.524942,8.489574 v 0 Q 4.704135,8.039045 5.1137182,7.771341 v 0 0 Q 5.5233017,7.503637 6.0480802,7.503637 v 0 0 q 0.6719718,0 1.068756,0.378703 v 0 0 Q 7.51362,8.261045 7.51362,8.855218 v 0 0 q 0,0.53541 -0.2655892,0.845556 v 0 0 Q 6.9824422,10.01092 6.4256643,10.324327 v 0 0 Q 5.9584833,10.58551 5.708894,10.833622 v 0 0 Q 5.459304,11.08174 5.376108,11.39514 v 0 h 2.17591 z M 9.503937,9.142512 v 0 0 Q 9.676731,9.299217 9.95832,9.299217 v 0 0 q 0.281588,0 0.457582,-0.156705 v 0 0 q 0.175994,-0.156706 0.175994,-0.391764 v 0 0 q 0,-0.235058 -0.175994,-0.381968 v 0 0 Q 10.239908,8.221868 9.95832,8.221868 v 0 0 q -0.281589,0 -0.454383,0.146912 v 0 0 Q 9.3311452,8.51569 9.3311452,8.750748 v 0 0 q 0,0.235058 0.1727918,0.391764 z m -0.121593,2.161222 v 0 0 q 0.22399,0.202412 0.575976,0.202412 v 0 0 q 0.351987,0 0.582375,-0.205676 v 0 0 q 0.230391,-0.205672 0.230391,-0.525613 v 0 0 q 0,-0.31341 -0.233589,-0.528878 v 0 0 Q 10.303903,10.030506 9.95832,10.030506 v 0 0 q -0.351986,0 -0.575976,0.212208 v 0 0 q -0.223991,0.212203 -0.223991,0.532143 v 0 0 q 0,0.326466 0.223991,0.528877 z m 1.72793,0.528882 v 0 0 Q 10.675093,12.23092 9.95832,12.23092 v 0 0 q -0.7167713,0 -1.1487528,-0.398304 v 0 0 Q 8.377585,11.434322 8.377585,10.794448 v 0 0 q 0,-0.783528 0.7487688,-1.142645 v 0 0 Q 8.5631772,9.331863 8.5631772,8.705043 v 0 0 q 0,-0.52888 0.380784,-0.865144 v 0 0 Q 9.324745,7.503637 9.95832,7.503637 v 0 0 q 0.633576,0 1.017555,0.336261 v 0 0 q 0.383989,0.336265 0.383989,0.865145 v 0 0 q 0,0.620291 -0.56318,0.94023 v 0 0 q 0.345585,0.169765 0.547179,0.463587 v 0 0 q 0.201594,0.293822 0.201594,0.685588 v 0 0 q 0,0.639874 -0.435183,1.038168 z"
     id="path22"
     style="color:#d5c289;isolation:isolate;fill:url(#linearGradient24);stroke-width:1.0833" />
</svg>
