<?xml version="1.0" encoding="UTF-8" standalone="no"?>
<svg
   viewBox="0 0 16 16"
   version="1.1"
   id="svg20"
   sodipodi:docname="com.boxy_svg.BoxySVG.svg"
   inkscape:version="1.3.2 (091e20ef0f, 2023-11-25)"
   width="16"
   height="16"
   xmlns:inkscape="http://www.inkscape.org/namespaces/inkscape"
   xmlns:sodipodi="http://sodipodi.sourceforge.net/DTD/sodipodi-0.dtd"
   xmlns:xlink="http://www.w3.org/1999/xlink"
   xmlns="http://www.w3.org/2000/svg"
   xmlns:svg="http://www.w3.org/2000/svg">
  <defs
     id="defs24">
    <linearGradient
       gradientTransform="matrix(1.049963,0,0,1.0499041,-513.12043,-496.92081)"
       gradientUnits="userSpaceOnUse"
       x2="426.69501"
       y2="499.92099"
       y1="547.67499"
       id="a-6"
       x1="389.32001">
      <stop
         stop-color="#18222a"
         style="stop-color:#1e2b35;stop-opacity:1"
         id="stop216-3" />
      <stop
         stop-color="#566069"
         offset="1"
         style="stop-color:#6d7983;stop-opacity:1"
         id="stop218" />
    </linearGradient>
    <linearGradient
       id="d"
       gradientUnits="userSpaceOnUse"
       x1="27"
       x2="25.42725"
       y1="28"
       y2="32.71825"
       gradientTransform="translate(-58.575692,-29.333333)">
      <stop
         offset="0"
         stop-color="#b1621e"
         id="stop231" />
      <stop
         offset="1"
         stop-color="#ffa21d"
         id="stop233" />
    </linearGradient>
    <linearGradient
       id="c"
       gradientTransform="matrix(2.0428665,-6.8308524,5.7819337,2.3633129,-33.356582,5.3194785)"
       gradientUnits="userSpaceOnUse"
       x1="24"
       x2="24"
       y1="35"
       y2="13">
      <stop
         offset="0"
         stop-color="#cd7223"
         id="stop224" />
      <stop
         offset=".53"
         stop-color="#f48e00"
         id="stop226" />
      <stop
         offset="1"
         stop-color="#ffa92d"
         id="stop228" />
    </linearGradient>
    <linearGradient
       id="linearGradient1"
       inkscape:collect="always">
      <stop
         style="stop-color:#ffd42a;stop-opacity:1"
         offset="0"
         id="stop1" />
      <stop
         style="stop-color:#c779d0;stop-opacity:1;"
         offset="0.46874997"
         id="stop6-8" />
      <stop
         style="stop-color:#4bc0c8;stop-opacity:1;"
         offset="1"
         id="stop2-9" />
    </linearGradient>
    <linearGradient
       id="paint5_linear_618_98"
       x1="29.0156"
       y1="81.431"
       x2="85.169296"
       y2="31.3596"
       gradientUnits="userSpaceOnUse"
       gradientTransform="matrix(0.12107537,0,0,0.11656624,0.23706308,0.50789483)">
      <stop
         stop-color="#0357D1"
         id="stop16" />
      <stop
         offset="1"
         stop-color="#27CDFC"
         id="stop17" />
    </linearGradient>
    <linearGradient
       inkscape:collect="always"
       xlink:href="#linearGradient4212"
       id="linearGradient1742"
       gradientUnits="userSpaceOnUse"
       gradientTransform="matrix(0.19999998,0,0,0.19999999,3.1999997,3.1999999)"
       x1="40.262001"
       y1="16.121"
       x2="24.035999"
       y2="7.3169999" />
    <linearGradient
       id="linearGradient4212">
      <stop
         style="stop-color:#cd7223;stop-opacity:1"
         offset="0"
         id="stop2-3" />
      <stop
         style="stop-color:#ffc169;stop-opacity:1"
         offset="1"
         id="stop4-6" />
    </linearGradient>
    <linearGradient
       inkscape:collect="always"
       xlink:href="#linearGradient4204"
       id="linearGradient1744"
       gradientUnits="userSpaceOnUse"
       gradientTransform="matrix(0.19999998,0,0,0.19999999,3.1999997,3.1999999)"
       x1="42.560001"
       y1="31.190001"
       x2="29.652"
       y2="18.775999" />
    <linearGradient
       id="linearGradient4204">
      <stop
         style="stop-color:#ffa92d;stop-opacity:1"
         offset="0"
         id="stop7-7" />
      <stop
         style="stop-color:#edf573;stop-opacity:1"
         offset="1"
         id="stop9-5" />
    </linearGradient>
    <linearGradient
       inkscape:collect="always"
       xlink:href="#linearGradient4196"
       id="linearGradient1746"
       gradientUnits="userSpaceOnUse"
       gradientTransform="matrix(0.19999998,0,0,0.19999999,3.1999997,3.1999999)"
       x1="33.953999"
       y1="41.036999"
       x2="25.384001"
       y2="31.490999" />
    <linearGradient
       id="linearGradient4196">
      <stop
         style="stop-color:#2b4d37;stop-opacity:1"
         offset="0"
         id="stop12" />
      <stop
         style="stop-color:#3bb566;stop-opacity:1"
         offset="1"
         id="stop14" />
    </linearGradient>
    <linearGradient
       inkscape:collect="always"
       xlink:href="#linearGradient4188"
       id="linearGradient1748"
       gradientUnits="userSpaceOnUse"
       gradientTransform="matrix(0.19999998,0,0,0.19999999,3.1999997,3.1999999)"
       x1="21.153"
       y1="41.487999"
       x2="14.308"
       y2="30.856001" />
    <linearGradient
       id="linearGradient4188">
      <stop
         style="stop-color:#375a7d;stop-opacity:1"
         offset="0"
         id="stop17-3" />
      <stop
         style="stop-color:#54a3d8;stop-opacity:1"
         offset="1"
         id="stop19" />
    </linearGradient>
    <linearGradient
       inkscape:collect="always"
       xlink:href="#linearGradient4174"
       id="linearGradient1750"
       gradientUnits="userSpaceOnUse"
       gradientTransform="matrix(0.19999998,0,0,0.19999999,3.1813096,3.1999999)"
       x1="16.92"
       y1="29.540001"
       x2="5.9169998"
       y2="11.505" />
    <linearGradient
       id="linearGradient4174">
      <stop
         style="stop-color:#68377d;stop-opacity:1"
         offset="0"
         id="stop22" />
      <stop
         style="stop-color:#cb7cec;stop-opacity:1"
         offset="1"
         id="stop24" />
    </linearGradient>
    <linearGradient
       inkscape:collect="always"
       xlink:href="#linearGradient4166"
       id="linearGradient1756"
       gradientUnits="userSpaceOnUse"
       gradientTransform="matrix(0.19999998,0,0,0.19999999,3.1999997,3.1999999)"
       x1="21.523001"
       y1="22.219"
       x2="13.091"
       y2="6.4580002" />
    <linearGradient
       id="linearGradient4166">
      <stop
         style="stop-color:#bf4231;stop-opacity:1"
         offset="0"
         id="stop27" />
      <stop
         style="stop-color:#f58273;stop-opacity:1"
         offset="1"
         id="stop29" />
    </linearGradient>
    <linearGradient
       inkscape:collect="always"
       xlink:href="#linearGradient4174"
       id="linearGradient13"
       gradientUnits="userSpaceOnUse"
       gradientTransform="matrix(0.01874919,0,0,0.01874813,3.2181857,3.2108289)"
       x1="272.35001"
       y1="268.70001"
       x2="220.97"
       y2="231.53999" />
    <linearGradient
       inkscape:collect="always"
       xlink:href="#linearGradient1"
       id="linearGradient11"
       x1="1.795455"
       y1="7.9999995"
       x2="14.204545"
       y2="7.9999995"
       gradientUnits="userSpaceOnUse" />
  </defs>
  <sodipodi:namedview
     id="namedview22"
     pagecolor="#ffffff"
     bordercolor="#666666"
     borderopacity="1.0"
     inkscape:showpageshadow="2"
     inkscape:pageopacity="0.0"
     inkscape:pagecheckerboard="0"
     inkscape:deskcolor="#d1d1d1"
     showgrid="false"
     inkscape:zoom="7.959545"
     inkscape:cx="-18.217122"
     inkscape:cy="15.139056"
     inkscape:window-width="1920"
     inkscape:window-height="994"
     inkscape:window-x="0"
     inkscape:window-y="0"
     inkscape:window-maximized="1"
     inkscape:current-layer="svg20" />
  <linearGradient
     id="a"
     gradientUnits="userSpaceOnUse"
     x1="4"
     x2="4"
     y1="3"
     y2="45"
     gradientTransform="translate(-67.596829,-16.220337)">
    <stop
       offset="0"
       stop-color="#2a2c2f"
       id="stop2" />
    <stop
       offset="1"
       stop-color="#536161"
       id="stop4" />
  </linearGradient>
  <linearGradient
     id="b"
     gradientUnits="userSpaceOnUse"
     x1="4"
     x2="4"
     y1="3"
     y2="45"
     gradientTransform="translate(-67.596829,-16.220337)">
    <stop
       offset="0"
       stop-color="#292c2f"
       id="stop7" />
    <stop
       offset="1"
       stop-opacity="0"
       id="stop9" />
  </linearGradient>
  <path
     style="fill:url(#linearGradient1742);fill-opacity:1;stroke-width:0.2"
     d="M 8.7279092,4.0758369 7.7742339,6.772675 11.528921,6.145083 C 10.972628,5.0838899 9.9476887,4.3041999 8.7271191,4.0758369"
     id="path53-1" />
  <path
     style="fill:url(#linearGradient1744);fill-opacity:1;stroke-width:0.2"
     d="M 11.77588,6.73277 8.9480171,7.2608 11.372972,10.1777 C 12.020073,9.1686591 12.187474,7.897079 11.77588,6.73277"
     id="path55-8" />
  <path
     style="fill:url(#linearGradient1746);fill-opacity:1;stroke-width:0.2"
     d="M 11.007962,10.620389 9.1337776,8.4515801 7.8032522,11.996264 c 1.2031987,0.05196 2.3955398,-0.439728 3.2049098,-1.375875"
     id="path57-7" />
  <path
     style="fill:url(#linearGradient1748);fill-opacity:1;stroke-width:0.2"
     d="M 7.2473536,11.926137 8.2010287,9.2293021 4.4463391,9.8568931 c 0.5562938,1.0611909 1.5812333,1.8408849 2.8018036,2.0692439"
     id="path59-9" />
  <path
     style="fill:url(#linearGradient1750);fill-opacity:1;stroke-width:0.2"
     d="M 4.2241208,9.2652521 7.0519827,8.7372271 4.6270293,5.820328 C 3.9799278,6.829371 3.8125259,8.100942 4.2241208,9.2652521"
     id="path61-2" />
  <path
     style="fill:url(#linearGradient1756);fill-opacity:1;stroke-width:0.2"
     d="M 4.9830896,5.3796129 6.8572761,7.548421 8.1878022,4.0037329 c -1.2031982,-0.05194 -2.39554,0.439731 -3.2049103,1.37588"
     id="path67-3" />
  <path
     style="opacity:0.15;fill:#000000;fill-opacity:1;stroke-width:0.2"
     d="m 4.003516,7.898045 c -0.0071,0.457666 0.062687,0.9202101 0.2207034,1.3671901 l 0.05039,-0.0094 A 4.0000002,4.0000004 0 0 1 4.0035158,7.898016 Z m 7.993748,0.04687 c -0.01911,0.7191031 -0.23359,1.4236941 -0.624216,2.0328101 l -0.0129,-0.01562 a 4.0000002,4.0000004 0 0 1 -0.07185,0.1136729 l 0.08476,0.101952 C 11.799798,9.5123021 12.0163,8.7326361 11.997274,7.944919 Z M 4.5492191,9.8398341 4.4464843,9.8570041 C 5.0026639,10.917979 6.027028,11.697606 7.2472663,11.926144 L 7.3144483,11.73669 A 4.0000002,4.0000004 0 0 1 7.1238236,11.69961 C 7.0272816,11.67836 6.9316567,11.65464 6.8378858,11.62657 a 4.0000002,4.0000004 0 0 1 -0.01289,-0.0036 4.0000002,4.0000004 0 0 1 -0.031245,-0.01054 C 6.673997,11.575109 6.5567721,11.532339 6.4421846,11.484356 5.6475109,11.151585 4.9836079,10.571372 4.5492158,9.8398241 Z m 6.3742189,0.6828129 a 4.0000002,4.0000004 0 0 1 -2.4007824,1.23828 c -0.0139,0.0019 -0.027867,0.0033 -0.041797,0.0051 a 4.0000002,4.0000004 0 0 1 -0.3847665,0.03047 c -0.00189,5.8e-5 -0.00388,3.24e-4 -0.00588,3.81e-4 a 4.0000002,4.0000004 0 0 1 -0.00355,0 4.0000002,4.0000004 0 0 1 -0.086721,0.0031 4.0000002,4.0000004 0 0 1 -0.057029,-0.0028 c -0.021758,-1.79e-4 -0.043462,5.15e-4 -0.065238,0 l -0.074601,0.198834 c 1.2032048,0.05195 2.3957149,-0.439634 3.2050849,-1.375783 h -3.81e-4 z"
     id="path69-7" />
  <path
     style="opacity:0.1;stroke-width:0.14041"
     d="m 8.0252245,5.7332529 c -0.3704928,0 -0.6770674,0.3068671 -0.6770674,0.6774261 0,0.05267 0.019566,0.0996 0.0312,0.149184 -0.1205264,-0.19072 -0.3235325,-0.325624 -0.563026,-0.325624 -0.3704195,0 -0.6774227,0.306503 -0.6774227,0.677069 0,0.239536 0.1351666,0.442497 0.3259818,0.563022 -0.049716,-0.01166 -0.096753,-0.0312 -0.1495418,-0.0312 -0.3704263,0 -0.6770654,0.306663 -0.6770654,0.677062 0,0.3704271 0.3067175,0.6770641 0.6770654,0.6770641 0.052746,0 0.099834,-0.01955 0.1495418,-0.0312 -0.1908166,0.120561 -0.3259818,0.323809 -0.3259818,0.563385 0,0.370369 0.3064612,0.6770629 0.6770647,0.6770629 0.2398169,0 0.4429351,-0.1353259 0.563384,-0.3263359 -0.011722,0.04983 -0.0312,0.09696 -0.0312,0.149895 0,0.3705379 0.3066791,0.6770679 0.6770674,0.6770679 0.37033,0 0.6770621,-0.306552 0.6770621,-0.6770679 0,-0.05283 -0.019541,-0.09984 -0.031199,-0.149544 0.1204725,0.190821 0.3233564,0.3259849 0.5630238,0.3259849 0.3705923,0 0.6770663,-0.3066669 0.6770663,-0.6770629 0,-0.239642 -0.135115,-0.442842 -0.32598,-0.563385 0.04988,0.01171 0.09732,0.0312 0.150259,0.0312 0.3703043,0 0.6767073,-0.306583 0.6767073,-0.6770641 0,-0.370453 -0.306324,-0.677062 -0.6767073,-0.677062 -0.05292,0 -0.100129,0.01953 -0.149901,0.0312 0.190797,-0.120519 0.32598,-0.32347 0.32598,-0.563022 0,-0.37044 -0.306665,-0.677069 -0.6770632,-0.677069 -0.239768,0 -0.4429234,0.135247 -0.5633849,0.326343 0.011733,-0.04981 0.031199,-0.09695 0.031199,-0.149903 0,-0.37069 -0.3067321,-0.6774261 -0.6770621,-0.6774261 z"
     id="path9-3" />
  <path
     style="fill:#3f3f3f;stroke-width:0.14041"
     d="m 8.0252245,5.5928439 c -0.3704928,0 -0.6770674,0.3068741 -0.6770674,0.6774281 0,0.05267 0.019566,0.0996 0.0312,0.149186 C 7.2588307,6.228737 7.0558246,6.09383 6.8163311,6.09383 c -0.3704195,0 -0.6774227,0.306505 -0.6774227,0.677068 0,0.239541 0.1351666,0.442501 0.3259818,0.563023 -0.049716,-0.01165 -0.096753,-0.0312 -0.1495418,-0.0312 -0.3704263,0 -0.6770654,0.306668 -0.6770654,0.677068 0,0.370422 0.3067175,0.6770581 0.6770654,0.6770581 0.052746,0 0.099834,-0.01954 0.1495418,-0.0312 -0.1908166,0.120559 -0.3259818,0.323812 -0.3259818,0.563385 0,0.370367 0.3064612,0.677069 0.6770647,0.677069 0.2398169,0 0.4429351,-0.135336 0.563384,-0.326343 -0.011722,0.04983 -0.0312,0.09696 -0.0312,0.1499 0,0.3705379 0.3066791,0.6770639 0.6770674,0.6770639 0.37033,0 0.6770621,-0.306552 0.6770621,-0.6770639 0,-0.05283 -0.019541,-0.09985 -0.031199,-0.149541 0.1204725,0.190816 0.3233564,0.325984 0.5630238,0.325984 0.3705923,0 0.6770663,-0.306673 0.6770663,-0.677069 0,-0.239637 -0.135115,-0.442841 -0.32598,-0.563385 0.04988,0.01171 0.09732,0.0312 0.150259,0.0312 0.3703043,0 0.6767073,-0.3065781 0.6767073,-0.6770581 0,-0.370458 -0.306324,-0.677068 -0.6767073,-0.677068 -0.05292,0 -0.100129,0.01953 -0.149901,0.0312 0.190797,-0.120518 0.32598,-0.323469 0.32598,-0.563023 0,-0.370438 -0.306665,-0.677068 -0.6770632,-0.677068 -0.239768,0 -0.4429234,0.135249 -0.5633849,0.326344 0.011733,-0.04982 0.031199,-0.09695 0.031199,-0.149902 0,-0.370692 -0.3067321,-0.6774281 -0.6770621,-0.6774281 z"
     id="path10-6" />
  <path
     style="opacity:0.2;stroke-width:0.14041"
     d="m 8.6278843,8.369861 h 0.7437945 c 0.065399,0.0681 0.1573289,0.1103381 0.2594199,0.1103381 0.198663,0 0.35984,-0.1610661 0.35984,-0.3600001 0,-0.198825 -0.161177,-0.359981 -0.35984,-0.359981 -0.101878,0 -0.1940201,0.0425 -0.2594199,0.110477 H 8.6278843 L 9.1537271,7.344629 c 0.0024,0 0.00459,2.72e-4 0.00699,2.72e-4 0.1988222,0 0.3599716,-0.161182 0.3599716,-0.360004 0,-0.198858 -0.1611494,-0.359979 -0.3599716,-0.359979 -0.1988506,0 -0.3599981,0.161121 -0.3599981,0.359979 0,0.0024 1.322e-4,0.0042 1.322e-4,0.0066 L 8.2749838,7.517469 V 6.773821 c 0.067919,-0.06555 0.1103429,-0.157437 0.1103429,-0.259291 0,-0.199118 -0.161334,-0.360215 -0.3599974,-0.360215 -0.1988766,0 -0.3601061,0.161204 -0.3601061,0.360215 0,0.101854 0.0424,0.19373 0.1103698,0.259291 V 7.517468 L 7.2496726,6.991523 c 0,-0.0024 1.068e-4,-0.0042 1.068e-4,-0.0066 0,-0.198851 -0.1610689,-0.359977 -0.3599715,-0.359977 -0.1989016,0 -0.3601839,0.161126 -0.3601839,0.359977 0,0.198828 0.1611233,0.360005 0.3600247,0.360005 0.0022,0 0.0046,-2.71e-4 0.00684,-2.71e-4 L 7.422544,7.870724 H 6.6787996 c -0.065478,-0.06816 -0.157432,-0.110471 -0.259312,-0.110471 -0.198824,0 -0.3599462,0.161151 -0.3599462,0.35998 0,0.19893 0.1611222,0.3600011 0.3599462,0.3600011 0.10188,0 0.1939663,-0.04223 0.259312,-0.1103431 H 7.4226211 L 6.896566,8.8958231 c -0.0022,0 -0.00454,-2.68e-4 -0.00684,-2.68e-4 -0.1989015,0 -0.3600248,0.161127 -0.3600248,0.360165 0,0.19872 0.1611233,0.360033 0.3600248,0.360033 0.1988751,0 0.3600248,-0.161313 0.3600248,-0.360033 0,-0.0026 -1.401e-4,-0.0042 -1.401e-4,-0.0068 l 0.5258945,-0.526014 v 0.743888 c -0.067918,0.06537 -0.1102872,0.157279 -0.1102872,0.259345 0,0.198852 0.1612545,0.3599499 0.3601295,0.3599499 0.1986638,0 0.3598917,-0.1610979 0.3598917,-0.3599499 0,-0.101909 -0.042396,-0.193944 -0.1102878,-0.259345 v -0.743883 l 0.5258956,0.526012 c 0,0.0025 -1.404e-4,0.004 -1.404e-4,0.0068 0,0.19872 0.1610964,0.36003 0.3599713,0.36003 0.1988491,0 0.3599988,-0.16131 0.3599988,-0.36003 0,-0.199038 -0.1611497,-0.360164 -0.3599988,-0.360164 -0.0024,0 -0.00455,2.68e-4 -0.00696,2.68e-4 z"
     id="path11-7" />
  <path
     style="fill:#ffffff;stroke-width:0.14041"
     d="m 8.6278843,8.229461 h 0.7437945 c 0.065399,0.0681 0.1573289,0.110338 0.2594199,0.110338 0.198663,0 0.35984,-0.161066 0.35984,-0.36 0,-0.198825 -0.161177,-0.359981 -0.35984,-0.359981 -0.101878,0 -0.1940201,0.0425 -0.2594199,0.110478 H 8.6278843 L 9.1537271,7.20423 c 0.0024,0 0.00459,2.71e-4 0.00699,2.71e-4 0.1988222,0 0.3599716,-0.161182 0.3599716,-0.360003 0,-0.198859 -0.1611494,-0.359979 -0.3599716,-0.359979 -0.1988506,0 -0.3599981,0.16112 -0.3599981,0.359979 0,0.0024 1.322e-4,0.0042 1.322e-4,0.0066 L 8.2749838,7.377069 V 6.633433 c 0.067919,-0.06555 0.1103429,-0.157436 0.1103429,-0.259292 0,-0.199118 -0.161334,-0.360218 -0.3599974,-0.360218 -0.1988766,0 -0.3601061,0.161205 -0.3601061,0.360218 0,0.101856 0.0424,0.19373 0.1103698,0.259292 V 7.37708 L 7.2496745,6.851145 c 0,-0.0024 1.068e-4,-0.0042 1.068e-4,-0.0066 0,-0.198858 -0.1610691,-0.359981 -0.3599717,-0.359981 -0.1989013,0 -0.3601839,0.161123 -0.3601839,0.359981 0,0.198821 0.1611236,0.360002 0.3600248,0.360002 0.0022,0 0.0046,-2.7e-4 0.00684,-2.7e-4 L 7.4225512,7.730344 H 6.6787931 c -0.065478,-0.06816 -0.157432,-0.110473 -0.259312,-0.110473 -0.198824,0 -0.3599465,0.161154 -0.3599465,0.359977 0,0.198936 0.1611225,0.360004 0.3599465,0.360004 0.10188,0 0.1939663,-0.04223 0.259312,-0.110341 H 7.4226146 L 6.8965595,8.7554451 c -0.0022,0 -0.00454,-2.69e-4 -0.00684,-2.69e-4 -0.1989016,0 -0.3600249,0.161127 -0.3600249,0.360165 0,0.19872 0.1611233,0.360027 0.3600249,0.360027 0.1988751,0 0.3600247,-0.161307 0.3600247,-0.360027 0,-0.0026 -1.4e-4,-0.0042 -1.4e-4,-0.0068 l 0.5258945,-0.526013 v 0.743887 c -0.067918,0.06537 -0.1102873,0.157279 -0.1102873,0.259345 0,0.198854 0.1612546,0.359952 0.3601296,0.359952 0.1986638,0 0.3598917,-0.161098 0.3598917,-0.359952 0,-0.101908 -0.042396,-0.193944 -0.1102878,-0.259345 v -0.743887 l 0.5258955,0.526013 c 0,0.0025 -1.404e-4,0.0041 -1.404e-4,0.0068 0,0.19872 0.1610963,0.360027 0.3599713,0.360027 0.1988492,0 0.3599994,-0.161307 0.3599994,-0.360027 0,-0.199037 -0.1611502,-0.360165 -0.3599994,-0.360165 -0.0024,0 -0.00455,2.69e-4 -0.00696,2.69e-4 z"
     id="path12-5" />
  <circle
     style="fill:url(#linearGradient13);stroke-width:0.2"
     cy="8.0095177"
     cx="8.0190439"
     r="0.6000002"
     id="circle63-0-6" />
  <g
     id="g2"
     transform="matrix(1.0476191,0,0,1.0476191,-0.38095295,-0.38095243)">
    <path
       d="m 8,1.7954545 c -3.422752,0 -6.204545,2.781793 -6.204545,6.204546 0,3.4227515 2.781793,6.2045445 6.204545,6.2045445 3.422752,0 6.204545,-2.781793 6.204545,-6.2045445 0,-3.422753 -2.781793,-6.204546 -6.204545,-6.204546 z m 0,1.0481888 c 3.06283,0 5.155987,2.0934972 5.155987,5.1563272 0,3.0628295 -2.093157,5.1565815 -5.155987,5.1565815 -3.062829,0 -5.155967,-2.093752 -5.155967,-5.1565815 0,-3.06283 2.093138,-5.1563272 5.155967,-5.1563272 z"
       stroke-width="0.590909"
       id="path1"
       style="fill:url(#linearGradient11)"
       sodipodi:nodetypes="ssssssssss" />
  </g>
</svg>
