<?xml version="1.0" encoding="UTF-8" standalone="no"?>
<svg
   style="isolation:isolate"
   width="16"
   height="16"
   viewBox="0 0 16 16"
   version="1.1"
   id="svg23"
   sodipodi:docname="plugin.svg"
   inkscape:version="1.3.2 (091e20ef0f, 2023-11-25)"
   xmlns:inkscape="http://www.inkscape.org/namespaces/inkscape"
   xmlns:sodipodi="http://sodipodi.sourceforge.net/DTD/sodipodi-0.dtd"
   xmlns:xlink="http://www.w3.org/1999/xlink"
   xmlns="http://www.w3.org/2000/svg"
   xmlns:svg="http://www.w3.org/2000/svg">
  <sodipodi:namedview
     id="namedview23"
     pagecolor="#ffffff"
     bordercolor="#000000"
     borderopacity="0.25"
     inkscape:showpageshadow="2"
     inkscape:pageopacity="0.0"
     inkscape:pagecheckerboard="0"
     inkscape:deskcolor="#d1d1d1"
     inkscape:zoom="23.96875"
     inkscape:cx="8.4276402"
     inkscape:cy="7.9895697"
     inkscape:window-width="1920"
     inkscape:window-height="994"
     inkscape:window-x="0"
     inkscape:window-y="0"
     inkscape:window-maximized="1"
     inkscape:current-layer="svg23" />
  <defs
     id="defs22">
    <linearGradient
       id="linearGradient23"
       inkscape:collect="always">
      <stop
         style="stop-color:#00ccff;stop-opacity:1"
         offset="0"
         id="stop23" />
      <stop
         style="stop-color:#cd87de;stop-opacity:1"
         offset="1"
         id="stop24" />
    </linearGradient>
    <style
       id="current-color-scheme"
       type="text/css">
   .ColorScheme-Text { color:#d5c289; } .ColorScheme-Highlight { color:#5294e2; }
  </style>
    <linearGradient
       id="arrongin"
       x1="0%"
       x2="0%"
       y1="0%"
       y2="100%">
      <stop
         offset="0%"
         style="stop-color:#dd9b44; stop-opacity:1"
         id="stop1" />
      <stop
         offset="100%"
         style="stop-color:#ad6c16; stop-opacity:1"
         id="stop2" />
    </linearGradient>
    <linearGradient
       id="aurora"
       x1="0%"
       x2="0%"
       y1="0%"
       y2="100%">
      <stop
         offset="0%"
         style="stop-color:#09D4DF; stop-opacity:1"
         id="stop3" />
      <stop
         offset="100%"
         style="stop-color:#9269F4; stop-opacity:1"
         id="stop4" />
    </linearGradient>
    <linearGradient
       id="fitdance"
       x1="0%"
       x2="0%"
       y1="0%"
       y2="100%">
      <stop
         offset="0%"
         style="stop-color:#1AD6AB; stop-opacity:1"
         id="stop5" />
      <stop
         offset="100%"
         style="stop-color:#329DB6; stop-opacity:1"
         id="stop6" />
    </linearGradient>
    <linearGradient
       id="oomox"
       x1="0%"
       x2="0%"
       y1="0%"
       y2="100%">
      <stop
         offset="0%"
         style="stop-color:#303b3d; stop-opacity:1"
         id="stop7" />
      <stop
         offset="100%"
         style="stop-color:#bc985d; stop-opacity:1"
         id="stop8" />
    </linearGradient>
    <linearGradient
       id="rainblue"
       x1="0%"
       x2="0%"
       y1="0%"
       y2="100%">
      <stop
         offset="0%"
         style="stop-color:#00F260; stop-opacity:1"
         id="stop9" />
      <stop
         offset="100%"
         style="stop-color:#0575E6; stop-opacity:1"
         id="stop10" />
    </linearGradient>
    <linearGradient
       id="sunrise"
       x1="0%"
       x2="0%"
       y1="0%"
       y2="100%">
      <stop
         offset="0%"
         style="stop-color: #FF8501; stop-opacity:1"
         id="stop11" />
      <stop
         offset="100%"
         style="stop-color: #FFCB01; stop-opacity:1"
         id="stop12" />
    </linearGradient>
    <linearGradient
       id="telinkrin"
       x1="0%"
       x2="0%"
       y1="0%"
       y2="100%">
      <stop
         offset="0%"
         style="stop-color: #b2ced6; stop-opacity:1"
         id="stop13" />
      <stop
         offset="100%"
         style="stop-color: #6da5b7; stop-opacity:1"
         id="stop14" />
    </linearGradient>
    <linearGradient
       id="60spsycho"
       x1="0%"
       x2="0%"
       y1="0%"
       y2="100%">
      <stop
         offset="0%"
         style="stop-color: #df5940; stop-opacity:1"
         id="stop15" />
      <stop
         offset="25%"
         style="stop-color: #d8d15f; stop-opacity:1"
         id="stop16" />
      <stop
         offset="50%"
         style="stop-color: #e9882a; stop-opacity:1"
         id="stop17" />
      <stop
         offset="100%"
         style="stop-color: #279362; stop-opacity:1"
         id="stop18" />
    </linearGradient>
    <linearGradient
       id="90ssummer"
       x1="0%"
       x2="0%"
       y1="0%"
       y2="100%">
      <stop
         offset="0%"
         style="stop-color: #f618c7; stop-opacity:1"
         id="stop19" />
      <stop
         offset="20%"
         style="stop-color: #94ffab; stop-opacity:1"
         id="stop20" />
      <stop
         offset="50%"
         style="stop-color: #fbfd54; stop-opacity:1"
         id="stop21" />
      <stop
         offset="100%"
         style="stop-color: #0f83ae; stop-opacity:1"
         id="stop22" />
    </linearGradient>
    <clipPath
       id="_clipPath_9XjUN2pCECb0oItogsR0VXCv9A4NQr2Q">
      <rect
         width="16"
         height="16"
         id="rect22" />
    </clipPath>
    <linearGradient
       inkscape:collect="always"
       xlink:href="#linearGradient23"
       id="linearGradient24"
       x1="1.5003259"
       y1="1.7418499"
       x2="12.914277"
       y2="10.378095"
       gradientUnits="userSpaceOnUse" />
  </defs>
  <g
     clip-path="url(#_clipPath_9XjUN2pCECb0oItogsR0VXCv9A4NQr2Q)"
     id="g23">
    <path
       d="M 11.325469,1.7134425 C 11.092232,1.6010823 10.870102,1.5323659 10.659078,1.5100799 10.445277,1.4877934 10.249989,1.5026496 10.073208,1.5527957 9.8964305,1.6038682 9.7409389,1.6874422 9.6058097,1.8035169 9.4706803,1.9195913 9.3633173,2.0616667 9.2827949,2.2288143 9.2318905,2.3346742 9.194869,2.4331055 9.1708041,2.524108 c -0.024989,0.093788 -0.041651,0.1764336 -0.049979,0.2479353 -0.00927,0.074289 -0.01203,0.136504 -0.00927,0.1857194 0.00188,0.050143 9.255e-4,0.09379 0.00459,0.1142177 l 0.022214,0.2219346 c 0.011105,0.1030743 0,0.1829335 -0.032394,0.2386494 -0.030542,0.058503 -0.08885,0.091932 -0.1749278,0.1002887 -0.020363,0.00188 -0.041652,0.00188 -0.065715,9.285e-4 -0.023136,-9.285e-4 -0.044425,-0.0037 -0.062936,-0.00742 L 5.3177652,1.9437346 4.1830484,4.3088714 c -0.00369,0.018571 -0.00648,0.03993 -0.00739,0.064073 -0.00188,0.023213 -9.254e-4,0.045501 9.258e-4,0.065002 0.00836,0.086362 0.04165,0.1448611 0.099958,0.1755049 0.055532,0.0325 0.1351297,0.043642 0.237865,0.03343 l 0.2212019,-0.023214 c 0.020363,-0.0028 0.063861,-0.00188 0.113842,-0.00462 0.049053,-0.0028 0.1110655,9.287e-4 0.1851088,0.010212 0.071267,0.00742 0.1536403,0.024142 0.2471203,0.049215 0.090703,0.024142 0.1888109,0.062216 0.2943229,0.1123604 0.166598,0.080788 0.308206,0.1885049 0.4238992,0.3240802 0.1156901,0.1355715 0.1989889,0.2925043 0.2498939,0.4689376 0.049978,0.1773618 0.064788,0.3732959 0.042573,0.5878017 C 6.2692274,6.3833604 6.2016629,6.6062237 6.0896716,6.84023 5.9767525,7.0742336 5.8490273,7.2701673 5.7046425,7.4252431 5.5593319,7.5775331 5.4047661,7.6908217 5.2400195,7.7632525 5.0752726,7.8366117 4.9040469,7.8700412 4.7254171,7.8635409 4.5477125,7.8570407 4.3700082,7.8106109 4.1913781,7.7242514 4.0877174,7.6750359 3.9960885,7.6221058 3.9137151,7.5654612 3.8322673,7.5097456 3.7637769,7.4568155 3.7063933,7.4057425 3.6490095,7.3546699 3.6027324,7.3091686 3.5675617,7.2692388 3.5342426,7.2265238 3.5212851,7.1986652 3.5111032,7.1773076 L 3.3898574,6.9888025 C 3.3343246,6.9015144 3.2760154,6.8457985 3.215855,6.8225836 c -0.059236,-0.026 -0.1258739,-0.015787 -0.1989919,0.031572 -0.016659,0.010212 -0.034247,0.024142 -0.051831,0.03993 -0.017583,0.015787 -0.032394,0.030642 -0.044425,0.045501 L 1.25,10.419039 4.733747,12.101658 c 0.018509,0.0039 0.039799,0.0067 0.063861,0.0072 0.024063,0.002 0.045352,9.29e-4 0.065715,-9.27e-4 0.086078,-0.0082 0.1443849,-0.0418 0.1749277,-0.09935 0.032394,-0.05662 0.043499,-0.136505 0.032394,-0.238649 l -0.022214,-0.22289 c -0.00369,-0.02041 -0.00279,-0.06409 -0.00557,-0.11422 -0.00188,-0.04921 9.257e-4,-0.111429 0.010179,-0.185717 0.00836,-0.07151 0.024988,-0.154147 0.049978,-0.247938 0.024063,-0.091 0.061087,-0.189434 0.1119908,-0.295293 0.079599,-0.167147 0.1878855,-0.308295 0.3230148,-0.425297 0.135133,-0.116075 0.2906243,-0.199649 0.4674031,-0.249792 0.1758534,-0.051076 0.3711431,-0.065931 0.5858692,-0.043638 0.2100987,0.023208 0.4322288,0.091001 0.6663917,0.2033631 0.2332369,0.113286 0.4276012,0.241432 0.5830925,0.386294 0.1517893,0.14579 0.2637801,0.301794 0.336898,0.467084 0.072194,0.164361 0.105512,0.337083 0.099959,0.515371 -0.00648,0.178292 -0.052757,0.357509 -0.1388316,0.53673 -0.049978,0.103075 -0.1027354,0.195934 -0.1582681,0.277651 -0.05553,0.0817 -0.1092141,0.150434 -0.160119,0.208006 -0.049978,0.05759 -0.09533,0.104005 -0.136055,0.139288 -0.042573,0.03341 -0.07034,0.04642 -0.09163,0.05759 l -0.1878852,0.120719 c -0.086078,0.05571 -0.1416083,0.114216 -0.1656725,0.174576 -0.025915,0.05942 -0.01481,0.126287 0.031468,0.199646 0.011105,0.0167 0.024063,0.03439 0.039799,0.052 0.015737,0.01761 0.031468,0.0325 0.045351,0.0455 l 2.341626,1.131032 1.6706076,-3.47945 c 0.01205,-0.01488 0.02682,-0.0297 0.04444,-0.0455 0.01853,-0.0158 0.03518,-0.0288 0.05183,-0.03992 0.07314,-0.04642 0.139755,-0.05759 0.198991,-0.03159 0.06019,0.02411 0.118469,0.0789 0.174002,0.166216 l 0.121246,0.188506 c 0.01017,0.02139 0.02312,0.0492 0.0574,0.09192 0.03428,0.03991 0.08143,0.08639 0.137905,0.136502 0.0574,0.05109 0.125874,0.104004 0.208249,0.160649 0.08143,0.05571 0.174002,0.108647 0.276736,0.158791 0.178631,0.0854 0.356335,0.132788 0.534965,0.13836 0.177705,0.0066 0.348931,-0.02691 0.513677,-0.09936 0.164747,-0.07338 0.319312,-0.186647 0.464623,-0.338008 0.144385,-0.156004 0.27211,-0.35101 0.385027,-0.585947 0.111991,-0.234005 0.179554,-0.456869 0.202695,-0.667659 0.02223,-0.215434 0.0081,-0.4113691 -0.04256,-0.5878026 C 14.646332,9.4885005 14.56303,9.3315676 14.447336,9.1959925 14.331645,9.0604173 14.190037,8.9526999 14.023438,8.8728406 13.918852,8.8217683 13.820744,8.7846238 13.729115,8.7604804 c -0.09349,-0.025071 -0.175852,-0.04179 -0.247119,-0.050143 -0.07406,-0.0093 -0.136055,-0.013001 -0.185109,-0.010211 -0.04996,0.0028 -0.09349,0.00188 -0.112917,0.00559 l -0.222131,0.022286 c -0.102737,0.010213 -0.18233,-9.285e-4 -0.237864,-0.032501 -0.0574,-0.030643 -0.0907,-0.089144 -0.09996,-0.1764333 -0.002,-0.0195 -0.002,-0.04086 -9.27e-4,-0.065003 9.27e-4,-0.024142 0.0039,-0.045501 0.0071,-0.064072 L 13.765163,6.0249219 11.423536,4.892962 c -0.01386,-0.01207 -0.02871,-0.026931 -0.04444,-0.044572 -0.01575,-0.017641 -0.0296,-0.035289 -0.03978,-0.052002 -0.04721,-0.07336 -0.05831,-0.1402182 -0.03149,-0.1996481 0.02312,-0.06036 0.07865,-0.1188605 0.164746,-0.1745763 L 11.660506,4.300514 c 0.02223,-0.010215 0.04904,-0.023213 0.09257,-0.056644 0.03978,-0.035289 0.08513,-0.081716 0.136055,-0.1392895 0.04997,-0.057573 0.103662,-0.1262893 0.159194,-0.2080058 0.05552,-0.082644 0.10829,-0.1745761 0.158268,-0.2785791 0.08609,-0.1792191 0.132349,-0.3575098 0.138828,-0.5358004 0.0059,-0.1792198 -0.02779,-0.3510104 -0.09996,-0.5163005 C 12.172345,2.4006048 12.060354,2.2455291 11.908565,2.0997395 11.753073,1.9548784 11.558709,1.8267318 11.325471,1.713443 Z"
       id="path22"
       style="fill:url(#linearGradient24)" />
    <rect
       style="fill:url(#oomox)"
       class="ColorScheme-Text"
       width="4.625"
       height="3.594"
       x="17.63"
       y="-.28"
       transform="matrix(1,0,0,1,0,0)"
       id="rect23" />
  </g>
</svg>
