<?xml version="1.0" encoding="UTF-8" standalone="no"?>
<svg
   width="16"
   height="16"
   version="1.1"
   id="svg22"
   sodipodi:docname="firefox-aurora-icon.svg"
   inkscape:version="1.3.2 (091e20ef0f, 2023-11-25)"
   xmlns:inkscape="http://www.inkscape.org/namespaces/inkscape"
   xmlns:sodipodi="http://sodipodi.sourceforge.net/DTD/sodipodi-0.dtd"
   xmlns:xlink="http://www.w3.org/1999/xlink"
   xmlns="http://www.w3.org/2000/svg"
   xmlns:svg="http://www.w3.org/2000/svg">
  <sodipodi:namedview
     id="namedview22"
     pagecolor="#ffffff"
     bordercolor="#000000"
     borderopacity="0.25"
     inkscape:showpageshadow="2"
     inkscape:pageopacity="0.0"
     inkscape:pagecheckerboard="0"
     inkscape:deskcolor="#d1d1d1"
     inkscape:zoom="11.984375"
     inkscape:cx="-4.756193"
     inkscape:cy="10.054759"
     inkscape:window-width="1920"
     inkscape:window-height="994"
     inkscape:window-x="0"
     inkscape:window-y="0"
     inkscape:window-maximized="1"
     inkscape:current-layer="svg22"
     showgrid="false">
    <inkscape:grid
       id="grid27"
       units="px"
       originx="0"
       originy="0"
       spacingx="1"
       spacingy="1"
       empcolor="#0099e5"
       empopacity="0.30196078"
       color="#0099e5"
       opacity="0.14902"
       empspacing="5"
       dotted="false"
       gridanglex="30"
       gridanglez="30"
       visible="false" />
  </sodipodi:namedview>
  <defs
     id="defs22">
    <linearGradient
       id="linearGradient1"
       inkscape:collect="always">
      <stop
         style="stop-color:#7f2aff;stop-opacity:1"
         offset="0"
         id="stop24" />
      <stop
         style="stop-color:#b380ff;stop-opacity:1"
         offset="0.58796823"
         id="stop28" />
      <stop
         style="stop-color:#ff55dd;stop-opacity:1"
         offset="1"
         id="stop27" />
    </linearGradient>
    <style
       id="current-color-scheme"
       type="text/css">
   .ColorScheme-Text { color:#d5c289; } .ColorScheme-Highlight { color:#5294e2; }
  </style>
    <linearGradient
       id="arrongin"
       x1="0%"
       x2="0%"
       y1="0%"
       y2="100%">
      <stop
         offset="0%"
         style="stop-color:#dd9b44; stop-opacity:1"
         id="stop1" />
      <stop
         offset="100%"
         style="stop-color:#ad6c16; stop-opacity:1"
         id="stop2" />
    </linearGradient>
    <linearGradient
       id="aurora"
       x1="0%"
       x2="0%"
       y1="0%"
       y2="100%">
      <stop
         offset="0%"
         style="stop-color:#09D4DF; stop-opacity:1"
         id="stop3" />
      <stop
         offset="100%"
         style="stop-color:#9269F4; stop-opacity:1"
         id="stop4" />
    </linearGradient>
    <linearGradient
       id="fitdance"
       x1="0%"
       x2="0%"
       y1="0%"
       y2="100%">
      <stop
         offset="0%"
         style="stop-color:#1AD6AB; stop-opacity:1"
         id="stop5" />
      <stop
         offset="100%"
         style="stop-color:#329DB6; stop-opacity:1"
         id="stop6" />
    </linearGradient>
    <linearGradient
       id="oomox"
       x1="15.999997"
       x2="-8.1294915e-10"
       y1="5.5739447e-06"
       y2="16.000004"
       gradientUnits="userSpaceOnUse"
       gradientTransform="matrix(0.87500218,0,0,0.87500218,-17.440678,3.9621859)">
      <stop
         offset="0%"
         style="stop-color:#5599ff;stop-opacity:1"
         id="stop7" />
      <stop
         offset="0.51303768"
         style="stop-color:#fff3c1;stop-opacity:1;"
         id="stop23" />
      <stop
         offset="1"
         style="stop-color:#ffa264;stop-opacity:1;"
         id="stop8" />
    </linearGradient>
    <linearGradient
       id="rainblue"
       x1="0%"
       x2="0%"
       y1="0%"
       y2="100%">
      <stop
         offset="0%"
         style="stop-color:#00F260; stop-opacity:1"
         id="stop9" />
      <stop
         offset="100%"
         style="stop-color:#0575E6; stop-opacity:1"
         id="stop10" />
    </linearGradient>
    <linearGradient
       id="sunrise"
       x1="0%"
       x2="0%"
       y1="0%"
       y2="100%">
      <stop
         offset="0"
         style="stop-color:#d08770;stop-opacity:1;"
         id="stop11" />
      <stop
         offset="0.25290769"
         style="stop-color:#d08770;stop-opacity:1;"
         id="stop26" />
      <stop
         offset="0.67384863"
         style="stop-color:#5e81ac;stop-opacity:1;"
         id="stop25" />
      <stop
         offset="1"
         style="stop-color:#ebcb8b;stop-opacity:1;"
         id="stop12" />
    </linearGradient>
    <linearGradient
       id="telinkrin"
       x1="0%"
       x2="0%"
       y1="0%"
       y2="100%">
      <stop
         offset="0%"
         style="stop-color: #b2ced6; stop-opacity:1"
         id="stop13" />
      <stop
         offset="100%"
         style="stop-color: #6da5b7; stop-opacity:1"
         id="stop14" />
    </linearGradient>
    <linearGradient
       id="60spsycho"
       x1="0%"
       x2="0%"
       y1="0%"
       y2="100%">
      <stop
         offset="0%"
         style="stop-color: #df5940; stop-opacity:1"
         id="stop15" />
      <stop
         offset="25%"
         style="stop-color: #d8d15f; stop-opacity:1"
         id="stop16" />
      <stop
         offset="50%"
         style="stop-color: #e9882a; stop-opacity:1"
         id="stop17" />
      <stop
         offset="100%"
         style="stop-color: #279362; stop-opacity:1"
         id="stop18" />
    </linearGradient>
    <linearGradient
       id="90ssummer"
       x1="0%"
       x2="0%"
       y1="0%"
       y2="100%">
      <stop
         offset="0%"
         style="stop-color: #f618c7; stop-opacity:1"
         id="stop19" />
      <stop
         offset="20%"
         style="stop-color: #94ffab; stop-opacity:1"
         id="stop20" />
      <stop
         offset="50%"
         style="stop-color: #fbfd54; stop-opacity:1"
         id="stop21" />
      <stop
         offset="100%"
         style="stop-color: #0f83ae; stop-opacity:1"
         id="stop22" />
    </linearGradient>
    <linearGradient
       inkscape:collect="always"
       xlink:href="#linearGradient1"
       id="linearGradient27"
       x1="1"
       y1="16"
       x2="15"
       y2="1"
       gradientUnits="userSpaceOnUse"
       gradientTransform="matrix(0.86666667,0,0,0.86666668,1.0666663,1.0666664)" />
  </defs>
  <path
     fill-rule="nonzero"
     d="M 8.0000007,1.5000001 C 11.58995,1.5000001 14.5,4.4100501 14.5,8.000001 14.5,11.58995 11.58995,14.5 8.0000007,14.5 4.41005,14.5 1.5,11.58995 1.5,8.000001 1.5,7.0484009 1.7041,6.1449005 2.072,5.3310999 2.3749,4.7207501 2.87345,4.113 3.2745,3.905 2.8500647,4.738964 2.6420647,5.556 2.5985,6.1039641 2.8936,5.128964 3.4532353,4.3119288 4.2365,3.735364 5.5794,2.7480288 7.3877007,2.7037999 8.1079007,3.332364 6.7715007,3.7919 5.3155,5.638564 5.6359646,7.8017649 c 0.052,0.3575 0.1591782,0.7046002 0.3178645,1.0283001 -0.2496,-0.6565001 -0.2718445,-1.5814641 0.1311555,-2.1827008 0.4498,-0.6695 1.0907003,-0.8112002 1.4339007,-0.7384002 -0.1352001,-0.0286 -0.4342005,0.5434001 -0.4784005,0.644165 -0.1123774,0.2562444 -0.168422,0.533 -0.163222,0.8125 a 2.20675,2.20675 0 0 0 0.6695,1.5470009 C 8.7960627,10.128792 10.811715,9.6503651 11.714568,8.2613295 12.3342,7.3051509 12.4096,5.6821 11.614,4.3925001 a 4.4947502,4.4947503 0 0 0 -0.704599,-0.858 C 9.706901,2.3866001 7.9974007,1.864 6.3711007,2.1012501 5.6522,2.2163001 5.04055,2.4236501 4.5355,2.7226502 5.24075,2.0187002 6.6415007,1.5000001 8.0000007,1.5000001 Z M 4.66875,5.20825 C 3.2043,5.7158999 2.3931,7.2687509 2.9924,9.4072509 A 5.2026007,5.2026008 0 0 0 7.8381507,13.1974 l 0.16185,0.0025 A 5.2000007,5.2000008 0 0 0 13.19025,8.322401 l 0.0071,-0.1378 c -0.08438,0.2267765 -0.184064,0.4380998 -0.300976,0.637 l -0.091,0.1476217 C 11.436929,11.074557 8.4618749,11.617958 6.6425249,9.845425 A 3.5048,3.5048 0 0 1 6.0168503,9.028301 L 5.9478052,8.8977227 c -1.1284,-0.2516218 -1.6796004,-0.8619 -1.6529361,-1.8310653 0.01755,-0.6441347 0.149356,-1.2740001 0.3737646,-1.8590001 z"
     id="path2"
     style="fill:url(#linearGradient27);stroke-width:0.65" />
</svg>
