<?xml version="1.0" encoding="UTF-8" standalone="no"?>
<svg
   width="16"
   height="16"
   viewBox="0 0 16 16"
   fill="none"
   version="1.1"
   id="svg17"
   sodipodi:docname="gpick.svg"
   inkscape:version="1.3.2 (091e20ef0f, 2023-11-25)"
   xmlns:inkscape="http://www.inkscape.org/namespaces/inkscape"
   xmlns:sodipodi="http://sodipodi.sourceforge.net/DTD/sodipodi-0.dtd"
   xmlns="http://www.w3.org/2000/svg"
   xmlns:svg="http://www.w3.org/2000/svg">
  <sodipodi:namedview
     id="namedview17"
     pagecolor="#ffffff"
     bordercolor="#000000"
     borderopacity="0.25"
     inkscape:showpageshadow="2"
     inkscape:pageopacity="0.0"
     inkscape:pagecheckerboard="0"
     inkscape:deskcolor="#d1d1d1"
     inkscape:zoom="15.91909"
     inkscape:cx="6.3445838"
     inkscape:cy="9.642511"
     inkscape:window-width="1920"
     inkscape:window-height="994"
     inkscape:window-x="0"
     inkscape:window-y="0"
     inkscape:window-maximized="1"
     inkscape:current-layer="svg17" />
  <path
     d="m 12.614708,1.7596496 c -0.495571,-0.065397 -1.016613,0.1086663 -1.37001,0.4600036 -0.35175,0.3774885 -0.771704,0.7043151 -1.074962,1.117752 -0.1816268,0.3881085 0.308194,0.812985 0.66816,0.5768522 0.372287,-0.3235601 0.707604,-0.6896047 1.059349,-1.0360428 0.204634,-0.1936435 0.515297,-0.2549299 0.781569,-0.1609608 0.475027,0.1364506 0.786497,0.7165665 0.571998,1.1733081 -0.03947,0.095596 -0.110949,0.172402 -0.177521,0.2492061 -0.319693,0.3162057 -0.640208,0.6332288 -0.956612,0.9535196 -0.167659,0.1715849 -0.160258,0.4730831 0.0093,0.6413993 0.176698,0.1993645 0.520226,0.1952798 0.696921,-0.0024 C 13.13028,5.3956372 13.443403,5.0647247 13.753236,4.7305425 14.242977,4.2795088 14.382687,3.5318897 14.127095,2.9248134 13.8928,2.2964714 13.284635,1.8307488 12.614833,1.7596639 Z"
     fill="url(#paint0_linear)"
     id="path1"
     style="fill:url(#paint0_linear);stroke-width:0.0819453" />
  <path
     d="M 8.3822319,5.5483951 C 8.1981705,5.4405416 7.9491553,5.4846631 7.8053388,5.6390903 7.2440206,6.2036842 6.6769502,6.7625592 6.1148072,7.32552 5.5304871,7.9040053 4.946975,8.4833074 4.3659395,9.0642434 4.0610323,9.3649244 3.7553075,9.6664225 3.4561605,9.972006 c -0.125741,0.128281 -0.2843561,0.245121 -0.3131197,0.433866 -0.00824,0.486152 -0.00329,0.973123 -0.00242,1.460098 -0.027132,0.138908 0.059978,0.32438 -0.074771,0.424879 -0.3953072,0.394641 -0.7930751,0.786021 -1.1867403,1.182302 -0.1873779,0.183833 -0.1635424,0.52619 0.048459,0.681427 0.1783404,0.135635 0.4462558,0.132372 0.6089814,-0.02775 0.4766701,-0.460005 0.9344319,-0.93963 1.4152124,-1.394737 0.5563828,0 1.1135904,0.0063 1.6699724,-0.0029 0.318869,-0.06307 0.4791257,-0.38582 0.7166355,-0.577013 C 6.8511823,11.642985 7.3640112,11.133129 7.8760149,10.62328 8.2959732,10.20653 8.7150756,9.7898265 9.1342113,9.372304 9.5402086,8.9760228 9.9338676,8.5666704 10.341493,8.1712095 10.50997,8.0298568 10.551071,7.7643087 10.428613,7.5812858 10.293835,7.341067 9.9305836,7.2838726 9.7275866,7.471798 9.3191315,7.8639915 8.9262913,8.2725265 8.5235884,8.6704391 8.0650342,9.1222775 7.6089149,9.5757505 7.1544376,10.030858 6.6736656,10.505577 6.1945274,10.981924 5.7170398,11.459914 5.5567824,11.583292 5.4458313,11.826779 5.2107891,11.80553 4.8327393,11.79408 4.4522299,11.8276 4.0766476,11.78674 4.0922556,11.41089 4.0379976,11.026867 4.1054116,10.656732 4.3963452,10.341344 4.7152184,10.052103 5.0119053,9.7416175 5.5962336,9.1565961 6.1863068,8.5764767 6.7698185,7.990639 7.3541469,7.411337 7.9417601,6.835303 8.5170186,6.2478308 8.6978192,6.0362097 8.629604,5.6775158 8.3822319,5.5484195 Z"
     fill="url(#paint1_linear)"
     id="path2"
     style="fill:url(#paint1_linear);stroke-width:0.0819453" />
  <path
     d="m 8.0124509,3.0546993 c 0.1775242,-0.1389038 0.4520497,-0.117659 0.6098401,0.041678 1.420142,1.4192525 2.85096,2.8278788 4.267815,4.2512139 0.184916,0.1740352 0.175051,0.4926921 -0.0093,0.6634594 -0.179131,0.1609625 -0.475816,0.1674991 -0.648403,-0.0065 C 10.809991,6.5844839 9.3799997,5.1717712 7.9590021,3.7500721 7.7601184,3.5637794 7.7905244,3.2108097 8.012443,3.0547479 Z"
     fill="url(#paint2_linear)"
     id="path3"
     style="fill:url(#paint2_linear);stroke-width:0.0819453" />
  <path
     d="m 12.614708,1.7596496 c -0.495571,-0.065397 -1.016613,0.1086663 -1.37001,0.4600036 -0.35175,0.3774885 -0.771704,0.7043151 -1.074962,1.117752 -0.1816268,0.3881085 0.308194,0.812985 0.66816,0.5768522 0.372287,-0.3235601 0.707604,-0.6896047 1.059349,-1.0360428 0.204634,-0.1936435 0.515297,-0.2549299 0.781569,-0.1609608 0.475027,0.1364506 0.786497,0.7165665 0.571998,1.1733081 -0.03947,0.095596 -0.110949,0.172402 -0.177521,0.2492061 -0.319693,0.3162057 -0.640208,0.6332288 -0.956612,0.9535196 -0.167659,0.1715849 -0.160258,0.4730831 0.0093,0.6413993 0.176698,0.1993645 0.520226,0.1952798 0.696921,-0.0024 C 13.13028,5.3956372 13.443403,5.0647247 13.753236,4.7305425 14.242977,4.2795088 14.382687,3.5318897 14.127095,2.9248134 13.8928,2.2964714 13.284635,1.8307488 12.614833,1.7596639 Z"
     stroke="url(#paint3_linear)"
     stroke-width="0.491672"
     id="path4"
     style="stroke:url(#paint3_linear)" />
  <path
     d="M 8.3822319,5.5483951 C 8.1981705,5.4405416 7.9491553,5.4846631 7.8053388,5.6390903 7.2440206,6.2036842 6.6769502,6.7625592 6.1148072,7.32552 5.5304871,7.9040053 4.946975,8.4833074 4.3659395,9.0642434 4.0610323,9.3649244 3.7553075,9.6664225 3.4561605,9.972006 c -0.125741,0.128281 -0.2843561,0.245121 -0.3131197,0.433866 -0.00824,0.486152 -0.00329,0.973123 -0.00242,1.460098 -0.027132,0.138908 0.059978,0.32438 -0.074771,0.424879 -0.3953072,0.394641 -0.7930751,0.786021 -1.1867403,1.182302 -0.1873779,0.183833 -0.1635424,0.52619 0.048459,0.681427 0.1783404,0.135635 0.4462558,0.132372 0.6089814,-0.02775 0.4766701,-0.460005 0.9344319,-0.93963 1.4152124,-1.394737 0.5563828,0 1.1135904,0.0063 1.6699724,-0.0029 0.318869,-0.06307 0.4791257,-0.38582 0.7166355,-0.577013 C 6.8511823,11.642985 7.3640112,11.133129 7.8760149,10.62328 8.2959732,10.20653 8.7150756,9.7898265 9.1342113,9.372304 9.5402086,8.9760228 9.9338676,8.5666704 10.341493,8.1712095 10.50997,8.0298568 10.551071,7.7643087 10.428613,7.5812858 10.293835,7.341067 9.9305836,7.2838726 9.7275866,7.471798 9.3191315,7.8639915 8.9262913,8.2725265 8.5235884,8.6704391 8.0650342,9.1222775 7.6089149,9.5757505 7.1544376,10.030858 6.6736656,10.505577 6.1945274,10.981924 5.7170398,11.459914 5.5567824,11.583292 5.4458313,11.826779 5.2107891,11.80553 4.8327393,11.79408 4.4522299,11.8276 4.0766476,11.78674 4.0922556,11.41089 4.0379976,11.026867 4.1054116,10.656732 4.3963452,10.341344 4.7152184,10.052103 5.0119053,9.7416175 5.5962336,9.1565961 6.1863068,8.5764767 6.7698185,7.990639 7.3541469,7.411337 7.9417601,6.835303 8.5170186,6.2478308 8.6978192,6.0362097 8.629604,5.6775158 8.3822319,5.5484195 Z"
     stroke="url(#paint4_linear)"
     stroke-width="0.491672"
     id="path5"
     style="stroke:url(#paint4_linear)" />
  <path
     d="m 8.0124509,3.0546993 c 0.1775242,-0.1389038 0.4520497,-0.117659 0.6098401,0.041678 1.420142,1.4192525 2.85096,2.8278788 4.267815,4.2512139 0.184916,0.1740352 0.175051,0.4926921 -0.0093,0.6634594 -0.179131,0.1609625 -0.475816,0.1674991 -0.648403,-0.0065 C 10.809991,6.5844839 9.3799997,5.1717712 7.9590021,3.7500721 7.7601184,3.5637794 7.7905244,3.2108097 8.012443,3.0547479 Z"
     stroke="url(#paint5_linear)"
     stroke-width="0.491672"
     id="path6"
     style="stroke:url(#paint5_linear)" />
  <defs
     id="defs17">
    <linearGradient
       id="paint0_linear"
       x1="22.5"
       y1="169"
       x2="155"
       y2="48"
       gradientUnits="userSpaceOnUse"
       gradientTransform="matrix(0.08218399,0,0,0.08170693,0.11205866,0.19822346)">
      <stop
         stop-color="#A93AFF"
         id="stop6" />
      <stop
         offset="1"
         stop-color="#557AFF"
         id="stop7" />
    </linearGradient>
    <linearGradient
       id="paint1_linear"
       x1="22.5"
       y1="169"
       x2="155"
       y2="48"
       gradientUnits="userSpaceOnUse"
       gradientTransform="matrix(0.08218399,0,0,0.08170693,0.11205866,0.19822346)">
      <stop
         stop-color="#A93AFF"
         id="stop8" />
      <stop
         offset="1"
         stop-color="#557AFF"
         id="stop9" />
    </linearGradient>
    <linearGradient
       id="paint2_linear"
       x1="22.5"
       y1="169"
       x2="155"
       y2="48"
       gradientUnits="userSpaceOnUse"
       gradientTransform="matrix(0.08218399,0,0,0.08170693,0.11205866,0.19822346)">
      <stop
         stop-color="#A93AFF"
         id="stop10" />
      <stop
         offset="1"
         stop-color="#557AFF"
         id="stop11" />
    </linearGradient>
    <linearGradient
       id="paint3_linear"
       x1="22.5"
       y1="169"
       x2="155"
       y2="48"
       gradientUnits="userSpaceOnUse"
       gradientTransform="matrix(0.08218399,0,0,0.08170693,0.11205866,0.19822346)">
      <stop
         stop-color="#A93AFF"
         id="stop12" />
      <stop
         offset="1"
         stop-color="#557AFF"
         id="stop13" />
    </linearGradient>
    <linearGradient
       id="paint4_linear"
       x1="22.5"
       y1="169"
       x2="155"
       y2="48"
       gradientUnits="userSpaceOnUse"
       gradientTransform="matrix(0.08218399,0,0,0.08170693,0.11205866,0.19822346)">
      <stop
         stop-color="#A93AFF"
         id="stop14" />
      <stop
         offset="1"
         stop-color="#557AFF"
         id="stop15" />
    </linearGradient>
    <linearGradient
       id="paint5_linear"
       x1="22.5"
       y1="169"
       x2="155"
       y2="48"
       gradientUnits="userSpaceOnUse"
       gradientTransform="matrix(0.08218399,0,0,0.08170693,0.11205866,0.19822346)">
      <stop
         stop-color="#A93AFF"
         id="stop16" />
      <stop
         offset="1"
         stop-color="#557AFF"
         id="stop17" />
    </linearGradient>
  </defs>
</svg>
