<?xml version="1.0" encoding="UTF-8" standalone="no"?>
<svg
   style="enable-background:new"
   width="16"
   height="16"
   version="1.1"
   id="svg22"
   sodipodi:docname="inkscape.svg"
   inkscape:version="1.3.2 (091e20ef0f, 2023-11-25)"
   xmlns:inkscape="http://www.inkscape.org/namespaces/inkscape"
   xmlns:sodipodi="http://sodipodi.sourceforge.net/DTD/sodipodi-0.dtd"
   xmlns:xlink="http://www.w3.org/1999/xlink"
   xmlns="http://www.w3.org/2000/svg"
   xmlns:svg="http://www.w3.org/2000/svg">
  <sodipodi:namedview
     id="namedview22"
     pagecolor="#ffffff"
     bordercolor="#000000"
     borderopacity="0.25"
     inkscape:showpageshadow="2"
     inkscape:pageopacity="0.0"
     inkscape:pagecheckerboard="0"
     inkscape:deskcolor="#d1d1d1"
     inkscape:zoom="16.948466"
     inkscape:cx="-1.2390502"
     inkscape:cy="11.062948"
     inkscape:window-width="1920"
     inkscape:window-height="994"
     inkscape:window-x="0"
     inkscape:window-y="0"
     inkscape:window-maximized="1"
     inkscape:current-layer="svg22"
     showgrid="false">
    <inkscape:grid
       id="grid1"
       units="px"
       originx="0"
       originy="0"
       spacingx="1"
       spacingy="1"
       empcolor="#0099e5"
       empopacity="0.30196078"
       color="#0099e5"
       opacity="0.14902"
       empspacing="5"
       dotted="false"
       gridanglex="30"
       gridanglez="30"
       visible="false" />
  </sodipodi:namedview>
  <defs
     id="defs22">
    <linearGradient
       id="linearGradient39"
       inkscape:collect="always">
      <stop
         style="stop-color:#20c997;stop-opacity:1"
         offset="0"
         id="stop39" />
      <stop
         style="stop-color:#5a9cfe;stop-opacity:1"
         offset="0.35700539"
         id="stop42" />
      <stop
         style="stop-color:#ffcb2f;stop-opacity:1"
         offset="0.64145368"
         id="stop41" />
      <stop
         style="stop-color:#975cf6;stop-opacity:1"
         offset="1"
         id="stop40" />
    </linearGradient>
    <style
       id="current-color-scheme"
       type="text/css">
   .ColorScheme-Text { color:#d5c289; } .ColorScheme-Highlight { color:#5294e2; }
  </style>
    <linearGradient
       id="arrongin"
       x1="0"
       x2="0"
       y1="0"
       y2="1">
      <stop
         offset="0%"
         style="stop-color:#dd9b44; stop-opacity:1"
         id="stop1" />
      <stop
         offset="100%"
         style="stop-color:#ad6c16; stop-opacity:1"
         id="stop2" />
    </linearGradient>
    <linearGradient
       id="aurora"
       x1="0"
       x2="0"
       y1="0"
       y2="1">
      <stop
         offset="0%"
         style="stop-color:#09D4DF; stop-opacity:1"
         id="stop3" />
      <stop
         offset="100%"
         style="stop-color:#9269F4; stop-opacity:1"
         id="stop4" />
    </linearGradient>
    <linearGradient
       id="fitdance"
       x1="0"
       x2="0"
       y1="0"
       y2="1">
      <stop
         offset="0%"
         style="stop-color:#1AD6AB; stop-opacity:1"
         id="stop5" />
      <stop
         offset="100%"
         style="stop-color:#329DB6; stop-opacity:1"
         id="stop6" />
    </linearGradient>
    <linearGradient
       id="oomox"
       x1="0"
       x2="0"
       y1="0"
       y2="1">
      <stop
         offset="0%"
         style="stop-color:#303b3d; stop-opacity:1"
         id="stop7" />
      <stop
         offset="100%"
         style="stop-color:#bc985d; stop-opacity:1"
         id="stop8" />
    </linearGradient>
    <linearGradient
       id="rainblue"
       x1="0"
       x2="0"
       y1="0"
       y2="1">
      <stop
         offset="0%"
         style="stop-color:#00F260; stop-opacity:1"
         id="stop9" />
      <stop
         offset="100%"
         style="stop-color:#0575E6; stop-opacity:1"
         id="stop10" />
    </linearGradient>
    <linearGradient
       id="sunrise"
       x1="0"
       x2="0"
       y1="0"
       y2="1">
      <stop
         offset="0%"
         style="stop-color: #FF8501; stop-opacity:1"
         id="stop11" />
      <stop
         offset="100%"
         style="stop-color: #FFCB01; stop-opacity:1"
         id="stop12" />
    </linearGradient>
    <linearGradient
       id="telinkrin"
       x1="0"
       x2="0"
       y1="0"
       y2="1">
      <stop
         offset="0%"
         style="stop-color: #b2ced6; stop-opacity:1"
         id="stop13" />
      <stop
         offset="100%"
         style="stop-color: #6da5b7; stop-opacity:1"
         id="stop14" />
    </linearGradient>
    <linearGradient
       id="60spsycho"
       x1="0"
       x2="0"
       y1="0"
       y2="1">
      <stop
         offset="0%"
         style="stop-color: #df5940; stop-opacity:1"
         id="stop15" />
      <stop
         offset="25%"
         style="stop-color: #d8d15f; stop-opacity:1"
         id="stop16" />
      <stop
         offset="50%"
         style="stop-color: #e9882a; stop-opacity:1"
         id="stop17" />
      <stop
         offset="100%"
         style="stop-color: #279362; stop-opacity:1"
         id="stop18" />
    </linearGradient>
    <linearGradient
       id="90ssummer"
       x1="0"
       x2="0"
       y1="0"
       y2="1">
      <stop
         offset="0%"
         style="stop-color: #f618c7; stop-opacity:1"
         id="stop19" />
      <stop
         offset="20%"
         style="stop-color: #94ffab; stop-opacity:1"
         id="stop20" />
      <stop
         offset="50%"
         style="stop-color: #fbfd54; stop-opacity:1"
         id="stop21" />
      <stop
         offset="100%"
         style="stop-color: #0f83ae; stop-opacity:1"
         id="stop22" />
    </linearGradient>
    <linearGradient
       id="NEbh2dprQr9WcwnKAwYN2a"
       x1="7.4980741"
       x2="56.508102"
       y1="56.009991"
       y2="6.9999628"
       gradientUnits="userSpaceOnUse"
       spreadMethod="reflect"
       gradientTransform="matrix(0.28565582,0,0,0.28565582,-1.1418685,-0.99958012)">
      <stop
         offset="0"
         stop-color="#1a6dff"
         id="stop1-3"
         style="stop-color:#ffa163;stop-opacity:1;" />
      <stop
         offset="0.14984168"
         stop-color="#1a6dff"
         id="stop25"
         style="stop-color:#ffff83;stop-opacity:1;" />
      <stop
         offset="0.50745016"
         stop-color="#1a6dff"
         id="stop23"
         style="stop-color:#00dddd;stop-opacity:1;" />
      <stop
         offset="0.78757685"
         stop-color="#1a6dff"
         id="stop24"
         style="stop-color:#ff7aff;stop-opacity:1;" />
      <stop
         offset="1"
         stop-color="#c822ff"
         id="stop2-6"
         style="stop-color:#ffeeaa;stop-opacity:1" />
    </linearGradient>
    <linearGradient
       id="NEbh2dprQr9WcwnKAwYN2b"
       x1="53.500999"
       x2="53.500999"
       y1="8.1669998"
       y2="55.709"
       gradientUnits="userSpaceOnUse"
       spreadMethod="reflect"
       gradientTransform="matrix(0.28565582,0,0,0.28565582,-1.1418685,-0.99958012)">
      <stop
         offset="0"
         stop-color="#1a6dff"
         id="stop3-7" />
      <stop
         offset="1"
         stop-color="#c822ff"
         id="stop4-5" />
    </linearGradient>
    <linearGradient
       id="NEbh2dprQr9WcwnKAwYN2c"
       x1="49"
       x2="49"
       y1="8.1669998"
       y2="55.709"
       gradientUnits="userSpaceOnUse"
       spreadMethod="reflect"
       gradientTransform="matrix(0.28565582,0,0,0.28565582,-1.1418685,-0.99958012)">
      <stop
         offset="0"
         stop-color="#1a6dff"
         id="stop5-3" />
      <stop
         offset="1"
         stop-color="#c822ff"
         id="stop6-5" />
    </linearGradient>
    <linearGradient
       id="NEbh2dprQr9WcwnKAwYN2d"
       x1="17.044001"
       x2="17.044001"
       y1="8.1669998"
       y2="55.709"
       gradientUnits="userSpaceOnUse"
       spreadMethod="reflect"
       gradientTransform="matrix(0.28565582,0,0,0.28565582,-1.1418685,-0.99958012)">
      <stop
         offset="0"
         stop-color="#1a6dff"
         id="stop7-6" />
      <stop
         offset="1"
         stop-color="#c822ff"
         id="stop8-2" />
    </linearGradient>
    <linearGradient
       id="NEbh2dprQr9WcwnKAwYN2e"
       x1="32.004002"
       x2="32.004002"
       y1="16"
       y2="54.014999"
       gradientUnits="userSpaceOnUse"
       spreadMethod="reflect"
       gradientTransform="matrix(0.28565582,0,0,0.28565582,-1.1418685,-0.99958012)"
       xlink:href="#NEbh2dprQr9WcwnKAwYN2a">
      <stop
         offset="0"
         stop-color="#6dc7ff"
         id="stop9-9" />
      <stop
         offset="1"
         stop-color="#e6abff"
         id="stop10-1" />
    </linearGradient>
    <linearGradient
       id="NEbh2dprQr9WcwnKAwYN2f"
       x1="29.000999"
       x2="29.000999"
       y1="7.4169998"
       y2="55.679001"
       gradientUnits="userSpaceOnUse"
       spreadMethod="reflect"
       gradientTransform="matrix(0.28565582,0,0,0.28565582,-1.1418685,-0.99958012)"
       xlink:href="#NEbh2dprQr9WcwnKAwYN2a">
      <stop
         offset="0"
         stop-color="#1a6dff"
         id="stop11-2" />
      <stop
         offset="1"
         stop-color="#c822ff"
         id="stop12-7" />
    </linearGradient>
    <linearGradient
       inkscape:collect="always"
       xlink:href="#linearGradient39"
       id="linearGradient40"
       x1="2"
       y1="14"
       x2="14"
       y2="2"
       gradientUnits="userSpaceOnUse"
       gradientTransform="matrix(0.86666481,0,0,0.86666481,1.0666679,1.066668)" />
    <linearGradient
       inkscape:collect="always"
       xlink:href="#linearGradient39"
       id="linearGradient44"
       x1="4.2325311"
       y1="4.9753628"
       x2="11.051225"
       y2="4.9753628"
       gradientUnits="userSpaceOnUse"
       gradientTransform="matrix(0.86666481,0,0,0.86666481,1.0666679,1.066668)" />
    <linearGradient
       inkscape:collect="always"
       xlink:href="#linearGradient39"
       id="linearGradient46"
       x1="2.7243364"
       y1="12.260616"
       x2="14.710702"
       y2="12.260616"
       gradientUnits="userSpaceOnUse"
       gradientTransform="matrix(0.86666481,0,0,0.86666481,1.0666679,1.066668)" />
    <linearGradient
       inkscape:collect="always"
       xlink:href="#linearGradient39"
       id="linearGradient48"
       x1="5.3775463"
       y1="10.181134"
       x2="8.272953"
       y2="10.181134"
       gradientUnits="userSpaceOnUse"
       gradientTransform="matrix(0.86666481,0,0,0.86666481,1.0666679,1.066668)" />
  </defs>
  <path
     d="m 12.117694,11.341367 c 0,0.234573 1.793314,0.368615 1.694262,-0.05584 -0.143014,-0.714893 -1.496234,-0.659039 -1.694262,0.05584 z m -8.5310151,1.136417 c 0.407065,0.357454 1.023169,-0.07823 1.221189,-0.58085 -0.396063,-0.524987 -1.859289,0.03349 -1.221189,0.58085 z m 8.3116341,-0.644952 c -0.506085,0.469147 0.08799,0.960671 0.583086,0.636711 0.132028,-0.08935 -0.01104,-0.525001 -0.583086,-0.636711 z"
     id="path1"
     style="fill:url(#linearGradient46);stroke-width:0.866662" />
  <path
     id="icecap"
     class="full-specularity"
     d="m 8.7174793,3.9398368 1.7933127,1.8542407 c 0.165028,0.1675475 0.165028,0.5138266 0.06601,0.6143601 L 9.6856733,5.6712002 9.5096393,6.754668 8.7725219,6.3525422 7.5733525,7.1232908 7.1772884,5.5036119 6.5391799,6.9110639 4.9439719,6.8998959 c -0.308048,0 -0.26404,-0.3239355 0.05501,-0.6478713 0.627098,-0.7037258 1.8483194,-1.8989116 2.2333897,-2.3122367 0.396064,-0.4133021 1.0891492,-0.4021261 1.4852701,0 z"
     style="fill:url(#linearGradient44);stroke-width:0.866662" />
  <path
     d="m 5.8239689,9.4871267 c 0.09901,0 3.388519,0.4468103 2.1233708,0.7930923 C 7.4632594,10.414261 5.2408789,9.4871267 5.8239689,9.4871267 Z"
     id="path2-5"
     style="fill:url(#linearGradient48);stroke-width:0.866662" />
  <path
     d="M 7.9338506,1.5000796 C 7.4560195,1.5004837 6.9824293,1.6784048 6.6324619,2.0410177 v 0.00162 l -4.478563,4.6574151 c -0.461458,0.468556 -0.715276,0.8843997 -0.641155,1.3356547 0.03706,0.2256277 0.167297,0.4145609 0.315817,0.5456975 0.148518,0.1311375 0.317896,0.2196335 0.495147,0.2950544 0.354517,0.150849 0.754887,0.2475734 1.125226,0.3505755 0.165664,0.046083 0.25403,0.099413 0.395171,0.1491108 -0.192471,0.094832 -0.397649,0.1882994 -0.580847,0.3394748 -0.09238,0.07623 -0.197143,0.1710565 -0.249162,0.3537475 -0.0517,0.181578 0.03041,0.423155 0.149176,0.545701 0.19368,0.201328 0.415639,0.288923 0.679248,0.394992 0.264332,0.106365 0.564783,0.205539 0.860172,0.302993 0.295388,0.09743 0.586095,0.193473 0.81418,0.283952 0.165818,0.06567 0.229783,0.110229 0.292016,0.147526 -0.03176,0.03934 -0.04371,0.05786 -0.09839,0.115805 -0.09928,0.10495 -0.224321,0.219725 -0.318993,0.4172 -0.04733,0.09874 -0.08637,0.230738 -0.06983,0.377538 0.0164,0.145603 0.09169,0.28471 0.18727,0.385467 0.344182,0.368122 0.77643,0.342093 1.012525,0.398174 0.118203,0.02803 0.188513,0.06028 0.230116,0.0968 0.0416,0.03658 0.08232,0.08384 0.1110933,0.247469 0.056578,0.323782 0.3329772,0.565711 0.5998935,0.650389 0.2669162,0.08471 0.5450049,0.07892 0.8300254,0.0365 0.5700156,-0.08501 1.1705676,-0.324915 1.6029269,-0.688466 l 0.0016,-0.002 0.0031,-0.002 c 0.0889,-0.07659 0.176794,-0.171346 0.218992,-0.326579 0.04216,-0.155222 -0.01137,-0.345371 -0.08571,-0.445735 -0.08821,-0.118978 -0.150943,-0.127251 -0.223781,-0.164899 0.309657,-0.235392 0.598472,-0.399009 0.907787,-0.482242 0.19599,-0.05271 0.412016,-0.108235 0.626872,-0.245874 0.213972,-0.137076 0.402664,-0.364003 0.51737,-0.658328 v -0.0018 c 0.06297,-0.161162 0.04751,-0.358277 -0.01429,-0.494774 -0.06198,-0.136758 -0.149378,-0.227611 -0.236475,-0.304392 -0.174208,-0.153532 -0.367503,-0.25776 -0.538009,-0.353714 -0.0017,-8.11e-4 -0.0019,-7.44e-4 -0.0034,-0.0017 0.216659,-0.101491 0.400374,-0.199718 0.715777,-0.310736 0.484094,-0.170273 1.026917,-0.3488739 1.504613,-0.5757363 0.477762,-0.2268402 0.923841,-0.4906899 1.126899,-0.9692429 0.101564,-0.239289 0.11186,-0.5292667 0.02065,-0.797949 -0.09077,-0.2673618 -0.265278,-0.51742 -0.517356,-0.7740656 l -0.0036,-0.00322 -4.6484325,-4.8304274 -0.00631,-0.00632 C 8.893836,1.6768483 8.4118288,1.4995951 7.9339646,1.5000007 Z m 0.00631,0.8185303 c 0.2728834,4.042e-4 0.5520452,0.098852 0.7601897,0.2982296 l 4.6357197,4.8176143 0.002,0.00163 c 0.197498,0.2005391 0.293974,0.3631077 0.330101,0.469546 0.03609,0.1064465 0.02993,0.1521321 0.002,0.218911 -0.05669,0.1335526 -0.319417,0.3593186 -0.728488,0.5536197 -0.40943,0.1942804 -0.931705,0.3686835 -1.425494,0.5425013 -0.493913,0.1738093 -0.952403,0.3326173 -1.301478,0.5821712 l -0.0017,0.0016 c -0.11913,0.08549 -0.256551,0.271449 -0.242875,0.47745 0.01368,0.206012 0.121827,0.318433 0.203142,0.394999 0.162616,0.15313 0.333364,0.235341 0.501499,0.329954 0.155458,0.08749 0.290538,0.173832 0.368187,0.236363 -0.04253,0.07339 -0.08146,0.150373 -0.136484,0.185606 -0.07997,0.05127 -0.211041,0.09511 -0.399936,0.145944 -0.377779,0.101645 -0.9644267,0.25568 -1.5219204,0.828029 l -0.00164,0.002 h -0.00163 c -0.084376,0.08803 -0.1641359,0.200846 -0.1872698,0.356921 -0.023134,0.156075 0.039841,0.322011 0.1126772,0.415614 0.060158,0.07734 0.1020009,0.07632 0.1571158,0.114211 -0.2772523,0.15728 -0.5862264,0.330391 -0.8919422,0.375958 -0.2059423,0.0306 -0.3831932,0.01748 -0.4634085,-0.0071 -0.080218,-0.02535 -0.042756,0.0033 -0.046023,-0.01591 C 7.6096181,13.342801 7.4754533,13.090888 7.2879068,12.926162 7.100361,12.761438 6.8869104,12.69091 6.7086439,12.648558 c -0.289391,-0.06876 -0.409097,-0.09885 -0.491978,-0.131671 0.03073,-0.03712 0.03734,-0.0488 0.08412,-0.09835 0.09927,-0.105005 0.225909,-0.22136 0.320571,-0.41883 0.04734,-0.09874 0.08478,-0.229161 0.06824,-0.37596 -0.01654,-0.146807 -0.09214,-0.289309 -0.188852,-0.390234 l -0.0017,-0.0019 -0.0033,-0.0019 c -0.194689,-0.197104 -0.415452,-0.283286 -0.679045,-0.387871 -0.263594,-0.104572 -0.563736,-0.20255 -0.858546,-0.29981 -0.294845,-0.09726 -0.583676,-0.194082 -0.810972,-0.285531 -0.06392,-0.02573 -0.06035,-0.03104 -0.112676,-0.05711 0.06641,-0.03622 0.09603,-0.06034 0.172984,-0.09838 0.189618,-0.09354 0.3849,-0.177416 0.563393,-0.315677 0.08925,-0.06911 0.207178,-0.1510019 0.250747,-0.3680206 0.02178,-0.1084972 -0.0011,-0.2467894 -0.05555,-0.3426362 -0.0545,-0.095847 -0.123915,-0.1537647 -0.188855,-0.1967058 l -0.0032,-0.00326 C 4.4437589,8.6620453 4.0517969,8.5521475 3.6662889,8.4449136 3.2807799,8.337679 2.8999099,8.2393715 2.6410879,8.1292371 2.5116719,8.0741691 2.4155049,8.0154332 2.3665329,7.9721918 c -0.04897,-0.043243 -0.04857,-0.054771 -0.05078,-0.068212 -0.0044,-0.02688 0.02863,-0.2398173 0.4158,-0.6329435 l 0.0017,-0.00323 L 7.218143,2.6056584 C 7.4012512,2.4159477 7.6673307,2.3181676 7.9402114,2.3185731 Z"
     id="path3"
     style="fill:url(#linearGradient40);stroke-width:0.866662" />
</svg>
