<?xml version="1.0" encoding="UTF-8" standalone="no"?>
<svg
   style="enable-background:new"
   width="16"
   height="16"
   version="1.1"
   id="svg22"
   sodipodi:docname="inkscape.viewer.svg"
   inkscape:version="1.3.2 (091e20ef0f, 2023-11-25)"
   xmlns:inkscape="http://www.inkscape.org/namespaces/inkscape"
   xmlns:sodipodi="http://sodipodi.sourceforge.net/DTD/sodipodi-0.dtd"
   xmlns:xlink="http://www.w3.org/1999/xlink"
   xmlns="http://www.w3.org/2000/svg"
   xmlns:svg="http://www.w3.org/2000/svg">
  <sodipodi:namedview
     id="namedview22"
     pagecolor="#ffffff"
     bordercolor="#000000"
     borderopacity="0.25"
     inkscape:showpageshadow="2"
     inkscape:pageopacity="0.0"
     inkscape:pagecheckerboard="0"
     inkscape:deskcolor="#d1d1d1"
     inkscape:zoom="16.948466"
     inkscape:cx="-1.2390502"
     inkscape:cy="11.062948"
     inkscape:window-width="1920"
     inkscape:window-height="994"
     inkscape:window-x="0"
     inkscape:window-y="0"
     inkscape:window-maximized="1"
     inkscape:current-layer="svg22"
     showgrid="false">
    <inkscape:grid
       id="grid1"
       units="px"
       originx="0"
       originy="0"
       spacingx="1"
       spacingy="1"
       empcolor="#0099e5"
       empopacity="0.30196078"
       color="#0099e5"
       opacity="0.14902"
       empspacing="5"
       dotted="false"
       gridanglex="30"
       gridanglez="30"
       visible="false" />
  </sodipodi:namedview>
  <defs
     id="defs22">
    <linearGradient
       id="linearGradient39"
       inkscape:collect="always">
      <stop
         style="stop-color:#20c997;stop-opacity:1"
         offset="0"
         id="stop39" />
      <stop
         style="stop-color:#5a9cfe;stop-opacity:1"
         offset="0.35700539"
         id="stop42" />
      <stop
         style="stop-color:#ffcb2f;stop-opacity:1"
         offset="0.64145368"
         id="stop41" />
      <stop
         style="stop-color:#975cf6;stop-opacity:1"
         offset="1"
         id="stop40" />
    </linearGradient>
    <style
       id="current-color-scheme"
       type="text/css">
   .ColorScheme-Text { color:#d5c289; } .ColorScheme-Highlight { color:#5294e2; }
  </style>
    <linearGradient
       id="arrongin"
       x1="0"
       x2="0"
       y1="0"
       y2="1">
      <stop
         offset="0%"
         style="stop-color:#dd9b44; stop-opacity:1"
         id="stop1" />
      <stop
         offset="100%"
         style="stop-color:#ad6c16; stop-opacity:1"
         id="stop2" />
    </linearGradient>
    <linearGradient
       id="aurora"
       x1="0"
       x2="0"
       y1="0"
       y2="1">
      <stop
         offset="0%"
         style="stop-color:#09D4DF; stop-opacity:1"
         id="stop3" />
      <stop
         offset="100%"
         style="stop-color:#9269F4; stop-opacity:1"
         id="stop4" />
    </linearGradient>
    <linearGradient
       id="fitdance"
       x1="0"
       x2="0"
       y1="0"
       y2="1">
      <stop
         offset="0%"
         style="stop-color:#1AD6AB; stop-opacity:1"
         id="stop5" />
      <stop
         offset="100%"
         style="stop-color:#329DB6; stop-opacity:1"
         id="stop6" />
    </linearGradient>
    <linearGradient
       id="oomox"
       x1="0"
       x2="0"
       y1="0"
       y2="1">
      <stop
         offset="0%"
         style="stop-color:#303b3d; stop-opacity:1"
         id="stop7" />
      <stop
         offset="100%"
         style="stop-color:#bc985d; stop-opacity:1"
         id="stop8" />
    </linearGradient>
    <linearGradient
       id="rainblue"
       x1="0"
       x2="0"
       y1="0"
       y2="1">
      <stop
         offset="0%"
         style="stop-color:#00F260; stop-opacity:1"
         id="stop9" />
      <stop
         offset="100%"
         style="stop-color:#0575E6; stop-opacity:1"
         id="stop10" />
    </linearGradient>
    <linearGradient
       id="sunrise"
       x1="0"
       x2="0"
       y1="0"
       y2="1">
      <stop
         offset="0%"
         style="stop-color: #FF8501; stop-opacity:1"
         id="stop11" />
      <stop
         offset="100%"
         style="stop-color: #FFCB01; stop-opacity:1"
         id="stop12" />
    </linearGradient>
    <linearGradient
       id="telinkrin"
       x1="0"
       x2="0"
       y1="0"
       y2="1">
      <stop
         offset="0%"
         style="stop-color: #b2ced6; stop-opacity:1"
         id="stop13" />
      <stop
         offset="100%"
         style="stop-color: #6da5b7; stop-opacity:1"
         id="stop14" />
    </linearGradient>
    <linearGradient
       id="60spsycho"
       x1="0"
       x2="0"
       y1="0"
       y2="1">
      <stop
         offset="0%"
         style="stop-color: #df5940; stop-opacity:1"
         id="stop15" />
      <stop
         offset="25%"
         style="stop-color: #d8d15f; stop-opacity:1"
         id="stop16" />
      <stop
         offset="50%"
         style="stop-color: #e9882a; stop-opacity:1"
         id="stop17" />
      <stop
         offset="100%"
         style="stop-color: #279362; stop-opacity:1"
         id="stop18" />
    </linearGradient>
    <linearGradient
       id="90ssummer"
       x1="0"
       x2="0"
       y1="0"
       y2="1">
      <stop
         offset="0%"
         style="stop-color: #f618c7; stop-opacity:1"
         id="stop19" />
      <stop
         offset="20%"
         style="stop-color: #94ffab; stop-opacity:1"
         id="stop20" />
      <stop
         offset="50%"
         style="stop-color: #fbfd54; stop-opacity:1"
         id="stop21" />
      <stop
         offset="100%"
         style="stop-color: #0f83ae; stop-opacity:1"
         id="stop22" />
    </linearGradient>
    <linearGradient
       id="NEbh2dprQr9WcwnKAwYN2a"
       x1="7.4980741"
       x2="56.508102"
       y1="56.009991"
       y2="6.9999628"
       gradientUnits="userSpaceOnUse"
       spreadMethod="reflect"
       gradientTransform="matrix(0.28565582,0,0,0.28565582,-1.1418685,-0.99958012)">
      <stop
         offset="0"
         stop-color="#1a6dff"
         id="stop1-3"
         style="stop-color:#ffa163;stop-opacity:1;" />
      <stop
         offset="0.14984168"
         stop-color="#1a6dff"
         id="stop25"
         style="stop-color:#ffff83;stop-opacity:1;" />
      <stop
         offset="0.50745016"
         stop-color="#1a6dff"
         id="stop23"
         style="stop-color:#00dddd;stop-opacity:1;" />
      <stop
         offset="0.78757685"
         stop-color="#1a6dff"
         id="stop24"
         style="stop-color:#ff7aff;stop-opacity:1;" />
      <stop
         offset="1"
         stop-color="#c822ff"
         id="stop2-6"
         style="stop-color:#ffeeaa;stop-opacity:1" />
    </linearGradient>
    <linearGradient
       id="NEbh2dprQr9WcwnKAwYN2b"
       x1="53.500999"
       x2="53.500999"
       y1="8.1669998"
       y2="55.709"
       gradientUnits="userSpaceOnUse"
       spreadMethod="reflect"
       gradientTransform="matrix(0.28565582,0,0,0.28565582,-1.1418685,-0.99958012)">
      <stop
         offset="0"
         stop-color="#1a6dff"
         id="stop3-7" />
      <stop
         offset="1"
         stop-color="#c822ff"
         id="stop4-5" />
    </linearGradient>
    <linearGradient
       id="NEbh2dprQr9WcwnKAwYN2c"
       x1="49"
       x2="49"
       y1="8.1669998"
       y2="55.709"
       gradientUnits="userSpaceOnUse"
       spreadMethod="reflect"
       gradientTransform="matrix(0.28565582,0,0,0.28565582,-1.1418685,-0.99958012)">
      <stop
         offset="0"
         stop-color="#1a6dff"
         id="stop5-3" />
      <stop
         offset="1"
         stop-color="#c822ff"
         id="stop6-5" />
    </linearGradient>
    <linearGradient
       id="NEbh2dprQr9WcwnKAwYN2d"
       x1="17.044001"
       x2="17.044001"
       y1="8.1669998"
       y2="55.709"
       gradientUnits="userSpaceOnUse"
       spreadMethod="reflect"
       gradientTransform="matrix(0.28565582,0,0,0.28565582,-1.1418685,-0.99958012)">
      <stop
         offset="0"
         stop-color="#1a6dff"
         id="stop7-6" />
      <stop
         offset="1"
         stop-color="#c822ff"
         id="stop8-2" />
    </linearGradient>
    <linearGradient
       id="NEbh2dprQr9WcwnKAwYN2e"
       x1="32.004002"
       x2="32.004002"
       y1="16"
       y2="54.014999"
       gradientUnits="userSpaceOnUse"
       spreadMethod="reflect"
       gradientTransform="matrix(0.28565582,0,0,0.28565582,-1.1418685,-0.99958012)"
       xlink:href="#NEbh2dprQr9WcwnKAwYN2a">
      <stop
         offset="0"
         stop-color="#6dc7ff"
         id="stop9-9" />
      <stop
         offset="1"
         stop-color="#e6abff"
         id="stop10-1" />
    </linearGradient>
    <linearGradient
       id="NEbh2dprQr9WcwnKAwYN2f"
       x1="29.000999"
       x2="29.000999"
       y1="7.4169998"
       y2="55.679001"
       gradientUnits="userSpaceOnUse"
       spreadMethod="reflect"
       gradientTransform="matrix(0.28565582,0,0,0.28565582,-1.1418685,-0.99958012)"
       xlink:href="#NEbh2dprQr9WcwnKAwYN2a">
      <stop
         offset="0"
         stop-color="#1a6dff"
         id="stop11-2" />
      <stop
         offset="1"
         stop-color="#c822ff"
         id="stop12-7" />
    </linearGradient>
    <linearGradient
       inkscape:collect="always"
       xlink:href="#linearGradient39"
       id="linearGradient40"
       x1="2"
       y1="14"
       x2="14"
       y2="2"
       gradientUnits="userSpaceOnUse"
       gradientTransform="matrix(0.86666472,0,0,0.86666472,1.0666774,1.066665)" />
    <linearGradient
       inkscape:collect="always"
       xlink:href="#linearGradient39"
       id="linearGradient44"
       x1="4.2325311"
       y1="4.9753628"
       x2="11.051225"
       y2="4.9753628"
       gradientUnits="userSpaceOnUse"
       gradientTransform="matrix(0.86666472,0,0,0.86666472,1.0666774,1.066665)" />
    <linearGradient
       inkscape:collect="always"
       xlink:href="#linearGradient39"
       id="linearGradient46"
       x1="2.7243364"
       y1="12.260616"
       x2="14.710702"
       y2="12.260616"
       gradientUnits="userSpaceOnUse"
       gradientTransform="matrix(0.86666472,0,0,0.86666472,1.0666774,1.066665)" />
    <linearGradient
       inkscape:collect="always"
       xlink:href="#linearGradient39"
       id="linearGradient48"
       x1="5.3775463"
       y1="10.181134"
       x2="8.272953"
       y2="10.181134"
       gradientUnits="userSpaceOnUse"
       gradientTransform="matrix(0.86666472,0,0,0.86666472,1.0666774,1.066665)" />
  </defs>
  <path
     d="m 12.117703,11.341364 c 0,0.234571 1.793313,0.368614 1.694261,-0.05584 -0.143013,-0.714892 -1.496232,-0.659038 -1.694261,0.05584 z m -8.531015,1.136418 c 0.4070656,0.357453 1.0231697,-0.07823 1.2211894,-0.580852 -0.396063,-0.524987 -1.8592889,0.03349 -1.2211894,0.580852 z m 8.311634,-0.644954 c -0.506086,0.469147 0.08799,0.960672 0.583087,0.636712 0.132026,-0.08935 -0.01107,-0.525001 -0.583087,-0.636712 z"
     id="path1"
     style="fill:url(#linearGradient46);stroke-width:0.866661" />
  <path
     id="icecap"
     class="full-specularity"
     d="m 8.7174884,3.9398337 1.7933136,1.8542408 c 0.165028,0.1675472 0.165028,0.5138264 0.06601,0.6143599 L 9.6856818,5.6711972 9.5096488,6.7546647 8.7725313,6.352539 7.5733618,7.1232874 7.1772976,5.5036086 6.5391895,6.9110609 4.9439812,6.8998931 c -0.3080479,0 -0.2640402,-0.3239354 0.055013,-0.6478713 C 5.626092,5.5482961 6.8473136,4.3531103 7.232384,3.9397851 c 0.396064,-0.413302 1.0891493,-0.402126 1.4852702,0 z"
     style="fill:url(#linearGradient44);stroke-width:0.866661" />
  <path
     d="m 5.8239784,9.4871232 c 0.099011,0 3.3885187,0.4468099 2.1233705,0.7930928 C 7.4632687,10.414258 5.2408885,9.4871232 5.8239784,9.4871232 Z"
     id="path2-5"
     style="fill:url(#linearGradient48);stroke-width:0.866661" />
  <path
     d="M 7.9338601,1.5000766 C 7.4560288,1.5004807 6.9824386,1.6784018 6.6324711,2.0410147 v 0.00162 L 2.1539089,6.7000521 C 1.6924504,7.1686054 1.4386327,7.5844494 1.5127536,8.0357044 1.5498136,8.2613321 1.6800509,8.450265 1.8285701,8.5814016 1.9770888,8.712539 2.146466,8.801035 2.3237171,8.8764559 2.6782347,9.0273051 3.0786046,9.1240293 3.4489436,9.2270315 3.6146071,9.2731135 3.7029729,9.3264465 3.8441138,9.3761422 3.6516435,9.4709732 3.4464651,9.5644421 3.263267,9.7156161 c -0.092382,0.07624 -0.1971429,0.171057 -0.249162,0.3537489 -0.051702,0.181577 0.030411,0.423155 0.1491768,0.545701 0.19368,0.201327 0.4156381,0.288922 0.6792477,0.394992 0.264332,0.106367 0.5647832,0.205539 0.8601714,0.302992 0.295388,0.09743 0.5860958,0.193473 0.8141801,0.283951 0.1658182,0.06569 0.2297832,0.11023 0.2920164,0.147527 -0.031759,0.03934 -0.043711,0.05787 -0.098392,0.115805 -0.099279,0.10495 -0.2243215,0.219725 -0.3189929,0.4172 -0.047333,0.09874 -0.086371,0.230739 -0.069834,0.377539 0.016401,0.145603 0.091689,0.28471 0.1872699,0.385467 0.3441817,0.368121 0.7764293,0.342092 1.0125248,0.398174 0.1182029,0.02802 0.1885126,0.06028 0.2301162,0.0968 0.041602,0.03658 0.082323,0.08383 0.1110926,0.247469 0.056578,0.323782 0.3329772,0.565711 0.5998935,0.650389 0.2669163,0.08471 0.545005,0.07892 0.8300254,0.0365 0.5700156,-0.08501 1.1705679,-0.324914 1.6029279,-0.688466 l 0.0016,-0.002 0.0031,-0.002 c 0.0889,-0.07659 0.1767932,-0.171347 0.2189892,-0.32658 0.04217,-0.155222 -0.01137,-0.34537 -0.08571,-0.445736 -0.08816,-0.119006 -0.1508922,-0.127278 -0.2237302,-0.164927 0.3096592,-0.235393 0.5984722,-0.399008 0.9077882,-0.482241 0.195989,-0.05273 0.412017,-0.108237 0.626872,-0.245874 0.213971,-0.137076 0.402663,-0.364004 0.517369,-0.658328 v -0.0018 c 0.06296,-0.161162 0.04753,-0.358276 -0.01429,-0.494774 -0.06198,-0.136758 -0.149378,-0.227611 -0.236475,-0.304392 -0.174206,-0.153533 -0.367502,-0.257761 -0.538007,-0.353714 -0.0017,-8.11e-4 -0.0019,-7.44e-4 -0.0034,-0.0017 0.21666,-0.101491 0.400375,-0.199718 0.715777,-0.3107359 0.484091,-0.170257 1.026913,-0.34886 1.504613,-0.5757217 0.47776,-0.2268403 0.923836,-0.4906901 1.126895,-0.9692429 0.101553,-0.2392346 0.111849,-0.5292123 0.02064,-0.7978946 -0.0908,-0.267405 -0.265304,-0.5174631 -0.517382,-0.7741086 l -0.0036,-0.00334 L 9.2681448,2.035868 9.2618348,2.029548 C 8.8938454,1.6768454 8.4118379,1.4995921 7.9339738,1.4999977 Z m 0.00631,0.8185302 c 0.2728849,4.042e-4 0.5520468,0.098852 0.7601912,0.2982295 l 4.6357207,4.8176141 0.002,0.00163 c 0.1975,0.2005392 0.293975,0.3631079 0.330101,0.4695461 0.03609,0.1064466 0.02993,0.1521322 0.002,0.218911 -0.05669,0.1335526 -0.319416,0.3593186 -0.728486,0.5536196 -0.40943,0.1942805 -0.931706,0.3686833 -1.425497,0.5425014 -0.493912,0.1738092 -0.952402,0.3326176 -1.301477,0.5821716 l -0.0017,0.0016 c -0.11913,0.08549 -0.2565511,0.2714479 -0.2428761,0.4774479 0.01368,0.206012 0.1218261,0.318434 0.2031421,0.395 0.162617,0.15313 0.333364,0.235341 0.501497,0.329954 0.155456,0.08749 0.290537,0.173832 0.368189,0.236363 -0.04253,0.07339 -0.08146,0.150372 -0.136484,0.185605 -0.07997,0.05125 -0.211041,0.09511 -0.399938,0.145941 -0.377779,0.101646 -0.9644241,0.255682 -1.5219175,0.828031 l -0.00164,0.002 h -0.00163 c -0.084376,0.08803 -0.1641359,0.200846 -0.1872694,0.356921 -0.023134,0.156076 0.039838,0.322011 0.1126769,0.415615 0.060158,0.07734 0.102001,0.07632 0.1571158,0.11421 -0.2772523,0.15728 -0.5862262,0.330392 -0.8919422,0.375958 -0.2059421,0.03061 -0.3831929,0.01748 -0.4634084,-0.0071 -0.080218,-0.02535 -0.042756,0.0033 -0.046023,-0.01591 C 7.6096267,13.342797 7.4754626,13.090885 7.2879163,12.92616 7.100382,12.761509 6.8869313,12.690975 6.7086652,12.648626 6.4192736,12.579876 6.299568,12.549776 6.216687,12.516956 c 0.030729,-0.03712 0.03734,-0.04883 0.084116,-0.09835 0.099273,-0.105002 0.2259083,-0.221358 0.3205711,-0.418826 0.047335,-0.09874 0.084775,-0.229161 0.068238,-0.375959 -0.016536,-0.146818 -0.092141,-0.289322 -0.1888519,-0.390244 l -0.00167,-0.0019 -0.0033,-0.0019 C 6.3010892,11.032605 6.0803258,10.946423 5.8167335,10.841838 5.5531396,10.737267 5.2529978,10.639289 4.958187,10.542028 4.6633425,10.444771 4.3745115,10.347947 4.1472153,10.256497 c -0.06392,-0.02573 -0.060346,-0.03104 -0.1126765,-0.05711 0.06641,-0.03622 0.096031,-0.06034 0.1729847,-0.09838 C 4.3971412,10.007477 4.5924233,9.9236031 4.7709166,9.7853451 4.8601686,9.7162251 4.9780942,9.6343361 5.021663,9.4173182 5.043448,9.3088166 5.0206072,9.1705247 4.9661177,9.0746781 4.9116189,8.9788308 4.8422029,8.9209132 4.7772628,8.8779723 l -0.00319,-0.00328 C 4.4438071,8.6620421 4.0518456,8.5521441 3.6663372,8.4449103 3.2808288,8.3376756 2.8999588,8.239368 2.6411364,8.1292337 2.5117203,8.0741658 2.4155536,8.0154298 2.3665812,7.9721885 2.3176085,7.9289458 2.3180075,7.9174172 2.3157976,7.9039768 2.3113937,7.877096 2.3444329,7.6641595 2.7315981,7.2710334 l 0.00167,-0.00322 4.4848895,-4.6621476 C 7.4012757,2.4159451 7.667355,2.3181648 7.9402355,2.3185703 Z"
     id="path3"
     style="fill:url(#linearGradient40);stroke-width:0.866661" />
</svg>
