<?xml version="1.0" encoding="UTF-8" standalone="no"?>
<svg
   viewBox="0 0 16 16"
   version="1.1"
   id="svg8"
   sodipodi:docname="keyring-manager.svg"
   width="16"
   height="16"
   inkscape:version="1.3.2 (091e20ef0f, 2023-11-25)"
   xmlns:inkscape="http://www.inkscape.org/namespaces/inkscape"
   xmlns:sodipodi="http://sodipodi.sourceforge.net/DTD/sodipodi-0.dtd"
   xmlns:xlink="http://www.w3.org/1999/xlink"
   xmlns="http://www.w3.org/2000/svg"
   xmlns:svg="http://www.w3.org/2000/svg">
  <defs
     id="defs8" />
  <sodipodi:namedview
     id="namedview8"
     pagecolor="#ffffff"
     bordercolor="#000000"
     borderopacity="0.25"
     inkscape:showpageshadow="2"
     inkscape:pageopacity="0.0"
     inkscape:pagecheckerboard="0"
     inkscape:deskcolor="#d1d1d1"
     showgrid="true"
     inkscape:zoom="22.597954"
     inkscape:cx="9.2486248"
     inkscape:cy="9.6247651"
     inkscape:window-width="1920"
     inkscape:window-height="994"
     inkscape:window-x="0"
     inkscape:window-y="0"
     inkscape:window-maximized="1"
     inkscape:current-layer="svg8">
    <inkscape:grid
       id="grid8"
       units="px"
       originx="0"
       originy="0"
       spacingx="1"
       spacingy="1"
       empcolor="#0099e5"
       empopacity="0.30196078"
       color="#0099e5"
       opacity="0.14901961"
       empspacing="5"
       dotted="false"
       gridanglex="30"
       gridanglez="30"
       visible="true" />
  </sodipodi:namedview>
  <linearGradient
     id="a">
    <stop
       offset="0"
       stop-color="#ffc100"
       id="stop1" />
    <stop
       offset="1"
       stop-color="#ff0069"
       id="stop2" />
  </linearGradient>
  <linearGradient
     id="b"
     gradientTransform="matrix(0.53781559,0,0,0.49788055,-4.9078211,-3.297747)"
     gradientUnits="userSpaceOnUse"
     x1="13.999"
     x2="34.000999"
     xlink:href="#a"
     y1="27"
     y2="27" />
  <linearGradient
     id="c"
     gradientTransform="matrix(0.53781552,0,0,0.49788051,-4.90782,-3.2977469)"
     gradientUnits="userSpaceOnUse"
     x1="14"
     x2="34.000999"
     xlink:href="#a"
     y1="18.5"
     y2="18.5" />
  <linearGradient
     id="d"
     gradientTransform="matrix(0.40184215,0,0,0.37200312,-1.6444444,-0.43346231)"
     gradientUnits="userSpaceOnUse"
     x1="14.162"
     x2="33.838001"
     xlink:href="#a"
     y1="11.541"
     y2="11.541" />
  <linearGradient
     id="e"
     gradientUnits="userSpaceOnUse"
     x1="15.174"
     x2="36.282001"
     xlink:href="#a"
     y1="12.796"
     y2="12.796"
     gradientTransform="matrix(0.37402585,0,0,0.36863381,-1.6231249,-0.85739107)" />
  <path
     d="m 3.0985779,5.1664545 h 9.8032171 c 0.261818,0 0.476883,0.198325 0.476883,0.4416231 v 0.6108261 c 0,0.2432981 -0.214316,0.441623 -0.477257,0.441623 H 3.0985779 c -0.2621923,0 -0.4768832,-0.1979561 -0.4768832,-0.441623 V 5.6084465 c 0,-0.2432992 0.2139423,-0.4416242 0.4768832,-0.4416242"
     fill="none"
     stroke="url(#c)"
     stroke-width="1.0"
     id="path2"
     style="stroke:url(#c)" />
  <path
     d="m 9.0755112,9.6475665 c 0,0.5500015 -0.4813715,0.9953115 -1.0756982,0.9953115 -0.5943277,0 -1.0756982,-0.44531 -1.0756982,-0.9953115 0,-0.5503696 0.4813705,-0.9960485 1.0756982,-0.9960485 0.5943267,0 1.0756982,0.4460468 1.0756982,0.9960485"
     id="path3"
     style="fill:#808080;stroke-width:0.37132" />
  <path
     d="M 7.4619633,10.145222 6.386265,12.634606 H 9.6133599 L 8.5376617,10.145222"
     id="path4"
     style="fill:#808080;stroke-width:0.37132" />
  <path
     d="M 6.6046958,12.136951 6.386265,12.634606 H 9.6133599 L 9.3949291,12.136951"
     fill="#ffc100"
     id="path5"
     style="stroke-width:0.37132" />
  <path
     d="m 4.2352427,5.6644783 c 0,-1.9917285 1.0756983,-3.9830883 3.7645703,-3.9830883 2.689245,0 3.76457,1.9913598 3.76457,3.9830883 0,0.4976559 -0.537475,0.4976559 -0.537475,0 0,-1.4937042 -1.075699,-3.4854327 -3.227095,-3.4854327 -2.1513966,0 -3.2267216,1.9917285 -3.2267216,3.4854327 0,0.4976559 -0.5378487,0.4976559 -0.5378487,0"
     fill="url(#e)"
     stroke="url(#d)"
     stroke-linecap="square"
     stroke-width="0.5"
     id="path6"
     style="fill:url(#e);stroke:url(#d)" />
  <path
     d="m 5.310941,5.9133057 c 0,0.1378696 -0.3616834,0.2488285 -0.8067739,0.2488285 -0.4450906,0 -0.8067741,-0.11059 -0.8067741,-0.2488285 0,-0.1378686 0.3613091,-0.2488274 0.8067741,-0.2488274 0.4450905,0 0.8067739,0.1105899 0.8067739,0.2488274 m 6.991291,0 c 0,0.1378696 -0.361309,0.2488285 -0.8064,0.2488285 -0.445466,0 -0.806774,-0.11059 -0.806774,-0.2488285 0,-0.1378686 0.361308,-0.2488274 0.806774,-0.2488274 0.445091,0 0.8064,0.1105899 0.8064,0.2488274"
     id="path7"
     style="fill:#808080;stroke-width:0.37132" />
  <path
     d="m 13.377932,6.1621342 7.47e-4,7.5249218 c 0,0.243298 -0.214316,0.441623 -0.477256,0.441623 H 3.0985779 c -0.2621923,0 -0.4768832,-0.197957 -0.4768832,-0.441623 L 2.6213205,6.1621342"
     fill="none"
     stroke="url(#b)"
     stroke-width="1.0"
     id="path8"
     style="stroke:url(#b)" />
</svg>
