<?xml version="1.0" encoding="UTF-8" standalone="no"?>
<svg
   style="isolation:isolate"
   width="16"
   height="16"
   viewBox="0 0 16 16"
   version="1.1"
   id="svg22"
   sodipodi:docname="kipi-hq.svg"
   inkscape:version="1.3.2 (091e20ef0f, 2023-11-25)"
   xmlns:inkscape="http://www.inkscape.org/namespaces/inkscape"
   xmlns:sodipodi="http://sodipodi.sourceforge.net/DTD/sodipodi-0.dtd"
   xmlns:xlink="http://www.w3.org/1999/xlink"
   xmlns="http://www.w3.org/2000/svg"
   xmlns:svg="http://www.w3.org/2000/svg">
  <sodipodi:namedview
     id="namedview22"
     pagecolor="#ffffff"
     bordercolor="#000000"
     borderopacity="0.25"
     inkscape:showpageshadow="2"
     inkscape:pageopacity="0.0"
     inkscape:pagecheckerboard="0"
     inkscape:deskcolor="#d1d1d1"
     inkscape:zoom="23.96875"
     inkscape:cx="6.8005215"
     inkscape:cy="7.2803129"
     inkscape:window-width="1920"
     inkscape:window-height="994"
     inkscape:window-x="0"
     inkscape:window-y="0"
     inkscape:window-maximized="1"
     inkscape:current-layer="svg22" />
  <defs
     id="defs22">
    <linearGradient
       id="linearGradient22"
       inkscape:collect="always">
      <stop
         style="stop-color:#9955ff;stop-opacity:1"
         offset="0"
         id="stop23" />
      <stop
         style="stop-color:#2ad4ff;stop-opacity:1"
         offset="1"
         id="stop24" />
    </linearGradient>
    <style
       id="current-color-scheme"
       type="text/css">
   .ColorScheme-Text { color:#d5c289; } .ColorScheme-Highlight { color:#5294e2; }
  </style>
    <linearGradient
       id="arrongin"
       x1="0%"
       x2="0%"
       y1="0%"
       y2="100%">
      <stop
         offset="0%"
         style="stop-color:#dd9b44; stop-opacity:1"
         id="stop1" />
      <stop
         offset="100%"
         style="stop-color:#ad6c16; stop-opacity:1"
         id="stop2" />
    </linearGradient>
    <linearGradient
       id="aurora"
       x1="0%"
       x2="0%"
       y1="0%"
       y2="100%">
      <stop
         offset="0%"
         style="stop-color:#09D4DF; stop-opacity:1"
         id="stop3" />
      <stop
         offset="100%"
         style="stop-color:#9269F4; stop-opacity:1"
         id="stop4" />
    </linearGradient>
    <linearGradient
       id="fitdance"
       x1="0%"
       x2="0%"
       y1="0%"
       y2="100%">
      <stop
         offset="0%"
         style="stop-color:#1AD6AB; stop-opacity:1"
         id="stop5" />
      <stop
         offset="100%"
         style="stop-color:#329DB6; stop-opacity:1"
         id="stop6" />
    </linearGradient>
    <linearGradient
       id="oomox"
       x1="0"
       x2="0"
       y1="0"
       y2="16"
       gradientUnits="userSpaceOnUse"
       gradientTransform="matrix(0.75,0,0,0.75,2,2)">
      <stop
         offset="0%"
         style="stop-color:#303b3d; stop-opacity:1"
         id="stop7" />
      <stop
         offset="100%"
         style="stop-color:#bc985d; stop-opacity:1"
         id="stop8" />
    </linearGradient>
    <linearGradient
       id="rainblue"
       x1="0%"
       x2="0%"
       y1="0%"
       y2="100%">
      <stop
         offset="0%"
         style="stop-color:#00F260; stop-opacity:1"
         id="stop9" />
      <stop
         offset="100%"
         style="stop-color:#0575E6; stop-opacity:1"
         id="stop10" />
    </linearGradient>
    <linearGradient
       id="sunrise"
       x1="0%"
       x2="0%"
       y1="0%"
       y2="100%">
      <stop
         offset="0%"
         style="stop-color: #FF8501; stop-opacity:1"
         id="stop11" />
      <stop
         offset="100%"
         style="stop-color: #FFCB01; stop-opacity:1"
         id="stop12" />
    </linearGradient>
    <linearGradient
       id="telinkrin"
       x1="0%"
       x2="0%"
       y1="0%"
       y2="100%">
      <stop
         offset="0%"
         style="stop-color: #b2ced6; stop-opacity:1"
         id="stop13" />
      <stop
         offset="100%"
         style="stop-color: #6da5b7; stop-opacity:1"
         id="stop14" />
    </linearGradient>
    <linearGradient
       id="60spsycho"
       x1="0%"
       x2="0%"
       y1="0%"
       y2="100%">
      <stop
         offset="0%"
         style="stop-color: #df5940; stop-opacity:1"
         id="stop15" />
      <stop
         offset="25%"
         style="stop-color: #d8d15f; stop-opacity:1"
         id="stop16" />
      <stop
         offset="50%"
         style="stop-color: #e9882a; stop-opacity:1"
         id="stop17" />
      <stop
         offset="100%"
         style="stop-color: #279362; stop-opacity:1"
         id="stop18" />
    </linearGradient>
    <linearGradient
       id="90ssummer"
       x1="0%"
       x2="0%"
       y1="0%"
       y2="100%">
      <stop
         offset="0%"
         style="stop-color: #f618c7; stop-opacity:1"
         id="stop19" />
      <stop
         offset="20%"
         style="stop-color: #94ffab; stop-opacity:1"
         id="stop20" />
      <stop
         offset="50%"
         style="stop-color: #fbfd54; stop-opacity:1"
         id="stop21" />
      <stop
         offset="100%"
         style="stop-color: #0f83ae; stop-opacity:1"
         id="stop22" />
    </linearGradient>
    <linearGradient
       inkscape:collect="always"
       xlink:href="#linearGradient22"
       id="linearGradient24"
       x1="5.5779462"
       y1="11.13398"
       x2="10.370274"
       y2="6.1538453"
       gradientUnits="userSpaceOnUse"
       gradientTransform="matrix(1.0833332,0,0,1.0833332,-0.66666665,-0.66666665)" />
  </defs>
  <path
     class="ColorScheme-Text"
     fill-rule="evenodd"
     d="M 4.9999997,1.5 C 4.725,1.5 4.5000003,1.7250002 4.5000003,2.0000007 V 3.5 c 0,0.275 0.2249997,0.4999998 0.4999994,0.4999998 C 5.2749998,3.9999998 5.5000002,3.775 5.5000002,3.5 V 2.0000007 C 5.5000002,1.7250002 5.2749998,1.5 4.9999997,1.5 Z M 11,1.5 c -0.274997,0 -0.5,0.2250002 -0.5,0.5000007 V 3.5 c 0,0.275 0.225003,0.4999998 0.5,0.4999998 0.274997,0 0.500001,-0.2249998 0.500001,-0.4999998 V 2.0000007 C 11.500001,1.7250002 11.274997,1.5 11,1.5 Z M 2.4999999,5.9999992 H 13.5 V 12.99999 C 13.5,13.274997 13.274997,13.5 12.99999,13.5 H 2.9999998 C 2.7250002,13.5 2.4999999,13.274997 2.4999999,12.99999 Z M 2.9999998,2.4999999 C 2.1715723,2.4999999 1.5,3.171573 1.5,3.9999998 V 12.99999 C 1.5,13.828429 2.1715723,14.5 2.9999998,14.5 H 12.99999 C 13.828429,14.5 14.5,13.828429 14.5,12.99999 V 3.9999998 C 14.5,3.171573 13.828429,2.4999999 12.99999,2.4999999 h -0.999988 v 1.0000009 c 0,0.5522822 -0.447719,0.999999 -1.000003,0.999999 -0.552283,0 -0.999998,-0.4477168 -0.999998,-0.999999 V 2.4999999 H 5.9999992 v 1.0000009 c 0,0.5522822 -0.4477139,0.999999 -0.999999,0.999999 -0.552285,0 -1.0000004,-0.4477168 -1.0000004,-0.999999 V 2.4999999 Z M 7.552018,12.152557 H 4.4545457 v 0 q 0,-1.619286 1.5871353,-2.481166 v 0 0 Q 6.3680668,9.495098 6.553659,9.309011 v 0 0 Q 6.7392522,9.1229228 6.7392522,8.855218 v 0 0 q 0,-0.2677038 -0.1887932,-0.437469 v 0 0 Q 6.361669,8.2479852 6.0544798,8.2479852 v 0 0 q -0.6015768,0 -0.8383658,0.5615281 v 0 L 4.524942,8.489574 v 0 Q 4.704135,8.039045 5.1137182,7.771341 v 0 0 Q 5.5233017,7.5036368 6.0480802,7.5036368 v 0 0 q 0.6719718,0 1.068756,0.3787035 v 0 0 Q 7.51362,8.2610452 7.51362,8.855218 v 0 0 q 0,0.5354102 -0.2655892,0.845556 v 0 0 Q 6.9824422,10.01092 6.4256643,10.324327 v 0 0 Q 5.9584833,10.58551 5.708894,10.833622 v 0 0 Q 5.459304,11.08174 5.376108,11.39514 v 0 h 2.17591 z M 9.503937,9.142512 v 0 0 Q 9.676731,9.2992167 9.95832,9.2992167 v 0 0 q 0.281588,0 0.457582,-0.1567047 v 0 0 q 0.175994,-0.1567057 0.175994,-0.391764 v 0 0 q 0,-0.235058 -0.175994,-0.3819682 v 0 0 Q 10.239908,8.2218682 9.95832,8.2218682 v 0 0 q -0.281589,0 -0.454383,0.1469116 v 0 0 Q 9.3311452,8.51569 9.3311452,8.750748 v 0 0 q 0,0.2350583 0.1727918,0.391764 z m -0.121593,2.161222 v 0 0 q 0.22399,0.202412 0.575976,0.202412 v 0 0 q 0.351987,0 0.582375,-0.205676 v 0 0 q 0.230391,-0.205672 0.230391,-0.525613 v 0 0 q 0,-0.31341 -0.233589,-0.528878 v 0 0 Q 10.303903,10.030506 9.95832,10.030506 v 0 0 q -0.351986,0 -0.575976,0.212208 v 0 0 q -0.223991,0.212203 -0.223991,0.532143 v 0 0 q 0,0.326466 0.223991,0.528877 z m 1.72793,0.528882 v 0 0 Q 10.675093,12.23092 9.95832,12.23092 v 0 0 q -0.7167713,0 -1.1487528,-0.398304 v 0 0 Q 8.377585,11.434322 8.377585,10.794448 v 0 0 q 0,-0.783528 0.7487688,-1.142646 v 0 0 Q 8.5631772,9.331863 8.5631772,8.705043 v 0 0 q 0,-0.52888 0.380784,-0.865144 v 0 0 Q 9.324745,7.5036368 9.95832,7.5036368 v 0 0 q 0.633576,0 1.017555,0.3362612 v 0 0 q 0.383989,0.336265 0.383989,0.865145 v 0 0 q 0,0.6202907 -0.56318,0.94023 v 0 0 q 0.345585,0.169765 0.547179,0.463587 v 0 0 q 0.201594,0.293822 0.201594,0.685588 v 0 0 q 0,0.639874 -0.435183,1.038168 z"
     id="path22"
     style="fill:url(#linearGradient24);stroke-width:1.0833" />
</svg>
