<?xml version="1.0" encoding="UTF-8" standalone="no"?>
<svg
   height="16"
   viewBox="0 0 4.2333334 4.2333334"
   width="16"
   version="1.1"
   id="svg68"
   sodipodi:docname="kirogi.svg"
   inkscape:version="1.3.2 (091e20ef0f, 2023-11-25)"
   xmlns:inkscape="http://www.inkscape.org/namespaces/inkscape"
   xmlns:sodipodi="http://sodipodi.sourceforge.net/DTD/sodipodi-0.dtd"
   xmlns:xlink="http://www.w3.org/1999/xlink"
   xmlns="http://www.w3.org/2000/svg"
   xmlns:svg="http://www.w3.org/2000/svg">
  <defs
     id="defs72">
    <linearGradient
       id="linearGradient795"
       gradientUnits="userSpaceOnUse"
       x1="6.3499999"
       x2="6.3499999"
       y1="295.94"
       y2="285.35999"
       gradientTransform="matrix(1.0500331,0,0,1.0499343,-17.861455,-313.25254)">
      <stop
         offset="0"
         stop-color="#239b56"
         id="stop22-3" />
      <stop
         offset="1"
         stop-color="#27d06e"
         id="stop24-6" />
    </linearGradient>
    <linearGradient
       id="linearGradient799"
       gradientUnits="userSpaceOnUse"
       x1="12"
       x2="44"
       y1="12"
       y2="44"
       gradientTransform="matrix(0.27781773,0,0,0.27779161,-17.861455,-14.756217)">
      <stop
         offset="0"
         stop-color="#292c2f"
         id="stop29-7" />
      <stop
         offset="1"
         stop-opacity="0"
         id="stop31-5" />
    </linearGradient>
    <linearGradient
       id="linearGradient801"
       gradientTransform="matrix(0.27781773,0,0,0.25464322,-17.861455,-14.108129)"
       gradientUnits="userSpaceOnUse"
       x1="24"
       x2="24"
       xlink:href="#a"
       y1="29"
       y2="40" />
    <linearGradient
       id="linearGradient805">
      <stop
         offset="0"
         stop-color="#78542e"
         id="stop2-3" />
      <stop
         offset="1"
         stop-color="#544020"
         id="stop4-5" />
    </linearGradient>
    <linearGradient
       id="linearGradient809"
       gradientUnits="userSpaceOnUse"
       x1="6.3499999"
       x2="6.3499999"
       y1="293.82501"
       y2="286.15201"
       gradientTransform="matrix(1.0500331,0,0,1.0499343,-17.861455,-313.25254)">
      <stop
         offset="0"
         stop-color="#dadedf"
         id="stop7-6" />
      <stop
         offset="1"
         stop-color="#fcfcfc"
         id="stop9-2" />
    </linearGradient>
    <linearGradient
       id="linearGradient811"
       gradientUnits="userSpaceOnUse"
       x1="24"
       x2="24"
       xlink:href="#a"
       y1="9.007"
       y2="21.025999"
       gradientTransform="matrix(0.27781773,0,0,0.27779161,-17.861455,-14.756217)" />
    <linearGradient
       id="linearGradient815"
       gradientUnits="userSpaceOnUse"
       x1="6.3499999"
       x2="6.3499999"
       y1="294.09"
       y2="289.85999"
       gradientTransform="matrix(1.0500331,0,0,1.0499343,-17.861455,-313.25254)">
      <stop
         offset="0"
         stop-color="#e26b00"
         id="stop17-9" />
      <stop
         offset="1"
         stop-color="#ff9230"
         id="stop19-1" />
    </linearGradient>
    <linearGradient
       id="linearGradient819"
       gradientTransform="matrix(0.27781773,0,0,0.27778883,-17.861455,-14.756217)"
       gradientUnits="userSpaceOnUse"
       x1="24"
       x2="24"
       y1="24"
       y2="21">
      <stop
         offset="0"
         stop-color="#232629"
         id="stop12-2" />
      <stop
         offset="1"
         stop-color="#4f535c"
         id="stop14-7" />
    </linearGradient>
    <linearGradient
       id="linearGradient823"
       gradientUnits="userSpaceOnUse"
       x1="6.3499999"
       x2="6.3499999"
       y1="289.32599"
       y2="286.94601"
       gradientTransform="matrix(1.0500331,0,0,1.0499343,-17.861455,-313.25254)">
      <stop
         offset="0"
         stop-color="#7e8690"
         id="stop34-0" />
      <stop
         offset="1"
         stop-color="#8f97a1"
         id="stop36-9" />
    </linearGradient>
    <linearGradient
       id="linearGradient827"
       gradientTransform="matrix(0.27798572,0,0,0.26200058,-17.871955,-14.84023)"
       gradientUnits="userSpaceOnUse"
       x1="24.025"
       x2="24.025"
       y1="18.358999"
       y2="10.937">
      <stop
         offset="0"
         stop-color="#098ae7"
         id="stop39-3" />
      <stop
         offset="1"
         stop-color="#34a3f4"
         id="stop41-6" />
    </linearGradient>
    <linearGradient
       inkscape:collect="always"
       xlink:href="#e"
       id="linearGradient848"
       gradientUnits="userSpaceOnUse"
       gradientTransform="matrix(0.41167555,0,0,0.41163681,-0.49744037,-117.28992)"
       x1="6.3499999"
       y1="293.82501"
       x2="6.3499999"
       y2="286.15201" />
    <linearGradient
       inkscape:collect="always"
       xlink:href="#a"
       id="linearGradient850"
       gradientUnits="userSpaceOnUse"
       gradientTransform="matrix(0.10892111,0,0,0.10891087,-0.49744037,-0.26157951)"
       x1="24"
       y1="9.007"
       x2="24"
       y2="21.025999" />
    <linearGradient
       inkscape:collect="always"
       xlink:href="#g"
       id="linearGradient852"
       gradientUnits="userSpaceOnUse"
       gradientTransform="matrix(0.41167555,0,0,0.41163681,-0.49744037,-117.28992)"
       x1="6.3499999"
       y1="294.09"
       x2="6.3499999"
       y2="289.85999" />
    <linearGradient
       inkscape:collect="always"
       xlink:href="#h"
       id="linearGradient854"
       gradientUnits="userSpaceOnUse"
       gradientTransform="matrix(0.10892111,0,0,0.10890979,-0.49744037,-0.26157951)"
       x1="24"
       y1="24"
       x2="24"
       y2="21" />
    <linearGradient
       inkscape:collect="always"
       xlink:href="#i"
       id="linearGradient856"
       gradientUnits="userSpaceOnUse"
       gradientTransform="matrix(0.41167555,0,0,0.41163681,-0.49744037,-117.28992)"
       x1="6.3499999"
       y1="289.32599"
       x2="6.3499999"
       y2="286.94601" />
    <linearGradient
       inkscape:collect="always"
       xlink:href="#j"
       id="linearGradient858"
       gradientUnits="userSpaceOnUse"
       gradientTransform="matrix(0.10898697,0,0,0.10271983,-0.50155637,-0.29451762)"
       x1="24.025"
       y1="18.358999"
       x2="24.025"
       y2="10.937" />
  </defs>
  <sodipodi:namedview
     id="namedview70"
     pagecolor="#ffffff"
     bordercolor="#666666"
     borderopacity="1.0"
     inkscape:showpageshadow="2"
     inkscape:pageopacity="0.0"
     inkscape:pagecheckerboard="0"
     inkscape:deskcolor="#d1d1d1"
     showgrid="false"
     inkscape:zoom="19.666667"
     inkscape:cx="8.3898304"
     inkscape:cy="12.533898"
     inkscape:window-width="1920"
     inkscape:window-height="994"
     inkscape:window-x="0"
     inkscape:window-y="0"
     inkscape:window-maximized="1"
     inkscape:current-layer="svg68" />
  <linearGradient
     id="a">
    <stop
       offset="0"
       stop-color="#78542e"
       id="stop2" />
    <stop
       offset="1"
       stop-color="#544020"
       id="stop4" />
  </linearGradient>
  <linearGradient
     id="e"
     gradientUnits="userSpaceOnUse"
     x1="6.3499999"
     x2="6.3499999"
     y1="293.82501"
     y2="286.15201"
     gradientTransform="matrix(1.0500331,0,0,1.0499343,-17.861455,-313.25254)">
    <stop
       offset="0"
       stop-color="#dadedf"
       id="stop7" />
    <stop
       offset="1"
       stop-color="#fcfcfc"
       id="stop9" />
  </linearGradient>
  <linearGradient
     id="h"
     gradientTransform="matrix(0.27781773,0,0,0.27778883,-17.861455,-14.756217)"
     gradientUnits="userSpaceOnUse"
     x1="24"
     x2="24"
     y1="24"
     y2="21">
    <stop
       offset="0"
       stop-color="#232629"
       id="stop12" />
    <stop
       offset="1"
       stop-color="#4f535c"
       id="stop14" />
  </linearGradient>
  <linearGradient
     id="g"
     gradientUnits="userSpaceOnUse"
     x1="6.3499999"
     x2="6.3499999"
     y1="294.09"
     y2="289.85999"
     gradientTransform="matrix(1.0500331,0,0,1.0499343,-17.861455,-313.25254)">
    <stop
       offset="0"
       stop-color="#e26b00"
       id="stop17" />
    <stop
       offset="1"
       stop-color="#ff9230"
       id="stop19" />
  </linearGradient>
  <linearGradient
     id="b"
     gradientUnits="userSpaceOnUse"
     x1="6.3499999"
     x2="6.3499999"
     y1="295.94"
     y2="285.35999"
     gradientTransform="matrix(1.0500331,0,0,1.0499343,-17.861455,-313.25254)">
    <stop
       offset="0"
       stop-color="#239b56"
       id="stop22" />
    <stop
       offset="1"
       stop-color="#27d06e"
       id="stop24" />
  </linearGradient>
  <linearGradient
     id="d"
     gradientTransform="matrix(0.27781773,0,0,0.25464322,-17.861455,-14.108129)"
     gradientUnits="userSpaceOnUse"
     x1="24"
     x2="24"
     xlink:href="#a"
     y1="29"
     y2="40" />
  <linearGradient
     id="f"
     gradientUnits="userSpaceOnUse"
     x1="24"
     x2="24"
     xlink:href="#a"
     y1="9.007"
     y2="21.025999"
     gradientTransform="matrix(0.27781773,0,0,0.27779161,-17.861455,-14.756217)" />
  <linearGradient
     id="c"
     gradientUnits="userSpaceOnUse"
     x1="12"
     x2="44"
     y1="12"
     y2="44"
     gradientTransform="matrix(0.27781773,0,0,0.27779161,-17.861455,-14.756217)">
    <stop
       offset="0"
       stop-color="#292c2f"
       id="stop29" />
    <stop
       offset="1"
       stop-opacity="0"
       id="stop31" />
  </linearGradient>
  <linearGradient
     id="i"
     gradientUnits="userSpaceOnUse"
     x1="6.3499999"
     x2="6.3499999"
     y1="289.32599"
     y2="286.94601"
     gradientTransform="matrix(1.0500331,0,0,1.0499343,-17.861455,-313.25254)">
    <stop
       offset="0"
       stop-color="#7e8690"
       id="stop34" />
    <stop
       offset="1"
       stop-color="#8f97a1"
       id="stop36" />
  </linearGradient>
  <linearGradient
     id="j"
     gradientTransform="matrix(0.27798572,0,0,0.26200058,-17.871955,-14.84023)"
     gradientUnits="userSpaceOnUse"
     x1="24.025"
     x2="24.025"
     y1="18.358999"
     y2="10.937">
    <stop
       offset="0"
       stop-color="#098ae7"
       id="stop39" />
    <stop
       offset="1"
       stop-color="#34a3f4"
       id="stop41" />
  </linearGradient>
  <path
     d="m 0.7006924,2.7879239 c 0,0.2995049 -0.028323,1.0059007 0.13593247,1.1701404 0.028323,0.028297 0.0455321,0.027882 0.0602321,0.027882 0.045317,0 -0.0098,-0.5169992 0.13059723,-0.7987513 z m 2.8319496,0 -0.3267651,0.3992672 c 0.1405081,0.281752 0.08528,0.7987519 0.130705,0.7987519 0.01459,0 0.031691,5.093e-4 0.060123,-0.027885 C 3.5609589,3.7938205 3.532642,3.0874245 3.532642,2.7879197 Z"
     id="path48-2"
     style="fill:#ff9955;stroke-width:0.108915" />
  <path
     d="M 2.1969759,0.28178125 C 2.038892,0.5765128 1.5469392,0.58392232 1.2451823,0.82637669 0.81210008,1.1746211 0.59185324,2.0242391 0.59185324,2.4601626 c 0,0.2177558 0.14532104,0.544595 0.21818775,0.6532676 0.21736511,0.326839 0.55288021,0.4795564 0.87110491,0.5445947 0.1428513,0.02923 0.670208,0.022232 0.8711052,0 0.3404568,-0.037458 0.6537408,-0.2181672 0.8715176,-0.5445947 0.072863,-0.1086726 0.218189,-0.4705012 0.218189,-0.6532676 0,-0.4359235 -0.182785,-1.3472871 -0.6537418,-1.63378591 C 2.7375059,0.67118929 2.3167739,0.6090322 2.187095,0.55140333 2.202325,0.50365343 2.266956,0.47072233 2.197414,0.28178125 Z"
     fill="url(#e)"
     id="path50-6"
     style="fill:url(#linearGradient848);stroke-width:0.411652" />
  <path
     d="m 1.6139951,0.70119242 a 0.38100593,0.38097013 0 0 0 -0.146608,0.023633 C 1.1572893,0.8444095 1.0830042,0.88089458 0.91853427,1.0453505 0.65505353,1.3088054 0.53970646,2.1871711 0.72411009,2.0601815 1.330474,1.642835 1.6788032,1.601667 1.7722579,1.5488452 1.890546,1.4820823 1.8749749,1.3720827 2.1166661,1.3720827 c 0.2416959,0 0.2261198,0.1099997 0.3444089,0.1767625 0.093453,0.052713 0.4417829,0.093988 1.0481487,0.5113363 C 3.6936239,2.1871711 3.5783837,1.3089144 3.3147979,1.0453505 3.1504359,0.88100358 3.0760429,0.8444095 2.7658351,0.72482551 A 0.38122381,0.38118792 0 0 0 2.619336,0.70119251 c -0.150855,0.00282 -0.3156521,0.0703564 -0.5026699,0.0703564 -0.1870181,0 -0.3518152,-0.067525 -0.502671,-0.0703565 z"
     fill="url(#f)"
     id="path52-1"
     style="fill:url(#linearGradient850);stroke-width:0.108915" />
  <path
     d="m 2.1166989,1.2614763 c -0.3190487,0 -0.2494749,0.2000558 -0.3445728,0.2856762 0.118563,-0.066683 0.1029207,-0.1770038 0.3445728,-0.1770038 0.241654,0 0.226422,0.1103183 0.3445721,0.1770038 C 2.3661789,1.4615316 2.4357475,1.2614763 2.1166989,1.2614763 Z"
     opacity="0.388"
     id="path54-8"
     style="stroke-width:0.411652" />
  <path
     d="m 2.1166989,3.7683443 c -0.435553,0 -1.0892928,-0.4355121 -1.0892928,-0.6532678 0,-0.2181672 0.32687,-0.3268391 0.435552,-0.5445951 0.109094,-0.2181678 0.3268708,-0.5445955 0.6537408,-0.5445955 0.3268692,0 0.5446471,0.3264277 0.653329,0.5445955 0.1090942,0.217756 0.435964,0.3264279 0.435964,0.5441838 0,0.218167 -0.6537408,0.6536791 -1.089293,0.6536791 z"
     fill="url(#g)"
     id="path56-7"
     style="fill:url(#linearGradient852);stroke-width:0.411652" />
  <path
     d="m 1.6617979,2.6791532 c -0.06216,0 -0.08933,0.1045566 -0.09551,0.1564222 -0.0029,0.025107 0.02923,0.061333 0.05475,0.061333 0.05764,0 0.079049,-0.2181681 0.04075,-0.2181681 z m 0.9098029,0 c -0.038691,0 -0.016469,0.2177561 0.04034,0.2177561 0.025521,0 0.058049,-0.036226 0.05516,-0.061333 -0.00612,-0.051867 -0.03334,-0.1564224 -0.095511,-0.1564224 z"
     opacity="0.55"
     id="path58-9"
     style="stroke-width:0.411652" />
  <path
     d="m 1.1948663,2.0255484 c -0.040631,0 -0.05849,0.075799 -0.05849,0.1533462 0,0.077546 0.0053,0.1733864 0.047381,0.1733864 0.04215,0 0.061539,-0.090944 0.061539,-0.1733864 0,-0.082447 -0.0098,-0.1533462 -0.05043,-0.1533462 z m 1.8435986,0 c -0.04063,0 -0.05043,0.082992 -0.05043,0.1533462 0,0.070359 0.02592,0.1733864 0.061534,0.1733864 0.035611,0 0.047386,-0.098241 0.047386,-0.1733864 0,-0.075151 -0.017869,-0.1533462 -0.05849,-0.1533462 z"
     fill="url(#h)"
     id="path60-2"
     style="fill:url(#linearGradient854);stroke-width:0.108915" />
  <path
     d="m 1.5930481,0.77574538 c -0.105388,0.008238 -0.227245,0.0452803 -0.3478658,0.1062018 -0.182785,0.0934422 -0.33839713,0.20705412 -0.43555264,0.39517202 -0.03458,0.066271 -0.16137691,0.3696492 0,0.476263 C 0.93642527,1.8373576 1.039345,1.650473 1.2451823,1.535215 1.4510191,1.4207798 1.7169621,1.391142 1.7898289,1.3442155 1.8927494,1.2771208 1.8989221,1.1054665 1.8989221,0.99103128 c 0,-0.16341959 -0.130089,-0.22887 -0.305874,-0.2152859 z m 1.0473019,0 c -0.175786,-0.0135853 -0.305875,0.0518668 -0.305875,0.2152859 0,0.11484662 0.0058,0.28608792 0.1090931,0.35318422 0.072867,0.047337 0.3383977,0.076565 0.5446478,0.1914108 0.2058372,0.114847 0.308756,0.30173 0.4355528,0.2177559 0.1609642,-0.1066136 0.03458,-0.4099901 0,-0.476675 C 3.3266088,1.0890013 3.1709999,0.97538888 2.9882159,0.88194718 A 0.95426355,0.95417386 0 0 0 2.64035,0.77574538 Z"
     fill="url(#i)"
     id="path64-2"
     style="fill:url(#linearGradient856);stroke-width:0.411652" />
  <path
     d="M 1.5967529,0.80867639 A 0.93038636,0.93029886 0 0 0 1.2797623,0.90047104 C 1.1035661,0.98485688 0.96606527,1.0807688 0.87879068,1.239249 a 0.72825367,0.72818517 0 0 0 -0.065046,0.1881169 0.27458752,0.2745617 0 0 0 -8.626e-4,0.1053802 c 0.00657,0.027578 0.0172849,0.043636 0.038694,0.057219 0.0156479,0.00987 0.016057,0.00825 0.027989,0.00575 a 0.24000675,0.23998418 0 0 0 0.0658862,-0.036219 C 1.0055533,1.5166871 1.0878913,1.4413577 1.2023372,1.3812588 1.3159591,1.3215718 1.4402853,1.2865828 1.543204,1.2598257 c 0.1033302,-0.026345 0.1938989,-0.05351 0.1988392,-0.056806 0.025521,-0.015645 0.045691,-0.050223 0.057639,-0.1016727 0.01235,-0.051457 0.01482,-0.11402312 0.01482,-0.16712446 0,-0.0452801 -0.01235,-0.0679202 -0.032111,-0.0864433 a 0.18237222,0.18235508 0 0 0 -0.1029213,-0.0382808 0.42196717,0.42192749 0 0 0 -0.08316,-8.6251e-4 z m 1.0403041,0 a 0.42196717,0.42192749 0 0 0 -0.08316,8.233e-4 0.18237222,0.18235508 0 0 0 -0.1029205,0.0382801 c -0.01976,0.018525 -0.032111,0.041163 -0.032111,0.0864436 0,0.0531 0.0025,0.11525841 0.01441,0.16712471 0.012351,0.051454 0.03293,0.086033 0.058049,0.1012606 0.00499,0.00327 0.095511,0.030872 0.1988388,0.057219 0.1033304,0.026345 0.2272449,0.061745 0.3408679,0.121433 0.1144454,0.060097 0.1967795,0.1358399 0.2568848,0.1782389 0.030059,0.020992 0.05351,0.033339 0.065863,0.036224 0.01235,0.00289 0.01235,0.00412 0.02799,-0.00614 0.02141,-0.013172 0.032111,-0.028818 0.038691,-0.056808 A 0.27417585,0.27415001 0 0 0 3.419633,1.4273636 0.72784201,0.72777354 0 0 0 3.3545869,1.2392459 C 3.267313,1.0803543 3.1298129,0.98485478 2.9536151,0.90046864 A 0.93038636,0.93029886 0 0 0 2.636625,0.80867388 Z"
     fill="url(#j)"
     id="path66-3"
     style="fill:url(#linearGradient858);stroke-width:0.411652" />
</svg>
