<?xml version="1.0" encoding="UTF-8" standalone="no"?>
<!-- Generator: Gravit.io -->

<svg
   style="isolation:isolate"
   viewBox="0 0 16 16"
   width="16pt"
   height="16pt"
   version="1.1"
   id="svg2"
   sodipodi:docname="kmix.svg"
   inkscape:version="1.3.2 (091e20ef0f, 2023-11-25)"
   xmlns:inkscape="http://www.inkscape.org/namespaces/inkscape"
   xmlns:sodipodi="http://sodipodi.sourceforge.net/DTD/sodipodi-0.dtd"
   xmlns:xlink="http://www.w3.org/1999/xlink"
   xmlns="http://www.w3.org/2000/svg"
   xmlns:svg="http://www.w3.org/2000/svg">
  <defs
     id="defs2">
    <linearGradient
       inkscape:collect="always"
       xlink:href="#_lgradient_8"
       id="linearGradient4"
       x1="3"
       y1="14"
       x2="13"
       y2="2"
       gradientUnits="userSpaceOnUse"
       gradientTransform="matrix(1.1000002,0,0,1.0833332,-0.80000099,-0.66666665)" />
  </defs>
  <sodipodi:namedview
     id="namedview2"
     pagecolor="#ffffff"
     bordercolor="#000000"
     borderopacity="0.25"
     inkscape:showpageshadow="2"
     inkscape:pageopacity="0.0"
     inkscape:pagecheckerboard="0"
     inkscape:deskcolor="#d1d1d1"
     inkscape:document-units="pt"
     inkscape:zoom="11.984375"
     inkscape:cx="9.26206"
     inkscape:cy="14.226858"
     inkscape:window-width="1920"
     inkscape:window-height="994"
     inkscape:window-x="0"
     inkscape:window-y="0"
     inkscape:window-maximized="1"
     inkscape:current-layer="svg2" />
  <linearGradient
     id="_lgradient_8"
     x1="0"
     y1="0.5"
     x2="1"
     y2="0.5"
     gradientTransform="matrix(38,0,0,38,-75.361257,-46.155073)"
     gradientUnits="userSpaceOnUse">
    <stop
       offset="0"
       stop-opacity="1"
       style="stop-color:#873bff;stop-opacity:1;"
       id="stop1" />
    <stop
       offset="1"
       stop-opacity="1"
       style="stop-color:#ff3fec;stop-opacity:1;"
       id="stop2" />
  </linearGradient>
  <path
     d="M 5.2500005,1.5 H 10.750003 A 2.7500005,2.6 0 0 1 13.5,4.1 v 7.8 a 2.7500005,2.6 0 0 1 -2.749997,2.6 H 5.2500005 A 2.7500005,2.6 0 0 1 2.5,11.9 V 4.1 A 2.7500005,2.6 0 0 1 5.2500005,1.5 Z M 8.000002,12.55 a 3.4375014,3.25 0 1 0 0,-6.5 3.4375014,3.25 0 0 0 0,6.5 z M 5.2500005,3.45 A 0.68750018,0.65 0 0 0 4.5625006,4.1 V 4.75 A 0.68750018,0.65 0 0 0 5.2500005,5.4 H 8.000002 A 0.68750018,0.65 0 0 0 8.6875019,4.75 V 4.1 A 0.68750018,0.65 0 0 0 8.000002,3.45 Z m 4.8125035,0 A 0.68750018,0.65 0 0 0 9.3750018,4.1 V 4.75 A 0.68750018,0.65 0 0 0 10.062504,5.4 h 0.687499 A 0.68750018,0.65 0 0 0 11.4375,4.75 V 4.1 A 0.68750018,0.65 0 0 0 10.750003,3.45 Z m -2.062502,7.8 a 2.0625006,1.95 0 1 1 0,-3.9 2.0625006,1.95 0 0 1 0,3.9 z m 0,-1.3 a 0.68750018,0.65 0 1 0 0,-1.3 0.68750018,0.65 0 0 0 0,1.3 z"
     id="path1"
     style="fill:url(#linearGradient4);stroke-width:0.668487" />
</svg>
