<?xml version="1.0" encoding="UTF-8" standalone="no"?>
<svg
   width="16"
   height="16"
   viewBox="0 0 16 16"
   fill="none"
   version="1.1"
   id="svg49"
   sodipodi:docname="lokalize.svg"
   inkscape:version="1.3.2 (091e20ef0f, 2023-11-25)"
   xmlns:inkscape="http://www.inkscape.org/namespaces/inkscape"
   xmlns:sodipodi="http://sodipodi.sourceforge.net/DTD/sodipodi-0.dtd"
   xmlns:xlink="http://www.w3.org/1999/xlink"
   xmlns="http://www.w3.org/2000/svg"
   xmlns:svg="http://www.w3.org/2000/svg">
  <sodipodi:namedview
     id="namedview51"
     pagecolor="#ffffff"
     bordercolor="#666666"
     borderopacity="1.0"
     inkscape:showpageshadow="2"
     inkscape:pageopacity="0.0"
     inkscape:pagecheckerboard="0"
     inkscape:deskcolor="#d1d1d1"
     showgrid="false"
     inkscape:zoom="21.522106"
     inkscape:cx="5.6221264"
     inkscape:cy="13.776533"
     inkscape:window-width="1920"
     inkscape:window-height="994"
     inkscape:window-x="0"
     inkscape:window-y="0"
     inkscape:window-maximized="1"
     inkscape:current-layer="svg49">
    <inkscape:grid
       type="xygrid"
       id="grid12572"
       originx="0"
       originy="0"
       spacingy="1"
       spacingx="1"
       units="px"
       visible="false" />
  </sodipodi:namedview>
  <defs
     id="defs47">
    <linearGradient
       id="linearGradient7"
       inkscape:collect="always">
      <stop
         style="stop-color:#ff00ff;stop-opacity:1"
         offset="0"
         id="stop4" />
      <stop
         style="stop-color:#ffb380;stop-opacity:1"
         offset="1"
         id="stop7" />
    </linearGradient>
    <linearGradient
       id="paint0_linear"
       x1="51"
       y1="10"
       x2="11"
       y2="50"
       gradientUnits="userSpaceOnUse">
      <stop
         stop-color="#6EB4D9"
         id="stop22" />
      <stop
         offset="1"
         stop-color="#004E6E"
         id="stop24" />
    </linearGradient>
    <linearGradient
       id="paint1_linear"
       x1="8"
       y1="8"
       x2="48"
       y2="48"
       gradientUnits="userSpaceOnUse">
      <stop
         stop-color="#44F0D3"
         id="stop27" />
      <stop
         offset="1"
         stop-color="#3DAEE9"
         id="stop29" />
    </linearGradient>
    <linearGradient
       id="paint2_linear"
       x1="43"
       y1="18"
       x2="19.5854"
       y2="-11.2683"
       gradientUnits="userSpaceOnUse">
      <stop
         stop-color="#D1D5D9"
         id="stop32" />
      <stop
         offset="1"
         stop-color="#FCFFFF"
         id="stop34" />
    </linearGradient>
    <linearGradient
       id="paint3_linear"
       x1="38"
       y1="25"
       x2="14.02"
       y2="0.020815801"
       gradientUnits="userSpaceOnUse">
      <stop
         stop-color="#D1D5D9"
         id="stop37" />
      <stop
         offset="1"
         stop-color="#FCFFFF"
         id="stop39" />
    </linearGradient>
    <linearGradient
       id="paint4_linear"
       x1="33"
       y1="32"
       x2="9.3934402"
       y2="12.3279"
       gradientUnits="userSpaceOnUse">
      <stop
         stop-color="#D1D5D9"
         id="stop42" />
      <stop
         offset="1"
         stop-color="#FCFFFF"
         id="stop44" />
    </linearGradient>
    <linearGradient
       gradientTransform="matrix(0.69997078,0,0,0.69993111,-301.98906,-350.62269)"
       gradientUnits="userSpaceOnUse"
       x2="420.52621"
       y2="507.73929"
       y1="539.72559"
       id="a-6"
       x1="396.44348">
      <stop
         stop-color="#18222a"
         style="stop-color:#00d4aa;stop-opacity:1"
         id="stop216"
         offset="0" />
      <stop
         stop-color="#566069"
         offset="1"
         style="stop-color:#008fb2;stop-opacity:1;"
         id="stop218" />
    </linearGradient>
    <linearGradient
       id="paint0_linear-3"
       x1="51"
       y1="10"
       x2="11"
       y2="50"
       gradientUnits="userSpaceOnUse"
       gradientTransform="matrix(0.43999763,0,0,0.43999763,2.7522754,3.7879942)">
      <stop
         stop-color="#6EB4D9"
         id="stop229" />
      <stop
         offset="1"
         stop-color="#004E6E"
         id="stop231" />
    </linearGradient>
    <linearGradient
       id="paint1_linear-6"
       x1="8"
       y1="8"
       x2="48"
       y2="48"
       gradientUnits="userSpaceOnUse"
       gradientTransform="matrix(0.43999763,0,0,0.43999763,2.7522754,3.7879942)">
      <stop
         stop-color="#44F0D3"
         id="stop234" />
      <stop
         offset="1"
         stop-color="#3DAEE9"
         id="stop236" />
    </linearGradient>
    <linearGradient
       id="paint2_linear-7"
       x1="43"
       y1="18"
       x2="19.5854"
       y2="-11.2683"
       gradientUnits="userSpaceOnUse"
       gradientTransform="matrix(0.43999763,0,0,0.43999763,2.7522754,3.7879942)">
      <stop
         stop-color="#D1D5D9"
         id="stop239" />
      <stop
         offset="1"
         stop-color="#FCFFFF"
         id="stop241" />
    </linearGradient>
    <linearGradient
       id="paint3_linear-5"
       x1="38"
       y1="25"
       x2="14.02"
       y2="0.020815801"
       gradientUnits="userSpaceOnUse"
       gradientTransform="matrix(0.43999763,0,0,0.43999763,2.7522754,3.7879942)">
      <stop
         stop-color="#D1D5D9"
         id="stop244" />
      <stop
         offset="1"
         stop-color="#FCFFFF"
         id="stop246" />
    </linearGradient>
    <linearGradient
       id="paint4_linear-3"
       x1="33"
       y1="32"
       x2="9.3934402"
       y2="12.3279"
       gradientUnits="userSpaceOnUse"
       gradientTransform="matrix(0.43999763,0,0,0.43999763,2.7522754,3.7879942)">
      <stop
         stop-color="#D1D5D9"
         id="stop249" />
      <stop
         offset="1"
         stop-color="#FCFFFF"
         id="stop251" />
    </linearGradient>
    <clipPath
       clipPathUnits="userSpaceOnUse"
       id="clipPath977-3">
      <path
         id="path979-6"
         style="fill:url(#linearGradient981);fill-opacity:1;stroke:none;stroke-width:3.77953;stroke-linecap:round;stroke-linejoin:round;stroke-opacity:1"
         d="m 498.58672,331.99279 c -26.19823,0 -47.28906,21.09084 -47.28906,47.28906 v 42.5892 70.06055 23.03125 c 0,13.4388 10.81901,24.25782 24.25781,24.25782 h 23.03125 100.57422 18.61328 c 26.19823,0 47.28906,-21.09084 47.28906,-47.28907 V 379.28185 c 0,-26.19823 -21.09083,-47.28906 -47.28906,-47.28906 z"
         sodipodi:nodetypes="ssccssccsssss" />
    </clipPath>
    <clipPath
       clipPathUnits="userSpaceOnUse"
       id="clipPath977-3-5">
      <path
         id="path979-6-3"
         style="fill:url(#linearGradient981);fill-opacity:1;stroke:none;stroke-width:3.77953;stroke-linecap:round;stroke-linejoin:round;stroke-opacity:1"
         d="m 498.58672,331.99279 c -26.19823,0 -47.28906,21.09084 -47.28906,47.28906 v 42.5892 70.06055 23.03125 c 0,13.4388 10.81901,24.25782 24.25781,24.25782 h 23.03125 100.57422 18.61328 c 26.19823,0 47.28906,-21.09084 47.28906,-47.28907 V 379.28185 c 0,-26.19823 -21.09083,-47.28906 -47.28906,-47.28906 z"
         sodipodi:nodetypes="ssccssccsssss" />
    </clipPath>
    <clipPath
       clipPathUnits="userSpaceOnUse"
       id="clipPath977-3-5-7">
      <path
         id="path979-6-3-5"
         style="fill:url(#linearGradient981);fill-opacity:1;stroke:none;stroke-width:3.77953;stroke-linecap:round;stroke-linejoin:round;stroke-opacity:1"
         d="m 498.58672,331.99279 c -26.19823,0 -47.28906,21.09084 -47.28906,47.28906 v 42.5892 70.06055 23.03125 c 0,13.4388 10.81901,24.25782 24.25781,24.25782 h 23.03125 100.57422 18.61328 c 26.19823,0 47.28906,-21.09084 47.28906,-47.28907 V 379.28185 c 0,-26.19823 -21.09083,-47.28906 -47.28906,-47.28906 z"
         sodipodi:nodetypes="ssccssccsssss" />
    </clipPath>
    <clipPath
       clipPathUnits="userSpaceOnUse"
       id="clipPath977-3-5-7-6">
      <path
         id="path979-6-3-5-1"
         style="fill:url(#linearGradient981);fill-opacity:1;stroke:none;stroke-width:3.77953;stroke-linecap:round;stroke-linejoin:round;stroke-opacity:1"
         d="m 498.58672,331.99279 c -26.19823,0 -47.28906,21.09084 -47.28906,47.28906 v 42.5892 70.06055 23.03125 c 0,13.4388 10.81901,24.25782 24.25781,24.25782 h 23.03125 100.57422 18.61328 c 26.19823,0 47.28906,-21.09084 47.28906,-47.28907 V 379.28185 c 0,-26.19823 -21.09083,-47.28906 -47.28906,-47.28906 z"
         sodipodi:nodetypes="ssccssccsssss" />
    </clipPath>
    <clipPath
       clipPathUnits="userSpaceOnUse"
       id="clipPath977-3-7">
      <path
         id="path979-6-5"
         style="fill:url(#linearGradient981);fill-opacity:1;stroke:none;stroke-width:3.77953;stroke-linecap:round;stroke-linejoin:round;stroke-opacity:1"
         d="m 498.58672,331.99279 c -26.19823,0 -47.28906,21.09084 -47.28906,47.28906 v 42.5892 70.06055 23.03125 c 0,13.4388 10.81901,24.25782 24.25781,24.25782 h 23.03125 100.57422 18.61328 c 26.19823,0 47.28906,-21.09084 47.28906,-47.28907 V 379.28185 c 0,-26.19823 -21.09083,-47.28906 -47.28906,-47.28906 z"
         sodipodi:nodetypes="ssccssccsssss" />
    </clipPath>
    <linearGradient
       id="linearGradient16"
       x1="102.5"
       y1="113.5"
       x2="41"
       y2="39.5"
       gradientUnits="userSpaceOnUse"
       gradientTransform="matrix(0.13157895,0,0,0.13157895,-0.4210525,-0.42106)">
      <stop
         stop-color="#2D30FF"
         id="stop15"
         style="stop-color:#ffb380;stop-opacity:1" />
      <stop
         offset="1"
         stop-color="#00C0FF"
         id="stop16"
         style="stop-color:#ff00ff;stop-opacity:1" />
    </linearGradient>
    <linearGradient
       id="paint1_linear_618_163"
       x1="95.0224"
       y1="99.008598"
       x2="78.916901"
       y2="84.362701"
       gradientUnits="userSpaceOnUse"
       gradientTransform="matrix(0.10526317,0,0,0.10526317,1.2631573,1.2631519)"
       xlink:href="#linearGradient16">
      <stop
         stop-color="#2D30FF"
         id="stop5"
         style="stop-color:#ffb380;stop-opacity:1" />
      <stop
         offset="1"
         stop-color="#00C0FF"
         id="stop6"
         style="stop-color:#ff00ff;stop-opacity:1" />
    </linearGradient>
    <linearGradient
       id="paint4_linear_618_163"
       x1="49.824299"
       y1="52.663898"
       x2="33.7314"
       y2="34.826"
       gradientUnits="userSpaceOnUse"
       gradientTransform="matrix(0.08421054,0,0,0.08421054,2.9105255,2.9105214)">
      <stop
         stop-color="#2D30FF"
         id="stop11"
         style="stop-color:#ffb380;stop-opacity:1" />
      <stop
         offset="1"
         stop-color="#00C0FF"
         id="stop12"
         style="stop-color:#ff00ff;stop-opacity:1" />
    </linearGradient>
    <linearGradient
       inkscape:collect="always"
       xlink:href="#linearGradient7"
       id="linearGradient2"
       x1="9.216011"
       y1="10.337604"
       x2="11.730842"
       y2="10.337604"
       gradientUnits="userSpaceOnUse"
       gradientTransform="matrix(1.0833332,0,0,1.0833332,-0.66666758,-0.66666768)" />
    <linearGradient
       inkscape:collect="always"
       xlink:href="#linearGradient7"
       id="linearGradient3"
       x1="1.999999"
       y1="8"
       x2="13.894737"
       y2="8.1850252"
       gradientUnits="userSpaceOnUse"
       gradientTransform="matrix(1.0833332,0,0,1.0833332,-0.66666758,-0.66666768)" />
    <linearGradient
       inkscape:collect="always"
       xlink:href="#linearGradient7"
       id="linearGradient4"
       x1="4.0326834"
       y1="5.4591727"
       x2="7.0519485"
       y2="5.4591727"
       gradientUnits="userSpaceOnUse"
       gradientTransform="matrix(1.0833332,0,0,1.0833332,-0.66666758,-0.66666768)" />
    <linearGradient
       inkscape:collect="always"
       xlink:href="#linearGradient7"
       id="linearGradient9"
       x1="1.999999"
       y1="8"
       x2="14.000001"
       y2="8"
       gradientUnits="userSpaceOnUse"
       gradientTransform="matrix(1.0833332,0,0,1.0833332,-0.66666758,-0.66666768)" />
    <linearGradient
       inkscape:collect="always"
       xlink:href="#linearGradient7"
       id="linearGradient13"
       x1="9.216011"
       y1="10.337604"
       x2="11.730842"
       y2="10.337604"
       gradientUnits="userSpaceOnUse"
       gradientTransform="matrix(1.0833332,0,0,1.0833332,-0.66666758,-0.66666768)" />
    <linearGradient
       inkscape:collect="always"
       xlink:href="#linearGradient7"
       id="linearGradient17"
       x1="4.0326834"
       y1="5.4591727"
       x2="7.0519485"
       y2="5.4591727"
       gradientUnits="userSpaceOnUse"
       gradientTransform="matrix(1.0833332,0,0,1.0833332,-0.66666758,-0.66666768)" />
  </defs>
  <path
     d="m 11.053732,9.0781421 c -0.0403,-0.1344549 -0.206144,-0.1973229 -0.376444,-0.1973229 -0.165836,0 -0.331679,0.062832 -0.37199,0.1973229 L 9.4402745,11.897121 c -0.00444,0.01795 -0.00886,0.03588 -0.00886,0.04481 0,0.143451 0.2106115,0.242033 0.3675235,0.242033 0.0986,0 0.174758,-0.03139 0.197201,-0.116532 l 0.170137,-0.596098 h 1.026382 l 0.170424,0.596091 c 0.02236,0.08519 0.09853,0.116531 0.197101,0.116531 0.1569,0 0.367511,-0.102958 0.367511,-0.242033 0,-0.01342 -0.0043,-0.02698 -0.0093,-0.04479 z M 10.287329,11.01413 10.67718,9.638313 11.067246,11.01413 Z"
     stroke-width="0.22807"
     id="path1"
     style="fill:url(#linearGradient2);fill-opacity:1;stroke:url(#linearGradient13);stroke-opacity:1" />
  <path
     d="M 13.009908,6.8242625 H 9.1756329 V 5.1866524 L 10.421719,4.2966203 c 0.09835,-0.070287 0.156693,-0.1835861 0.156693,-0.3044168 0,-0.1209092 -0.05836,-0.2342432 -0.156693,-0.3044952 L 9.1606371,2.786956 C 9.0621222,2.124138 8.4892554,1.614035 7.7995605,1.614035 H 2.9902101 c -0.7588815,0 -1.3761761,0.6172921 -1.3761761,1.3761712 v 4.8094463 c 0,0.7587927 0.6172946,1.3760848 1.3761761,1.3760848 H 6.824366 V 10.813347 L 5.5782822,11.70338 c -0.09833,0.0703 -0.1566958,0.18368 -0.1566958,0.304479 0,0.1209 0.05836,0.23425 0.1566958,0.304382 l 1.2610796,0.90076 c 0.098519,0.662887 0.6713821,1.172964 1.3610774,1.172964 h 4.8094688 c 0.758673,0 1.376058,-0.617386 1.376058,-1.376175 V 8.2004426 c 0,-0.7588881 -0.617384,-1.3761801 -1.376058,-1.3761801 z M 2.9902101,8.4273792 c -0.3462109,0 -0.6278206,-0.281606 -0.6278206,-0.6278221 V 2.9901113 c 0,-0.3461121 0.2816097,-0.6277181 0.6278206,-0.6277181 h 4.8093504 c 0.3461185,0 0.6277287,0.281606 0.6277287,0.6277181 0,0.1209261 0.05836,0.2343468 0.1566842,0.304512 L 9.560434,3.9921082 8.5839734,4.6896103 C 8.4856521,4.7598973 8.4272892,4.8732744 8.4272892,4.9941048 v 1.8301577 h -0.22685 c -0.7587783,0 -1.3760732,0.617292 -1.3760732,1.3760847 v 0.227032 z M 13.637553,13.00979 c 0,0.346211 -0.281553,0.627765 -0.627645,0.627765 H 8.2004392 c -0.3461192,0 -0.6277287,-0.281554 -0.6277287,-0.627765 0,-0.12077 -0.05836,-0.234344 -0.1566846,-0.304471 L 6.439566,12.007859 7.4160259,11.310391 c 0.098321,-0.07029 0.1566846,-0.183671 0.1566846,-0.304498 V 8.2004426 c 0,-0.3462161 0.2816095,-0.6278221 0.6277287,-0.6278221 h 0.6000527 9.388e-4 9.373e-4 4.207463 c 0.346094,0 0.627646,0.281606 0.627646,0.6278221 z"
     stroke-width="0.22807"
     id="path2"
     style="fill:url(#linearGradient3);fill-opacity:1;stroke:url(#linearGradient9);stroke-opacity:1" />
  <path
     d="m 6.6230258,4.8767755 c 0.130194,0 0.2358813,-0.10569 0.2358813,-0.236002 0,-0.1303031 -0.1056868,-0.2359932 -0.2358813,-0.2359932 H 5.5734585 V 3.8318874 c 0,-0.1303032 -0.105689,-0.2359932 -0.2359962,-0.2359932 -0.1302055,0 -0.2358927,0.10569 -0.2358927,0.2359932 V 4.4047803 H 4.0520015 c -0.130205,0 -0.2358932,0.10569 -0.2358932,0.2359932 0,0.130312 0.1056881,0.236002 0.2358932,0.236002 H 4.37723 c 0.051966,0.4982469 0.2668305,0.9485669 0.5899948,1.2973134 -0.2679253,0.160394 -0.5808494,0.253006 -0.9152233,0.253006 -0.130205,0 -0.2358932,0.1055686 -0.2358932,0.2358895 0,0.1303034 0.1056881,0.2359934 0.2358932,0.2359934 0.4774419,0 0.9203439,-0.1492574 1.2854608,-0.4031214 0.3652092,0.253864 0.8081092,0.4031214 1.2855635,0.4031214 0.130194,0 0.2358813,-0.10569 0.2358813,-0.2359934 0,-0.1303206 -0.1056868,-0.2358895 -0.2358813,-0.2358895 -0.3343853,0 -0.6473091,-0.0924 -0.9152342,-0.253006 C 6.0309553,5.8253424 6.2458197,5.3750224 6.2977866,4.8767755 Z M 5.3374623,5.8792748 C 5.0793327,5.6113536 4.9040267,5.2634564 4.8527105,4.8767755 H 5.8223053 C 5.7709894,5.2634564 5.5956834,5.6113536 5.3374623,5.8792748 Z"
     stroke-width="0.22807"
     id="path3"
     style="fill:url(#linearGradient4);fill-opacity:1;stroke:url(#linearGradient17);stroke-opacity:1" />
</svg>
