<?xml version="1.0" encoding="UTF-8" standalone="no"?>
<!-- Created with Inkscape (http://www.inkscape.org/) -->

<svg
   id="svg2"
   version="1.1"
   inkscape:version="1.3.2 (091e20ef0f, 2023-11-25)"
   width="16"
   height="16"
   viewBox="0 0 16 16"
   sodipodi:docname="nvidia-settings.svg"
   xmlns:inkscape="http://www.inkscape.org/namespaces/inkscape"
   xmlns:sodipodi="http://sodipodi.sourceforge.net/DTD/sodipodi-0.dtd"
   xmlns:xlink="http://www.w3.org/1999/xlink"
   xmlns="http://www.w3.org/2000/svg"
   xmlns:svg="http://www.w3.org/2000/svg"
   xmlns:rdf="http://www.w3.org/1999/02/22-rdf-syntax-ns#"
   xmlns:cc="http://creativecommons.org/ns#"
   xmlns:dc="http://purl.org/dc/elements/1.1/">
  <metadata
     id="metadata8">
    <rdf:RDF>
      <cc:Work
         rdf:about="">
        <dc:format>image/svg+xml</dc:format>
        <dc:type
           rdf:resource="http://purl.org/dc/dcmitype/StillImage" />
      </cc:Work>
    </rdf:RDF>
  </metadata>
  <defs
     id="defs6">
    <linearGradient
       inkscape:collect="always"
       id="linearGradient4133">
      <stop
         style="stop-color:#181818;stop-opacity:1"
         offset="0"
         id="stop4135" />
      <stop
         style="stop-color:#7b7b7b;stop-opacity:1"
         offset="1"
         id="stop4137" />
    </linearGradient>
    <linearGradient
       inkscape:collect="always"
       xlink:href="#linearGradient4133"
       id="linearGradient4139"
       x1="128.51431"
       y1="177.81693"
       x2="126.58566"
       y2="70.283081"
       gradientUnits="userSpaceOnUse"
       spreadMethod="pad"
       gradientTransform="matrix(0.06025103,0,0,0.05792843,0.39038175,-2.5413443)" />
    <filter
       inkscape:collect="always"
       style="color-interpolation-filters:sRGB"
       id="filter846"
       x="-0.02009174"
       width="1.0401835"
       y="-0.029795923"
       height="1.0595918">
      <feGaussianBlur
         inkscape:collect="always"
         stdDeviation="1.911775"
         id="feGaussianBlur848" />
    </filter>
    <filter
       inkscape:collect="always"
       style="color-interpolation-filters:sRGB"
       id="filter865"
       x="-0.01283665"
       width="1.0256733"
       y="-0.075728013"
       height="1.151456">
      <feGaussianBlur
         inkscape:collect="always"
         stdDeviation="1.3898829"
         id="feGaussianBlur867" />
    </filter>
    <linearGradient
       inkscape:collect="always"
       xlink:href="#linearGradient4133"
       id="linearGradient841"
       x1="137.12491"
       y1="179.62349"
       x2="138.77573"
       y2="138.11009"
       gradientUnits="userSpaceOnUse" />
    <linearGradient
       inkscape:collect="always"
       xlink:href="#linearGradient4133"
       id="linearGradient1"
       gradientUnits="userSpaceOnUse"
       x1="137.12491"
       y1="179.62349"
       x2="138.77573"
       y2="138.11009" />
    <linearGradient
       inkscape:collect="always"
       xlink:href="#linearGradient4133"
       id="linearGradient2"
       gradientUnits="userSpaceOnUse"
       x1="137.12491"
       y1="179.62349"
       x2="138.77573"
       y2="138.11009" />
    <linearGradient
       inkscape:collect="always"
       xlink:href="#linearGradient4133"
       id="linearGradient3"
       gradientUnits="userSpaceOnUse"
       x1="137.12491"
       y1="179.62349"
       x2="138.77573"
       y2="138.11009" />
    <linearGradient
       inkscape:collect="always"
       xlink:href="#linearGradient4133"
       id="linearGradient4"
       gradientUnits="userSpaceOnUse"
       x1="137.12491"
       y1="179.62349"
       x2="138.77573"
       y2="138.11009" />
    <linearGradient
       inkscape:collect="always"
       xlink:href="#linearGradient4133"
       id="linearGradient5"
       gradientUnits="userSpaceOnUse"
       x1="137.12491"
       y1="179.62349"
       x2="138.77573"
       y2="138.11009" />
    <linearGradient
       inkscape:collect="always"
       xlink:href="#linearGradient4133"
       id="linearGradient6"
       gradientUnits="userSpaceOnUse"
       x1="137.12491"
       y1="179.62349"
       x2="138.77573"
       y2="138.11009" />
  </defs>
  <sodipodi:namedview
     pagecolor="#ffffff"
     bordercolor="#666666"
     borderopacity="1"
     objecttolerance="10"
     gridtolerance="10"
     guidetolerance="10"
     inkscape:pageopacity="0"
     inkscape:pageshadow="2"
     inkscape:window-width="1920"
     inkscape:window-height="994"
     id="namedview4"
     showgrid="false"
     inkscape:zoom="9.6122328"
     inkscape:cx="16.541422"
     inkscape:cy="23.563724"
     inkscape:window-x="0"
     inkscape:window-y="0"
     inkscape:window-maximized="1"
     inkscape:current-layer="svg2"
     showguides="true"
     inkscape:guide-bbox="true"
     inkscape:snap-global="false"
     inkscape:showpageshadow="2"
     inkscape:pagecheckerboard="0"
     inkscape:deskcolor="#d1d1d1" />
  <g
     id="g851"
     style="font-style:normal;font-variant:normal;font-weight:bold;font-stretch:normal;font-size:64.6823px;line-height:1.25;font-family:'URW Bookman L';-inkscape-font-specification:'URW Bookman L Bold';letter-spacing:3.02px;word-spacing:0px;fill:#030303;fill-opacity:0.747748;stroke:none;stroke-width:1.7;stroke-miterlimit:4;stroke-dasharray:none;stroke-opacity:1;filter:url(#filter865)"
     transform="matrix(0.05605342,0,0,0.07224989,0.45558929,0.32213516)"
     aria-label="NVIDIA">
    <path
       inkscape:connector-curvature="0"
       id="path839"
       style="font-style:normal;font-variant:normal;font-weight:bold;font-stretch:normal;line-height:1.25;font-family:'URW Bookman L';-inkscape-font-specification:'URW Bookman L Bold';letter-spacing:3.02px;fill:#030303;fill-opacity:0.747748;stroke:none;stroke-width:1.7;stroke-miterlimit:4;stroke-dasharray:none;stroke-opacity:1"
       d="M 31.131695,148.83235 H 12.050404 v 5.30395 l 1.293646,0.12937 c 3.622212,0.38809 4.3984,1.29365 4.3984,5.43332 v 22.3154 c 0,4.13967 -0.776188,5.04523 -4.3984,5.43332 l -1.293646,0.12937 v 5.30395 h 17.39955 v -5.30395 l -1.293647,-0.12937 c -3.622211,-0.38809 -4.398399,-1.29365 -4.398399,-5.43332 v -23.15627 l 20.116208,34.02291 h 8.020611 v -33.18204 c 0,-4.13967 0.776188,-5.04523 4.398399,-5.43332 l 1.293647,-0.12937 v -5.30395 h -17.39955 v 5.30395 l 1.293646,0.12937 c 3.622212,0.38809 4.3984,1.29365 4.3984,5.43332 v 14.55352 z" />
    <path
       inkscape:connector-curvature="0"
       id="path841"
       style="font-style:normal;font-variant:normal;font-weight:bold;font-stretch:normal;line-height:1.25;font-family:'URW Bookman L';-inkscape-font-specification:'URW Bookman L Bold';letter-spacing:3.02px;fill:#030303;fill-opacity:0.747748;stroke:none;stroke-width:1.7;stroke-miterlimit:4;stroke-dasharray:none;stroke-opacity:1"
       d="M 87.400422,181.17352 79.0564,158.47002 c -0.388094,-0.97023 -0.517459,-1.55238 -0.517459,-2.06983 0,-1.29365 0.711506,-1.61706 4.657129,-2.13452 l 0.970235,-0.12937 v -5.30395 H 60.363203 v 5.30395 l 0.905553,0.12937 c 4.204352,0.58214 4.915858,1.0996 6.403552,5.1099 l 12.807104,33.50546 h 8.796798 l 12.35433,-32.40586 c 1.8111,-4.52776 3.10475,-5.75672 6.46823,-6.2095 l 0.77619,-0.12937 v -5.30395 H 90.569857 v 5.30395 l 1.0996,0.12937 c 1.746423,0.19405 2.005152,0.25873 2.651976,0.45278 0.84087,0.25872 1.358329,1.03491 1.358329,2.00515 0,0.51746 -0.129365,1.0996 -0.388094,1.94047 z" />
    <path
       inkscape:connector-curvature="0"
       id="path843"
       style="font-style:normal;font-variant:normal;font-weight:bold;font-stretch:normal;line-height:1.25;font-family:'URW Bookman L';-inkscape-font-specification:'URW Bookman L Bold';letter-spacing:3.02px;fill:#030303;fill-opacity:0.747748;stroke:none;stroke-width:1.7;stroke-miterlimit:4;stroke-dasharray:none;stroke-opacity:1"
       d="m 118.53804,182.01439 c 0,2.45793 -0.19405,3.42817 -0.77619,4.07499 -0.58214,0.71151 -2.06984,1.22897 -3.62221,1.35833 l -1.55238,0.12937 v 5.30395 h 23.22096 v -5.30395 l -1.55237,-0.12937 c -1.55238,-0.12936 -3.04007,-0.64682 -3.62222,-1.35833 -0.58214,-0.64682 -0.77618,-1.61706 -0.77618,-4.07499 v -22.3154 c 0,-2.45793 0.19404,-3.42817 0.77618,-4.07499 0.58215,-0.71151 2.06984,-1.22897 3.62222,-1.35833 l 1.55237,-0.12937 v -5.30395 h -23.22096 v 5.30395 l 1.55238,0.12937 c 1.55237,0.12936 3.04007,0.64682 3.62221,1.35833 0.58214,0.64682 0.77619,1.61706 0.77619,4.07499 z" />
    <path
       inkscape:connector-curvature="0"
       id="path845"
       style="font-style:normal;font-variant:normal;font-weight:bold;font-stretch:normal;line-height:1.25;font-family:'URW Bookman L';-inkscape-font-specification:'URW Bookman L Bold';letter-spacing:3.02px;fill:#030303;fill-opacity:0.747748;stroke:none;stroke-width:1.7;stroke-miterlimit:4;stroke-dasharray:none;stroke-opacity:1"
       d="m 147.19751,182.01439 c 0,4.13967 -0.77619,5.04523 -4.3984,5.43332 l -1.29364,0.12937 v 5.30395 h 22.05668 c 10.41385,0 15.52376,-1.81111 19.92216,-6.9857 3.36348,-3.88094 5.1099,-9.05552 5.1099,-14.87693 0,-7.05038 -2.52261,-13.00116 -7.24442,-17.07614 -4.78649,-4.13967 -8.34402,-5.10991 -19.27534,-5.10991 h -20.56898 v 5.30395 l 1.29364,0.12937 c 3.62221,0.38809 4.3984,1.29365 4.3984,5.43332 z m 11.31941,-23.93246 c 0,-2.71666 0.97024,-3.42817 4.65713,-3.42817 8.08529,0 13.00115,6.01546 13.00115,15.91186 0,10.02576 -5.23927,16.494 -13.32456,16.494 -1.68174,0 -3.10475,-0.32342 -3.75158,-0.84087 -0.58214,-0.45278 -0.58214,-0.64683 -0.58214,-3.81626 z" />
    <path
       inkscape:connector-curvature="0"
       id="path847"
       style="font-style:normal;font-variant:normal;font-weight:bold;font-stretch:normal;line-height:1.25;font-family:'URW Bookman L';-inkscape-font-specification:'URW Bookman L Bold';letter-spacing:3.02px;fill:#030303;fill-opacity:0.747748;stroke:none;stroke-width:1.7;stroke-miterlimit:4;stroke-dasharray:none;stroke-opacity:1"
       d="m 200.88298,182.01439 c 0,2.45793 -0.19404,3.42817 -0.77618,4.07499 -0.58214,0.71151 -2.06984,1.22897 -3.62221,1.35833 l -1.55238,0.12937 v 5.30395 h 23.22096 v -5.30395 l -1.55238,-0.12937 c -1.55237,-0.12936 -3.04007,-0.64682 -3.62221,-1.35833 -0.58214,-0.64682 -0.77619,-1.61706 -0.77619,-4.07499 v -22.3154 c 0,-2.45793 0.19405,-3.42817 0.77619,-4.07499 0.58214,-0.71151 2.06984,-1.22897 3.62221,-1.35833 l 1.55238,-0.12937 v -5.30395 h -23.22096 v 5.30395 l 1.55238,0.12937 c 1.55237,0.12936 3.04007,0.64682 3.62221,1.35833 0.58214,0.64682 0.77618,1.61706 0.77618,4.07499 z" />
    <path
       inkscape:connector-curvature="0"
       id="path849"
       style="font-style:normal;font-variant:normal;font-weight:bold;font-stretch:normal;line-height:1.25;font-family:'URW Bookman L';-inkscape-font-specification:'URW Bookman L Bold';letter-spacing:3.02px;fill:#030303;fill-opacity:0.747748;stroke:none;stroke-width:1.7;stroke-miterlimit:4;stroke-dasharray:none;stroke-opacity:1"
       d="m 251.79319,148.83235 h -10.02576 l -12.8071,30.72411 c -2.45793,5.69205 -3.94563,7.30911 -7.56784,7.89125 l -1.03491,0.12937 v 5.30395 h 19.98684 v -5.30395 l -1.03492,-0.12937 c -3.49284,-0.45278 -4.78649,-1.0996 -4.78649,-2.32856 0,-0.3881 0.25873,-1.61706 0.58214,-2.32857 l 2.06983,-5.56268 h 13.90671 l 1.94047,5.498 c 0.45277,1.16428 0.7115,2.26388 0.7115,2.78134 0,1.16428 -1.16428,1.74642 -3.81625,1.94047 l -1.61706,0.12937 v 5.30395 h 23.60905 v -5.30395 l -1.03492,-0.12937 c -3.62221,-0.64682 -4.20435,-1.29365 -6.40355,-7.05037 z m -12.54837,22.89755 4.91586,-12.61306 4.78649,12.61306 z" />
  </g>
  <path
     sodipodi:nodetypes="ccccccccccccc"
     inkscape:connector-curvature="0"
     id="path840"
     d="m 227.03941,114.51657 c -1.22293,13.93591 1.09189,20.76016 12.39771,23.74104 C 155.16476,206.59114 75.21832,180.48341 11.071638,91.491056 88.470388,-13.178605 185.34346,14.615221 234.5321,91.310246 170.23549,179.77488 89.679409,135.47285 57.647171,91.617366 c 29.045761,-34.554112 90.869499,-53.054695 133.765989,0.6824 -14.91156,28.305614 -70.9411,27.063054 -85.35993,0.22562 17.20127,10.267674 46.21382,13.697054 60.5944,0.45986 C 149.68464,69.454872 109.14801,66.489419 83.980913,91.925476 108.98712,120.88627 166.85198,145.3062 211.49242,91.959076 159.32325,33.062342 85.230962,24.006865 36.845089,92.772336 122.31464,177.85707 178.57634,164.01797 227.03941,114.51653 Z"
     style="fill:#000000;fill-opacity:1;fill-rule:evenodd;stroke:none;stroke-width:2.01021;stroke-linecap:butt;stroke-linejoin:miter;stroke-miterlimit:4;stroke-dasharray:none;stroke-opacity:0.45055;filter:url(#filter846)"
     transform="matrix(0.06410026,0,0,0.05389825,-0.03158622,0.65694843)" />
  <path
     style="fill:url(#linearGradient4139);fill-opacity:1;fill-rule:evenodd;stroke:#000000;stroke-width:0.0636384;stroke-linecap:butt;stroke-linejoin:miter;stroke-miterlimit:4;stroke-dasharray:none;stroke-opacity:0.990991"
     d="m 14.559421,6.4644187 c -0.07839,0.751121 0.06999,1.1189367 0.794696,1.2796006 C 9.9522376,11.427079 4.8276506,10.019917 0.71583196,5.2233843 5.6771116,-0.41812887 11.886701,1.0799102 15.039705,5.2136852 10.918277,9.981775 5.75461,7.5939734 3.7013359,5.2302435 5.5631759,3.3678372 9.5260937,2.3706876 12.27577,5.2670195 11.319935,6.7926438 7.7284276,6.7256709 6.804177,5.2791781 7.9067818,5.8325882 9.7664942,6.0174255 10.688293,5.3039656 9.6009604,4.0357189 7.0025526,3.8758861 5.3893347,5.2468418 c 1.602905,1.5609364 5.3120583,2.877128 8.1735203,0.0018 C 10.218798,2.0742121 5.4694636,1.5861372 2.3679167,5.2924768 7.8465367,9.878397 11.452925,9.1324923 14.559421,6.4644507 Z"
     id="path4138"
     inkscape:connector-curvature="0"
     sodipodi:nodetypes="ccccccccccccc" />
  <g
     aria-label="NVIDIA"
     transform="matrix(0.05605342,0,0,0.07224989,0.19207206,0.04269296)"
     style="font-style:normal;font-variant:normal;font-weight:bold;font-stretch:normal;font-size:64.6823px;line-height:1.25;font-family:'URW Bookman L';-inkscape-font-specification:'URW Bookman L Bold';letter-spacing:3.02px;word-spacing:0px;fill:url(#linearGradient841);fill-opacity:1;stroke:#000000;stroke-width:1.7;stroke-miterlimit:4;stroke-dasharray:none;stroke-opacity:1"
     id="text824">
    <path
       d="M 31.131695,148.83235 H 12.050404 v 5.30395 l 1.293646,0.12937 c 3.622212,0.38809 4.3984,1.29365 4.3984,5.43332 v 22.3154 c 0,4.13967 -0.776188,5.04523 -4.3984,5.43332 l -1.293646,0.12937 v 5.30395 h 17.39955 v -5.30395 l -1.293647,-0.12937 c -3.622211,-0.38809 -4.398399,-1.29365 -4.398399,-5.43332 v -23.15627 l 20.116208,34.02291 h 8.020611 v -33.18204 c 0,-4.13967 0.776188,-5.04523 4.398399,-5.43332 l 1.293647,-0.12937 v -5.30395 h -17.39955 v 5.30395 l 1.293646,0.12937 c 3.622212,0.38809 4.3984,1.29365 4.3984,5.43332 v 14.55352 z"
       style="font-style:normal;font-variant:normal;font-weight:bold;font-stretch:normal;line-height:1.25;font-family:'URW Bookman L';-inkscape-font-specification:'URW Bookman L Bold';letter-spacing:3.02px;fill:url(#linearGradient1);fill-opacity:1;stroke:#000000;stroke-width:1.7;stroke-miterlimit:4;stroke-dasharray:none;stroke-opacity:1"
       id="path826"
       inkscape:connector-curvature="0" />
    <path
       d="M 87.400422,181.17352 79.0564,158.47002 c -0.388094,-0.97023 -0.517459,-1.55238 -0.517459,-2.06983 0,-1.29365 0.711506,-1.61706 4.657129,-2.13452 l 0.970235,-0.12937 v -5.30395 H 60.363203 v 5.30395 l 0.905553,0.12937 c 4.204352,0.58214 4.915858,1.0996 6.403552,5.1099 l 12.807104,33.50546 h 8.796798 l 12.35433,-32.40586 c 1.8111,-4.52776 3.10475,-5.75672 6.46823,-6.2095 l 0.77619,-0.12937 v -5.30395 H 90.569857 v 5.30395 l 1.0996,0.12937 c 1.746423,0.19405 2.005152,0.25873 2.651976,0.45278 0.84087,0.25872 1.358329,1.03491 1.358329,2.00515 0,0.51746 -0.129365,1.0996 -0.388094,1.94047 z"
       style="font-style:normal;font-variant:normal;font-weight:bold;font-stretch:normal;line-height:1.25;font-family:'URW Bookman L';-inkscape-font-specification:'URW Bookman L Bold';letter-spacing:3.02px;fill:url(#linearGradient2);fill-opacity:1;stroke:#000000;stroke-width:1.7;stroke-miterlimit:4;stroke-dasharray:none;stroke-opacity:1"
       id="path828"
       inkscape:connector-curvature="0" />
    <path
       d="m 118.53804,182.01439 c 0,2.45793 -0.19405,3.42817 -0.77619,4.07499 -0.58214,0.71151 -2.06984,1.22897 -3.62221,1.35833 l -1.55238,0.12937 v 5.30395 h 23.22096 v -5.30395 l -1.55237,-0.12937 c -1.55238,-0.12936 -3.04007,-0.64682 -3.62222,-1.35833 -0.58214,-0.64682 -0.77618,-1.61706 -0.77618,-4.07499 v -22.3154 c 0,-2.45793 0.19404,-3.42817 0.77618,-4.07499 0.58215,-0.71151 2.06984,-1.22897 3.62222,-1.35833 l 1.55237,-0.12937 v -5.30395 h -23.22096 v 5.30395 l 1.55238,0.12937 c 1.55237,0.12936 3.04007,0.64682 3.62221,1.35833 0.58214,0.64682 0.77619,1.61706 0.77619,4.07499 z"
       style="font-style:normal;font-variant:normal;font-weight:bold;font-stretch:normal;line-height:1.25;font-family:'URW Bookman L';-inkscape-font-specification:'URW Bookman L Bold';letter-spacing:3.02px;fill:url(#linearGradient3);fill-opacity:1;stroke:#000000;stroke-width:1.7;stroke-miterlimit:4;stroke-dasharray:none;stroke-opacity:1"
       id="path830"
       inkscape:connector-curvature="0" />
    <path
       d="m 147.19751,182.01439 c 0,4.13967 -0.77619,5.04523 -4.3984,5.43332 l -1.29364,0.12937 v 5.30395 h 22.05668 c 10.41385,0 15.52376,-1.81111 19.92216,-6.9857 3.36348,-3.88094 5.1099,-9.05552 5.1099,-14.87693 0,-7.05038 -2.52261,-13.00116 -7.24442,-17.07614 -4.78649,-4.13967 -8.34402,-5.10991 -19.27534,-5.10991 h -20.56898 v 5.30395 l 1.29364,0.12937 c 3.62221,0.38809 4.3984,1.29365 4.3984,5.43332 z m 11.31941,-23.93246 c 0,-2.71666 0.97024,-3.42817 4.65713,-3.42817 8.08529,0 13.00115,6.01546 13.00115,15.91186 0,10.02576 -5.23927,16.494 -13.32456,16.494 -1.68174,0 -3.10475,-0.32342 -3.75158,-0.84087 -0.58214,-0.45278 -0.58214,-0.64683 -0.58214,-3.81626 z"
       style="font-style:normal;font-variant:normal;font-weight:bold;font-stretch:normal;line-height:1.25;font-family:'URW Bookman L';-inkscape-font-specification:'URW Bookman L Bold';letter-spacing:3.02px;fill:url(#linearGradient4);fill-opacity:1;stroke:#000000;stroke-width:1.7;stroke-miterlimit:4;stroke-dasharray:none;stroke-opacity:1"
       id="path832"
       inkscape:connector-curvature="0" />
    <path
       d="m 200.88298,182.01439 c 0,2.45793 -0.19404,3.42817 -0.77618,4.07499 -0.58214,0.71151 -2.06984,1.22897 -3.62221,1.35833 l -1.55238,0.12937 v 5.30395 h 23.22096 v -5.30395 l -1.55238,-0.12937 c -1.55237,-0.12936 -3.04007,-0.64682 -3.62221,-1.35833 -0.58214,-0.64682 -0.77619,-1.61706 -0.77619,-4.07499 v -22.3154 c 0,-2.45793 0.19405,-3.42817 0.77619,-4.07499 0.58214,-0.71151 2.06984,-1.22897 3.62221,-1.35833 l 1.55238,-0.12937 v -5.30395 h -23.22096 v 5.30395 l 1.55238,0.12937 c 1.55237,0.12936 3.04007,0.64682 3.62221,1.35833 0.58214,0.64682 0.77618,1.61706 0.77618,4.07499 z"
       style="font-style:normal;font-variant:normal;font-weight:bold;font-stretch:normal;line-height:1.25;font-family:'URW Bookman L';-inkscape-font-specification:'URW Bookman L Bold';letter-spacing:3.02px;fill:url(#linearGradient5);fill-opacity:1;stroke:#000000;stroke-width:1.7;stroke-miterlimit:4;stroke-dasharray:none;stroke-opacity:1"
       id="path834"
       inkscape:connector-curvature="0" />
    <path
       d="m 251.79319,148.83235 h -10.02576 l -12.8071,30.72411 c -2.45793,5.69205 -3.94563,7.30911 -7.56784,7.89125 l -1.03491,0.12937 v 5.30395 h 19.98684 v -5.30395 l -1.03492,-0.12937 c -3.49284,-0.45278 -4.78649,-1.0996 -4.78649,-2.32856 0,-0.3881 0.25873,-1.61706 0.58214,-2.32857 l 2.06983,-5.56268 h 13.90671 l 1.94047,5.498 c 0.45277,1.16428 0.7115,2.26388 0.7115,2.78134 0,1.16428 -1.16428,1.74642 -3.81625,1.94047 l -1.61706,0.12937 v 5.30395 h 23.60905 v -5.30395 l -1.03492,-0.12937 c -3.62221,-0.64682 -4.20435,-1.29365 -6.40355,-7.05037 z m -12.54837,22.89755 4.91586,-12.61306 4.78649,12.61306 z"
       style="font-style:normal;font-variant:normal;font-weight:bold;font-stretch:normal;line-height:1.25;font-family:'URW Bookman L';-inkscape-font-specification:'URW Bookman L Bold';letter-spacing:3.02px;fill:url(#linearGradient6);fill-opacity:1;stroke:#000000;stroke-width:1.7;stroke-miterlimit:4;stroke-dasharray:none;stroke-opacity:1"
       id="path836"
       inkscape:connector-curvature="0" />
  </g>
</svg>
