<?xml version="1.0" encoding="UTF-8" standalone="no"?>
<!-- Created with Inkscape (http://www.inkscape.org/) -->

<svg
   version="1.1"
   id="svg2"
   width="16"
   height="16"
   viewBox="0 0 16 16"
   sodipodi:docname="nvidia-current-settings.svg"
   inkscape:version="1.3.2 (091e20ef0f, 2023-11-25)"
   xmlns:inkscape="http://www.inkscape.org/namespaces/inkscape"
   xmlns:sodipodi="http://sodipodi.sourceforge.net/DTD/sodipodi-0.dtd"
   xmlns:xlink="http://www.w3.org/1999/xlink"
   xmlns="http://www.w3.org/2000/svg"
   xmlns:svg="http://www.w3.org/2000/svg"
   xmlns:rdf="http://www.w3.org/1999/02/22-rdf-syntax-ns#"
   xmlns:cc="http://creativecommons.org/ns#"
   xmlns:dc="http://purl.org/dc/elements/1.1/">
  <metadata
     id="metadata8">
    <rdf:RDF>
      <cc:Work
         rdf:about="">
        <dc:format>image/svg+xml</dc:format>
        <dc:type
           rdf:resource="http://purl.org/dc/dcmitype/StillImage" />
      </cc:Work>
    </rdf:RDF>
  </metadata>
  <defs
     id="defs6">
    <linearGradient
       inkscape:collect="always"
       id="linearGradient4535">
      <stop
         style="stop-color:#71a414;stop-opacity:1"
         offset="0"
         id="stop4531" />
      <stop
         id="stop4539"
         offset="0.40411723"
         style="stop-color:#b9f93e;stop-opacity:1" />
      <stop
         style="stop-color:#4a690b;stop-opacity:1"
         offset="1"
         id="stop4533" />
    </linearGradient>
    <linearGradient
       inkscape:collect="always"
       xlink:href="#linearGradient4535"
       id="linearGradient4541"
       gradientUnits="userSpaceOnUse"
       x1="371.58154"
       y1="242.3544"
       x2="371.58154"
       y2="158.4489"
       spreadMethod="reflect"
       gradientTransform="matrix(0.0436142,0,0,0.05033868,-7.4761104,-3.270304)" />
    <linearGradient
       inkscape:collect="always"
       xlink:href="#linearGradient4535"
       id="linearGradient4543"
       gradientUnits="userSpaceOnUse"
       x1="371.58154"
       y1="242.3544"
       x2="371.58154"
       y2="158.4489"
       spreadMethod="reflect"
       gradientTransform="matrix(0.0436142,0,0,0.05033868,-7.4761104,-3.270304)" />
    <linearGradient
       inkscape:collect="always"
       xlink:href="#linearGradient4535"
       id="linearGradient4545"
       gradientUnits="userSpaceOnUse"
       x1="371.58154"
       y1="242.3544"
       x2="371.58154"
       y2="158.4489"
       spreadMethod="reflect"
       gradientTransform="matrix(0.0436142,0,0,0.05033868,-7.4761104,-3.270304)" />
    <filter
       inkscape:collect="always"
       style="color-interpolation-filters:sRGB"
       id="filter4567"
       x="-0.035919918"
       width="1.0718398"
       y="-0.071083627"
       height="1.1421673">
      <feGaussianBlur
         inkscape:collect="always"
         stdDeviation="2.8105618"
         id="feGaussianBlur4569" />
    </filter>
  </defs>
  <sodipodi:namedview
     pagecolor="#ffffff"
     bordercolor="#666666"
     borderopacity="1"
     objecttolerance="10"
     gridtolerance="10"
     guidetolerance="10"
     inkscape:pageopacity="0"
     inkscape:pageshadow="2"
     inkscape:window-width="1920"
     inkscape:window-height="994"
     id="namedview4"
     showgrid="false"
     inkscape:snap-global="false"
     inkscape:zoom="19.721347"
     inkscape:cx="8.8736332"
     inkscape:cy="12.651266"
     inkscape:window-x="0"
     inkscape:window-y="0"
     inkscape:window-maximized="1"
     inkscape:current-layer="svg2"
     inkscape:showpageshadow="2"
     inkscape:pagecheckerboard="0"
     inkscape:deskcolor="#d1d1d1" />
  <path
     style="fill:#14190c;fill-opacity:1;stroke:none;stroke-width:1px;stroke-linecap:butt;stroke-linejoin:miter;stroke-opacity:1;filter:url(#filter4567)"
     d="m 241.22834,134.84815 c 76.6643,-13.27342 160.00196,-22.23279 232.73791,29.96625 -28.68742,80.9828 -94.41083,123.87144 -169.30933,157.32283 l 38.95613,-29.46681 c 9.24838,-7.42202 8.14876,-10.96355 6.99212,-14.48369 35.563,-26.10934 61.13567,-56.47789 71.41958,-95.89201 -52.61616,-32.51946 -94.95354,-39.31295 -134.34871,-37.45782 l -2.99662,-7.49157 z"
     id="path4547"
     inkscape:connector-curvature="0"
     sodipodi:nodetypes="ccccccccc"
     transform="matrix(0.0436142,0,0,0.05033868,-7.3835274,-2.7573887)" />
  <path
     style="fill:#14190c;fill-opacity:1;stroke:none;stroke-width:1px;stroke-linecap:butt;stroke-linejoin:miter;stroke-opacity:1;filter:url(#filter4567)"
     d="m 171.80652,204.26997 c 9.9701,-15.23396 25.49145,-27.38389 47.44657,-35.95951 8.67205,-5.13471 1.82485,-6.0369 -2.99662,-7.49156 63.51981,-7.17233 120.75588,1.88831 168.31046,35.9595 -10.50615,20.25263 -17.33841,42.60463 -36.45894,57.93476 l 1.99775,-47.94601 C 275.26166,162.94617 221.63923,178.32241 171.80652,204.26997 Z"
     id="path4549"
     inkscape:connector-curvature="0"
     sodipodi:nodetypes="ccccccc"
     transform="matrix(0.0436142,0,0,0.05033868,-7.3835274,-2.7573887)" />
  <path
     style="fill:#14190c;fill-opacity:1;stroke:none;stroke-width:1px;stroke-linecap:butt;stroke-linejoin:miter;stroke-opacity:1;filter:url(#filter4567)"
     d="m 348.60742,312.64792 c 50.75483,-18.49668 98.02855,-45.88955 136.8459,-94.89314 l 50.94263,8.98988 c -28.84204,33.24784 -62.60966,60.74917 -107.37908,75.41507 -5.21769,-11.34394 -53.59652,6.9854 -80.40945,10.48819 z"
     id="path4551"
     inkscape:connector-curvature="0"
     sodipodi:nodetypes="ccccc"
     transform="matrix(0.0436142,0,0,0.05033868,-7.3835274,-2.7573887)" />
  <path
     sodipodi:nodetypes="ccccccccc"
     inkscape:connector-curvature="0"
     id="path4520"
     d="M 3.0448707,3.5177743 C 6.3885229,2.8496079 10.023228,2.398605 13.195548,5.0262359 11.944369,9.1028037 9.0778957,11.261761 5.8112575,12.945661 L 7.510298,11.462339 C 7.9136587,11.088725 7.8656996,10.910449 7.8152536,10.73325 9.3663054,9.4189401 10.481637,7.8902272 10.930161,5.9061722 8.6353499,4.2691855 6.7888388,3.9272102 5.07065,4.0205949 L 4.9399547,3.6434791 Z"
     style="fill:url(#linearGradient4541);fill-opacity:1;stroke:none;stroke-width:0.0468559px;stroke-linecap:butt;stroke-linejoin:miter;stroke-opacity:1" />
  <path
     sodipodi:nodetypes="ccccccc"
     inkscape:connector-curvature="0"
     id="path4522"
     d="M 0.01709352,7.0123774 C 0.45193146,6.2455199 1.1288827,5.6339084 2.0864376,5.2022231 2.4646622,4.9437485 2.166027,4.8983335 1.9557425,4.8251078 4.7261082,4.464062 7.2224136,4.9201629 9.2964686,6.6352618 8.8382513,7.6547524 8.5402677,8.7799227 7.7063411,9.5516213 L 7.793471,7.1380822 C 4.5292067,4.9321916 2.1905074,5.7062115 0.01709352,7.0123774 Z"
     style="fill:url(#linearGradient4543);fill-opacity:1;stroke:none;stroke-width:0.0468559px;stroke-linecap:butt;stroke-linejoin:miter;stroke-opacity:1" />
  <path
     sodipodi:nodetypes="ccccc"
     inkscape:connector-curvature="0"
     id="path4524"
     d="M 7.7281234,12.46798 C 9.9417547,11.536882 12.00356,10.157961 13.696548,7.6911851 L 15.91837,8.1437238 C 14.660447,9.8173763 13.1877,11.201757 11.235117,11.94002 11.007552,11.368981 8.8975479,12.291654 7.7281234,12.46798 Z"
     style="fill:url(#linearGradient4545);fill-opacity:1;stroke:none;stroke-width:0.0468559px;stroke-linecap:butt;stroke-linejoin:miter;stroke-opacity:1" />
</svg>
