<?xml version="1.0" encoding="UTF-8" standalone="no"?>
<svg
   style="enable-background:new"
   width="16"
   height="16"
   version="1.1"
   id="svg22"
   sodipodi:docname="org.inkscape.Inkscape.svg"
   inkscape:version="1.3.2 (091e20ef0f, 2023-11-25)"
   xmlns:inkscape="http://www.inkscape.org/namespaces/inkscape"
   xmlns:sodipodi="http://sodipodi.sourceforge.net/DTD/sodipodi-0.dtd"
   xmlns:xlink="http://www.w3.org/1999/xlink"
   xmlns="http://www.w3.org/2000/svg"
   xmlns:svg="http://www.w3.org/2000/svg">
  <sodipodi:namedview
     id="namedview22"
     pagecolor="#ffffff"
     bordercolor="#000000"
     borderopacity="0.25"
     inkscape:showpageshadow="2"
     inkscape:pageopacity="0.0"
     inkscape:pagecheckerboard="0"
     inkscape:deskcolor="#d1d1d1"
     inkscape:zoom="16.948466"
     inkscape:cx="-1.2390502"
     inkscape:cy="11.062948"
     inkscape:window-width="1920"
     inkscape:window-height="994"
     inkscape:window-x="0"
     inkscape:window-y="0"
     inkscape:window-maximized="1"
     inkscape:current-layer="svg22"
     showgrid="false">
    <inkscape:grid
       id="grid1"
       units="px"
       originx="0"
       originy="0"
       spacingx="1"
       spacingy="1"
       empcolor="#0099e5"
       empopacity="0.30196078"
       color="#0099e5"
       opacity="0.14902"
       empspacing="5"
       dotted="false"
       gridanglex="30"
       gridanglez="30"
       visible="false" />
  </sodipodi:namedview>
  <defs
     id="defs22">
    <linearGradient
       id="linearGradient39"
       inkscape:collect="always">
      <stop
         style="stop-color:#20c997;stop-opacity:1"
         offset="0"
         id="stop39" />
      <stop
         style="stop-color:#5a9cfe;stop-opacity:1"
         offset="0.35700539"
         id="stop42" />
      <stop
         style="stop-color:#ffcb2f;stop-opacity:1"
         offset="0.64145368"
         id="stop41" />
      <stop
         style="stop-color:#975cf6;stop-opacity:1"
         offset="1"
         id="stop40" />
    </linearGradient>
    <style
       id="current-color-scheme"
       type="text/css">
   .ColorScheme-Text { color:#d5c289; } .ColorScheme-Highlight { color:#5294e2; }
  </style>
    <linearGradient
       id="arrongin"
       x1="0"
       x2="0"
       y1="0"
       y2="1">
      <stop
         offset="0%"
         style="stop-color:#dd9b44; stop-opacity:1"
         id="stop1" />
      <stop
         offset="100%"
         style="stop-color:#ad6c16; stop-opacity:1"
         id="stop2" />
    </linearGradient>
    <linearGradient
       id="aurora"
       x1="0"
       x2="0"
       y1="0"
       y2="1">
      <stop
         offset="0%"
         style="stop-color:#09D4DF; stop-opacity:1"
         id="stop3" />
      <stop
         offset="100%"
         style="stop-color:#9269F4; stop-opacity:1"
         id="stop4" />
    </linearGradient>
    <linearGradient
       id="fitdance"
       x1="0"
       x2="0"
       y1="0"
       y2="1">
      <stop
         offset="0%"
         style="stop-color:#1AD6AB; stop-opacity:1"
         id="stop5" />
      <stop
         offset="100%"
         style="stop-color:#329DB6; stop-opacity:1"
         id="stop6" />
    </linearGradient>
    <linearGradient
       id="oomox"
       x1="0"
       x2="0"
       y1="0"
       y2="1">
      <stop
         offset="0%"
         style="stop-color:#303b3d; stop-opacity:1"
         id="stop7" />
      <stop
         offset="100%"
         style="stop-color:#bc985d; stop-opacity:1"
         id="stop8" />
    </linearGradient>
    <linearGradient
       id="rainblue"
       x1="0"
       x2="0"
       y1="0"
       y2="1">
      <stop
         offset="0%"
         style="stop-color:#00F260; stop-opacity:1"
         id="stop9" />
      <stop
         offset="100%"
         style="stop-color:#0575E6; stop-opacity:1"
         id="stop10" />
    </linearGradient>
    <linearGradient
       id="sunrise"
       x1="0"
       x2="0"
       y1="0"
       y2="1">
      <stop
         offset="0%"
         style="stop-color: #FF8501; stop-opacity:1"
         id="stop11" />
      <stop
         offset="100%"
         style="stop-color: #FFCB01; stop-opacity:1"
         id="stop12" />
    </linearGradient>
    <linearGradient
       id="telinkrin"
       x1="0"
       x2="0"
       y1="0"
       y2="1">
      <stop
         offset="0%"
         style="stop-color: #b2ced6; stop-opacity:1"
         id="stop13" />
      <stop
         offset="100%"
         style="stop-color: #6da5b7; stop-opacity:1"
         id="stop14" />
    </linearGradient>
    <linearGradient
       id="60spsycho"
       x1="0"
       x2="0"
       y1="0"
       y2="1">
      <stop
         offset="0%"
         style="stop-color: #df5940; stop-opacity:1"
         id="stop15" />
      <stop
         offset="25%"
         style="stop-color: #d8d15f; stop-opacity:1"
         id="stop16" />
      <stop
         offset="50%"
         style="stop-color: #e9882a; stop-opacity:1"
         id="stop17" />
      <stop
         offset="100%"
         style="stop-color: #279362; stop-opacity:1"
         id="stop18" />
    </linearGradient>
    <linearGradient
       id="90ssummer"
       x1="0"
       x2="0"
       y1="0"
       y2="1">
      <stop
         offset="0%"
         style="stop-color: #f618c7; stop-opacity:1"
         id="stop19" />
      <stop
         offset="20%"
         style="stop-color: #94ffab; stop-opacity:1"
         id="stop20" />
      <stop
         offset="50%"
         style="stop-color: #fbfd54; stop-opacity:1"
         id="stop21" />
      <stop
         offset="100%"
         style="stop-color: #0f83ae; stop-opacity:1"
         id="stop22" />
    </linearGradient>
    <linearGradient
       id="NEbh2dprQr9WcwnKAwYN2a"
       x1="7.4980741"
       x2="56.508102"
       y1="56.009991"
       y2="6.9999628"
       gradientUnits="userSpaceOnUse"
       spreadMethod="reflect"
       gradientTransform="matrix(0.28565582,0,0,0.28565582,-1.1418685,-0.99958012)">
      <stop
         offset="0"
         stop-color="#1a6dff"
         id="stop1-3"
         style="stop-color:#ffa163;stop-opacity:1;" />
      <stop
         offset="0.14984168"
         stop-color="#1a6dff"
         id="stop25"
         style="stop-color:#ffff83;stop-opacity:1;" />
      <stop
         offset="0.50745016"
         stop-color="#1a6dff"
         id="stop23"
         style="stop-color:#00dddd;stop-opacity:1;" />
      <stop
         offset="0.78757685"
         stop-color="#1a6dff"
         id="stop24"
         style="stop-color:#ff7aff;stop-opacity:1;" />
      <stop
         offset="1"
         stop-color="#c822ff"
         id="stop2-6"
         style="stop-color:#ffeeaa;stop-opacity:1" />
    </linearGradient>
    <linearGradient
       id="NEbh2dprQr9WcwnKAwYN2b"
       x1="53.500999"
       x2="53.500999"
       y1="8.1669998"
       y2="55.709"
       gradientUnits="userSpaceOnUse"
       spreadMethod="reflect"
       gradientTransform="matrix(0.28565582,0,0,0.28565582,-1.1418685,-0.99958012)">
      <stop
         offset="0"
         stop-color="#1a6dff"
         id="stop3-7" />
      <stop
         offset="1"
         stop-color="#c822ff"
         id="stop4-5" />
    </linearGradient>
    <linearGradient
       id="NEbh2dprQr9WcwnKAwYN2c"
       x1="49"
       x2="49"
       y1="8.1669998"
       y2="55.709"
       gradientUnits="userSpaceOnUse"
       spreadMethod="reflect"
       gradientTransform="matrix(0.28565582,0,0,0.28565582,-1.1418685,-0.99958012)">
      <stop
         offset="0"
         stop-color="#1a6dff"
         id="stop5-3" />
      <stop
         offset="1"
         stop-color="#c822ff"
         id="stop6-5" />
    </linearGradient>
    <linearGradient
       id="NEbh2dprQr9WcwnKAwYN2d"
       x1="17.044001"
       x2="17.044001"
       y1="8.1669998"
       y2="55.709"
       gradientUnits="userSpaceOnUse"
       spreadMethod="reflect"
       gradientTransform="matrix(0.28565582,0,0,0.28565582,-1.1418685,-0.99958012)">
      <stop
         offset="0"
         stop-color="#1a6dff"
         id="stop7-6" />
      <stop
         offset="1"
         stop-color="#c822ff"
         id="stop8-2" />
    </linearGradient>
    <linearGradient
       id="NEbh2dprQr9WcwnKAwYN2e"
       x1="32.004002"
       x2="32.004002"
       y1="16"
       y2="54.014999"
       gradientUnits="userSpaceOnUse"
       spreadMethod="reflect"
       gradientTransform="matrix(0.28565582,0,0,0.28565582,-1.1418685,-0.99958012)"
       xlink:href="#NEbh2dprQr9WcwnKAwYN2a">
      <stop
         offset="0"
         stop-color="#6dc7ff"
         id="stop9-9" />
      <stop
         offset="1"
         stop-color="#e6abff"
         id="stop10-1" />
    </linearGradient>
    <linearGradient
       id="NEbh2dprQr9WcwnKAwYN2f"
       x1="29.000999"
       x2="29.000999"
       y1="7.4169998"
       y2="55.679001"
       gradientUnits="userSpaceOnUse"
       spreadMethod="reflect"
       gradientTransform="matrix(0.28565582,0,0,0.28565582,-1.1418685,-0.99958012)"
       xlink:href="#NEbh2dprQr9WcwnKAwYN2a">
      <stop
         offset="0"
         stop-color="#1a6dff"
         id="stop11-2" />
      <stop
         offset="1"
         stop-color="#c822ff"
         id="stop12-7" />
    </linearGradient>
    <linearGradient
       inkscape:collect="always"
       xlink:href="#linearGradient39"
       id="linearGradient40"
       x1="2"
       y1="14"
       x2="14"
       y2="2"
       gradientUnits="userSpaceOnUse"
       gradientTransform="matrix(0.86666446,0,0,0.86666446,1.0667489,1.0666659)" />
    <linearGradient
       inkscape:collect="always"
       xlink:href="#linearGradient39"
       id="linearGradient44"
       x1="4.2325311"
       y1="4.9753628"
       x2="11.051225"
       y2="4.9753628"
       gradientUnits="userSpaceOnUse"
       gradientTransform="matrix(0.86666446,0,0,0.86666446,1.0667489,1.0666659)" />
    <linearGradient
       inkscape:collect="always"
       xlink:href="#linearGradient39"
       id="linearGradient46"
       x1="2.7243364"
       y1="12.260616"
       x2="14.710702"
       y2="12.260616"
       gradientUnits="userSpaceOnUse"
       gradientTransform="matrix(0.86666446,0,0,0.86666446,1.0667489,1.0666659)" />
    <linearGradient
       inkscape:collect="always"
       xlink:href="#linearGradient39"
       id="linearGradient48"
       x1="5.3775463"
       y1="10.181134"
       x2="8.272953"
       y2="10.181134"
       gradientUnits="userSpaceOnUse"
       gradientTransform="matrix(0.86666446,0,0,0.86666446,1.0667489,1.0666659)" />
  </defs>
  <path
     d="m 12.117772,11.341363 c 0,0.234569 1.793311,0.368614 1.694259,-0.05584 -0.143012,-0.714892 -1.496232,-0.659037 -1.694259,0.05584 z m -8.5310135,1.136415 c 0.4070656,0.357453 1.0231695,-0.07823 1.2211892,-0.580849 -0.3960629,-0.524987 -1.8592885,0.03347 -1.2211892,0.580849 z m 8.3116305,-0.644951 c -0.506084,0.469145 0.08797,0.960669 0.583088,0.63671 0.132027,-0.08933 -0.01106,-0.525 -0.583088,-0.63671 z"
     id="path1"
     style="fill:url(#linearGradient46);stroke-width:0.866661" />
  <path
     id="icecap"
     class="full-specularity"
     d="m 8.7175574,3.9398337 1.7933136,1.85424 c 0.165026,0.1675476 0.165026,0.5138265 0.066,0.6143599 L 9.6857501,5.6711964 9.5097181,6.7546639 8.7725999,6.3525383 7.5734312,7.1232866 7.1773671,5.5036082 6.5392593,6.9110598 4.9440515,6.8998922 c -0.3080479,0 -0.2640403,-0.3239354 0.055013,-0.6478711 0.6270976,-0.7037256 1.8483189,-1.898911 2.2333892,-2.3122358 0.3960637,-0.413302 1.0891486,-0.4021261 1.4852694,0 z"
     style="fill:url(#linearGradient44);stroke-width:0.866661" />
  <path
     d="m 5.8240484,9.4871217 c 0.09901,0 3.3885174,0.4468112 2.1233697,0.7930923 C 7.4633379,10.414256 5.2409587,9.4871217 5.8240484,9.4871217 Z"
     id="path2-5"
     style="fill:url(#linearGradient48);stroke-width:0.866661" />
  <path
     d="M 7.933929,1.5000774 C 7.4560981,1.5004815 6.9825081,1.6784026 6.6325406,2.0410151 v 0.00162 L 2.15398,6.7000488 C 1.6925215,7.1686046 1.438704,7.5844479 1.512825,8.0357029 1.549885,8.2613305 1.6801221,8.4502637 1.8286412,8.5814002 1.9771599,8.7125377 2.146537,8.8010336 2.323788,8.8764546 2.6783054,9.0273034 3.0786754,9.1240278 3.4490143,9.2270298 3.6146777,9.2731128 3.7030435,9.3264428 3.8441844,9.3761407 3.651714,9.4709717 3.4465358,9.5644399 3.2633377,9.7156139 c -0.092379,0.07621 -0.1971428,0.171058 -0.2491619,0.3537491 -0.0517,0.181578 0.030411,0.423155 0.1491766,0.545702 0.1936801,0.201326 0.4156382,0.28892 0.6792477,0.39499 0.2643319,0.106365 0.5647829,0.205539 0.8601712,0.302994 0.2953879,0.09743 0.5860956,0.193472 0.8141797,0.28395 0.1658182,0.06567 0.2297832,0.110229 0.2920164,0.147526 -0.031761,0.03936 -0.043712,0.05788 -0.098392,0.115807 -0.099278,0.104948 -0.2243212,0.219723 -0.3189927,0.417198 -0.047333,0.09874 -0.086373,0.230739 -0.069834,0.377539 0.016401,0.145604 0.091691,0.284711 0.1872702,0.385468 0.3441817,0.368121 0.7764289,0.342092 1.0125243,0.398175 0.118203,0.02801 0.1885128,0.0603 0.230116,0.09681 0.041602,0.03658 0.082325,0.08383 0.1110927,0.247467 0.056579,0.323784 0.3329775,0.565711 0.5998936,0.65039 0.2669162,0.08471 0.5450047,0.0789 0.8300251,0.0365 0.5700154,-0.08503 1.1705666,-0.324918 1.6029262,-0.688472 l 0.0016,-0.002 0.0031,-0.002 c 0.08892,-0.07659 0.1767942,-0.171346 0.2189912,-0.326579 0.04218,-0.155222 -0.01136,-0.345369 -0.08571,-0.445736 -0.08821,-0.118977 -0.1509442,-0.127249 -0.2237792,-0.164896 0.3096562,-0.235395 0.5984702,-0.39901 0.9077852,-0.482245 0.19599,-0.0527 0.412016,-0.108235 0.626872,-0.245872 0.213972,-0.137077 0.402663,-0.364003 0.517369,-0.658327 v -0.0018 c 0.06298,-0.161161 0.04751,-0.358277 -0.01429,-0.494775 -0.06196,-0.136758 -0.149378,-0.22761 -0.236475,-0.304392 -0.174208,-0.153531 -0.367502,-0.25776 -0.538008,-0.353715 -0.0017,-8.1e-4 -0.0019,-7.43e-4 -0.0036,-0.0017 0.216659,-0.10149 0.400372,-0.199717 0.715776,-0.3107351 0.484093,-0.170272 1.026917,-0.348874 1.504613,-0.5757358 0.477761,-0.2268402 0.92384,-0.4906899 1.126899,-0.9692428 0.101675,-0.2393525 0.111968,-0.52933 0.02076,-0.7980121 C 14.34673,7.3763362 14.172213,7.126278 13.920135,6.8696325 l -0.0038,-0.00324 -4.6484302,-4.8304257 -0.00631,-0.00632 C 8.8939141,1.6768461 8.4119071,1.4995929 7.9340431,1.4999985 Z m 0.00631,0.8185299 c 0.2728848,4.042e-4 0.5520465,0.098853 0.7601909,0.2982294 l 4.6357151,4.8176127 0.002,0.00165 c 0.197497,0.200539 0.293974,0.3631077 0.330101,0.4695459 0.03608,0.1064464 0.02993,0.152132 0.002,0.2189109 -0.05667,0.1335525 -0.319416,0.3593184 -0.728486,0.5536195 -0.409401,0.194283 -0.931677,0.3686861 -1.425465,0.5425038 -0.493914,0.1738097 -0.952404,0.3326194 -1.301477,0.5821724 l -0.0017,0.0016 C 10.093987,9.8899419 9.9565658,10.0759 9.9702418,10.2819 c 0.01368,0.206011 0.1218262,0.318432 0.2031412,0.394998 0.162616,0.15313 0.333366,0.235343 0.5015,0.329954 0.155458,0.08751 0.290538,0.173834 0.368186,0.236365 -0.04251,0.07339 -0.08144,0.150371 -0.136483,0.185604 -0.07999,0.05127 -0.211041,0.09511 -0.399934,0.145942 -0.37778,0.101646 -0.9644259,0.255682 -1.5219214,0.82803 l -0.00166,0.002 h -0.00165 c -0.084376,0.08801 -0.1641359,0.200846 -0.1872698,0.35692 -0.023134,0.156077 0.039841,0.322011 0.1126772,0.415615 0.060156,0.07735 0.1020008,0.0763 0.1571158,0.11421 -0.2772523,0.157281 -0.5862264,0.330391 -0.8919419,0.375959 -0.2059422,0.03059 -0.3831932,0.01749 -0.4634083,-0.0069 -0.080218,-0.02537 -0.042756,0.0035 -0.046023,-0.01591 C 7.6097061,13.342867 7.4755419,13.090955 7.2879955,12.926229 7.1004499,12.761506 6.8869992,12.690978 6.7087334,12.648624 6.4193417,12.579863 6.2996363,12.549775 6.2167553,12.516955 c 0.030731,-0.03711 0.03734,-0.04879 0.084116,-0.09833 0.099272,-0.105005 0.2259081,-0.221361 0.3205708,-0.418831 0.047335,-0.09874 0.084775,-0.22916 0.068238,-0.375959 -0.016536,-0.146812 -0.09214,-0.289313 -0.1888516,-0.39024 l -0.00169,-0.0019 -0.00328,-0.0019 C 6.3011591,11.032603 6.0803956,10.946423 5.8168032,10.841835 5.5532095,10.737266 5.253068,10.639286 4.958257,10.542027 4.6634128,10.444765 4.3745817,10.347945 4.1472857,10.256494 c -0.063918,-0.02573 -0.060346,-0.03104 -0.1126763,-0.05711 0.06641,-0.03622 0.096029,-0.06036 0.1729842,-0.09836 0.1896179,-0.09354 0.3849,-0.1774181 0.5633934,-0.3156781 C 4.860239,9.7162259 4.9781645,9.6343399 5.0217333,9.4173226 5.0435181,9.3088172 5.0206795,9.1705249 4.9661878,9.0746782 4.9116891,8.9788295 4.8422732,8.9209115 4.777333,8.8779706 l -0.00321,-0.00325 C 4.4438776,8.6620406 4.0519161,8.5521428 3.6664076,8.4449089 3.2808996,8.3376742 2.9000296,8.2393668 2.6412072,8.1292324 2.5117913,8.0741645 2.4156244,8.0154287 2.3666523,7.9721874 c -0.048973,-0.043243 -0.048574,-0.054771 -0.050784,-0.068212 -0.0044,-0.02688 0.028635,-0.239817 0.4158001,-0.6329432 l 0.0017,-0.00325 L 7.2182596,2.605641 C 7.4013448,2.4159453 7.6674243,2.3181653 7.9403049,2.3185708 Z"
     id="path3"
     style="fill:url(#linearGradient40);stroke-width:0.866661" />
</svg>
