<?xml version="1.0" encoding="UTF-8" standalone="no"?>
<svg
   style="isolation:isolate"
   width="16"
   height="16"
   viewBox="0 0 16 16"
   version="1.1"
   id="svg22"
   sodipodi:docname="planwork.svg"
   inkscape:version="1.3.2 (091e20ef0f, 2023-11-25)"
   xmlns:inkscape="http://www.inkscape.org/namespaces/inkscape"
   xmlns:sodipodi="http://sodipodi.sourceforge.net/DTD/sodipodi-0.dtd"
   xmlns:xlink="http://www.w3.org/1999/xlink"
   xmlns="http://www.w3.org/2000/svg"
   xmlns:svg="http://www.w3.org/2000/svg">
  <sodipodi:namedview
     id="namedview22"
     pagecolor="#ffffff"
     bordercolor="#000000"
     borderopacity="0.25"
     inkscape:showpageshadow="2"
     inkscape:pageopacity="0.0"
     inkscape:pagecheckerboard="0"
     inkscape:deskcolor="#d1d1d1"
     inkscape:zoom="23.96875"
     inkscape:cx="6.8005215"
     inkscape:cy="7.2803129"
     inkscape:window-width="1920"
     inkscape:window-height="994"
     inkscape:window-x="0"
     inkscape:window-y="0"
     inkscape:window-maximized="1"
     inkscape:current-layer="svg22" />
  <defs
     id="defs22">
    <linearGradient
       id="linearGradient22"
       inkscape:collect="always">
      <stop
         style="stop-color:#9955ff;stop-opacity:1"
         offset="0"
         id="stop23" />
      <stop
         style="stop-color:#2ad4ff;stop-opacity:1"
         offset="1"
         id="stop24" />
    </linearGradient>
    <style
       id="current-color-scheme"
       type="text/css">
   .ColorScheme-Text { color:#d5c289; } .ColorScheme-Highlight { color:#5294e2; }
  </style>
    <linearGradient
       id="arrongin"
       x1="0%"
       x2="0%"
       y1="0%"
       y2="100%">
      <stop
         offset="0%"
         style="stop-color:#dd9b44; stop-opacity:1"
         id="stop1" />
      <stop
         offset="100%"
         style="stop-color:#ad6c16; stop-opacity:1"
         id="stop2" />
    </linearGradient>
    <linearGradient
       id="aurora"
       x1="0%"
       x2="0%"
       y1="0%"
       y2="100%">
      <stop
         offset="0%"
         style="stop-color:#09D4DF; stop-opacity:1"
         id="stop3" />
      <stop
         offset="100%"
         style="stop-color:#9269F4; stop-opacity:1"
         id="stop4" />
    </linearGradient>
    <linearGradient
       id="fitdance"
       x1="0%"
       x2="0%"
       y1="0%"
       y2="100%">
      <stop
         offset="0%"
         style="stop-color:#1AD6AB; stop-opacity:1"
         id="stop5" />
      <stop
         offset="100%"
         style="stop-color:#329DB6; stop-opacity:1"
         id="stop6" />
    </linearGradient>
    <linearGradient
       id="oomox"
       x1="0"
       x2="0"
       y1="0"
       y2="16"
       gradientUnits="userSpaceOnUse"
       gradientTransform="matrix(0.75,0,0,0.75,2,2)">
      <stop
         offset="0%"
         style="stop-color:#303b3d; stop-opacity:1"
         id="stop7" />
      <stop
         offset="100%"
         style="stop-color:#bc985d; stop-opacity:1"
         id="stop8" />
    </linearGradient>
    <linearGradient
       id="rainblue"
       x1="0%"
       x2="0%"
       y1="0%"
       y2="100%">
      <stop
         offset="0%"
         style="stop-color:#00F260; stop-opacity:1"
         id="stop9" />
      <stop
         offset="100%"
         style="stop-color:#0575E6; stop-opacity:1"
         id="stop10" />
    </linearGradient>
    <linearGradient
       id="sunrise"
       x1="0%"
       x2="0%"
       y1="0%"
       y2="100%">
      <stop
         offset="0%"
         style="stop-color: #FF8501; stop-opacity:1"
         id="stop11" />
      <stop
         offset="100%"
         style="stop-color: #FFCB01; stop-opacity:1"
         id="stop12" />
    </linearGradient>
    <linearGradient
       id="telinkrin"
       x1="0%"
       x2="0%"
       y1="0%"
       y2="100%">
      <stop
         offset="0%"
         style="stop-color: #b2ced6; stop-opacity:1"
         id="stop13" />
      <stop
         offset="100%"
         style="stop-color: #6da5b7; stop-opacity:1"
         id="stop14" />
    </linearGradient>
    <linearGradient
       id="60spsycho"
       x1="0%"
       x2="0%"
       y1="0%"
       y2="100%">
      <stop
         offset="0%"
         style="stop-color: #df5940; stop-opacity:1"
         id="stop15" />
      <stop
         offset="25%"
         style="stop-color: #d8d15f; stop-opacity:1"
         id="stop16" />
      <stop
         offset="50%"
         style="stop-color: #e9882a; stop-opacity:1"
         id="stop17" />
      <stop
         offset="100%"
         style="stop-color: #279362; stop-opacity:1"
         id="stop18" />
    </linearGradient>
    <linearGradient
       id="90ssummer"
       x1="0%"
       x2="0%"
       y1="0%"
       y2="100%">
      <stop
         offset="0%"
         style="stop-color: #f618c7; stop-opacity:1"
         id="stop19" />
      <stop
         offset="20%"
         style="stop-color: #94ffab; stop-opacity:1"
         id="stop20" />
      <stop
         offset="50%"
         style="stop-color: #fbfd54; stop-opacity:1"
         id="stop21" />
      <stop
         offset="100%"
         style="stop-color: #0f83ae; stop-opacity:1"
         id="stop22" />
    </linearGradient>
    <linearGradient
       inkscape:collect="always"
       xlink:href="#linearGradient22"
       id="linearGradient24"
       x1="5.5779462"
       y1="11.13398"
       x2="10.370274"
       y2="6.1538453"
       gradientUnits="userSpaceOnUse"
       gradientTransform="matrix(1.0833333,0,0,1.0833333,-0.66666665,-0.66666665)" />
  </defs>
  <path
     class="ColorScheme-Text"
     fill-rule="evenodd"
     d="M 4.9999996,1.5 C 4.725,1.5 4.5000004,1.7250001 4.5000004,2.0000006 V 3.5 c 0,0.275 0.2249996,0.4999997 0.4999992,0.4999997 C 5.2749997,3.9999997 5.5000003,3.775 5.5000003,3.5 V 2.0000006 C 5.5000003,1.7250001 5.2749997,1.5 4.9999996,1.5 Z M 11,1.5 c -0.274998,0 -0.5,0.2250001 -0.5,0.5000006 V 3.5 c 0,0.275 0.225002,0.4999997 0.5,0.4999997 0.274998,0 0.500001,-0.2249997 0.500001,-0.4999997 V 2.0000006 C 11.500001,1.7250001 11.274998,1.5 11,1.5 Z M 2.4999999,5.9999992 H 13.499999 v 6.9999918 c 0,0.275006 -0.225002,0.500008 -0.500008,0.500008 H 2.9999997 c -0.2749995,0 -0.4999998,-0.225002 -0.4999998,-0.500008 z M 2.9999997,2.4999999 C 2.1715724,2.4999999 1.5,3.1715729 1.5,3.9999997 V 12.999991 C 1.5,13.828429 2.1715724,14.5 2.9999997,14.5 H 12.999991 C 13.828429,14.5 14.5,13.828429 14.5,12.999991 V 3.9999997 c 0,-0.8284268 -0.671571,-1.4999998 -1.500009,-1.4999998 h -0.999988 v 1.0000009 c 0,0.5522823 -0.447719,0.999999 -1.000004,0.999999 C 10.447715,4.4999998 10,4.0522831 10,3.5000008 V 2.4999999 H 5.9999992 v 1.0000009 c 0,0.5522823 -0.4477138,0.999999 -0.999999,0.999999 -0.5522849,0 -1.0000005,-0.4477167 -1.0000005,-0.999999 V 2.4999999 Z M 7.552018,12.152556 H 4.4545456 v 0 q 0,-1.619286 1.5871354,-2.481165 v 0 0 Q 6.3680667,9.4950979 6.553659,9.309011 v 0 0 Q 6.7392523,9.1229227 6.7392523,8.855218 v 0 0 q 0,-0.2677037 -0.1887933,-0.4374691 v 0 0 Q 6.3616689,8.2479852 6.0544797,8.2479852 v 0 0 q -0.6015766,0 -0.8383657,0.5615282 v 0 L 4.524942,8.4895739 v 0 Q 4.704135,8.0390451 5.1137183,7.771341 v 0 0 Q 5.5233016,7.5036368 6.0480803,7.5036368 v 0 0 q 0.6719718,0 1.068756,0.3787036 v 0 0 Q 7.51362,8.2610453 7.51362,8.855218 v 0 0 q 0,0.5354103 -0.2655892,0.845556 v 0 0 q -0.2655885,0.310145 -0.8223664,0.623554 v 0 0 q -0.467181,0.261181 -0.7167704,0.509294 v 0 0 q -0.24959,0.248117 -0.332786,0.561519 v 0 h 2.17591 z M 9.503937,9.1425119 v 0 0 Q 9.676731,9.2992166 9.95832,9.2992166 v 0 0 q 0.281588,0 0.457582,-0.1567047 v 0 0 Q 10.591895,8.9858064 10.591895,8.750748 v 0 0 q 0,-0.2350579 -0.175993,-0.3819683 v 0 0 Q 10.239908,8.2218682 9.95832,8.2218682 v 0 0 q -0.281589,0 -0.454383,0.1469115 v 0 0 Q 9.3311452,8.5156901 9.3311452,8.750748 v 0 0 q 0,0.2350584 0.1727918,0.3917639 z M 9.382344,11.303735 v 0 0 q 0.223991,0.202412 0.575976,0.202412 v 0 0 q 0.351986,0 0.582375,-0.205677 v 0 0 q 0.230391,-0.205672 0.230391,-0.525613 v 0 0 q 0,-0.31341 -0.233589,-0.528878 v 0 0 Q 10.303904,10.030507 9.95832,10.030507 v 0 0 q -0.351985,0 -0.575976,0.212206 v 0 0 q -0.223991,0.212204 -0.223991,0.532144 v 0 0 q 0,0.326467 0.223991,0.528878 z m 1.72793,0.52888 v 0 0 q -0.435182,0.398304 -1.151954,0.398304 v 0 0 q -0.7167714,0 -1.1487527,-0.398304 v 0 0 Q 8.377585,11.434322 8.377585,10.794448 v 0 0 q 0,-0.783529 0.7487687,-1.142646 v 0 0 Q 8.5631773,9.331863 8.5631773,8.705043 v 0 0 q 0,-0.52888 0.380784,-0.8651441 v 0 0 Q 9.3247451,7.5036368 9.95832,7.5036368 v 0 0 q 0.633575,0 1.017556,0.3362613 v 0 0 q 0.383988,0.3362649 0.383988,0.8651449 v 0 0 q 0,0.6202906 -0.56318,0.94023 v 0 0 q 0.345586,0.169765 0.547179,0.463587 v 0 0 q 0.201593,0.293822 0.201593,0.685587 v 0 0 q 0,0.639875 -0.435182,1.038168 z"
     id="path22"
     style="fill:url(#linearGradient24);stroke-width:1.08331" />
</svg>
