<?xml version="1.0" encoding="UTF-8" standalone="no"?>
<!-- Generator: Gravit.io -->

<svg
   style="isolation:isolate"
   viewBox="0 0 16 16"
   width="16pt"
   height="16pt"
   version="1.1"
   id="svg2"
   sodipodi:docname="qtcreator.svg"
   inkscape:version="1.3.2 (091e20ef0f, 2023-11-25)"
   xmlns:inkscape="http://www.inkscape.org/namespaces/inkscape"
   xmlns:sodipodi="http://sodipodi.sourceforge.net/DTD/sodipodi-0.dtd"
   xmlns:xlink="http://www.w3.org/1999/xlink"
   xmlns="http://www.w3.org/2000/svg"
   xmlns:svg="http://www.w3.org/2000/svg">
  <defs
     id="defs2">
    <linearGradient
       id="linearGradient2"
       inkscape:collect="always">
      <stop
         style="stop-color:#1ba97f;stop-opacity:1;"
         offset="0"
         id="stop3" />
      <stop
         style="stop-color:#3cb1c3;stop-opacity:1;"
         offset="1"
         id="stop4" />
    </linearGradient>
    <linearGradient
       inkscape:collect="always"
       xlink:href="#linearGradient2"
       id="linearGradient4"
       x1="0"
       y1="5.9693751"
       x2="16"
       y2="5"
       gradientUnits="userSpaceOnUse"
       gradientTransform="matrix(0.87500022,0,0,0.8666666,1.0000001,1.0666664)" />
  </defs>
  <sodipodi:namedview
     id="namedview2"
     pagecolor="#ffffff"
     bordercolor="#000000"
     borderopacity="0.25"
     inkscape:showpageshadow="2"
     inkscape:pageopacity="0.0"
     inkscape:pagecheckerboard="0"
     inkscape:deskcolor="#d1d1d1"
     inkscape:document-units="pt"
     inkscape:zoom="11.256496"
     inkscape:cx="13.236801"
     inkscape:cy="11.770981"
     inkscape:window-width="1920"
     inkscape:window-height="994"
     inkscape:window-x="0"
     inkscape:window-y="0"
     inkscape:window-maximized="1"
     inkscape:current-layer="svg2" />
  <linearGradient
     id="_lgradient_3"
     x1="0"
     y1="0.5"
     x2="1"
     y2="0.5"
     gradientTransform="matrix(16,0,0,15,0,0.5)"
     gradientUnits="userSpaceOnUse">
    <stop
       offset="0%"
       stop-opacity="1"
       style="stop-color:rgb(67,233,123)"
       id="stop1" />
    <stop
       offset="97.82608695652173%"
       stop-opacity="1"
       style="stop-color:rgb(56,249,215)"
       id="stop2" />
  </linearGradient>
  <path
     d="m 9.599504,5.075 v 1.3 H 8.9545487 v 0.65 H 9.599504 v 1.95 c 0,1.3 0.289226,1.625 1.223088,1.625 h 0.697784 l -0.04078,-0.65 h -0.4693 c -0.429874,0 -0.464867,-0.325 -0.464867,-0.975 v -1.95 h 0.954549 v -0.65 h -0.954544 v -1.3 z m -3.5047748,0.65 c 1.0274101,0 1.2689098,0.65 1.2689098,1.95 0,1.3 -0.2335464,1.95 -1.2689098,1.95 -1.0353649,0 -1.2765452,-0.65 -1.2765452,-1.95 0,-1.3 0.248817,-1.95 1.2765452,-1.95 z M 13.727278,8.65 v 0 c 0,-0.3588 0.285087,-0.65 0.636367,-0.65 V 8 C 14.714907,8 15,8.2912 15,8.65 v 0 2.21975 c 0,0.3588 -0.201726,0.85605 -0.449908,1.10955 l -2.017903,2.06115 C 12.284009,14.29395 11.797192,14.5 11.445906,14.5 H 2.5909101 C 1.712728,14.5 1,13.772 1,12.875 v -2.275 0 C 1,10.2412 1.2850912,9.95 1.6363634,9.95 v 0 c 0.3512734,0 0.6363644,0.2912 0.6363644,0.65 v 0 1.625 c 0,0.5382 0.4276367,0.975 0.9545461,0.975 h 8.0086321 c 0.175649,0 0.419047,-0.103019 0.543145,-0.229771 l 1.723268,-1.7602 c 0.124098,-0.126758 0.224959,-0.375379 0.224959,-0.554779 z M 6.1020473,4.75 c -1.768456,0 -2.2384102,0.975 -2.2384102,2.925 0,1.95 0.4616815,2.925 2.2384102,2.925 h 0.504636 l 0.735319,1.3 0.8517735,-0.325 -0.693955,-1.3 c 0.6611819,-0.325 0.8183624,-1.3 0.8183624,-2.6 0,-1.95 -0.447362,-2.925 -2.2161359,-2.925 z m -3.8293195,2.6 v 0 c 0,0.3588 -0.285091,0.65 -0.6363644,0.65 V 8 C 1.2850912,8 1,7.7088 1,7.35 v 0 -2.21975 C 1,4.77145 1.2017276,4.2742 1.4499091,4.0207 L 3.4678193,1.95955 C 3.7160017,1.70605 4.2028196,1.5 4.5540919,1.5 H 13.409102 C 14.28728,1.5 15,2.228 15,3.125 v 2.275 0 c 0,0.3588 -0.285093,0.65 -0.636355,0.65 v 0 c -0.35128,0 -0.636367,-0.2912 -0.636367,-0.65 v 0 -1.625 c 0,-0.5382 -0.427635,-0.975 -0.954551,-0.975 H 4.7640919 C 4.588456,2.8 4.3450464,2.903026 4.2209564,3.029775 l -1.7232737,1.7602 C 2.3735912,4.916725 2.2727278,5.16535 2.2727278,5.34475 Z"
     fill-rule="evenodd"
     id="path2"
     style="fill:url(#linearGradient4);fill-opacity:1;stroke-width:0.870822" />
</svg>
