<?xml version="1.0" encoding="UTF-8" standalone="no"?>
<svg
   width="16"
   height="16"
   viewBox="0 0 16 16"
   fill="none"
   version="1.1"
   id="svg7"
   sodipodi:docname="skrooge-black.svg"
   inkscape:version="1.3.2 (091e20ef0f, 2023-11-25)"
   xmlns:inkscape="http://www.inkscape.org/namespaces/inkscape"
   xmlns:sodipodi="http://sodipodi.sourceforge.net/DTD/sodipodi-0.dtd"
   xmlns="http://www.w3.org/2000/svg"
   xmlns:svg="http://www.w3.org/2000/svg">
  <sodipodi:namedview
     id="namedview7"
     pagecolor="#ffffff"
     bordercolor="#000000"
     borderopacity="0.25"
     inkscape:showpageshadow="2"
     inkscape:pageopacity="0.0"
     inkscape:pagecheckerboard="0"
     inkscape:deskcolor="#d1d1d1"
     inkscape:zoom="23.96875"
     inkscape:cx="8.5945241"
     inkscape:cy="8.5736636"
     inkscape:window-width="1920"
     inkscape:window-height="994"
     inkscape:window-x="0"
     inkscape:window-y="0"
     inkscape:window-maximized="1"
     inkscape:current-layer="svg7" />
  <path
     d="m 8.0000003,13.989873 c 3.3081217,0 5.9898727,-2.681751 5.9898727,-5.9898727 0,-3.3081219 -2.681751,-5.9898735 -5.9898727,-5.9898735 -3.3081219,0 -5.9898735,2.6817516 -5.9898735,5.9898735 0,3.3081217 2.6817516,5.9898727 5.9898735,5.9898727 z"
     id="path1"
     style="stroke:#e5e5e5;stroke-width:1.02025;stroke-opacity:1" />
  <path
     d="M 8.3475199,3.7215197 C 7.5084239,3.7219472 6.6885812,3.9728592 5.9929645,4.442101 5.2973477,4.9113431 4.7576603,5.5775459 4.4429999,6.355395 H 3.6065138 l -0.526767,1.0535542 h 1.0916331 c -0.02368,0.1746266 -0.036412,0.3505794 -0.038076,0.5267884 L 3.6065158,8.9892918 h 0.6666945 c 0.2333055,0.9035944 0.7599439,1.7041822 1.4973185,2.2762152 0.7373748,0.572011 1.6437493,0.8831 2.5769932,0.884449 0.6316316,-8.6e-5 1.2551776,-0.142153 1.824515,-0.415698 0.569338,-0.273544 1.069898,-0.671571 1.464674,-1.164645 H 10.091666 C 9.5745906,10.912597 8.9680083,11.095802 8.347522,11.096402 7.6945191,11.095652 7.0577955,10.892659 6.5248458,10.515361 5.9918972,10.138043 5.5888861,9.6049228 5.3712181,8.9892918 H 8.8742888 L 9.4010762,7.9357376 H 5.1868563 c 0.00102,-0.1766161 0.016915,-0.3528249 0.047401,-0.5267884 H 9.4010702 L 9.9278372,6.355395 H 5.6140587 C 5.8911543,5.8754782 6.2895449,5.4768306 6.7693128,5.1994565 7.2490798,4.9220823 7.793346,4.7757372 8.3475159,4.775074 8.9676389,4.7758658 9.5738356,4.959048 10.090611,5.3018409 H 11.63249 C 11.238165,4.8093228 10.738267,4.4116384 10.169721,4.1381146 9.6011538,3.8645918 8.9784424,3.7222257 8.3475159,3.7215197 Z"
     id="path2"
     style="fill:#e4e4e4;fill-opacity:1;stroke-width:1.02025" />
  <defs
     id="defs7">
    <linearGradient
       id="paint0_linear"
       x1="32"
       y1="60"
       x2="32"
       y2="4"
       gradientUnits="userSpaceOnUse"
       gradientTransform="matrix(0.20967742,0,0,0.20967742,1.290323,1.290323)">
      <stop
         stop-color="#FDA700"
         id="stop2"
         offset="0"
         style="stop-color:#e5e5e5;stop-opacity:1;" />
      <stop
         offset="1"
         stop-color="#FFDE00"
         id="stop3"
         style="stop-color:#e5e5e5;stop-opacity:1;" />
    </linearGradient>
    <linearGradient
       id="paint1_linear"
       x1="29"
       y1="51.3992"
       x2="29"
       y2="12"
       gradientUnits="userSpaceOnUse"
       gradientTransform="matrix(0.20967742,0,0,0.20967742,1.290323,1.290323)">
      <stop
         stop-color="#FFA800"
         id="stop4" />
      <stop
         offset="1"
         stop-color="#FFF737"
         id="stop5" />
    </linearGradient>
    <linearGradient
       id="paint2_linear"
       x1="29"
       y1="51.3992"
       x2="29"
       y2="12"
       gradientUnits="userSpaceOnUse"
       gradientTransform="matrix(0.20967742,0,0,0.20967742,1.290323,1.290323)">
      <stop
         stop-color="#FFA800"
         id="stop6" />
      <stop
         offset="1"
         stop-color="#FFF737"
         id="stop7" />
    </linearGradient>
  </defs>
</svg>
