<?xml version="1.0" encoding="UTF-8" standalone="no"?>
<svg
   width="16"
   height="16"
   version="1.1"
   id="svg25"
   sodipodi:docname="vlc.svg"
   inkscape:version="1.3.2 (091e20ef0f, 2023-11-25)"
   xmlns:inkscape="http://www.inkscape.org/namespaces/inkscape"
   xmlns:sodipodi="http://sodipodi.sourceforge.net/DTD/sodipodi-0.dtd"
   xmlns:xlink="http://www.w3.org/1999/xlink"
   xmlns="http://www.w3.org/2000/svg"
   xmlns:svg="http://www.w3.org/2000/svg">
  <sodipodi:namedview
     id="namedview25"
     pagecolor="#ffffff"
     bordercolor="#000000"
     borderopacity="0.25"
     inkscape:showpageshadow="2"
     inkscape:pageopacity="0.0"
     inkscape:pagecheckerboard="0"
     inkscape:deskcolor="#d1d1d1"
     inkscape:zoom="24.090574"
     inkscape:cx="7.388782"
     inkscape:cy="8.9038974"
     inkscape:window-width="1920"
     inkscape:window-height="994"
     inkscape:window-x="0"
     inkscape:window-y="0"
     inkscape:window-maximized="1"
     inkscape:current-layer="svg25"
     showgrid="false">
    <inkscape:grid
       id="grid1"
       units="px"
       originx="0"
       originy="0"
       spacingx="1"
       spacingy="1"
       empcolor="#0099e5"
       empopacity="0.30196078"
       color="#0099e5"
       opacity="0.14902"
       empspacing="5"
       dotted="false"
       gridanglex="30"
       gridanglez="30"
       visible="false" />
  </sodipodi:namedview>
  <defs
     id="defs22">
    <linearGradient
       id="linearGradient24"
       inkscape:collect="always">
      <stop
         style="stop-color:#ff9955;stop-opacity:1"
         offset="0"
         id="stop23" />
      <stop
         style="stop-color:#ffcb2f;stop-opacity:1"
         offset="1"
         id="stop24" />
    </linearGradient>
    <style
       id="current-color-scheme"
       type="text/css">
   .ColorScheme-Text { color:#d5c289; } .ColorScheme-Highlight { color:#5294e2; }
  </style>
    <linearGradient
       id="arrongin"
       x1="0%"
       x2="0%"
       y1="0%"
       y2="100%">
      <stop
         offset="0%"
         style="stop-color:#dd9b44; stop-opacity:1"
         id="stop1" />
      <stop
         offset="100%"
         style="stop-color:#ad6c16; stop-opacity:1"
         id="stop2" />
    </linearGradient>
    <linearGradient
       id="aurora"
       x1="0%"
       x2="0%"
       y1="0%"
       y2="100%">
      <stop
         offset="0%"
         style="stop-color:#09D4DF; stop-opacity:1"
         id="stop3" />
      <stop
         offset="100%"
         style="stop-color:#9269F4; stop-opacity:1"
         id="stop4" />
    </linearGradient>
    <linearGradient
       id="fitdance"
       x1="0%"
       x2="0%"
       y1="0%"
       y2="100%">
      <stop
         offset="0%"
         style="stop-color:#1AD6AB; stop-opacity:1"
         id="stop5" />
      <stop
         offset="100%"
         style="stop-color:#329DB6; stop-opacity:1"
         id="stop6" />
    </linearGradient>
    <linearGradient
       id="oomox"
       x1="0%"
       x2="0%"
       y1="0%"
       y2="100%">
      <stop
         offset="0%"
         style="stop-color:#303b3d; stop-opacity:1"
         id="stop7" />
      <stop
         offset="100%"
         style="stop-color:#bc985d; stop-opacity:1"
         id="stop8" />
    </linearGradient>
    <linearGradient
       id="rainblue"
       x1="0%"
       x2="0%"
       y1="0%"
       y2="100%">
      <stop
         offset="0%"
         style="stop-color:#00F260; stop-opacity:1"
         id="stop9" />
      <stop
         offset="100%"
         style="stop-color:#0575E6; stop-opacity:1"
         id="stop10" />
    </linearGradient>
    <linearGradient
       id="sunrise"
       x1="0%"
       x2="0%"
       y1="0%"
       y2="100%">
      <stop
         offset="0%"
         style="stop-color: #FF8501; stop-opacity:1"
         id="stop11" />
      <stop
         offset="100%"
         style="stop-color: #FFCB01; stop-opacity:1"
         id="stop12" />
    </linearGradient>
    <linearGradient
       id="telinkrin"
       x1="0%"
       x2="0%"
       y1="0%"
       y2="100%">
      <stop
         offset="0%"
         style="stop-color: #b2ced6; stop-opacity:1"
         id="stop13" />
      <stop
         offset="100%"
         style="stop-color: #6da5b7; stop-opacity:1"
         id="stop14" />
    </linearGradient>
    <linearGradient
       id="60spsycho"
       x1="0%"
       x2="0%"
       y1="0%"
       y2="100%">
      <stop
         offset="0%"
         style="stop-color: #df5940; stop-opacity:1"
         id="stop15" />
      <stop
         offset="25%"
         style="stop-color: #d8d15f; stop-opacity:1"
         id="stop16" />
      <stop
         offset="50%"
         style="stop-color: #e9882a; stop-opacity:1"
         id="stop17" />
      <stop
         offset="100%"
         style="stop-color: #279362; stop-opacity:1"
         id="stop18" />
    </linearGradient>
    <linearGradient
       id="90ssummer"
       x1="0%"
       x2="0%"
       y1="0%"
       y2="100%">
      <stop
         offset="0%"
         style="stop-color: #f618c7; stop-opacity:1"
         id="stop19" />
      <stop
         offset="20%"
         style="stop-color: #94ffab; stop-opacity:1"
         id="stop20" />
      <stop
         offset="50%"
         style="stop-color: #fbfd54; stop-opacity:1"
         id="stop21" />
      <stop
         offset="100%"
         style="stop-color: #0f83ae; stop-opacity:1"
         id="stop22" />
    </linearGradient>
    <linearGradient
       inkscape:collect="always"
       xlink:href="#linearGradient24"
       id="linearGradient26"
       x1="6.4166126"
       y1="1.3138101"
       x2="9.5271416"
       y2="1.3138101"
       gradientUnits="userSpaceOnUse"
       gradientTransform="matrix(0.86666669,0,0,0.81249819,1.066666,1.4999999)" />
    <linearGradient
       inkscape:collect="always"
       xlink:href="#linearGradient24"
       id="linearGradient28"
       x1="0.5"
       y1="12.954003"
       x2="15.5"
       y2="12.954003"
       gradientUnits="userSpaceOnUse"
       gradientTransform="matrix(0.86666669,0,0,0.81249819,1.066666,1.4999999)" />
    <linearGradient
       inkscape:collect="always"
       xlink:href="#linearGradient24"
       id="linearGradient31"
       gradientUnits="userSpaceOnUse"
       x1="4.6402607"
       y1="7.1171694"
       x2="11.291851"
       y2="7.1171694"
       gradientTransform="matrix(0.86666669,0,0,0.81249819,1.066666,1.4999999)" />
  </defs>
  <path
     class="st1"
     d="m 6.7941093,3.512551 c 0.764706,0.1631808 1.529414,0.1631808 2.2941199,0 0.17647,-0.05439 0.2352931,-0.1631781 0.2352931,-0.3263581 v 0 L 8.9705813,2.0983269 C 8.8529343,1.7719671 8.4999932,1.5 8.1470513,1.5 h -0.294117 c -0.411766,0 -0.705885,0.2175732 -0.823531,0.5983269 l -0.352941,1.087866 c -0.117648,0.1087868 0,0.2719652 0.117647,0.3263581 0,-0.054396 0,-0.054396 0,0 z m 1.20589,-0.155408 z"
     id="path4"
     style="fill:url(#linearGradient26);stroke-width:0.565654"
     sodipodi:nodetypes="ccsccsscccccsccccc" />
  <path
     class="st1"
     d="m 7.9705813,9.0606685 c 1.2941179,0 2.7058897,-0.2719644 2.8823567,-0.9790788 V 7.9184095 L 10.147058,5.6882839 C 10.088228,5.5251062 9.9117586,5.4707119 9.7941105,5.5251062 v 0 c -1.1764703,0.3263586 -2.4705892,0.3263586 -3.6470602,0 -0.176472,-0.054409 -0.294119,0.054391 -0.352942,0.1631777 v 0 L 5.0882264,7.9728027 v 0.1631809 c 0.176469,0.6527205 1.5882359,0.9246849 2.8823549,0.9246849 z M 7.9999943,8 Z"
     id="path5"
     style="fill:url(#linearGradient31);stroke-width:0.565654"
     sodipodi:nodetypes="scccsscscccscccccc" />
  <path
     class="st1"
     d="M 14.382353,13.194564 13.088236,10.148537 C 12.970593,9.822177 12.617651,9.604601 12.264707,9.604601 h -0.823548 c -0.176456,0 -0.294105,0.108788 -0.294105,0.271968 0,0.0544 0,0.1087861 0.05888,0.1087861 0,0.05439 0.05887,0.1087849 0.05887,0.1631819 0,0.489535 -1.4117604,1.087884 -3.235292,1.087884 -1.8235317,0 -3.2352967,-0.598349 -3.2352967,-1.087884 0,-0.05439 0,-0.108786 0.058827,-0.1631819 0.058825,-0.1087861 0,-0.2719661 -0.117647,-0.3807541 -0.058816,0 -0.058816,-0.0544 -0.1176409,-0.0544 h -0.82363 c -0.3529399,0 -0.7058809,0.217574 -0.8235294,0.543939 L 1.676468,13.14016 C 1.5,13.303346 1.5,13.412126 1.5,13.520911 1.5,14.064845 1.970587,14.5 2.558824,14.5 v 0 H 13.441185 C 14.029419,14.5 14.5,14.064845 14.5,13.520911 14.44113,13.412124 14.44113,13.303346 14.382359,13.194564 Z m -1.000004,0.761498 H 2.558812 c -0.294119,0 -0.47059,-0.163185 -0.47059,-0.435151 v 0 c 0,-0.05435 0,-0.108787 0.05884,-0.108787 l 1.2941157,-3.046017 c 0.058825,-0.108784 0.176472,-0.163181 0.29412,-0.163181 h 0.470589 c 0,0.924674 1.6470609,1.631797 3.8235328,1.631797 2.1764655,0 3.8235325,-0.707123 3.8235325,-1.631797 h 0.470584 c 0.117644,0 0.235295,0.05438 0.294136,0.163181 l 1.23527,3.04602 v 0 c 0,0.05435 0.05889,0.108787 0,0.163187 0,0.217563 -0.235292,0.380748 -0.470583,0.380748 z"
     id="path6"
     style="fill:url(#linearGradient28);stroke-width:0.565654" />
</svg>
