<?xml version="1.0" encoding="UTF-8" standalone="no"?>
<svg
   height="16"
   width="16"
   version="1.1"
   id="svg260"
   sodipodi:docname="preferences-system-bluetooth-activated-symbolic.svg"
   inkscape:version="1.3.2 (091e20ef0f, 2023-11-25)"
   xmlns:inkscape="http://www.inkscape.org/namespaces/inkscape"
   xmlns:sodipodi="http://sodipodi.sourceforge.net/DTD/sodipodi-0.dtd"
   xmlns="http://www.w3.org/2000/svg"
   xmlns:svg="http://www.w3.org/2000/svg">
  <defs
     id="defs264">
    <linearGradient
       id="a-3"
       x1="428.81601"
       x2="388.86499"
       y1="547.63397"
       y2="499.67899"
       gradientTransform="matrix(0.84065802,0,0,0.83479053,-384.50193,-423.04309)"
       gradientUnits="userSpaceOnUse">
      <stop
         stop-color="#bdc3c7"
         offset="0"
         id="stop2193" />
      <stop
         stop-color="#eff0f1"
         offset="1"
         id="stop2195" />
    </linearGradient>
    <linearGradient
       id="c-3"
       gradientUnits="userSpaceOnUse"
       x1="5"
       x2="5"
       y1="18"
       y2="14"
       gradientTransform="translate(-28.733457,-19.255704)">
      <stop
         offset="0"
         stop-color="#208c4e"
         id="stop230" />
      <stop
         offset="1"
         stop-color="#6dbd7f"
         id="stop232" />
    </linearGradient>
    <linearGradient
       id="b-6"
       gradientUnits="userSpaceOnUse"
       x1="8"
       x2="8"
       y1="13"
       y2="9"
       gradientTransform="translate(-28.733457,-19.255704)">
      <stop
         offset="0"
         stop-color="#8e44ad"
         id="stop225" />
      <stop
         offset="1"
         stop-color="#b08bc4"
         id="stop227" />
    </linearGradient>
    <linearGradient
       id="a-7"
       gradientUnits="userSpaceOnUse"
       x1="11"
       x2="11"
       y1="7"
       y2="3"
       gradientTransform="translate(-28.733457,-19.255704)">
      <stop
         offset="0"
         stop-color="#da4453"
         id="stop220" />
      <stop
         offset="1"
         stop-color="#e4848f"
         id="stop222" />
    </linearGradient>
    <linearGradient
       id="a-5"
       gradientTransform="matrix(1.4999984,0,0,1.4999984,-493.33114,-732.03509)"
       gradientUnits="userSpaceOnUse"
       x2="0"
       y1="545.79797"
       y2="517.79797">
      <stop
         offset="0"
         stop-color="#197cf1"
         id="stop237-3" />
      <stop
         offset="1"
         stop-color="#20bcfa"
         id="stop239-5"
         style="stop-color:#059fdc;stop-opacity:1;" />
    </linearGradient>
    <linearGradient
       id="linearGradient1128"
       gradientUnits="userSpaceOnUse"
       x1="6"
       x2="20"
       y1="6"
       y2="20"
       gradientTransform="matrix(1.8888881,0,0,1.8888881,-51.930324,-41.676074)">
      <stop
         offset="0"
         stop-color="#292c2f"
         id="stop247-6" />
      <stop
         offset="1"
         stop-opacity="0"
         id="stop249-2" />
    </linearGradient>
    <linearGradient
       id="linearGradient1132"
       gradientUnits="userSpaceOnUse"
       x1="11"
       x2="11"
       y1="16"
       y2="6"
       gradientTransform="matrix(1.8888881,0,0,1.8888881,-51.930324,-41.676074)">
      <stop
         offset="0"
         stop-color="#7cbaf8"
         id="stop242-9" />
      <stop
         offset="1"
         stop-color="#f4fcff"
         id="stop244-1" />
    </linearGradient>
  </defs>
  <sodipodi:namedview
     id="namedview262"
     pagecolor="#ffffff"
     bordercolor="#000000"
     borderopacity="0.25"
     inkscape:showpageshadow="2"
     inkscape:pageopacity="0.0"
     inkscape:pagecheckerboard="0"
     inkscape:deskcolor="#d1d1d1"
     showgrid="false"
     inkscape:zoom="15.170655"
     inkscape:cx="7.8440911"
     inkscape:cy="11.403595"
     inkscape:window-width="1920"
     inkscape:window-height="994"
     inkscape:window-x="0"
     inkscape:window-y="0"
     inkscape:window-maximized="1"
     inkscape:current-layer="svg260" />
  <linearGradient
     id="a"
     gradientTransform="matrix(1.2142844,0,0,1.2142844,-517.56022,-666.6523)"
     gradientUnits="userSpaceOnUse"
     x2="0"
     y1="545.79797"
     y2="517.79797">
    <stop
       offset="0"
       stop-color="#197cf1"
       id="stop237" />
    <stop
       offset="1"
       stop-color="#20bcfa"
       id="stop239" />
  </linearGradient>
  <linearGradient
     id="b"
     gradientUnits="userSpaceOnUse"
     x1="11"
     x2="11"
     y1="16"
     y2="6"
     gradientTransform="matrix(1.8888881,0,0,1.8888881,-51.930324,-41.676074)">
    <stop
       offset="0"
       stop-color="#7cbaf8"
       id="stop242" />
    <stop
       offset="1"
       stop-color="#f4fcff"
       id="stop244" />
  </linearGradient>
  <linearGradient
     id="c"
     gradientUnits="userSpaceOnUse"
     x1="6"
     x2="20"
     y1="6"
     y2="20"
     gradientTransform="matrix(1.8888881,0,0,1.8888881,-51.930324,-41.676074)">
    <stop
       offset="0"
       stop-color="#292c2f"
       id="stop247" />
    <stop
       offset="1"
       stop-opacity="0"
       id="stop249" />
  </linearGradient>
  <path
     d="M 5.7666461,1.585497 C 5.6174179,1.685824 5.4831116,1.8541156 5.4461276,1.9874555 c -0.017506,0.06279 -0.027245,0.8951812 -0.027245,2.407217 V 6.7054462 L 3.9668259,5.6193182 C 3.1681296,5.0218828 2.4641593,4.5066513 2.4031703,4.4749343 2.2649726,4.4030883 2.0437248,4.3966095 1.9223949,4.4613384 1.7037432,4.5765542 1.5000143,4.887893 1.5000143,5.1060256 c 0,0.1637609 0.04671,0.2686197 0.1758299,0.3954856 0.05774,0.05696 0.8240001,0.6395084 1.7025014,1.2945507 0.8785012,0.6550432 1.5973917,1.196812 1.5973917,1.203933 0,0.00712 -0.7182416,0.5488896 -1.5960948,1.2039318 -0.8778512,0.655044 -1.6441064,1.2375913 -1.7025003,1.2945513 -0.1304129,0.126866 -0.1771279,0.231728 -0.1771279,0.395485 0,0.317812 0.3549048,0.702945 0.6488185,0.704238 0.04996,0 0.1505257,-0.02782 0.2238426,-0.06146 0.07267,-0.03367 0.7883172,-0.552132 1.5896066,-1.152154 L 5.4188822,9.2938997 V 11.60532 c 0,1.512033 0.00971,2.34443 0.027249,2.407215 0.036984,0.133342 0.1712906,0.301636 0.3205186,0.401959 0.1466329,0.09842 0.3081895,0.111984 0.4885606,0.04014 0.1336566,-0.05309 4.1018326,-3.015654 4.2088906,-3.142522 a 0.66828378,0.6666939 0 0 0 0.170637,-0.419439 c 6.49e-4,-0.161816 -0.04605,-0.267325 -0.176476,-0.394191 C 10.399862,10.441512 9.6336092,9.8589697 8.7557563,9.2039257 7.8779033,8.5488814 7.1596606,8.0071111 7.1596606,7.9999917 c 0,-0.0072 0.7188927,-0.5488901 1.5973928,-1.2039335 C 9.6355552,6.141016 10.401808,5.5584672 10.459558,5.5015078 10.588671,5.3746422 10.635385,5.269783 10.634735,5.1073166 A 0.66828378,0.6666939 0 0 0 10.464099,4.6878821 C 10.357051,4.5610162 6.388863,1.598436 6.2552068,1.5453591 6.0748354,1.4735131 5.9132792,1.4871081 5.7666461,1.585486 M 8.8394538,5.0607087 C 8.8666998,5.0852995 8.6584335,5.2529493 7.7948552,5.8989302 L 6.7165173,6.7054353 v -3.237025 l 1.0445983,0.7806151 c 0.5742053,0.4291435 1.0595228,0.7942068 1.0783382,0.8116833 m 3.8585242,0.1197459 c -0.210866,0.1106839 -0.40551,0.3508232 -0.440547,0.5437115 -0.03565,0.1928886 0.01363,0.286096 0.378262,0.7223594 0.223195,0.2666776 0.413944,0.6408033 0.495048,0.970914 0.04542,0.1825317 0.05772,0.3093976 0.05772,0.5825476 0,0.4149035 -0.05772,0.6887013 -0.21476,1.0239897 -0.122626,0.2602056 -0.210218,0.3896606 -0.461307,0.6815819 -0.301704,0.3501743 -0.330899,0.5514793 -0.122626,0.8349863 0.209569,0.284797 0.501537,0.399369 0.752628,0.295155 0.187507,-0.0783 0.593024,-0.526881 0.820109,-0.9068343 0.207625,-0.347584 0.323759,-0.6291495 0.421733,-1.0220458 A 3.7092994,3.7004746 0 0 0 13.96254,6.0711056 C 13.735452,5.6911551 13.329935,5.2425925 13.142428,5.1642727 a 0.57096089,0.56960255 0 0 0 -0.444443,0.016181 m -1.718072,0.9696187 a 0.96998465,0.96767701 0 0 0 -0.397725,0.4077845 c -0.101226,0.222015 -0.04992,0.4110196 0.182966,0.6783451 0.07457,0.08544 0.172586,0.2310769 0.217355,0.3236369 0.07528,0.1559942 0.08107,0.1883578 0.08107,0.4401479 0,0.2427285 -0.0083,0.2880375 -0.07198,0.4246124 a 1.9256952,1.921114 0 0 1 -0.213461,0.3262269 c -0.16285,0.1980666 -0.220599,0.3191074 -0.220599,0.4589191 0.0012,0.2990405 0.380857,0.6776985 0.681912,0.6796405 0.197888,0.0012 0.378257,-0.113923 0.599505,-0.383189 A 2.5323416,2.5263166 0 0 0 12.349577,8.4032401 C 12.400816,8.1100243 12.369036,7.5922043 12.28407,7.3268213 12.101088,6.7585149 11.697518,6.225807 11.364676,6.1138283 11.229072,6.0678739 11.125259,6.0775802 10.979924,6.1500763 M 8.8394682,10.886197 c 0.027249,0.0246 -0.1810207,0.192235 -1.044599,0.838216 L 6.7165313,12.530917 V 9.2938956 l 1.0445985,0.7806164 c 0.5742051,0.429142 1.0595226,0.794204 1.0783384,0.811685"
     fill-rule="evenodd"
     id="path1"
     style="fill:#00d455" />
</svg>
