<?xml version="1.0" encoding="UTF-8" standalone="no"?>
<svg
   width="16"
   height="16"
   version="1.1"
   id="svg22"
   sodipodi:docname="yast-support.svg"
   inkscape:version="1.3.2 (091e20ef0f, 2023-11-25)"
   xmlns:inkscape="http://www.inkscape.org/namespaces/inkscape"
   xmlns:sodipodi="http://sodipodi.sourceforge.net/DTD/sodipodi-0.dtd"
   xmlns:xlink="http://www.w3.org/1999/xlink"
   xmlns="http://www.w3.org/2000/svg"
   xmlns:svg="http://www.w3.org/2000/svg">
  <sodipodi:namedview
     id="namedview22"
     pagecolor="#ffffff"
     bordercolor="#000000"
     borderopacity="0.25"
     inkscape:showpageshadow="2"
     inkscape:pageopacity="0.0"
     inkscape:pagecheckerboard="0"
     inkscape:deskcolor="#d1d1d1"
     inkscape:zoom="23.96875"
     inkscape:cx="7.1342894"
     inkscape:cy="7.9895698"
     inkscape:window-width="1920"
     inkscape:window-height="994"
     inkscape:window-x="0"
     inkscape:window-y="0"
     inkscape:window-maximized="1"
     inkscape:current-layer="svg22" />
  <defs
     id="defs22">
    <linearGradient
       id="linearGradient22"
       inkscape:collect="always">
      <stop
         style="stop-color:#ff5555;stop-opacity:1"
         offset="0"
         id="stop23" />
      <stop
         style="stop-color:#d35fbc;stop-opacity:1"
         offset="0.51714146"
         id="stop25" />
      <stop
         style="stop-color:#c83737;stop-opacity:1"
         offset="1"
         id="stop24" />
    </linearGradient>
    <style
       id="current-color-scheme"
       type="text/css">
   .ColorScheme-Text { color:#d5c289; } .ColorScheme-Highlight { color:#5294e2; }
  </style>
    <linearGradient
       id="arrongin"
       x1="0%"
       x2="0%"
       y1="0%"
       y2="100%">
      <stop
         offset="0%"
         style="stop-color:#dd9b44; stop-opacity:1"
         id="stop1" />
      <stop
         offset="100%"
         style="stop-color:#ad6c16; stop-opacity:1"
         id="stop2" />
    </linearGradient>
    <linearGradient
       id="aurora"
       x1="0%"
       x2="0%"
       y1="0%"
       y2="100%">
      <stop
         offset="0%"
         style="stop-color:#09D4DF; stop-opacity:1"
         id="stop3" />
      <stop
         offset="100%"
         style="stop-color:#9269F4; stop-opacity:1"
         id="stop4" />
    </linearGradient>
    <linearGradient
       id="fitdance"
       x1="0%"
       x2="0%"
       y1="0%"
       y2="100%">
      <stop
         offset="0%"
         style="stop-color:#1AD6AB; stop-opacity:1"
         id="stop5" />
      <stop
         offset="100%"
         style="stop-color:#329DB6; stop-opacity:1"
         id="stop6" />
    </linearGradient>
    <linearGradient
       id="oomox"
       x1="0"
       x2="0"
       y1="0"
       y2="16"
       gradientUnits="userSpaceOnUse"
       gradientTransform="matrix(0.9375,0,0,0.9375,0.5,0.5)">
      <stop
         offset="0%"
         style="stop-color:#303b3d; stop-opacity:1"
         id="stop7" />
      <stop
         offset="100%"
         style="stop-color:#bc985d; stop-opacity:1"
         id="stop8" />
    </linearGradient>
    <linearGradient
       id="rainblue"
       x1="0%"
       x2="0%"
       y1="0%"
       y2="100%">
      <stop
         offset="0%"
         style="stop-color:#00F260; stop-opacity:1"
         id="stop9" />
      <stop
         offset="100%"
         style="stop-color:#0575E6; stop-opacity:1"
         id="stop10" />
    </linearGradient>
    <linearGradient
       id="sunrise"
       x1="0%"
       x2="0%"
       y1="0%"
       y2="100%">
      <stop
         offset="0%"
         style="stop-color: #FF8501; stop-opacity:1"
         id="stop11" />
      <stop
         offset="100%"
         style="stop-color: #FFCB01; stop-opacity:1"
         id="stop12" />
    </linearGradient>
    <linearGradient
       id="telinkrin"
       x1="0%"
       x2="0%"
       y1="0%"
       y2="100%">
      <stop
         offset="0%"
         style="stop-color: #b2ced6; stop-opacity:1"
         id="stop13" />
      <stop
         offset="100%"
         style="stop-color: #6da5b7; stop-opacity:1"
         id="stop14" />
    </linearGradient>
    <linearGradient
       id="60spsycho"
       x1="0%"
       x2="0%"
       y1="0%"
       y2="100%">
      <stop
         offset="0%"
         style="stop-color: #df5940; stop-opacity:1"
         id="stop15" />
      <stop
         offset="25%"
         style="stop-color: #d8d15f; stop-opacity:1"
         id="stop16" />
      <stop
         offset="50%"
         style="stop-color: #e9882a; stop-opacity:1"
         id="stop17" />
      <stop
         offset="100%"
         style="stop-color: #279362; stop-opacity:1"
         id="stop18" />
    </linearGradient>
    <linearGradient
       id="90ssummer"
       x1="0%"
       x2="0%"
       y1="0%"
       y2="100%">
      <stop
         offset="0%"
         style="stop-color: #f618c7; stop-opacity:1"
         id="stop19" />
      <stop
         offset="20%"
         style="stop-color: #94ffab; stop-opacity:1"
         id="stop20" />
      <stop
         offset="50%"
         style="stop-color: #fbfd54; stop-opacity:1"
         id="stop21" />
      <stop
         offset="100%"
         style="stop-color: #0f83ae; stop-opacity:1"
         id="stop22" />
    </linearGradient>
    <linearGradient
       inkscape:collect="always"
       xlink:href="#linearGradient22"
       id="linearGradient24"
       x1="2.5396764"
       y1="13.145651"
       x2="13.570237"
       y2="2.9735036"
       gradientUnits="userSpaceOnUse"
       gradientTransform="matrix(0.86666672,0,0,0.86666672,1.0666664,1.0666664)" />
  </defs>
  <path
     style="fill:url(#linearGradient24);fill-opacity:1;stroke-width:0.8125"
     class="ColorScheme-Text"
     d="M 8,1.5 C 4.4055,1.5 1.5,4.4055 1.5,8 c 0,3.5945 2.9055,6.5 6.5,6.5 3.5945,0 6.5,-2.9055 6.5,-6.5 C 14.5,4.4055 11.5945,1.5 8,1.5 Z m 0,0.8125 c 3.144379,0 5.6875,2.543125 5.6875,5.6875 0,3.144379 -2.543121,5.6875 -5.6875,5.6875 C 4.855625,13.6875 2.3125,11.144379 2.3125,8 2.3125,4.855625 4.855625,2.3125 8,2.3125 Z m 0.051189,1.625 C 7.0339387,3.918 5.9679371,4.319375 5.6380637,5.105875 c -0.190125,0.437125 -0.00493,1.21875 0.635375,1.21875 0.3737484,0 0.5305622,-0.2559383 0.559,-0.482625 C 6.8535637,5.66975 6.7966887,5.52675 6.7560637,5.3845617 6.70975,5.222875 6.896625,4.90275 7.111125,4.7751883 7.2906867,4.66875 7.48975,4.62975 7.517375,4.62325 8.1633117,4.464 8.797875,4.8304383 9.0668117,5.2578133 9.3349383,5.6851867 9.0343117,6.327875 8.609375,6.9591883 8.1844367,7.5896867 7.7440633,8.3055 7.7465,9.066 c 0,0.2900633 -0.043872,0.3908117 -0.026,0.508625 0.014618,0.09345 0.3274383,0.09425 0.559,0.05038 C 8.259188,8.8880633 8.41275,8.151125 9.092,7.644125 9.809438,7.0713117 10.510629,6.357125 10.4375,5.5113133 10.42125,4.696375 9.480375,4.0545 8.482625,3.9626883 A 3.566875,3.566875 0 0 0 8.051189,3.9375 Z m -0.2795003,6.67794 c -0.4899396,0.12025 -0.7816276,0.742619 -0.4574396,1.14237 0.3315,0.50457 1.262625,0.368069 1.421875,-0.203119 C 8.901874,11.11025 8.486686,10.608129 7.974811,10.61544 c -0.077187,-0.0039 -0.1332501,-0.01708 -0.2031223,0 z"
     id="path22" />
</svg>
