<?xml version="1.0" encoding="UTF-8" standalone="no"?>
<svg
   width="16"
   height="16"
   version="1.1"
   viewBox="0 0 4.23325 4.23325"
   id="svg62"
   sodipodi:docname="preferences-desktop-theme-applications.svg"
   inkscape:version="1.3.2 (091e20ef0f, 2023-11-25)"
   xmlns:inkscape="http://www.inkscape.org/namespaces/inkscape"
   xmlns:sodipodi="http://sodipodi.sourceforge.net/DTD/sodipodi-0.dtd"
   xmlns:xlink="http://www.w3.org/1999/xlink"
   xmlns="http://www.w3.org/2000/svg"
   xmlns:svg="http://www.w3.org/2000/svg"
   xmlns:rdf="http://www.w3.org/1999/02/22-rdf-syntax-ns#"
   xmlns:cc="http://creativecommons.org/ns#"
   xmlns:dc="http://purl.org/dc/elements/1.1/">
  <sodipodi:namedview
     id="namedview64"
     pagecolor="#ffffff"
     bordercolor="#666666"
     borderopacity="1.0"
     inkscape:showpageshadow="2"
     inkscape:pageopacity="0.0"
     inkscape:pagecheckerboard="0"
     inkscape:deskcolor="#d1d1d1"
     showgrid="false"
     inkscape:zoom="11.256496"
     inkscape:cx="-12.970288"
     inkscape:cy="5.4635119"
     inkscape:window-width="1920"
     inkscape:window-height="994"
     inkscape:window-x="0"
     inkscape:window-y="0"
     inkscape:window-maximized="1"
     inkscape:current-layer="svg62">
    <inkscape:grid
       type="xygrid"
       id="grid293"
       originx="0"
       originy="0"
       spacingy="1"
       spacingx="1"
       units="px"
       visible="false" />
  </sodipodi:namedview>
  <defs
     id="defs18">
    <linearGradient
       id="linearGradient19"
       inkscape:collect="always">
      <stop
         style="stop-color:#00ccff;stop-opacity:1"
         offset="0"
         id="stop19" />
      <stop
         style="stop-color:#ff80e5;stop-opacity:1"
         offset="1"
         id="stop20" />
    </linearGradient>
    <linearGradient
       id="linearGradient12"
       x1="0"
       x2="0"
       y1="0"
       y2="1">
      <stop
         offset="0"
         style="stop-color:#ff67ff;stop-opacity:1;"
         id="stop11" />
      <stop
         offset="1"
         style="stop-color:#00ccff;stop-opacity:1"
         id="stop12" />
    </linearGradient>
    <linearGradient
       id="linearGradient6"
       x1="0"
       x2="0"
       y1="0"
       y2="1">
      <stop
         offset="0"
         style="stop-color:#ff7eff;stop-opacity:1;"
         id="stop4" />
      <stop
         offset="1"
         style="stop-color:#ffb380;stop-opacity:1"
         id="stop5" />
    </linearGradient>
    <filter
       id="filter1272-6"
       x="-0.094272248"
       y="-0.09046597"
       width="1.1885445"
       height="1.1809319"
       color-interpolation-filters="sRGB">
      <feGaussianBlur
         stdDeviation="0.39771105"
         id="feGaussianBlur2" />
    </filter>
    <filter
       id="filter1066-1"
       x="-0.063922502"
       y="-0.056531057"
       width="1.127845"
       height="1.1130621"
       color-interpolation-filters="sRGB">
      <feGaussianBlur
         stdDeviation="0.22705935"
         id="feGaussianBlur5" />
    </filter>
    <linearGradient
       id="linearGradient5352"
       x1="12.189"
       x2="13.579"
       y1="11.042"
       y2="12.031"
       gradientTransform="translate(-0.56907,-0.14784)"
       gradientUnits="userSpaceOnUse">
      <stop
         stop-color="#fee2a2"
         offset="0"
         id="stop8" />
      <stop
         stop-color="#f0a602"
         offset="1"
         id="stop10" />
    </linearGradient>
    <linearGradient
       id="linearGradient6573"
       x1="121.63"
       x2="121.63"
       y1="9.125"
       y2="6.4109001"
       gradientTransform="matrix(1.9521,0,0,1.9521,-237.5,-7.2503)"
       gradientUnits="userSpaceOnUse">
      <stop
         stop-color="#fe650b"
         offset="0"
         id="stop13" />
      <stop
         stop-color="#fe8e00"
         offset="1"
         id="stop15" />
    </linearGradient>
    <linearGradient
       id="linearGradient4141">
      <stop
         style="stop-color:#d8610f;stop-opacity:1"
         offset="0"
         id="stop7" />
      <stop
         style="stop-color:#eab355;stop-opacity:1"
         offset="1"
         id="stop9" />
    </linearGradient>
    <linearGradient
       id="linearGradient28"
       x1="0"
       x2="0"
       y1="0"
       y2="1">
      <stop
         offset="0"
         style="stop-color:#00d3d3;stop-opacity:1;"
         id="stop27" />
      <stop
         offset="1"
         style="stop-color:#ac8adf;stop-opacity:1;"
         id="stop28" />
    </linearGradient>
    <linearGradient
       id="paint0_linear_619_31"
       x1="41.5"
       y1="98"
       x2="98.5"
       y2="25"
       gradientUnits="userSpaceOnUse"
       gradientTransform="matrix(0.0150711,0.01555558,-0.01561607,0.01501272,1.8876953,0.3612226)"
       spreadMethod="pad">
      <stop
         stop-color="#F35C58"
         id="stop1" />
      <stop
         offset="0.572864"
         stop-color="#BA09B2"
         id="stop2"
         style="stop-color:#f536ed;stop-opacity:1;" />
      <stop
         offset="1"
         stop-color="#7900D9"
         id="stop3"
         style="stop-color:#c57cff;stop-opacity:1;" />
    </linearGradient>
    <linearGradient
       inkscape:collect="always"
       xlink:href="#linearGradient12"
       id="linearGradient11"
       x1="0.52916026"
       y1="2.1166251"
       x2="3.7040896"
       y2="2.1166251"
       gradientUnits="userSpaceOnUse"
       gradientTransform="matrix(1.0833334,0,0,1.0833334,-0.17200785,-0.18198316)" />
    <linearGradient
       inkscape:collect="always"
       xlink:href="#linearGradient5352"
       id="linearGradient18"
       x1="1.7681675"
       y1="2.1217844"
       x2="2.4569964"
       y2="2.1217844"
       gradientUnits="userSpaceOnUse"
       gradientTransform="matrix(1.0833334,0,0,1.0833334,-0.17200785,-0.18198316)" />
    <linearGradient
       inkscape:collect="always"
       xlink:href="#linearGradient19"
       id="linearGradient20"
       x1="0.5291549"
       y1="1.239241"
       x2="1.9524799"
       y2="1.239241"
       gradientUnits="userSpaceOnUse"
       gradientTransform="matrix(1.0833334,0,0,1.0833334,-0.17200785,-0.18198316)" />
  </defs>
  <metadata
     id="metadata20">
    <rdf:RDF>
      <cc:Work
         rdf:about="">
        <dc:format>image/svg+xml</dc:format>
        <dc:type
           rdf:resource="http://purl.org/dc/dcmitype/StillImage" />
      </cc:Work>
    </rdf:RDF>
  </metadata>
  <path
     d="M 1.7728833,1.7696262 C 1.8203108,1.7221988 1.8788896,1.6864591 1.9431787,1.6644923 L 0.58564837,0.42009022 c -0.043463,-0.039702 -0.11050761,-0.0382241 -0.15215791,0.00343 -0.04165,0.04165 -0.0431276,0.10869378 -0.00342,0.15215788 L 1.6713807,1.9297868 c 0.022235,-0.060393 0.057168,-0.1158147 0.1015076,-0.1601525 z"
     id="path1"
     style="fill:url(#linearGradient20);stroke-width:1.0833" />
  <path
     class="cls-1"
     d="m 1.8435545,1.8402979 c -0.091024,0.091024 -0.1311985,0.2417733 -0.072489,0.381167 0.020083,0.044605 0.049109,0.083571 0.084312,0.1152776 0.072953,0.065634 0.1713034,0.095457 0.2690468,0.085921 0.1176959,-0.011484 0.1754018,0.00358 0.2755642,0.056429 l 0.01236,0.00767 c 0.030967,0.019215 0.071273,-0.00134 0.073895,-0.037688 l 10e-4,-0.014515 c 0.00165,-0.023173 0.0025,-0.047429 0.0025,-0.072417 0,-0.1839328 -0.046151,-0.408307 -0.157465,-0.5294959 -0.1109805,-0.119044 -0.34832,-0.1328156 -0.4887889,0.00766 z"
     id="path2"
     style="fill:url(#linearGradient18);stroke-width:0px" />
  <path
     class="cls-1"
     d="m 2.1209991,0.39127061 c -0.3823768,0 -0.7356654,0.12495092 -1.0212384,0.33609104 L 1.4375309,1.0369843 c 0.026534,-0.11480684 0.1291159,-0.20012271 0.2521187,-0.20012271 0.1432232,0 0.2588369,0.11561347 0.2588369,0.25883661 0,0.1151427 -0.074706,0.2123489 -0.1784246,0.2460721 l 0.2548054,0.2335779 0.047295,0.043399 c 0.00785,-3.35e-4 0.01572,-5.371e-4 0.023647,-5.371e-4 0.1283768,0 0.2468118,0.048099 0.3250069,0.1320044 l 2.722e-4,3.355e-4 2.72e-4,3.356e-4 c 0.065232,0.071005 0.1150757,0.1690862 0.1481275,0.2914174 0.026936,0.099755 0.041182,0.2103341 0.041182,0.3198341 0,0.027946 -9.48e-4,0.055222 -0.0028,0.081015 l -10e-4,0.014514 c -0.00633,0.088207 -0.08055,0.1573309 -0.1690196,0.1573309 -0.031441,0 -0.062274,-0.00882 -0.089148,-0.025524 l -0.00876,-0.00536 C 2.2738983,2.549514 2.2413133,2.539974 2.1907983,2.539974 c -0.01572,0 -0.033585,10e-4 -0.054686,0.00299 -0.01572,0.00152 -0.031709,0.00231 -0.047491,0.00231 -0.1175615,0 -0.2291439,-0.04212 -0.3141909,-0.1187033 -0.048634,-0.043732 -0.086858,-0.096067 -0.1136642,-0.1554513 l -6.066e-4,-0.00139 -6.069e-4,-0.0014 C 1.6310739,2.2007148 1.6189154,2.1284983 1.6234162,2.0563491 L 1.5821694,2.0113404 1.4250408,1.8399021 c -0.02479,0.1171582 -0.1285117,0.2047586 -0.2531938,0.2047586 -0.143223,0 -0.258836,-0.1156132 -0.258836,-0.2588369 0,-0.1324075 0.098889,-0.2411683 0.226994,-0.2568206 L 0.73727301,1.089658 C 0.5262001,1.3754329 0.40124915,1.7286543 0.40124915,2.1110305 c 0,0.9496942 0.77006025,1.7197541 1.71975385,1.7197541 0.1586073,0 0.2866483,-0.1280409 0.2866483,-0.2866482 0,-0.0745 -0.027678,-0.141409 -0.0745,-0.1920615 -0.044874,-0.050655 -0.071676,-0.1165532 -0.071676,-0.1901135 0,-0.1586065 0.1280409,-0.286648 0.2866477,-0.286648 h 0.3372325 c 0.527414,0 0.9554039,-0.4280572 0.9554039,-0.9554036 0,-0.8445604 -0.7700597,-1.52863309 -1.719754,-1.52863309 z M 1.2061701,2.8956627 c -0.1432231,0 -0.2588359,-0.1156135 -0.2588359,-0.2588367 0,-0.1432233 0.1156128,-0.2588361 0.2588359,-0.2588361 0.1432239,0 0.2588369,0.1156128 0.2588369,0.2588361 0,0.1432232 -0.115613,0.2588367 -0.2588369,0.2588367 z M 2.5524155,1.3546013 c -0.143223,0 -0.2588366,-0.115613 -0.2588366,-0.2588361 0,-0.14322324 0.1156136,-0.25883642 0.2588366,-0.25883642 0.1432232,0 0.2588362,0.11561318 0.2588362,0.25883642 0,0.1432231 -0.115613,0.2588361 -0.2588362,0.2588361 z m 0.5176729,0.6902532 c -0.143223,0 -0.2588367,-0.1156131 -0.2588367,-0.2588368 0,-0.1432231 0.1156137,-0.2588359 0.2588367,-0.2588359 0.1432231,0 0.2588359,0.1156128 0.2588359,0.2588359 0,0.1432237 -0.1156128,0.2588368 -0.2588359,0.2588368 z"
     id="path3"
     style="fill:url(#linearGradient11);stroke-width:0px" />
</svg>
