<?xml version="1.0" encoding="UTF-8" standalone="no"?>
<svg
   height="16"
   width="16"
   version="1.1"
   id="svg285"
   sodipodi:docname="preferences-desktop.svg"
   inkscape:version="1.3.2 (091e20ef0f, 2023-11-25)"
   xmlns:inkscape="http://www.inkscape.org/namespaces/inkscape"
   xmlns:sodipodi="http://sodipodi.sourceforge.net/DTD/sodipodi-0.dtd"
   xmlns:xlink="http://www.w3.org/1999/xlink"
   xmlns="http://www.w3.org/2000/svg"
   xmlns:svg="http://www.w3.org/2000/svg">
  <defs
     id="defs289">
    <linearGradient
       id="linearGradient4"
       inkscape:collect="always">
      <stop
         style="stop-color:#ff6cff;stop-opacity:1;"
         offset="0"
         id="stop3" />
      <stop
         style="stop-color:#ffe26d;stop-opacity:1;"
         offset="1"
         id="stop4" />
    </linearGradient>
    <linearGradient
       id="linearGradient1550"
       gradientUnits="userSpaceOnUse"
       x1="7"
       x2="7"
       y1="14"
       y2="6"
       gradientTransform="translate(-40.378594,-12.186482)">
      <stop
         offset="0"
         stop-color="#eff0f1"
         id="stop1546"
         style="stop-color:#ffffff;stop-opacity:1;" />
      <stop
         offset="1"
         stop-color="#fcfcfc"
         id="stop1548" />
    </linearGradient>
    <linearGradient
       id="a-8"
       gradientUnits="userSpaceOnUse"
       x1="9.7101107"
       x2="16.78154"
       y1="7.142858"
       y2="14.214287">
      <stop
         offset="0"
         stop-color="#292c2f"
         id="stop2119-7" />
      <stop
         offset="1"
         stop-opacity="0"
         id="stop2121-9" />
    </linearGradient>
    <linearGradient
       id="b-2"
       gradientUnits="userSpaceOnUse"
       x1="8"
       x2="8"
       y1="13"
       y2="5">
      <stop
         offset="0"
         stop-color="#eff0f1"
         id="stop2124-0" />
      <stop
         offset="1"
         stop-color="#fcfcfc"
         id="stop2126-2" />
    </linearGradient>
    <linearGradient
       id="linearGradient762"
       gradientUnits="userSpaceOnUse"
       x1="6.3750029"
       x2="15.75002"
       y1="8.0000124"
       y2="17.37501"
       gradientTransform="translate(-40.378594,-12.186482)">
      <stop
         offset="0"
         id="stop226-3" />
      <stop
         offset="1"
         stop-opacity="0"
         id="stop228-6" />
    </linearGradient>
    <linearGradient
       id="linearGradient766"
       gradientUnits="userSpaceOnUse"
       x1="7"
       x2="7"
       y1="14"
       y2="6"
       gradientTransform="translate(-40.378594,-12.186482)">
      <stop
         offset="0"
         stop-color="#eff0f1"
         id="stop231-7" />
      <stop
         offset="1"
         stop-color="#fcfcfc"
         id="stop233-5" />
    </linearGradient>
    <linearGradient
       id="b-3"
       gradientTransform="matrix(-0.99995452,0,0,1,21.919681,0)"
       gradientUnits="userSpaceOnUse"
       x1="8.9200869"
       x2="11.920223"
       y1="11"
       y2="8">
      <stop
         offset="0"
         stop-color="#f3f3f3"
         id="stop7" />
      <stop
         offset="1"
         stop-color="#fcfcfc"
         stop-opacity="0"
         id="stop9" />
    </linearGradient>
    <linearGradient
       id="a-3-2-6"
       gradientUnits="userSpaceOnUse"
       x1="7"
       x2="7"
       y1="13"
       y2="5">
      <stop
         offset="0"
         stop-color="#f0f0f0"
         id="stop2-5-9-2" />
      <stop
         offset="1"
         stop-color="#fcfcfc"
         id="stop4-6-1-6" />
    </linearGradient>
    <linearGradient
       id="c-3"
       gradientUnits="userSpaceOnUse"
       x1="11.072659"
       x2="10.958864"
       y1="19.88957"
       y2="1.993852"
       gradientTransform="matrix(1.888889,0,0,1.888889,-119.04897,29.730695)">
      <stop
         offset="0"
         stop-color="#197cf1"
         id="stop12" />
      <stop
         offset="1"
         stop-color="#21c9fb"
         id="stop14" />
    </linearGradient>
    <linearGradient
       inkscape:collect="always"
       xlink:href="#linearGradient4"
       id="linearGradient3"
       x1="10.428316"
       y1="5.5716839"
       x2="7.112062"
       y2="8.8086691"
       gradientUnits="userSpaceOnUse"
       gradientTransform="matrix(1.0833339,0,0,1.0833339,-0.6665964,-0.66666973)" />
    <linearGradient
       inkscape:collect="always"
       xlink:href="#linearGradient4"
       id="linearGradient6"
       gradientUnits="userSpaceOnUse"
       x1="2.0000086"
       y1="14"
       x2="11.499137"
       y2="4.7730203"
       gradientTransform="matrix(1.0833339,0,0,1.0833339,-0.6665964,-0.66666973)" />
  </defs>
  <sodipodi:namedview
     id="namedview287"
     pagecolor="#ffffff"
     bordercolor="#666666"
     borderopacity="1.0"
     inkscape:showpageshadow="2"
     inkscape:pageopacity="0.0"
     inkscape:pagecheckerboard="0"
     inkscape:deskcolor="#d1d1d1"
     showgrid="false"
     inkscape:zoom="31.83818"
     inkscape:cx="7.1298045"
     inkscape:cy="9.721033"
     inkscape:window-width="1920"
     inkscape:window-height="994"
     inkscape:window-x="0"
     inkscape:window-y="0"
     inkscape:window-maximized="1"
     inkscape:current-layer="svg285" />
  <linearGradient
     id="a"
     gradientUnits="userSpaceOnUse"
     x1="6.3750029"
     x2="15.75002"
     y1="8.0000124"
     y2="17.37501"
     gradientTransform="translate(-40.378594,-12.186482)">
    <stop
       offset="0"
       id="stop226" />
    <stop
       offset="1"
       stop-opacity="0"
       id="stop228" />
  </linearGradient>
  <linearGradient
     id="b"
     gradientUnits="userSpaceOnUse"
     x1="7"
     x2="7"
     y1="14"
     y2="6"
     gradientTransform="translate(-40.378594,-12.186482)">
    <stop
       offset="0"
       stop-color="#eff0f1"
       id="stop231" />
    <stop
       offset="1"
       stop-color="#fcfcfc"
       id="stop233" />
  </linearGradient>
  <linearGradient
     id="c"
     gradientTransform="matrix(1,0,0,1.0285724,-1e-5,-14.394733)"
     gradientUnits="userSpaceOnUse"
     x1="418.16971"
     x2="384.57144"
     y1="503.07938"
     y2="531.45813">
    <stop
       offset="0"
       stop-color="#1abc9c"
       id="stop236" />
    <stop
       offset="1"
       stop-color="#2980b9"
       id="stop238" />
  </linearGradient>
  <linearGradient
     id="d"
     gradientUnits="userSpaceOnUse"
     x1="29.85095"
     x2="54.317608"
     y1="22.348566"
     y2="28.506302">
    <stop
       offset="0"
       stop-color="#cc4a5e"
       id="stop241" />
    <stop
       offset="1"
       stop-color="#aa478a"
       id="stop243" />
  </linearGradient>
  <linearGradient
     id="e"
     gradientUnits="userSpaceOnUse"
     x1="24.393862"
     x2="20.645596"
     xlink:href="#f"
     y1="41.223652"
     y2="25.34318" />
  <linearGradient
     id="f">
    <stop
       offset="0"
       stop-color="#334545"
       id="stop247" />
    <stop
       offset="1"
       stop-color="#536161"
       id="stop249" />
  </linearGradient>
  <linearGradient
     id="g"
     gradientTransform="matrix(-1,0,0,1,839.14285,-40.00001)"
     gradientUnits="userSpaceOnUse"
     x1="430.57141"
     x2="440.17142"
     xlink:href="#f"
     y1="569.97992"
     y2="562.49939" />
  <linearGradient
     id="h"
     gradientTransform="matrix(-0.41666647,0,0,0.53472146,190.40467,-283.78051)"
     gradientUnits="userSpaceOnUse"
     x1="430.57141"
     x2="440.17142"
     xlink:href="#f"
     y1="569.97992"
     y2="562.49939" />
  <linearGradient
     id="i"
     gradientTransform="matrix(-0.41666647,0,0,0.53472146,194.40467,-286.3305)"
     gradientUnits="userSpaceOnUse"
     x1="430.57141"
     x2="440.17142"
     xlink:href="#f"
     y1="569.97992"
     y2="562.49939" />
  <path
     d="M 7.9997492,2.8021724 A 0.64976952,0.64976952 0 0 0 7.349984,3.4519384 c 0,1.0994041 -1.3294329,1.6504056 -2.1072071,0.8726442 A 0.64976952,0.64976952 0 1 0 4.3240025,5.2433584 c 0.7777839,0.77778 0.2274091,2.1072022 -0.8726441,2.1072022 a 0.64976952,0.64976952 0 1 0 0,1.299532 c 1.0994032,0 1.6504118,1.3294308 0.8726441,2.1072014 A 0.64976952,0.64976952 0 0 0 5.2427769,11.67607 C 6.0205608,10.898295 7.349984,11.448642 7.349984,12.548713 a 0.64976952,0.64976952 0 1 0 1.2995274,0 c 0,-1.099402 1.3294317,-1.650404 2.1071986,-0.872643 a 0.64976952,0.64976952 0 1 0 0.918784,-0.918776 C 10.897725,9.9795254 11.448076,8.6500982 12.548136,8.6500982 a 0.64976952,0.64976952 0 1 0 0,-1.2995322 c -1.099405,0 -1.650405,-1.3294315 -0.872643,-2.1072023 A 0.64976952,0.64976952 0 0 0 10.756716,4.3245828 C 9.9789431,5.102357 8.6495146,4.5520017 8.6495146,3.451942 A 0.64976952,0.64976952 0 0 0 7.9997492,2.8021724 Z M 6.0556348,3.3070418 a 1.9493092,1.9493092 0 0 1 3.8882213,0 1.9493092,1.9493092 0 0 1 2.7485279,2.7491746 1.9493092,1.9493092 0 0 1 0.0012,3.888219 1.9493092,1.9493092 0 0 1 -2.7491779,2.7485286 1.9493092,1.9493092 0 0 1 -3.8882204,0 1.9493092,1.9493092 0 0 1 -2.7491711,-2.7485286 1.9493092,1.9493092 0 0 1 0,-3.888219 1.9493092,1.9493092 0 0 1 2.7491711,-2.7491746 z"
     id="path1"
     style="fill:url(#linearGradient6);stroke-width:0.649761" />
  <path
     d="m 7.9997492,6.7007904 a 1.2995398,1.2995398 0 1 0 0,2.5990775 1.2995398,1.2995398 0 0 0 0,-2.5990775 z M 6.1622004,6.1627803 A 2.5990782,2.5990782 0 1 1 9.8372991,9.8378754 2.5990782,2.5990782 0 0 1 6.1622004,6.1627803 Z"
     id="path2"
     style="fill:url(#linearGradient3);stroke-width:0.649761" />
</svg>
