<?xml version="1.0" encoding="UTF-8" standalone="no"?>
<svg
   style="isolation:isolate"
   width="16"
   height="16"
   viewBox="0 0 16 16"
   version="1.1"
   id="svg2"
   sodipodi:docname="window-duplicate.svg"
   inkscape:version="1.3.2 (091e20ef0f, 2023-11-25)"
   xmlns:inkscape="http://www.inkscape.org/namespaces/inkscape"
   xmlns:sodipodi="http://sodipodi.sourceforge.net/DTD/sodipodi-0.dtd"
   xmlns:xlink="http://www.w3.org/1999/xlink"
   xmlns="http://www.w3.org/2000/svg"
   xmlns:svg="http://www.w3.org/2000/svg">
  <defs
     id="defs2">
    <linearGradient
       id="linearGradient1"
       inkscape:collect="always">
      <stop
         style="stop-color:#ffb380;stop-opacity:1;"
         offset="0"
         id="stop1" />
      <stop
         style="stop-color:#ff42ff;stop-opacity:1;"
         offset="1"
         id="stop2" />
    </linearGradient>
    <linearGradient
       inkscape:collect="always"
       xlink:href="#linearGradient1"
       id="linearGradient2"
       x1="2"
       y1="15"
       x2="14"
       y2="2"
       gradientUnits="userSpaceOnUse"
       gradientTransform="matrix(1.0909094,0,0,1.083377,-0.72727323,-0.66675351)" />
  </defs>
  <sodipodi:namedview
     id="namedview2"
     pagecolor="#ffffff"
     bordercolor="#000000"
     borderopacity="0.25"
     inkscape:showpageshadow="2"
     inkscape:pageopacity="0.0"
     inkscape:pagecheckerboard="0"
     inkscape:deskcolor="#d1d1d1"
     inkscape:zoom="16.948466"
     inkscape:cx="12.449504"
     inkscape:cy="5.5167235"
     inkscape:window-width="1920"
     inkscape:window-height="994"
     inkscape:window-x="0"
     inkscape:window-y="0"
     inkscape:window-maximized="1"
     inkscape:current-layer="svg2"
     showgrid="false">
    <inkscape:grid
       id="grid1"
       units="px"
       originx="0"
       originy="0"
       spacingx="1"
       spacingy="1"
       empcolor="#0099e5"
       empopacity="0.30196078"
       color="#0099e5"
       opacity="0.14901961"
       empspacing="5"
       dotted="false"
       gridanglex="30"
       gridanglez="30"
       visible="false" />
  </sodipodi:namedview>
  <path
     d="M 11.13823,4.980637 H 2.7771652 c -0.4286155,0 -0.7771651,0.3349144 -0.7771651,0.7466343 v 8.0260967 c 0,0.411745 0.3485496,0.746632 0.7771651,0.746632 H 11.13823 c 0.428472,0 0.777132,-0.334912 0.777132,-0.746632 V 5.7271108 c 0,-0.4117192 -0.348685,-0.7464738 -0.777132,-0.7464738 z m -0.526587,0.8498239 c 0.183781,0 0.332779,0.1432604 0.332779,0.3198685 0,0.1768472 -0.149162,0.3200273 -0.332779,0.3200273 -0.184124,0 -0.333092,-0.14318 -0.333092,-0.3200273 0,-0.1766081 0.148968,-0.3198685 0.333092,-0.3198685 z m -1.1932906,0 c 0.1841164,0 0.3329198,0.1432604 0.3329198,0.3198685 0,0.1768472 -0.1489685,0.3200273 -0.3329198,0.3200273 -0.183783,0 -0.3327801,-0.14318 -0.3327801,-0.3200273 0,-0.1766081 0.1489971,-0.3198685 0.3327801,-0.3198685 z M 11.027462,13.646465 H 2.888074 V 7.2648776 h 8.139052 V 13.646465 Z M 13.223031,1.5000001 H 4.8618021 c -0.4285322,0 -0.7769981,0.334861 -0.7769981,0.7466339 V 4.4422774 H 4.9726278 V 3.7843206 H 13.111924 V 10.165963 H 12.82345 v 0.8534 h 0.399418 C 13.651314,11.019363 14,10.68426 14,10.272731 V 2.2464739 C 14.00017,1.8347013 13.651483,1.5000001 13.223031,1.5000001 Z m -1.719708,1.4897467 c -0.184117,0 -0.332915,-0.1432602 -0.332915,-0.3198677 0,-0.176688 0.148961,-0.3199483 0.332915,-0.3199483 0.183788,0 0.332782,0.1432603 0.332782,0.3199483 0,0.1766075 -0.148994,0.3198677 -0.332782,0.3198677 z m 1.19312,0 c -0.184286,0 -0.333116,-0.1432602 -0.333116,-0.3198677 0,-0.176688 0.149167,-0.3199483 0.333116,-0.3199483 0.183785,0 0.332617,0.1432603 0.332617,0.3199483 3.63e-4,0.1766075 -0.148806,0.3198677 -0.332617,0.3198677 z"
     id="path1-3"
     style="fill:url(#linearGradient2);stroke-width:0.0272144" />
</svg>
