<?xml version="1.0" encoding="UTF-8" standalone="no"?>
<svg
   width="32"
   version="1.1"
   height="32"
   viewBox="0 0 32 32"
   id="svg80"
   sodipodi:docname="ktimetracker.svg"
   inkscape:version="1.3.2 (091e20ef0f, 2023-11-25)"
   xmlns:inkscape="http://www.inkscape.org/namespaces/inkscape"
   xmlns:sodipodi="http://sodipodi.sourceforge.net/DTD/sodipodi-0.dtd"
   xmlns:xlink="http://www.w3.org/1999/xlink"
   xmlns="http://www.w3.org/2000/svg"
   xmlns:svg="http://www.w3.org/2000/svg">
  <sodipodi:namedview
     id="namedview82"
     pagecolor="#ffffff"
     bordercolor="#666666"
     borderopacity="1.0"
     inkscape:showpageshadow="2"
     inkscape:pageopacity="0.0"
     inkscape:pagecheckerboard="0"
     inkscape:deskcolor="#d1d1d1"
     showgrid="true"
     inkscape:zoom="13.906434"
     inkscape:cx="18.480655"
     inkscape:cy="10.354919"
     inkscape:window-width="1920"
     inkscape:window-height="994"
     inkscape:window-x="0"
     inkscape:window-y="0"
     inkscape:window-maximized="1"
     inkscape:current-layer="svg80"
     showguides="false">
    <inkscape:grid
       id="grid1"
       units="px"
       originx="0"
       originy="0"
       spacingx="1"
       spacingy="1"
       empcolor="#0099e5"
       empopacity="0.30196078"
       color="#0099e5"
       opacity="0.14901961"
       empspacing="5"
       dotted="false"
       gridanglex="30"
       gridanglez="30"
       visible="true" />
  </sodipodi:namedview>
  <defs
     id="defs28">
    <linearGradient
       id="linearGradient5032">
      <stop
         id="stop2" />
      <stop
         offset="1"
         style="stop-opacity:0"
         id="stop4" />
    </linearGradient>
    <linearGradient
       id="linearGradient4918">
      <stop
         style="stop-color:#3daefd"
         id="stop7" />
      <stop
         offset="1"
         style="stop-color:#24a058"
         id="stop9" />
    </linearGradient>
    <linearGradient
       id="linearGradient4909">
      <stop
         style="stop-color:#2c3e50"
         id="stop12" />
      <stop
         offset="1"
         style="stop-color:#0d352d"
         id="stop14" />
    </linearGradient>
    <linearGradient
       id="linearGradient4303">
      <stop
         style="stop-color:#c6cdd1"
         id="stop17" />
      <stop
         offset="1"
         style="stop-color:#e0e5e7"
         id="stop19" />
    </linearGradient>
    <linearGradient
       xlink:href="#linearGradient4303"
       id="linearGradient4174-5"
       y1="543.79797"
       y2="503.798"
       x2="0"
       gradientUnits="userSpaceOnUse"
       gradientTransform="translate(-817.14285)" />
    <linearGradient
       xlink:href="#linearGradient4909"
       id="linearGradient4915"
       y1="509.548"
       x1="-398.634"
       y2="539.17297"
       x2="-416.57101"
       gradientUnits="userSpaceOnUse" />
    <linearGradient
       xlink:href="#linearGradient4918"
       id="linearGradient4924"
       y1="12.42"
       x1="9.2679996"
       y2="38.819"
       x2="35.667"
       gradientUnits="userSpaceOnUse" />
    <linearGradient
       xlink:href="#linearGradient4303"
       id="linearGradient4982"
       y1="500.798"
       y2="503.798"
       x2="0"
       gradientUnits="userSpaceOnUse" />
    <linearGradient
       xlink:href="#linearGradient4303"
       id="linearGradient4990"
       x1="411.57101"
       x2="405.57101"
       gradientUnits="userSpaceOnUse" />
    <linearGradient
       xlink:href="#linearGradient5032"
       id="linearGradient5038"
       y1="10"
       x1="10"
       y2="22"
       x2="22"
       gradientUnits="userSpaceOnUse" />
    <linearGradient
       id="linearGradient1902"
       x1="32"
       x2="32"
       y1="2.0005"
       y2="61.905998"
       gradientUnits="userSpaceOnUse"
       gradientTransform="matrix(0.7,0,0,0.7,-57.247299,37.125426)">
      <stop
         stop-color="#f5f5f5"
         offset="0"
         id="stop311" />
      <stop
         stop-color="#dcdcdc"
         offset="1"
         id="stop313" />
    </linearGradient>
    <linearGradient
       id="c"
       gradientUnits="userSpaceOnUse"
       x1="4"
       x2="4"
       y1="3"
       y2="45"
       gradientTransform="translate(-63.371835,-19.854889)">
      <stop
         offset="0"
         stop-color="#21c9fb"
         id="stop12-3" />
      <stop
         offset="1"
         stop-color="#197cf1"
         id="stop14-6" />
    </linearGradient>
    <linearGradient
       xlink:href="#linearGradient4303"
       id="linearGradient4982-7"
       y1="500.798"
       y2="503.798"
       x2="0"
       gradientUnits="userSpaceOnUse"
       gradientTransform="matrix(0.4119693,0,0,0.4119693,-168.16239,-201.39951)" />
    <linearGradient
       xlink:href="#linearGradient4303"
       id="linearGradient4990-5"
       x1="411.57101"
       x2="405.57101"
       gradientUnits="userSpaceOnUse"
       gradientTransform="matrix(0.75005284,0,0,0.75005284,-284.34916,-388.55393)" />
    <linearGradient
       xlink:href="#linearGradient4303"
       id="linearGradient4174-5-6"
       y1="543.79797"
       y2="503.798"
       x2="0"
       gradientUnits="userSpaceOnUse"
       gradientTransform="matrix(1.0499627,0,0,1.05,-456.9855,-521.98999)" />
    <linearGradient
       xlink:href="#linearGradient4909"
       id="linearGradient4915-2"
       y1="509.548"
       x1="-398.634"
       y2="539.17297"
       x2="-416.57101"
       gradientUnits="userSpaceOnUse"
       gradientTransform="matrix(1.0499627,0,0,1.05,509.71067,-519.1045)" />
    <linearGradient
       xlink:href="#linearGradient4918"
       id="linearGradient4924-2"
       y1="12.42"
       x1="9.2679996"
       y2="38.819"
       x2="35.667"
       gradientUnits="userSpaceOnUse"
       gradientTransform="matrix(0.74999716,0,0,0.750108,-2.7499433,-2.0008645)" />
    <linearGradient
       xlink:href="#linearGradient5032"
       id="linearGradient5038-9"
       y1="10"
       x1="10"
       y2="22"
       x2="22"
       gradientUnits="userSpaceOnUse"
       gradientTransform="matrix(1.0499627,0,0,1.05,-105.92501,5.6833956)" />
  </defs>
  <rect
     width="4.5003181"
     x="19.84973"
     y="-12.927632"
     rx="0.75005239"
     height="1.5001048"
     style="fill:url(#linearGradient4990-5);stroke-width:1.50008;stroke-linecap:round;stroke-linejoin:round"
     id="rect38-7"
     transform="matrix(0.7070545,0.70715906,-0.7070545,0.70715906,0,0)" />
  <path
     style="fill:url(#linearGradient4924-2);stroke-width:2.1001;stroke-opacity:0.550265"
     d="m 15.249981,4 c -0.381004,0 -0.754678,0.028593 -1.124996,0.067426 v 2.2620437 c 0.36966,-0.045369 0.742561,-0.079155 1.124996,-0.079155 0.381376,0 0.75528,0.026842 1.124993,0.068859 V 4.0556748 C 16.004323,4.0214648 15.629854,3.9999968 15.249981,4 Z m 2.002429,0.1787128 -0.585929,2.1843993 c 0.757501,0.1096669 1.486985,0.3019617 2.176761,0.574301 L 19.42769,4.7574194 C 18.730641,4.4996048 18.004508,4.3043566 17.25241,4.1787128 Z m 2.995602,0.9142009 -1.127939,1.9529173 c 0.696684,0.3001168 1.344695,0.685957 1.945313,1.13249 L 22.197709,6.2151515 C 21.587588,5.7819516 20.93603,5.4073585 20.248012,5.0929137 Z M 13.640123,5.6379171 C 12.895779,5.7531666 12.165997,5.9481608 11.463373,6.219545 L 11.65673,6.9388876 C 12.358109,6.6634292 13.089062,6.4702137 13.834941,6.3631239 Z M 11.007808,6.4041432 C 10.320865,6.7094487 9.6686912,7.0876466 9.0625015,7.5322357 L 9.4389656,8.1841832 C 10.042865,7.7357127 10.696624,7.3586404 11.387197,7.0604879 Z m 11.901815,0.3457501 -1.605458,1.6057033 c 0.590258,0.4674369 1.123442,1.000704 1.590795,1.5910488 L 24.500434,8.3409452 C 24.021093,7.7619093 23.488565,7.2293058 22.909623,6.7498933 Z M 8.6699233,7.8296402 C 8.0829061,8.2998621 7.5481024,8.8317989 7.0747154,9.4162953 L 7.6137751,9.9554375 C 8.0781704,9.3633171 8.609537,8.8269567 9.1972683,8.3570605 Z M 25.035098,9.052962 23.072204,10.185451 c 0.446225,0.600365 0.83235,1.247799 1.132344,1.944129 l 1.952637,-1.12663 C 25.842797,10.314844 25.468236,9.6631705 25.035098,9.052962 Z M 6.7817471,9.8133262 c -0.443181,0.6074048 -0.819851,1.2606588 -1.123531,1.9485198 l 0.6445271,0.373592 c 0.3010675,-0.690077 0.6810473,-1.342957 1.1323204,-1.945593 z m 19.7108739,2.0100558 -2.179687,0.584555 c 0.272311,0.689859 0.464565,1.419462 0.574214,2.17707 l 2.18407,-0.586018 C 26.945592,13.246786 26.750401,12.520552 26.492621,11.823382 Z M 5.4575327,12.213084 C 5.1882822,12.915569 4.9952732,13.64496 4.8818506,14.388686 l 0.7338845,0.196307 c 0.108259,-0.74511 0.3024087,-1.475178 0.5786095,-2.175605 z m 6.4174593,0.788205 c -0.207758,0 -0.375002,0.167301 -0.375002,0.375051 0,0.207772 0.16723,0.375055 0.375002,0.375055 h 0.749995 c 0.207747,0 0.375,-0.167311 0.375,-0.375055 0,-0.20777 -0.167218,-0.375051 -0.375,-0.375051 z m 5.999975,0 c -0.207743,0 -0.374993,0.167301 -0.374993,0.375051 0,0.207772 0.167238,0.375055 0.374993,0.375055 h 0.75 c 0.207746,0 0.374996,-0.167311 0.374996,-0.375055 0,-0.20777 -0.167283,-0.375051 -0.374996,-0.375051 z m 3.750006,0 c -0.20787,0 -0.375019,0.167301 -0.375019,0.375051 0,0.207772 0.16739,0.375055 0.375019,0.375055 h 0.749981 c 0.207866,0 0.374996,-0.167311 0.374996,-0.375055 0,-0.20777 -0.167384,-0.375051 -0.374996,-0.375051 z M 9.6249974,13.751395 c -0.2077507,0 -0.3749968,0.167302 -0.3749968,0.375055 v 0.750108 c 0,0.20777 0.1672176,0.375049 0.3749968,0.375049 0.207749,0 0.3749996,-0.16725 0.3749996,-0.375049 V 14.12645 c 0,-0.207773 -0.1672285,-0.375055 -0.3749996,-0.375055 z m 3.7499886,0 c -0.207751,0 -0.374999,0.167302 -0.374999,0.375055 v 0.750108 c 0,0.20777 0.167228,0.375049 0.374999,0.375049 0.207742,0 0.374996,-0.16725 0.374996,-0.375049 V 14.12645 c 0,-0.207773 -0.167226,-0.375055 -0.374996,-0.375055 z m 1.874995,0 A 0.74999725,0.75010822 0 0 0 14.499982,14.5015 0.74999725,0.75010822 0 0 0 15.249981,15.251607 0.74999725,0.75010822 0 0 0 15.99998,14.5015 0.74999725,0.75010822 0 0 0 15.249981,13.751395 Z m 4.124996,0 c -0.207823,0 -0.375014,0.167302 -0.375014,0.375055 v 0.750108 c 0,0.20777 0.167326,0.375049 0.375014,0.375049 0.207785,0 0.374979,-0.16725 0.374979,-0.375049 V 14.12645 c 0,-0.207773 -0.167339,-0.375055 -0.374979,-0.375055 z m 3.749973,0 c -0.207878,0 -0.375,0.167302 -0.375,0.375055 v 0.750108 c 0,0.20777 0.167335,0.375049 0.375,0.375049 0.207864,0 0.374998,-0.16725 0.374998,-0.375049 V 14.12645 c 0,-0.207773 -0.167364,-0.375055 -0.374998,-0.375055 z M 4.823257,14.876558 C 4.778697,15.25003 4.754275,15.625627 4.75,16.001726 c 0.00133,0.375927 0.022929,0.751521 0.064448,1.125164 h 0.7631885 c -0.047549,-0.373243 -0.073471,-0.748936 -0.077655,-1.125164 0.00225,-0.376129 0.026001,-0.751815 0.071789,-1.125168 z m 20.107851,0 c 0.0424,0.369769 0.06896,0.743724 0.06896,1.125168 0,0.381427 -0.02642,0.755379 -0.06896,1.125164 h 2.263165 c 0.03391,-0.370717 0.05573,-0.74523 0.05573,-1.125164 0,-0.379934 -0.0225,-0.754462 -0.05573,-1.125168 z m -13.056116,0.375049 c -0.207758,0 -0.375002,0.167299 -0.375002,0.375055 0,0.207778 0.16723,0.375064 0.375002,0.375064 h 0.749995 c 0.207747,0 0.375,-0.167309 0.375,-0.375064 0,-0.207778 -0.167218,-0.375055 -0.375,-0.375055 z m 5.999975,0 c -0.207743,0 -0.374993,0.167299 -0.374993,0.375055 0,0.207778 0.167238,0.375064 0.374993,0.375064 h 0.75 c 0.207746,0 0.374996,-0.167309 0.374996,-0.375064 0,-0.207778 -0.167283,-0.375055 -0.374996,-0.375055 z m -8.2499696,0.750119 c -0.2077507,0 -0.3749968,0.16727 -0.3749968,0.375054 v 0.75011 c 0,0.207794 0.1672176,0.375041 0.3749968,0.375041 0.207749,0 0.3750006,-0.167344 0.3750006,-0.375041 v -0.75011 c 0,-0.207778 -0.1672295,-0.375054 -0.3750006,-0.375054 z m 3.7499886,0 c -0.207751,0 -0.374999,0.16727 -0.374999,0.375054 v 0.75011 c 0,0.207794 0.167228,0.375041 0.374999,0.375041 0.207742,0 0.374996,-0.167344 0.374996,-0.375041 v -0.75011 c 0,-0.207778 -0.167224,-0.375054 -0.374996,-0.375054 z m 1.874995,0 a 0.74999725,0.75010822 0 0 0 -0.749999,0.750102 0.74999725,0.75010822 0 0 0 0.749999,0.750103 0.74999725,0.75010822 0 0 0 0.749999,-0.750103 0.74999725,0.75010822 0 0 0 -0.749999,-0.750102 z m 4.124996,0 c -0.207823,0 -0.375014,0.16727 -0.375014,0.375054 v 0.75011 c 0,0.207794 0.167326,0.375041 0.375014,0.375041 0.207785,0 0.374979,-0.167344 0.374979,-0.375041 v -0.75011 c 0,-0.207778 -0.167339,-0.375054 -0.374979,-0.375054 z m 3.749973,0 c -0.207878,0 -0.375,0.16727 -0.375,0.375054 v 0.75011 c 0,0.207794 0.167335,0.375041 0.375,0.375041 0.207864,0 0.374998,-0.167344 0.374998,-0.375041 v -0.75011 c 0,-0.207778 -0.167364,-0.375054 -0.374998,-0.375054 z M 5.6128048,17.418417 4.8877106,17.613213 c 0.1153285,0.743959 0.3102743,1.473336 0.58154,2.17561 l 0.719237,-0.193394 C 5.9131863,18.894479 5.7199935,18.163912 5.6128048,17.418417 Z m 19.2743432,0 c -0.109726,0.757628 -0.301902,1.487225 -0.574214,2.17708 l 2.179687,0.584565 c 0.257717,-0.697172 0.45299,-1.423401 0.578597,-2.17562 z m -13.012156,0.08361 c -0.207758,0 -0.375002,0.167375 -0.375002,0.375048 0,0.207841 0.16723,0.37506 0.375002,0.37506 h 0.749995 c 0.207747,0 0.375,-0.167375 0.375,-0.37506 0,-0.207837 -0.167218,-0.375048 -0.375,-0.375048 z m 5.999975,0 c -0.207743,0 -0.374993,0.167375 -0.374993,0.375048 0,0.207841 0.167238,0.37506 0.374993,0.37506 h 0.75 c 0.207746,0 0.374996,-0.167375 0.374996,-0.37506 0,-0.207837 -0.167283,-0.375048 -0.374996,-0.375048 z M 6.3100688,19.865169 5.6538209,20.244628 c 0.3052403,0.687031 0.6834015,1.33929 1.1279262,1.945576 L 7.4336027,21.813615 C 6.9851939,21.209613 6.6081767,20.55576 6.3100688,19.865076 Z m 17.8944792,0.005 c -0.300097,0.696741 -0.685862,1.344835 -1.132344,1.94555 l 1.962894,1.13249 c 0.433138,-0.610267 0.807673,-1.261933 1.122087,-1.950037 z M 7.6064521,22.05385 7.0791102,22.581261 c 0.4701511,0.587092 1.002009,1.121988 1.5864204,1.59546 L 9.2045887,23.638188 C 8.6125589,23.174557 8.0762779,22.643098 7.6064521,22.055296 Z m 15.2885079,9.71e-4 c -0.467353,0.590372 -1.000537,1.123628 -1.590795,1.591072 l 1.605458,1.605704 c 0.578942,-0.479431 1.11147,-1.012032 1.590811,-1.591056 z m -13.4589247,1.76771 -1.1308561,1.957312 c 0.6096595,0.433457 1.2567892,0.818583 1.9438418,1.133943 L 11.382807,24.95163 C 10.687093,24.650871 10.036266,24.270046 9.4360353,23.823578 Z m 11.6293507,9.71e-4 c -0.600269,0.446257 -1.247618,0.832446 -1.943854,1.132477 l 1.12648,1.952876 c 0.688018,-0.314411 1.339576,-0.689019 1.949697,-1.122208 z m -9.407191,1.237107 -0.587399,2.1888 c 0.696162,0.25876 1.422465,0.456763 2.173819,0.583103 l 0.587397,-2.189935 c -0.757645,-0.109863 -1.484216,-0.307701 -2.173817,-0.581156 z m 7.185047,0.0014 c -0.690211,0.273434 -1.420212,0.465551 -2.178227,0.575193 l 0.585931,2.184422 c 0.752603,-0.125214 1.479249,-0.320594 2.176744,-0.578589 z m -4.718257,0.615703 V 27.94413 C 14.495354,27.97856 14.870236,28 15.249981,28 c 0.379873,0 0.754342,-0.02248 1.124993,-0.05575 v -2.263267 c -0.369713,0.04246 -0.743617,0.06892 -1.124993,0.06892 -0.381505,0 -0.755326,-0.02885 -1.124996,-0.07178 z"
     id="path48-2" />
  <rect
     width="1.4999954"
     x="7.7489281"
     y="13.002788"
     rx="0.37499884"
     height="0.75010818"
     style="fill:#192629;stroke-width:1.50011;stroke-linecap:round;stroke-linejoin:round"
     id="rect50-3" />
  <rect
     width="0.74999768"
     x="6.9989486"
     y="13.752894"
     rx="0.37499884"
     height="1.5002164"
     ry="0.37505427"
     style="fill:#192629;stroke-width:1.50011;stroke-linecap:round;stroke-linejoin:round"
     id="rect52-7" />
  <rect
     width="0.74999768"
     x="6.9989486"
     y="16.00322"
     rx="0.37499884"
     height="1.5002164"
     ry="0.37505427"
     style="fill:#192629;stroke-width:1.50011;stroke-linecap:round;stroke-linejoin:round"
     id="rect54-5" />
  <rect
     width="1.4999954"
     x="7.7489281"
     y="15.25312"
     rx="0.37499884"
     height="0.75010818"
     style="fill:#192629;stroke-width:1.50011;stroke-linecap:round;stroke-linejoin:round"
     id="rect56-9" />
  <rect
     width="1.4999954"
     x="7.7489281"
     y="17.503437"
     rx="0.37499884"
     height="0.75010818"
     style="fill:#192629;stroke-width:1.50011;stroke-linecap:round;stroke-linejoin:round"
     id="rect58-2" />
  <rect
     width="0.74999768"
     x="10.748931"
     y="13.752894"
     rx="0.37499884"
     height="1.5002164"
     ry="0.37505427"
     style="fill:#192629;stroke-width:1.50011;stroke-linecap:round;stroke-linejoin:round"
     id="rect60-2" />
  <rect
     width="0.74999768"
     x="10.748931"
     y="16.00322"
     rx="0.37499884"
     height="1.5002164"
     ry="0.37505427"
     style="fill:#192629;stroke-width:1.50011;stroke-linecap:round;stroke-linejoin:round"
     id="rect62-8" />
  <rect
     width="0.74999768"
     x="16.748907"
     y="13.752894"
     rx="0.37499884"
     height="1.5002164"
     ry="0.37505427"
     style="fill:#192629;stroke-width:1.50011;stroke-linecap:round;stroke-linejoin:round"
     id="rect64-9" />
  <rect
     width="0.74999768"
     x="16.748907"
     y="16.00322"
     rx="0.37499884"
     height="1.5002164"
     ry="0.37505427"
     style="fill:#192629;stroke-width:1.50011;stroke-linecap:round;stroke-linejoin:round"
     id="rect66-7" />
  <rect
     width="0.74999768"
     x="20.498911"
     y="13.752894"
     rx="0.37499884"
     height="1.5002164"
     ry="0.37505427"
     style="fill:#192629;stroke-width:1.50011;stroke-linecap:round;stroke-linejoin:round"
     id="rect68-3" />
  <rect
     width="0.74999768"
     x="20.498911"
     y="16.00322"
     rx="0.37499884"
     height="1.5002164"
     ry="0.37505427"
     style="fill:#192629;stroke-width:1.50011;stroke-linecap:round;stroke-linejoin:round"
     id="rect70-6" />
  <rect
     width="1.4999954"
     x="21.248888"
     y="15.25312"
     rx="0.37499884"
     height="0.75010818"
     style="fill:#192629;stroke-width:1.50011;stroke-linecap:round;stroke-linejoin:round"
     id="rect72-1" />
  <rect
     width="1.4999954"
     x="21.248888"
     y="17.503437"
     rx="0.37499884"
     height="0.75010818"
     style="fill:#192629;stroke-width:1.50011;stroke-linecap:round;stroke-linejoin:round"
     id="rect74-2" />
</svg>
