<?xml version="1.0" encoding="UTF-8" standalone="no"?>
<svg
   width="32"
   height="32"
   version="1.1"
   id="svg22"
   sodipodi:docname="system-help.svg"
   inkscape:version="1.3.2 (091e20ef0f, 2023-11-25)"
   xmlns:inkscape="http://www.inkscape.org/namespaces/inkscape"
   xmlns:sodipodi="http://sodipodi.sourceforge.net/DTD/sodipodi-0.dtd"
   xmlns:xlink="http://www.w3.org/1999/xlink"
   xmlns="http://www.w3.org/2000/svg"
   xmlns:svg="http://www.w3.org/2000/svg">
  <sodipodi:namedview
     id="namedview22"
     pagecolor="#ffffff"
     bordercolor="#000000"
     borderopacity="0.25"
     inkscape:showpageshadow="2"
     inkscape:pageopacity="0.0"
     inkscape:pagecheckerboard="0"
     inkscape:deskcolor="#d1d1d1"
     inkscape:zoom="16.948466"
     inkscape:cx="12.449505"
     inkscape:cy="11.033447"
     inkscape:window-width="1920"
     inkscape:window-height="994"
     inkscape:window-x="0"
     inkscape:window-y="0"
     inkscape:window-maximized="1"
     inkscape:current-layer="svg22" />
  <defs
     id="defs22">
    <linearGradient
       id="linearGradient22"
       inkscape:collect="always">
      <stop
         style="stop-color:#ff5555;stop-opacity:1"
         offset="0"
         id="stop23" />
      <stop
         style="stop-color:#d35fbc;stop-opacity:1"
         offset="0.51714146"
         id="stop25" />
      <stop
         style="stop-color:#c83737;stop-opacity:1"
         offset="1"
         id="stop24" />
    </linearGradient>
    <style
       id="current-color-scheme"
       type="text/css">
   .ColorScheme-Text { color:#d5c289; } .ColorScheme-Highlight { color:#5294e2; }
  </style>
    <linearGradient
       id="arrongin"
       x1="0"
       x2="0"
       y1="0"
       y2="1">
      <stop
         offset="0%"
         style="stop-color:#dd9b44; stop-opacity:1"
         id="stop1" />
      <stop
         offset="100%"
         style="stop-color:#ad6c16; stop-opacity:1"
         id="stop2" />
    </linearGradient>
    <linearGradient
       id="aurora"
       x1="0"
       x2="0"
       y1="0"
       y2="1">
      <stop
         offset="0%"
         style="stop-color:#09D4DF; stop-opacity:1"
         id="stop3" />
      <stop
         offset="100%"
         style="stop-color:#9269F4; stop-opacity:1"
         id="stop4" />
    </linearGradient>
    <linearGradient
       id="fitdance"
       x1="0"
       x2="0"
       y1="0"
       y2="1">
      <stop
         offset="0%"
         style="stop-color:#1AD6AB; stop-opacity:1"
         id="stop5" />
      <stop
         offset="100%"
         style="stop-color:#329DB6; stop-opacity:1"
         id="stop6" />
    </linearGradient>
    <linearGradient
       id="oomox"
       x1="0"
       x2="0"
       y1="0"
       y2="16"
       gradientUnits="userSpaceOnUse"
       gradientTransform="matrix(0.9375,0,0,0.9375,0.5,0.5)">
      <stop
         offset="0%"
         style="stop-color:#303b3d; stop-opacity:1"
         id="stop7" />
      <stop
         offset="100%"
         style="stop-color:#bc985d; stop-opacity:1"
         id="stop8" />
    </linearGradient>
    <linearGradient
       id="rainblue"
       x1="0"
       x2="0"
       y1="0"
       y2="1">
      <stop
         offset="0%"
         style="stop-color:#00F260; stop-opacity:1"
         id="stop9" />
      <stop
         offset="100%"
         style="stop-color:#0575E6; stop-opacity:1"
         id="stop10" />
    </linearGradient>
    <linearGradient
       id="sunrise"
       x1="0"
       x2="0"
       y1="0"
       y2="1">
      <stop
         offset="0%"
         style="stop-color: #FF8501; stop-opacity:1"
         id="stop11" />
      <stop
         offset="100%"
         style="stop-color: #FFCB01; stop-opacity:1"
         id="stop12" />
    </linearGradient>
    <linearGradient
       id="telinkrin"
       x1="0"
       x2="0"
       y1="0"
       y2="1">
      <stop
         offset="0%"
         style="stop-color: #b2ced6; stop-opacity:1"
         id="stop13" />
      <stop
         offset="100%"
         style="stop-color: #6da5b7; stop-opacity:1"
         id="stop14" />
    </linearGradient>
    <linearGradient
       id="60spsycho"
       x1="0"
       x2="0"
       y1="0"
       y2="1">
      <stop
         offset="0%"
         style="stop-color: #df5940; stop-opacity:1"
         id="stop15" />
      <stop
         offset="25%"
         style="stop-color: #d8d15f; stop-opacity:1"
         id="stop16" />
      <stop
         offset="50%"
         style="stop-color: #e9882a; stop-opacity:1"
         id="stop17" />
      <stop
         offset="100%"
         style="stop-color: #279362; stop-opacity:1"
         id="stop18" />
    </linearGradient>
    <linearGradient
       id="90ssummer"
       x1="0"
       x2="0"
       y1="0"
       y2="1">
      <stop
         offset="0%"
         style="stop-color: #f618c7; stop-opacity:1"
         id="stop19" />
      <stop
         offset="20%"
         style="stop-color: #94ffab; stop-opacity:1"
         id="stop20" />
      <stop
         offset="50%"
         style="stop-color: #fbfd54; stop-opacity:1"
         id="stop21" />
      <stop
         offset="100%"
         style="stop-color: #0f83ae; stop-opacity:1"
         id="stop22" />
    </linearGradient>
    <linearGradient
       inkscape:collect="always"
       xlink:href="#linearGradient22"
       id="linearGradient24"
       x1="2.5396764"
       y1="13.145651"
       x2="13.570237"
       y2="2.9735036"
       gradientUnits="userSpaceOnUse"
       gradientTransform="matrix(1.7333334,0,0,1.7333334,2.133333,2.133333)" />
  </defs>
  <path
     style="fill:url(#linearGradient24);fill-opacity:1;stroke-width:1.625"
     class="ColorScheme-Text"
     d="M 16,3 C 8.811,3 3,8.811 3,16 3,23.189 8.811,29 16,29 23.189,29 29,23.189 29,16 29,8.811 23.189,3 16,3 Z m 0,1.625 C 22.288774,4.625 27.375,9.71125 27.375,16 27.375,22.288774 22.288774,27.375 16,27.375 9.71125,27.375 4.625,22.288774 4.625,16 4.625,9.71125 9.71125,4.625 16,4.625 Z m 0.102325,3.25 c -2.034444,-0.039 -4.166452,0.76375 -4.826202,2.33675 -0.38025,0.87425 -0.0099,2.437505 1.270756,2.437505 0.747502,0 1.061117,-0.511878 1.118002,-0.965255 0.04222,-0.3445 -0.0715,-0.6305 -0.152769,-0.914877 C 13.419492,10.44575 13.793261,9.8055 14.222262,9.5503726 14.581384,9.3375 14.9795,9.2595 15.034762,9.2465 c 1.291854,-0.3185 2.561003,0.4143726 3.098856,1.269123 0.536254,0.85475 -0.065,2.140133 -0.914854,3.40276 -0.84988,1.261001 -1.73065,2.692617 -1.725764,4.213617 0,0.580114 -0.0878,0.781613 -0.052,1.017267 0.0292,0.186866 0.654884,0.188454 1.118,0.100803 -0.04065,-1.473896 0.2665,-2.947767 1.625,-3.961768 1.434888,-1.14564 2.837274,-2.574007 2.691,-4.265638 C 20.8425,9.39275 18.960765,8.109 16.965264,7.9253726 A 7.13375,7.13375 0 0 0 16.102388,7.875 Z m -0.559,13.355891 c -0.979875,0.2405 -1.563261,1.485217 -0.914875,2.284718 0.663,1.009117 2.52524,0.736165 2.843742,-0.406217 0.331499,-0.888892 -0.498867,-1.893166 -1.522628,-1.878501 -0.154373,-0.0073 -0.2665,-0.03403 -0.406239,0 z"
     id="path22" />
</svg>
