<?xml version="1.0" encoding="UTF-8" standalone="no"?>
<svg
   width="32"
   height="32"
   version="1.1"
   id="svg22"
   sodipodi:docname="umbrello.svg"
   inkscape:version="1.3.2 (091e20ef0f, 2023-11-25)"
   xmlns:inkscape="http://www.inkscape.org/namespaces/inkscape"
   xmlns:sodipodi="http://sodipodi.sourceforge.net/DTD/sodipodi-0.dtd"
   xmlns:xlink="http://www.w3.org/1999/xlink"
   xmlns="http://www.w3.org/2000/svg"
   xmlns:svg="http://www.w3.org/2000/svg">
  <sodipodi:namedview
     id="namedview22"
     pagecolor="#ffffff"
     bordercolor="#000000"
     borderopacity="0.25"
     inkscape:showpageshadow="2"
     inkscape:pageopacity="0.0"
     inkscape:pagecheckerboard="0"
     inkscape:deskcolor="#d1d1d1"
     inkscape:zoom="16.948466"
     inkscape:cx="10.502426"
     inkscape:cy="11.033447"
     inkscape:window-width="1920"
     inkscape:window-height="994"
     inkscape:window-x="0"
     inkscape:window-y="0"
     inkscape:window-maximized="1"
     inkscape:current-layer="svg22" />
  <defs
     id="defs22">
    <linearGradient
       id="linearGradient22"
       inkscape:collect="always">
      <stop
         style="stop-color:#ff00ff;stop-opacity:1"
         offset="0"
         id="stop23" />
      <stop
         style="stop-color:#ffb380;stop-opacity:1"
         offset="1"
         id="stop24" />
    </linearGradient>
    <style
       id="current-color-scheme"
       type="text/css">
   .ColorScheme-Text { color:#d5c289; } .ColorScheme-Highlight { color:#5294e2; }
  </style>
    <linearGradient
       id="arrongin"
       x1="0"
       x2="0"
       y1="0"
       y2="1">
      <stop
         offset="0%"
         style="stop-color:#dd9b44; stop-opacity:1"
         id="stop1" />
      <stop
         offset="100%"
         style="stop-color:#ad6c16; stop-opacity:1"
         id="stop2" />
    </linearGradient>
    <linearGradient
       id="aurora"
       x1="0"
       x2="0"
       y1="0"
       y2="1">
      <stop
         offset="0%"
         style="stop-color:#09D4DF; stop-opacity:1"
         id="stop3" />
      <stop
         offset="100%"
         style="stop-color:#9269F4; stop-opacity:1"
         id="stop4" />
    </linearGradient>
    <linearGradient
       id="fitdance"
       x1="0"
       x2="0"
       y1="0"
       y2="1">
      <stop
         offset="0%"
         style="stop-color:#1AD6AB; stop-opacity:1"
         id="stop5" />
      <stop
         offset="100%"
         style="stop-color:#329DB6; stop-opacity:1"
         id="stop6" />
    </linearGradient>
    <linearGradient
       id="oomox"
       x1="0.49077517"
       x2="0.49077517"
       y1="0.55870891"
       y2="15.281947"
       gradientTransform="matrix(0.98483768,0,0,0.95087783,0.26666573,0.46873605)"
       gradientUnits="userSpaceOnUse">
      <stop
         offset="0%"
         style="stop-color:#303b3d; stop-opacity:1"
         id="stop7" />
      <stop
         offset="100%"
         style="stop-color:#bc985d; stop-opacity:1"
         id="stop8" />
    </linearGradient>
    <linearGradient
       id="rainblue"
       x1="0"
       x2="0"
       y1="0"
       y2="1">
      <stop
         offset="0%"
         style="stop-color:#00F260; stop-opacity:1"
         id="stop9" />
      <stop
         offset="100%"
         style="stop-color:#0575E6; stop-opacity:1"
         id="stop10" />
    </linearGradient>
    <linearGradient
       id="sunrise"
       x1="0"
       x2="0"
       y1="0"
       y2="1">
      <stop
         offset="0%"
         style="stop-color: #FF8501; stop-opacity:1"
         id="stop11" />
      <stop
         offset="100%"
         style="stop-color: #FFCB01; stop-opacity:1"
         id="stop12" />
    </linearGradient>
    <linearGradient
       id="telinkrin"
       x1="0"
       x2="0"
       y1="0"
       y2="1">
      <stop
         offset="0%"
         style="stop-color: #b2ced6; stop-opacity:1"
         id="stop13" />
      <stop
         offset="100%"
         style="stop-color: #6da5b7; stop-opacity:1"
         id="stop14" />
    </linearGradient>
    <linearGradient
       id="60spsycho"
       x1="0"
       x2="0"
       y1="0"
       y2="1">
      <stop
         offset="0%"
         style="stop-color: #df5940; stop-opacity:1"
         id="stop15" />
      <stop
         offset="25%"
         style="stop-color: #d8d15f; stop-opacity:1"
         id="stop16" />
      <stop
         offset="50%"
         style="stop-color: #e9882a; stop-opacity:1"
         id="stop17" />
      <stop
         offset="100%"
         style="stop-color: #279362; stop-opacity:1"
         id="stop18" />
    </linearGradient>
    <linearGradient
       id="90ssummer"
       x1="0"
       x2="0"
       y1="0"
       y2="1">
      <stop
         offset="0%"
         style="stop-color: #f618c7; stop-opacity:1"
         id="stop19" />
      <stop
         offset="20%"
         style="stop-color: #94ffab; stop-opacity:1"
         id="stop20" />
      <stop
         offset="50%"
         style="stop-color: #fbfd54; stop-opacity:1"
         id="stop21" />
      <stop
         offset="100%"
         style="stop-color: #0f83ae; stop-opacity:1"
         id="stop22" />
    </linearGradient>
    <linearGradient
       inkscape:collect="always"
       xlink:href="#linearGradient22"
       id="linearGradient24"
       x1="0.74999988"
       y1="0.99999988"
       x2="13.455997"
       y2="12.547588"
       gradientUnits="userSpaceOnUse"
       gradientTransform="matrix(1.7103843,0,0,1.7142858,2.3171372,2.2857132)" />
  </defs>
  <path
     class="ColorScheme-Text"
     d="m 15.100993,4.8891292 -0.0067,0.7825153 C 12.942173,5.8350247 10.889223,6.3424154 9.0343876,7.3914819 5.8763828,9.0906791 3.732904,14.019741 3.6150574,17.449098 c 0.00691,0.312989 -0.066603,0.663874 0.059775,0.95279 0.3006018,0.39042 1.0179393,0.507301 1.3356192,0.07197 0.8181102,-0.95106 2.0854104,-1.616639 3.414197,-1.549582 1.2416823,-0.06319 2.3894264,0.613995 3.1135944,1.52206 0.261311,0.344005 0.818105,0.435112 1.159704,0.149644 0.411603,-0.388693 0.775402,-0.837568 1.280953,-1.135098 0.36039,-0.227042 0.761766,-0.386946 1.185318,-0.464377 0.07357,2.987364 -0.0023,4.304738 0.01055,7.292129 0.02568,0.493623 -0.100843,0.983742 -0.445777,1.362088 -0.611182,0.780759 -1.813585,1.069721 -2.73929,0.617406 -0.730346,-0.330276 -1.210274,-1.052584 -1.249559,-1.807599 -0.03589,-0.373174 -0.298887,-0.756725 -0.731004,-0.782486 -0.4850581,-0.06179 -0.9137547,0.369788 -0.8471447,0.818638 -0.029076,1.637289 1.3527007,3.116352 3.0384377,3.425894 1.810433,0.381797 3.796791,-0.687926 4.368946,-2.338964 0.324507,-0.889145 0.150306,-1.843652 0.204953,-2.765488 0.01425,-2.500665 -0.03763,-3.331352 0.03921,-5.831972 0.994025,0.192645 1.798473,0.858204 2.415039,1.578806 0.350109,0.316486 0.9633,0.245936 1.224596,-0.139259 0.584153,-0.720582 1.419317,-1.296746 2.380898,-1.449833 1.241686,-0.239055 2.508978,0.221914 3.450055,0.976873 0.367243,0.232206 0.640469,0.615744 1.053805,0.777374 0.532858,0.158276 1.180207,-0.300979 1.043557,-0.846138 C 28.39888,14.697072 26.69928,9.9073397 23.976806,8.0327184 22.089622,6.7136034 19.790717,5.967188 17.455957,5.7384522 17.23904,5.7004949 17.018708,5.7147295 16.827422,5.6609463 l -0.01522,-0.7773701 c 0.0077,-1.1866863 -1.672076,-1.1694858 -1.707952,0 m 8.300642,5.0614832 c 1.057282,0.8117636 2.479991,3.6099316 2.828446,5.5172486 -1.041901,-0.617408 -1.900989,-0.615741 -3.147781,-0.498785 -1.241698,0.08246 -2.413349,1.093825 -3.303196,1.90043 -1.070891,-0.976887 -2.558504,-2.012203 -4.066625,-1.905574 -1.316829,0.03245 -2.565349,0.607087 -3.511547,1.446358 -1.436387,-1.336315 -3.6908816,-1.823031 -5.6140351,-1.196991 -0.4184532,0.12723 -0.857395,0.185763 -0.8966758,-0.173675 0.5260572,-2.505798 3.475687,-5.5069158 4.6063499,-6.1570117 1.181903,-0.6122537 3.696003,-1.5650535 5.781412,-1.4893801 2.725888,-0.1444824 6.12812,1.4532628 7.323698,2.5608403"
     id="path22"
     style="fill:url(#linearGradient24);fill-opacity:1;stroke-width:1.71248" />
</svg>
