<?xml version="1.0" encoding="UTF-8" standalone="no"?>
<svg
   id="svg18"
   width="32"
   height="32"
   version="1"
   sodipodi:docname="yakuake-symbolic.svg"
   inkscape:version="1.3.2 (091e20ef0f, 2023-11-25)"
   xmlns:inkscape="http://www.inkscape.org/namespaces/inkscape"
   xmlns:sodipodi="http://sodipodi.sourceforge.net/DTD/sodipodi-0.dtd"
   xmlns:xlink="http://www.w3.org/1999/xlink"
   xmlns="http://www.w3.org/2000/svg"
   xmlns:svg="http://www.w3.org/2000/svg">
  <style
     id="current-color-scheme"
     type="text/css">.ColorScheme-Text { color:#eceff4; }
</style>
  <sodipodi:namedview
     id="namedview14"
     pagecolor="#02334b"
     bordercolor="#000000"
     borderopacity="1"
     inkscape:pageshadow="2"
     inkscape:pageopacity="0.0"
     inkscape:pagecheckerboard="true"
     showgrid="false"
     inkscape:zoom="9.7681464"
     inkscape:cx="19.041484"
     inkscape:cy="25.388645"
     inkscape:window-width="1920"
     inkscape:window-height="994"
     inkscape:window-x="0"
     inkscape:window-y="0"
     inkscape:window-maximized="1"
     inkscape:current-layer="svg18"
     inkscape:lockguides="true"
     inkscape:showpageshadow="2"
     inkscape:deskcolor="#02334b">
    <inkscape:grid
       type="xygrid"
       id="grid865"
       originx="-32"
       originy="-10"
       spacingy="1"
       spacingx="1"
       units="px"
       visible="false" />
  </sodipodi:namedview>
  <defs
     id="1987">
    <linearGradient
       id="linearGradient1"
       inkscape:collect="always">
      <stop
         style="stop-color:#00ccff;stop-opacity:1"
         offset="0"
         id="stop1" />
      <stop
         style="stop-color:#bc5fd3;stop-opacity:1"
         offset="1"
         id="stop2" />
    </linearGradient>
    <style
       id="style9"
       type="text/css" />
    <linearGradient
       inkscape:collect="always"
       xlink:href="#linearGradient1"
       id="linearGradient6"
       x1="4"
       y1="19"
       x2="19"
       y2="3"
       gradientUnits="userSpaceOnUse"
       gradientTransform="matrix(1.5000001,0,0,1.5000001,-0.49999999,-0.49999995)" />
    <linearGradient
       inkscape:collect="always"
       xlink:href="#linearGradient1"
       id="linearGradient8"
       x1="10.487258"
       y1="10.855871"
       x2="15.878816"
       y2="10.999848"
       gradientUnits="userSpaceOnUse"
       gradientTransform="matrix(1.5000001,0,0,1.5000001,-0.49999999,-0.49999995)" />
  </defs>
  <g
     id="yakuake">
    <rect
       id="rect2"
       width="32"
       height="32"
       opacity="0.00100002"
       x="0"
       y="0"
       style="stroke-width:1.45455" />
    <path
       d="m 9.7259475,10 -1.125947,1.125944 4.5037305,4.503735 -4.5037305,4.503737 1.125947,1.125946 L 15.355746,15.629569 9.7259475,9.99977 Z m 5.6297985,10.407268 v 1.592502 h 7.962481 v -1.592502 z"
       id="path7-36-3"
       style="fill:url(#linearGradient8);fill-opacity:1;stroke-width:1.59251" />
    <path
       fill-rule="evenodd"
       clip-rule="evenodd"
       d="M 24.572285,27.999999 H 11.714287 c -0.472718,0 -0.856287,-0.384646 -0.856287,-0.85714 0,-0.473791 0.383569,-0.857577 0.856287,-0.857577 h 12.857998 c 0.94671,0 1.714286,-0.767571 1.714286,-1.714287 V 7.4281418 c 0,-0.9467126 -0.767575,-1.713856 -1.714286,-1.713856 H 7.4289999 c -0.9465004,0 -1.7145003,0.7671434 -1.7145003,1.713856 V 23.713856 c 0,0.473784 -0.3833563,0.857139 -0.8571432,0.857139 C 4.3844291,24.570995 4,24.18764 4,23.713856 V 7.4281418 C 4,5.5347128 5.5357854,4 7.4289999,4 H 24.572285 C 26.465281,4 28,5.5347128 28,7.4281418 V 24.570995 c 0,1.893435 -1.534719,3.429004 -3.427715,3.429004 z M 8.2863562,26.285282 c 0.4727149,0 0.8571434,0.383786 0.8571434,0.857577 0,0.472494 -0.3844285,0.85714 -0.8571434,0.85714 -0.4737854,0 -0.8573563,-0.384646 -0.8573563,-0.85714 0,-0.473791 0.3835709,-0.857577 0.8573563,-0.857577 z"
       id="path2-7-6"
       style="fill:url(#linearGradient6);fill-opacity:1;stroke-width:0.0535714" />
    <path
       d="m 18.458598,10.8709 0.586864,0.600994 c 0.0817,0.08368 0.121426,0.182854 0.120066,0.298436 -0.0014,0.115607 -0.04387,0.214234 -0.127127,0.295496 l -3.807516,3.717978 c -0.08367,0.0817 -0.182854,0.121426 -0.298434,0.120059 -0.115606,-0.0014 -0.213792,-0.04345 -0.295492,-0.127121 l -0.586866,-0.601 c -0.0817,-0.08368 -0.121427,-0.182852 -0.120045,-0.29844 0.0014,-0.115608 0.04387,-0.214232 0.127127,-0.295494 l 3.807046,-3.717541 c 0.08368,-0.0817 0.182849,-0.121425 0.298432,-0.120043 0.116058,0.0011 0.214245,0.04304 0.295945,0.126676 z"
       id="path6-5-7"
       style="fill:#00ccff;fill-opacity:0.4;stroke-width:0.0062875" />
  </g>
</svg>
