<?xml version="1.0" encoding="UTF-8" standalone="no"?>
<svg
   height="22"
   width="22"
   version="1.1"
   id="svg6"
   sodipodi:docname="accessories-text-editor.svg"
   inkscape:version="1.3.2 (091e20ef0f, 2023-11-25)"
   xmlns:inkscape="http://www.inkscape.org/namespaces/inkscape"
   xmlns:sodipodi="http://sodipodi.sourceforge.net/DTD/sodipodi-0.dtd"
   xmlns:xlink="http://www.w3.org/1999/xlink"
   xmlns="http://www.w3.org/2000/svg"
   xmlns:svg="http://www.w3.org/2000/svg"
   xmlns:rdf="http://www.w3.org/1999/02/22-rdf-syntax-ns#"
   xmlns:cc="http://creativecommons.org/ns#"
   xmlns:dc="http://purl.org/dc/elements/1.1/">
  <metadata
     id="metadata12">
    <rdf:RDF>
      <cc:Work
         rdf:about="">
        <dc:format>image/svg+xml</dc:format>
        <dc:type
           rdf:resource="http://purl.org/dc/dcmitype/StillImage" />
      </cc:Work>
    </rdf:RDF>
  </metadata>
  <defs
     id="defs10">
    <linearGradient
       id="linearGradient1"
       inkscape:collect="always">
      <stop
         style="stop-color:#ffd42a;stop-opacity:1"
         offset="0"
         id="stop1" />
      <stop
         style="stop-color:#00ffff;stop-opacity:1"
         offset="1"
         id="stop2" />
    </linearGradient>
    <marker
       style="overflow:visible"
       id="DotL"
       refX="0"
       refY="0"
       orient="auto"
       inkscape:stockid="DotL"
       inkscape:isstock="true">
      <path
         transform="matrix(0.8,0,0,0.8,5.92,0.8)"
         style="fill:#000000;fill-opacity:1;fill-rule:evenodd;stroke:#000000;stroke-width:1pt;stroke-opacity:1"
         d="m -2.5,-1 c 0,2.76 -2.24,5 -5,5 -2.76,0 -5,-2.24 -5,-5 0,-2.76 2.24,-5 5,-5 2.76,0 5,2.24 5,5 z"
         id="path898" />
    </marker>
    <linearGradient
       inkscape:collect="always"
       xlink:href="#linearGradient1"
       id="linearGradient2"
       x1="10.707617"
       y1="31.534513"
       x2="37.173615"
       y2="31.534513"
       gradientUnits="userSpaceOnUse"
       gradientTransform="matrix(0.6045492,0,0,0.60454934,-3.4732814,-8.0641693)" />
    <linearGradient
       inkscape:collect="always"
       xlink:href="#linearGradient1"
       id="linearGradient6"
       x1="-33.601166"
       y1="17.215977"
       x2="-15.06563"
       y2="17.215977"
       gradientUnits="userSpaceOnUse"
       gradientTransform="matrix(0.34382483,0,0,0.34382483,19.388488,4.9196097)" />
    <linearGradient
       inkscape:collect="always"
       xlink:href="#linearGradient1"
       id="linearGradient8"
       x1="-33.601166"
       y1="17.215977"
       x2="-15.06563"
       y2="17.215977"
       gradientUnits="userSpaceOnUse"
       gradientTransform="matrix(0.34382483,0,0,0.34382483,19.388488,4.9196097)" />
  </defs>
  <sodipodi:namedview
     pagecolor="#ffffff"
     bordercolor="#666666"
     borderopacity="1"
     objecttolerance="10"
     gridtolerance="10"
     guidetolerance="10"
     inkscape:pageopacity="0"
     inkscape:pageshadow="2"
     inkscape:window-width="1920"
     inkscape:window-height="994"
     id="namedview8"
     showgrid="false"
     inkscape:zoom="22.627417"
     inkscape:cx="9.5459415"
     inkscape:cy="6.5407377"
     inkscape:window-x="0"
     inkscape:window-y="0"
     inkscape:window-maximized="1"
     inkscape:current-layer="svg6"
     inkscape:document-rotation="0"
     inkscape:pagecheckerboard="0"
     inkscape:showpageshadow="2"
     inkscape:deskcolor="#d1d1d1" />
  <path
     id="circle2"
     style="opacity:0.99;fill:url(#linearGradient2);fill-opacity:1;stroke-width:0.604545"
     d="M 18.999998,11 A 7.9999991,8.0000007 0 0 1 11,19 7.9999991,8.0000007 0 0 1 3,11 a 7.9999991,8.0000007 0 0 1 8,-8 7.9999991,8.0000007 0 0 1 7.999998,8 z" />
  <path
     id="circle858"
     style="opacity:1;fill:#1c202f;fill-opacity:1;stroke-width:0.514311"
     d="M 17.805935,11 A 6.8059395,6.8059412 0 0 1 10.999999,17.805937 6.8059395,6.8059412 0 0 1 4.1940594,11 6.8059395,6.8059412 0 0 1 10.999999,4.1940588 6.8059395,6.8059412 0 0 1 17.805935,11 Z" />
  <path
     d="M 13.60075,8.2602048 8.4433761,13.417581"
     id="path6"
     style="fill:url(#linearGradient6);fill-opacity:0.992157;stroke:url(#linearGradient8)"
     stroke-width="1.71907" />
  <path
     d="M 14.81093,7.0390097 13.951368,7.8985729"
     stroke-opacity="1.0"
     stroke-width="1.71907"
     id="path8"
     style="fill:#ffffff;fill-opacity:1;stroke:#ffffff;stroke-opacity:1" />
  <path
     d="M 7.1435581,13.399775 8.3469447,14.603163 6.627821,14.946985 Z"
     fill-opacity="1.0"
     fill-rule="evenodd"
     id="path12"
     style="fill:#ffffff;fill-opacity:1;stroke-width:0.343828" />
</svg>
