<?xml version="1.0" encoding="UTF-8" standalone="no"?>
<svg
   width="22"
   height="22"
   version="1.1"
   id="svg12"
   sodipodi:docname="kmail.svg"
   inkscape:version="1.3.2 (091e20ef0f, 2023-11-25)"
   xmlns:inkscape="http://www.inkscape.org/namespaces/inkscape"
   xmlns:sodipodi="http://sodipodi.sourceforge.net/DTD/sodipodi-0.dtd"
   xmlns:xlink="http://www.w3.org/1999/xlink"
   xmlns="http://www.w3.org/2000/svg"
   xmlns:svg="http://www.w3.org/2000/svg"
   xmlns:rdf="http://www.w3.org/1999/02/22-rdf-syntax-ns#"
   xmlns:cc="http://creativecommons.org/ns#"
   xmlns:dc="http://purl.org/dc/elements/1.1/">
  <metadata
     id="metadata18">
    <rdf:RDF>
      <cc:Work
         rdf:about="">
        <dc:format>image/svg+xml</dc:format>
        <dc:type
           rdf:resource="http://purl.org/dc/dcmitype/StillImage" />
      </cc:Work>
    </rdf:RDF>
  </metadata>
  <defs
     id="defs16">
    <linearGradient
       id="linearGradient1"
       inkscape:collect="always">
      <stop
         style="stop-color:#00ccff;stop-opacity:1"
         offset="0"
         id="stop1" />
      <stop
         style="stop-color:#2a7fff;stop-opacity:1"
         offset="1"
         id="stop2" />
    </linearGradient>
    <linearGradient
       inkscape:collect="always"
       xlink:href="#linearGradient1"
       id="linearGradient4"
       x1="33"
       y1="21"
       x2="53"
       y2="21"
       gradientUnits="userSpaceOnUse" />
  </defs>
  <sodipodi:namedview
     pagecolor="#02334b"
     bordercolor="#000000"
     borderopacity="1"
     objecttolerance="10"
     gridtolerance="10"
     guidetolerance="10"
     inkscape:pageopacity="0"
     inkscape:pageshadow="2"
     inkscape:window-width="1920"
     inkscape:window-height="994"
     id="namedview14"
     showgrid="true"
     inkscape:zoom="9.8125003"
     inkscape:cx="-8.6624201"
     inkscape:cy="8.5605093"
     inkscape:window-x="0"
     inkscape:window-y="0"
     inkscape:window-maximized="1"
     inkscape:current-layer="svg12"
     inkscape:document-rotation="0"
     inkscape:pagecheckerboard="true"
     inkscape:lockguides="false"
     inkscape:showpageshadow="2"
     inkscape:deskcolor="#02334b">
    <inkscape:grid
       type="xygrid"
       id="grid830"
       originx="-32"
       originy="-10"
       spacingy="1"
       spacingx="1"
       units="px"
       visible="true" />
  </sodipodi:namedview>
  <g
     id="22-22-kmail"
     transform="translate(-32,-10)">
    <g
       id="g992"
       transform="translate(32,10)">
      <rect
         style="opacity:0.00100002"
         width="22"
         height="22"
         x="0"
         y="0"
         id="rect2" />
    </g>
    <path
       d="M 52.172846,14 H 33.827154 C 33.370978,14 33,14.382653 33,14.853174 V 27.146825 C 33,27.617347 33.370978,28 33.827154,28 H 52.172846 C 52.629019,28 53,27.617347 53,27.146825 V 14.853174 C 53,14.382653 52.629019,14 52.172846,14 Z M 52,27 v 0 H 34 V 27 17 L 43.000004,21.312564 52,17 Z M 52,16 43.000004,20.287 34,16 v -1 0 h 18 v 0 z"
       id="path2-6"
       style="fill:url(#linearGradient4);fill-opacity:1;stroke-width:0.280386"
       sodipodi:nodetypes="ssssssssscccccccccccccccc" />
    <path
       inkscape:connector-curvature="0"
       id="path4252-3-6"
       style="font-style:normal;font-variant:normal;font-weight:normal;font-stretch:normal;font-size:18.5263px;line-height:125%;font-family:'Product Sans';-inkscape-font-specification:'Product Sans';letter-spacing:0px;word-spacing:0px;fill:#06a7f9;fill-opacity:1;stroke:none;stroke-width:0.156256;stroke-linecap:butt;stroke-linejoin:miter;stroke-miterlimit:4;stroke-dasharray:none;stroke-opacity:0.85"
       d="m 48.516337,21 q 1.052768,0 1.771746,0.731846 0.718952,0.731895 0.718952,1.768129 0,0.582938 -0.25033,0.96505 -0.243939,0.382133 -0.712556,0.382133 -0.481484,0 -0.718981,-0.472798 -0.314557,0.472798 -0.898713,0.472798 -0.526418,0 -0.885869,-0.36917 -0.359506,-0.375663 -0.359506,-0.952063 0,-0.56995 0.359506,-0.945646 0.359451,-0.375617 0.860181,-0.375617 0.494306,0 0.821696,0.382146 h 0.02576 V 22.29536 h 0.462192 v 1.690402 q 0,0.168387 0.08986,0.304376 0.09628,0.135991 0.2889,0.135991 0.455755,0 0.455755,-0.926154 0,-0.8549 -0.590588,-1.444287 -0.590601,-0.589363 -1.437931,-0.589363 -0.847349,0 -1.437986,0.589363 -0.59055,0.589387 -0.59055,1.444287 0,0.854952 0.59055,1.444336 0.590637,0.589335 1.437986,0.589335 0.455763,0 0.815227,-0.181322 l 0.179773,0.440401 Q 49.062025,26 48.516411,26 47.450794,26 46.725375,25.274591 46,24.542741 46,23.499975 46,22.463741 46.725375,21.731846 47.457183,21 48.516411,21 Z m -0.597014,3.12824 q 0.231107,0.226687 0.552061,0.226687 0.320977,0 0.545655,-0.226687 0.231113,-0.2267 0.231113,-0.602315 0,-0.375693 -0.231113,-0.60235 -0.224678,-0.226686 -0.545655,-0.226686 -0.320954,0 -0.552061,0.226686 -0.224689,0.226657 -0.224689,0.60235 0,0.375615 0.224689,0.602315 z" />
  </g>
</svg>
