<?xml version="1.0" encoding="UTF-8" standalone="no"?>
<svg
   width="22"
   height="22"
   version="1.1"
   id="svg12"
   sodipodi:docname="kopete.svg"
   inkscape:version="1.3.2 (091e20ef0f, 2023-11-25)"
   xmlns:inkscape="http://www.inkscape.org/namespaces/inkscape"
   xmlns:sodipodi="http://sodipodi.sourceforge.net/DTD/sodipodi-0.dtd"
   xmlns:xlink="http://www.w3.org/1999/xlink"
   xmlns="http://www.w3.org/2000/svg"
   xmlns:svg="http://www.w3.org/2000/svg"
   xmlns:rdf="http://www.w3.org/1999/02/22-rdf-syntax-ns#"
   xmlns:cc="http://creativecommons.org/ns#"
   xmlns:dc="http://purl.org/dc/elements/1.1/">
  <metadata
     id="metadata18">
    <rdf:RDF>
      <cc:Work
         rdf:about="">
        <dc:format>image/svg+xml</dc:format>
        <dc:type
           rdf:resource="http://purl.org/dc/dcmitype/StillImage" />
      </cc:Work>
    </rdf:RDF>
  </metadata>
  <defs
     id="defs16">
    <linearGradient
       id="linearGradient2"
       inkscape:collect="always">
      <stop
         style="stop-color:#00ccff;stop-opacity:1"
         offset="0"
         id="stop2" />
      <stop
         style="stop-color:#00ffcc;stop-opacity:1"
         offset="1"
         id="stop3" />
    </linearGradient>
    <linearGradient
       inkscape:collect="always"
       xlink:href="#linearGradient2"
       id="linearGradient5"
       x1="2.0000002"
       y1="11"
       x2="19.999998"
       y2="11"
       gradientUnits="userSpaceOnUse" />
    <linearGradient
       inkscape:collect="always"
       xlink:href="#linearGradient2"
       id="linearGradient10"
       x1="7.3333325"
       y1="9.1166239"
       x2="14.666666"
       y2="9.1166239"
       gradientUnits="userSpaceOnUse" />
  </defs>
  <sodipodi:namedview
     pagecolor="#02334b"
     bordercolor="#000000"
     borderopacity="1"
     objecttolerance="10"
     gridtolerance="10"
     guidetolerance="10"
     inkscape:pageopacity="0"
     inkscape:pageshadow="2"
     inkscape:window-width="1920"
     inkscape:window-height="994"
     id="namedview14"
     showgrid="true"
     inkscape:zoom="9.8623729"
     inkscape:cx="-5.6781467"
     inkscape:cy="8.6186155"
     inkscape:window-x="0"
     inkscape:window-y="0"
     inkscape:window-maximized="1"
     inkscape:current-layer="svg12"
     inkscape:lockguides="false"
     inkscape:document-rotation="0"
     inkscape:showpageshadow="true"
     inkscape:pagecheckerboard="true"
     inkscape:deskcolor="#02334b">
    <inkscape:grid
       type="xygrid"
       id="grid863"
       originx="-32"
       originy="-10"
       spacingy="1"
       spacingx="1"
       units="px"
       visible="true" />
  </sodipodi:namedview>
  <g
     id="g2">
    <g
       id="22-22-kopete">
      <rect
         style="opacity:0.00100002"
         width="22"
         height="22"
         x="0"
         y="0"
         id="rect2" />
      <path
         fill="none"
         stroke-width="0.999743"
         stroke-linecap="round"
         stroke-linejoin="round"
         stroke-miterlimit="10"
         d="m 19.500128,4.5805788 v 8.8130652 c 0,0.601373 -0.516399,1.100419 -1.163478,1.100419 h -8.131513 l -4.70522,4.006123 V 14.494063 H 3.6633383 c -0.6470818,0 -1.1634666,-0.499046 -1.1634666,-1.100419 V 4.5805788 c 0,-0.6013683 0.5163848,-1.0807071 1.1634666,-1.0807071 H 18.33665 c 0.647079,0 1.163478,0.4793388 1.163478,1.0807071 z"
         id="path2-6"
         style="stroke:url(#linearGradient5);stroke-opacity:1"
         sodipodi:nodetypes="ssscccssssss" />
      <path
         style="fill:url(#linearGradient10);fill-opacity:1;stroke-width:0.666667"
         d="m 11.333333,5.4499985 a 3.3333338,3.6666671 0 0 0 -0.660155,0.0755 3.3333338,3.6666671 0 0 1 2.660155,3.591151 3.3333338,3.6666671 0 0 1 -2.673181,3.5911405 3.3333338,3.6666671 0 0 0 0.673181,0.0755 3.3333338,3.6666671 0 0 0 3.333333,-3.6666635 3.3333338,3.6666671 0 0 0 -3.333333,-3.666668 z m -3.3333335,1.000001 a 0.66666673,0.66666673 0 0 0 -0.666667,0.666665 0.66666673,0.66666673 0 0 0 0.666667,0.666668 0.66666673,0.66666673 0 0 0 0.666666,-0.666668 0.66666673,0.66666673 0 0 0 -0.666666,-0.666665 z m 1.333334,2 c -0.369334,0 -0.666668,0.297333 -0.666668,0.666666 0,0.369334 0.297334,0.6666675 0.666668,0.6666675 h 1.9999995 c 0.369332,0 0.666666,-0.2973335 0.666666,-0.6666675 0,-0.369333 -0.297334,-0.666666 -0.666666,-0.666666 z m -1.333334,1.9999995 c -0.368196,0 -0.666667,0.298485 -0.666667,0.666666 0,0.368189 0.298477,0.666668 0.666667,0.666668 0.235656,0 0.333333,0.666666 0.333333,0.666666 0,0 0.333333,-1.200799 0.333333,-1.333334 0,-0.368198 -0.298476,-0.666666 -0.666666,-0.666666 z"
         id="path12-5" />
    </g>
  </g>
</svg>
