<?xml version="1.0" encoding="UTF-8" standalone="no"?>
<svg
   width="22"
   version="1.1"
   height="22"
   viewBox="0 0 22 22"
   id="svg80"
   sodipodi:docname="ktimetracker.svg"
   inkscape:version="1.3.2 (091e20ef0f, 2023-11-25)"
   xmlns:inkscape="http://www.inkscape.org/namespaces/inkscape"
   xmlns:sodipodi="http://sodipodi.sourceforge.net/DTD/sodipodi-0.dtd"
   xmlns:xlink="http://www.w3.org/1999/xlink"
   xmlns="http://www.w3.org/2000/svg"
   xmlns:svg="http://www.w3.org/2000/svg">
  <sodipodi:namedview
     id="namedview82"
     pagecolor="#ffffff"
     bordercolor="#666666"
     borderopacity="1.0"
     inkscape:showpageshadow="2"
     inkscape:pageopacity="0.0"
     inkscape:pagecheckerboard="0"
     inkscape:deskcolor="#d1d1d1"
     showgrid="false"
     inkscape:zoom="19.666667"
     inkscape:cx="1.6271186"
     inkscape:cy="12.406779"
     inkscape:window-width="1920"
     inkscape:window-height="994"
     inkscape:window-x="0"
     inkscape:window-y="0"
     inkscape:window-maximized="1"
     inkscape:current-layer="svg80"
     showguides="false" />
  <defs
     id="defs28">
    <linearGradient
       id="linearGradient5032">
      <stop
         id="stop2" />
      <stop
         offset="1"
         style="stop-opacity:0"
         id="stop4" />
    </linearGradient>
    <linearGradient
       id="linearGradient4918">
      <stop
         style="stop-color:#3daefd"
         id="stop7" />
      <stop
         offset="1"
         style="stop-color:#24a058"
         id="stop9" />
    </linearGradient>
    <linearGradient
       id="linearGradient4909">
      <stop
         style="stop-color:#2c3e50"
         id="stop12" />
      <stop
         offset="1"
         style="stop-color:#0d352d"
         id="stop14" />
    </linearGradient>
    <linearGradient
       id="linearGradient4303">
      <stop
         style="stop-color:#c6cdd1"
         id="stop17" />
      <stop
         offset="1"
         style="stop-color:#e0e5e7"
         id="stop19" />
    </linearGradient>
    <linearGradient
       xlink:href="#linearGradient4303"
       id="linearGradient4174-5"
       y1="543.79797"
       y2="503.798"
       x2="0"
       gradientUnits="userSpaceOnUse"
       gradientTransform="translate(-817.14285)" />
    <linearGradient
       xlink:href="#linearGradient4909"
       id="linearGradient4915"
       y1="509.548"
       x1="-398.634"
       y2="539.17297"
       x2="-416.57101"
       gradientUnits="userSpaceOnUse" />
    <linearGradient
       xlink:href="#linearGradient4918"
       id="linearGradient4924"
       y1="12.42"
       x1="9.2679996"
       y2="38.819"
       x2="35.667"
       gradientUnits="userSpaceOnUse" />
    <linearGradient
       xlink:href="#linearGradient4303"
       id="linearGradient4982"
       y1="500.798"
       y2="503.798"
       x2="0"
       gradientUnits="userSpaceOnUse" />
    <linearGradient
       xlink:href="#linearGradient4303"
       id="linearGradient4990"
       x1="411.57101"
       x2="405.57101"
       gradientUnits="userSpaceOnUse" />
    <linearGradient
       xlink:href="#linearGradient5032"
       id="linearGradient5038"
       y1="10"
       x1="10"
       y2="22"
       x2="22"
       gradientUnits="userSpaceOnUse" />
    <linearGradient
       id="linearGradient1902"
       x1="32"
       x2="32"
       y1="2.0005"
       y2="61.905998"
       gradientUnits="userSpaceOnUse"
       gradientTransform="matrix(0.7,0,0,0.7,-57.247299,37.125426)">
      <stop
         stop-color="#f5f5f5"
         offset="0"
         id="stop311" />
      <stop
         stop-color="#dcdcdc"
         offset="1"
         id="stop313" />
    </linearGradient>
    <linearGradient
       id="c"
       gradientUnits="userSpaceOnUse"
       x1="4"
       x2="4"
       y1="3"
       y2="45"
       gradientTransform="translate(-63.371835,-19.854889)">
      <stop
         offset="0"
         stop-color="#21c9fb"
         id="stop12-3" />
      <stop
         offset="1"
         stop-color="#197cf1"
         id="stop14-6" />
    </linearGradient>
    <linearGradient
       xlink:href="#linearGradient4303"
       id="linearGradient4982-7"
       y1="500.798"
       y2="503.798"
       x2="0"
       gradientUnits="userSpaceOnUse"
       gradientTransform="matrix(0.4119693,0,0,0.4119693,-168.16239,-201.39951)" />
    <linearGradient
       xlink:href="#linearGradient4303"
       id="linearGradient4990-5"
       x1="411.57101"
       x2="405.57101"
       gradientUnits="userSpaceOnUse"
       gradientTransform="matrix(0.50002302,0,0,0.50002302,-189.09,-259.02956)" />
    <linearGradient
       xlink:href="#linearGradient4303"
       id="linearGradient4174-5-6"
       y1="543.79797"
       y2="503.798"
       x2="0"
       gradientUnits="userSpaceOnUse"
       gradientTransform="matrix(1.0499627,0,0,1.05,-456.9855,-521.98999)" />
    <linearGradient
       xlink:href="#linearGradient4909"
       id="linearGradient4915-2"
       y1="509.548"
       x1="-398.634"
       y2="539.17297"
       x2="-416.57101"
       gradientUnits="userSpaceOnUse"
       gradientTransform="matrix(1.0499627,0,0,1.05,509.71067,-519.1045)" />
    <linearGradient
       xlink:href="#linearGradient4918"
       id="linearGradient4924-2"
       y1="12.42"
       x1="9.2679996"
       y2="38.819"
       x2="35.667"
       gradientUnits="userSpaceOnUse"
       gradientTransform="matrix(0.49999787,0,0,0.50004777,-1.4999605,-1.0003824)" />
    <linearGradient
       xlink:href="#linearGradient5032"
       id="linearGradient5038-9"
       y1="10"
       x1="10"
       y2="22"
       x2="22"
       gradientUnits="userSpaceOnUse"
       gradientTransform="matrix(1.0499627,0,0,1.05,-105.92501,5.6833956)" />
  </defs>
  <rect
     width="3.0001388"
     x="13.704322"
     y="-8.6181431"
     rx="0.50002277"
     height="1.0000455"
     style="fill:url(#linearGradient4990-5);stroke-width:1.00005;stroke-linecap:round;stroke-linejoin:round"
     id="rect38-7"
     transform="matrix(0.7070715,0.70714206,-0.7070715,0.70714206,0,0)" />
  <path
     style="fill:url(#linearGradient4924-2);stroke-width:1.40005;stroke-opacity:0.550265"
     d="m 10.499983,3 c -0.254,0 -0.5031161,0.019063 -0.7499973,0.044943 v 1.5079566 c 0.2464397,-0.030247 0.4950433,-0.052767 0.7499973,-0.052767 0.25425,0 0.503519,0.017892 0.749997,0.045898 V 3.0371147 C 11.002878,3.0143087 10.753232,2.9999977 10.499983,3 Z m 1.334954,0.1191362 -0.390623,1.4561957 c 0.505003,0.073104 0.991322,0.201298 1.451173,0.3828487 L 13.285125,3.5049217 C 12.82042,3.3330538 12.336335,3.2028949 11.834937,3.1191362 Z m 1.997067,0.6094373 -0.751958,1.3018823 c 0.464454,0.2000678 0.896462,0.4572817 1.296872,0.7549567 L 15.131797,4.4766959 C 14.725049,4.1879104 14.290677,3.9381937 13.832004,3.7285735 Z M 9.4267458,4.0918919 C 8.930517,4.1687205 8.4439949,4.2987113 7.9755788,4.4796245 L 8.1044839,4.9591632 C 8.5720713,4.7755333 9.0593734,4.6467293 9.5566241,4.5753393 Z M 7.6718694,4.6026843 C 7.2139081,4.8062117 6.7791259,5.0583309 6.3749996,5.3547096 l 0.2509761,0.434611 C 7.0285747,5.4903545 7.4644143,5.2389848 7.9247962,5.0402263 Z M 15.60641,4.8331735 14.536103,5.9035906 c 0.393507,0.311609 0.748958,0.6671034 1.060531,1.0606476 L 16.666955,5.8938228 C 16.34739,5.5078175 15.992373,5.1527659 15.60641,4.8331735 Z M 6.1132807,5.5529693 C 5.7219359,5.8664356 5.3654005,6.221043 5.0498094,6.6106884 L 5.4091819,6.970099 C 5.7187786,6.5753713 6.0730232,6.2178154 6.4648438,5.9045664 Z M 17.023392,6.368478 15.714799,7.1234337 c 0.297481,0.4002241 0.554892,0.8318252 0.75489,1.2960229 l 1.301759,-0.75105 C 17.561858,7.2096921 17.312148,6.775264 17.023392,6.368478 Z M 4.8544969,6.8753628 C 4.5590432,7.2802805 4.3079298,7.7157607 4.105477,8.1743141 L 4.5351611,8.4233614 C 4.7358729,7.9633339 4.9891926,7.5281013 5.290041,7.126363 Z M 17.995076,8.2153344 16.541952,8.6050198 c 0.181537,0.4598856 0.309707,0.9462619 0.382806,1.4513122 L 18.380804,9.6656693 C 18.297055,9.1642245 18.166928,8.6800928 17.995076,8.2153344 Z M 3.9716879,8.4751254 C 3.7921872,8.9434254 3.6635148,9.4296625 3.5878995,9.925458 l 0.4892567,0.130863 C 4.149329,9.5596045 4.2787615,9.0729171 4.4628957,8.605987 Z m 4.2783035,0.5254404 c -0.1385032,0 -0.2499993,0.1115326 -0.2499993,0.250024 0,0.1385074 0.1114852,0.2500242 0.2499993,0.2500242 h 0.4999974 c 0.1384977,0 0.2499985,-0.1115327 0.2499985,-0.2500242 0,-0.1385089 -0.1114766,-0.250024 -0.2499985,-0.250024 z m 3.9999816,0 c -0.138499,0 -0.249995,0.1115326 -0.249995,0.250024 0,0.1385074 0.11149,0.2500242 0.249995,0.2500242 h 0.500003 c 0.138495,0 0.249994,-0.1115327 0.249994,-0.2500242 0,-0.1385089 -0.111525,-0.250024 -0.249994,-0.250024 z m 2.500002,0 c -0.138577,0 -0.250011,0.1115326 -0.250011,0.250024 0,0.1385074 0.111595,0.2500242 0.250011,0.2500242 h 0.499989 c 0.13858,0 0.249992,-0.1115327 0.249992,-0.2500242 0,-0.1385089 -0.11158,-0.250024 -0.249992,-0.250024 z M 6.7499964,9.500614 c -0.1384998,0 -0.2499979,0.1115289 -0.2499979,0.2500256 v 0.5000464 c 0,0.138511 0.1114787,0.250024 0.2499979,0.250024 0.1384992,0 0.2499996,-0.111498 0.2499996,-0.250024 V 9.7506396 C 6.999996,9.612129 6.8885103,9.500614 6.7499964,9.500614 Z m 2.4999902,0 c -0.1384984,0 -0.2499993,0.1115289 -0.2499993,0.2500256 v 0.5000464 c 0,0.138511 0.1114867,0.250024 0.2499993,0.250024 0.1384962,0 0.2499989,-0.111498 0.2499989,-0.250024 V 9.7506396 c 0,-0.1385106 -0.1114847,-0.2500256 -0.2499989,-0.2500256 z m 1.2499964,0 a 0.49999797,0.50004788 0 0 0 -0.4999998,0.500048 0.49999797,0.50004788 0 0 0 0.4999998,0.500048 0.49999797,0.50004788 0 0 0 0.499999,-0.500048 0.49999797,0.50004788 0 0 0 -0.499999,-0.500048 z m 2.749997,0 c -0.138545,0 -0.25001,0.1115289 -0.25001,0.2500256 v 0.5000464 c 0,0.138511 0.111551,0.250024 0.25001,0.250024 0.138523,0 0.249984,-0.111498 0.249984,-0.250024 V 9.7506396 c 0,-0.1385106 -0.11156,-0.2500256 -0.249984,-0.2500256 z m 2.499981,0 c -0.138584,0 -0.250005,0.1115289 -0.250005,0.2500256 v 0.5000464 c 0,0.138511 0.111563,0.250024 0.250005,0.250024 0.138579,0 0.249997,-0.111498 0.249997,-0.250024 V 9.7506396 c 0,-0.1385106 -0.111574,-0.2500256 -0.249997,-0.2500256 z M 3.5488377,10.250686 c -0.029707,0.248969 -0.045992,0.499354 -0.048838,0.750074 9.03e-4,0.250611 0.015285,0.500991 0.042967,0.750073 h 0.5087908 c -0.0317,-0.248817 -0.04898,-0.499264 -0.051767,-0.750073 0.00145,-0.25074 0.017337,-0.501182 0.047861,-0.750074 z m 13.4052283,0 c 0.02828,0.246503 0.04595,0.495796 0.04595,0.750074 0,0.254277 -0.01762,0.503565 -0.04595,0.750073 H 18.46284 C 18.48548,11.503705 18.5,11.254036 18.5,11.00076 c 0,-0.253276 -0.015,-0.502947 -0.03716,-0.750074 z M 8.2499914,10.50071 c -0.1385032,0 -0.2499993,0.111529 -0.2499993,0.250024 0,0.138507 0.1114852,0.250026 0.2499993,0.250026 h 0.4999974 c 0.1384977,0 0.2499985,-0.111532 0.2499985,-0.250026 0,-0.138511 -0.1114766,-0.250024 -0.2499985,-0.250024 z m 3.9999816,0 c -0.138499,0 -0.249995,0.111529 -0.249995,0.250024 0,0.138507 0.11149,0.250026 0.249995,0.250026 h 0.500003 c 0.138495,0 0.249994,-0.111532 0.249994,-0.250026 0,-0.138511 -0.111525,-0.250024 -0.249994,-0.250024 z m -5.4999766,0.50005 c -0.1384998,0 -0.2499979,0.111508 -0.2499979,0.250027 v 0.500046 c 0,0.138529 0.1114787,0.250021 0.2499979,0.250021 0.1384992,0 0.2499996,-0.11156 0.2499996,-0.250021 v -0.500046 c 0,-0.138517 -0.1114857,-0.250027 -0.2499996,-0.250027 z m 2.4999902,0 c -0.1384984,0 -0.2499993,0.111508 -0.2499993,0.250027 v 0.500046 c 0,0.138529 0.1114867,0.250021 0.2499993,0.250021 0.1384962,0 0.2499989,-0.11156 0.2499989,-0.250021 v -0.500046 c 0,-0.138517 -0.1114833,-0.250027 -0.2499989,-0.250027 z m 1.2499964,0 a 0.49999797,0.50004788 0 0 0 -0.4999998,0.500049 0.49999797,0.50004788 0 0 0 0.4999998,0.500045 0.49999797,0.50004788 0 0 0 0.499999,-0.500045 0.49999797,0.50004788 0 0 0 -0.499999,-0.500049 z m 2.749997,0 c -0.138545,0 -0.25001,0.111508 -0.25001,0.250027 v 0.500046 c 0,0.138529 0.111551,0.250021 0.25001,0.250021 0.138523,0 0.249984,-0.11156 0.249984,-0.250021 v -0.500046 c 0,-0.138517 -0.11156,-0.250027 -0.249984,-0.250027 z m 2.499981,0 c -0.138584,0 -0.250005,0.111508 -0.250005,0.250027 v 0.500046 c 0,0.138529 0.111563,0.250021 0.250005,0.250021 0.138579,0 0.249997,-0.11156 0.249997,-0.250021 v -0.500046 c 0,-0.138517 -0.111574,-0.250027 -0.249997,-0.250027 z M 4.0752027,11.94518 3.5918065,12.075034 c 0.076885,0.495945 0.2068496,0.982175 0.387693,1.450333 L 4.4589909,13.396444 C 4.2754566,12.929171 4.1466618,12.442154 4.0752027,11.94518 Z m 12.8495553,0 c -0.07314,0.50506 -0.201268,0.991431 -0.382806,1.451315 l 1.453124,0.389685 c 0.171809,-0.464755 0.30199,-0.948883 0.385728,-1.450336 z m -8.6747666,0.05573 c -0.1385032,0 -0.2499993,0.111581 -0.2499993,0.250029 0,0.138552 0.1114852,0.250022 0.2499993,0.250022 h 0.4999974 c 0.1384977,0 0.2499985,-0.111583 0.2499985,-0.250022 0,-0.138553 -0.1114766,-0.250029 -0.2499985,-0.250029 z m 3.9999816,0 c -0.138499,0 -0.249995,0.111581 -0.249995,0.250029 0,0.138552 0.11149,0.250022 0.249995,0.250022 h 0.500003 c 0.138495,0 0.249994,-0.111583 0.249994,-0.250022 0,-0.138553 -0.111525,-0.250029 -0.249994,-0.250029 z m -7.7099287,1.575339 -0.4374977,0.252959 c 0.2034936,0.458002 0.4556009,0.89282 0.7519503,1.296993 l 0.43457,-0.25104 C 4.9901282,14.472521 4.7387837,14.036639 4.5400443,13.576209 Z m 11.9296447,0.0033 c -0.200061,0.464472 -0.457237,0.896514 -0.75489,1.29697 l 1.308593,0.754961 c 0.288756,-0.406825 0.538452,-0.84125 0.748056,-1.299965 z M 5.4042999,15.035371 5.0527393,15.386964 c 0.3134335,0.391378 0.6680053,0.747956 1.0576128,1.063583 L 6.4697239,16.091476 C 6.0750376,15.782417 5.7175172,15.42813 5.4042999,15.036276 Z m 10.1923341,9.95e-4 c -0.311573,0.393551 -0.667024,0.749037 -1.060531,1.060651 l 1.070307,1.070417 c 0.385963,-0.319605 0.74098,-0.674654 1.060545,-1.06065 z M 6.6240221,16.21462 5.870118,17.51943 c 0.4064392,0.288956 0.8378592,0.545696 1.2958935,0.755926 L 7.921868,16.967084 C 7.4580597,16.76658 7.024175,16.51271 6.6240221,16.21508 Z m 7.7528959,9.95e-4 c -0.400182,0.297489 -0.831744,0.554934 -1.295899,0.754946 l 0.750985,1.301856 c 0.458673,-0.209613 0.893045,-0.459339 1.299793,-0.748118 z m -6.2714575,0.824529 -0.391599,1.459131 c 0.4641067,0.1725 0.9483091,0.304496 1.4492117,0.388713 L 9.5546745,17.427996 C 9.0495726,17.354512 8.5651949,17.222638 8.1054605,17.040342 Z m 4.7900265,0.0014 c -0.460138,0.182279 -0.946805,0.310349 -1.45215,0.383437 l 0.390624,1.456217 c 0.501734,-0.08351 0.986162,-0.213721 1.451164,-0.385708 z m -3.1455013,0.41041 v 1.510871 c 0.2469131,0.02288 0.4968333,0.03718 0.7499973,0.03718 0.253249,0 0.502895,-0.015 0.749997,-0.03718 V 17.45403 c -0.246478,0.02831 -0.495747,0.04594 -0.749997,0.04594 -0.254334,0 -0.5035515,-0.01925 -0.7499973,-0.04778 z"
     id="path48-2" />
  <rect
     width="0.99999619"
     x="5.4992838"
     y="9.0015659"
     rx="0.24999905"
     height="0.50004786"
     style="fill:#192629;stroke-width:1.00006;stroke-linecap:round;stroke-linejoin:round"
     id="rect50-3" />
  <rect
     width="0.49999809"
     x="4.9992962"
     y="9.5016127"
     rx="0.24999905"
     height="1.0000957"
     ry="0.25002399"
     style="fill:#192629;stroke-width:1.00006;stroke-linecap:round;stroke-linejoin:round"
     id="rect52-7" />
  <rect
     width="0.49999809"
     x="4.9992962"
     y="11.001759"
     rx="0.24999905"
     height="1.0000957"
     ry="0.25002399"
     style="fill:#192629;stroke-width:1.00006;stroke-linecap:round;stroke-linejoin:round"
     id="rect54-5" />
  <rect
     width="0.99999619"
     x="5.4992838"
     y="10.501717"
     rx="0.24999905"
     height="0.50004786"
     style="fill:#192629;stroke-width:1.00006;stroke-linecap:round;stroke-linejoin:round"
     id="rect56-9" />
  <rect
     width="0.99999619"
     x="5.4992838"
     y="12.001849"
     rx="0.24999905"
     height="0.50004786"
     style="fill:#192629;stroke-width:1.00006;stroke-linecap:round;stroke-linejoin:round"
     id="rect58-2" />
  <rect
     width="0.49999809"
     x="7.4992862"
     y="9.5016127"
     rx="0.24999905"
     height="1.0000957"
     ry="0.25002399"
     style="fill:#192629;stroke-width:1.00006;stroke-linecap:round;stroke-linejoin:round"
     id="rect60-2" />
  <rect
     width="0.49999809"
     x="7.4992862"
     y="11.001759"
     rx="0.24999905"
     height="1.0000957"
     ry="0.25002399"
     style="fill:#192629;stroke-width:1.00006;stroke-linecap:round;stroke-linejoin:round"
     id="rect62-8" />
  <rect
     width="0.49999809"
     x="11.499267"
     y="9.5016127"
     rx="0.24999905"
     height="1.0000957"
     ry="0.25002399"
     style="fill:#192629;stroke-width:1.00006;stroke-linecap:round;stroke-linejoin:round"
     id="rect64-9" />
  <rect
     width="0.49999809"
     x="11.499267"
     y="11.001759"
     rx="0.24999905"
     height="1.0000957"
     ry="0.25002399"
     style="fill:#192629;stroke-width:1.00006;stroke-linecap:round;stroke-linejoin:round"
     id="rect66-7" />
  <rect
     width="0.49999809"
     x="13.999265"
     y="9.5016127"
     rx="0.24999905"
     height="1.0000957"
     ry="0.25002399"
     style="fill:#192629;stroke-width:1.00006;stroke-linecap:round;stroke-linejoin:round"
     id="rect68-3" />
  <rect
     width="0.49999809"
     x="13.999265"
     y="11.001759"
     rx="0.24999905"
     height="1.0000957"
     ry="0.25002399"
     style="fill:#192629;stroke-width:1.00006;stroke-linecap:round;stroke-linejoin:round"
     id="rect70-6" />
  <rect
     width="0.99999619"
     x="14.499249"
     y="10.501717"
     rx="0.24999905"
     height="0.50004786"
     style="fill:#192629;stroke-width:1.00006;stroke-linecap:round;stroke-linejoin:round"
     id="rect72-1" />
  <rect
     width="0.99999619"
     x="14.499249"
     y="12.001849"
     rx="0.24999905"
     height="0.50004786"
     style="fill:#192629;stroke-width:1.00006;stroke-linecap:round;stroke-linejoin:round"
     id="rect74-2" />
</svg>
