<?xml version="1.0" encoding="UTF-8" standalone="no"?>
<svg
   width="22"
   height="22"
   version="1"
   id="svg12"
   sodipodi:docname="kup-symbolic.svg"
   inkscape:version="1.3.2 (091e20ef0f, 2023-11-25)"
   xmlns:inkscape="http://www.inkscape.org/namespaces/inkscape"
   xmlns:sodipodi="http://sodipodi.sourceforge.net/DTD/sodipodi-0.dtd"
   xmlns="http://www.w3.org/2000/svg"
   xmlns:svg="http://www.w3.org/2000/svg"
   xmlns:rdf="http://www.w3.org/1999/02/22-rdf-syntax-ns#"
   xmlns:cc="http://creativecommons.org/ns#"
   xmlns:dc="http://purl.org/dc/elements/1.1/">
  <metadata
     id="metadata18">
    <rdf:RDF>
      <cc:Work
         rdf:about="">
        <dc:format>image/svg+xml</dc:format>
        <dc:type
           rdf:resource="http://purl.org/dc/dcmitype/StillImage" />
      </cc:Work>
    </rdf:RDF>
  </metadata>
  <defs
     id="defs16" />
  <sodipodi:namedview
     pagecolor="#02334b"
     bordercolor="#000000"
     borderopacity="1"
     objecttolerance="10"
     gridtolerance="10"
     guidetolerance="10"
     inkscape:pageopacity="0"
     inkscape:pageshadow="2"
     inkscape:window-width="1920"
     inkscape:window-height="994"
     id="namedview14"
     showgrid="true"
     units="in"
     inkscape:zoom="11.313709"
     inkscape:cx="-8.3968927"
     inkscape:cy="19.622212"
     inkscape:window-x="0"
     inkscape:window-y="0"
     inkscape:window-maximized="1"
     inkscape:current-layer="svg12"
     inkscape:pagecheckerboard="true"
     inkscape:lockguides="false"
     inkscape:showpageshadow="2"
     inkscape:deskcolor="#02334b">
    <inkscape:grid
       type="xygrid"
       id="grid843"
       originx="-32.000001"
       originy="-10.000001"
       spacingy="1"
       spacingx="1"
       units="in"
       visible="true" />
  </sodipodi:namedview>
  <g
     id="22-22-kup"
     style="fill:#d35f8d;fill-opacity:1">
    <rect
       style="opacity:0.00100002;fill:#d35f8d;fill-opacity:1"
       width="22"
       height="22"
       x="0"
       y="0"
       id="rect2" />
    <path
       style="color:#d5c289;fill:#d35f8d;fill-opacity:1;stroke-width:1.00001"
       class="ColorScheme-Text"
       d="m 11.000002,3.000002 c -4.424,0 -8,3.576007 -8,8.000007 0,4.424006 3.576,7.999993 8,7.999993 4.423993,0 8,-3.575987 8,-7.999993 0,-4.424 -3.576007,-8.000007 -8,-8.000007 z m 0,1.000013 c 3.87002,0 6.999993,3.129994 6.999993,6.999994 0,3.870013 -3.129973,7 -6.999993,7 -3.870013,0 -7,-3.129987 -7,-7 0,-3.87 3.129987,-6.999994 7,-6.999994 z m 0.75002,5.71898 v 0 0 0 0 0 c 0,0 -0.03407,0.0069 0,0 z m -0.781013,4.500014 z"
       id="path58-9-6-3"
       sodipodi:nodetypes="ssssssssssccccccccccccccccc" />
    <path
       class="ColorScheme-Text"
       d="M 3.798725,3.798725 18.20128,18.201279 m -14.402555,0 L 18.20128,3.798725"
       stroke-linecap="round"
       stroke-width="1.59745"
       id="path8-7"
       style="fill:none;fill-opacity:1;stroke:#d35f8d;stroke-opacity:1" />
  </g>
</svg>
