<?xml version="1.0" encoding="UTF-8" standalone="no"?>
<svg
   width="22"
   height="22"
   version="1.1"
   id="svg22"
   sodipodi:docname="umbrello.svg"
   inkscape:version="1.3.2 (091e20ef0f, 2023-11-25)"
   xmlns:inkscape="http://www.inkscape.org/namespaces/inkscape"
   xmlns:sodipodi="http://sodipodi.sourceforge.net/DTD/sodipodi-0.dtd"
   xmlns:xlink="http://www.w3.org/1999/xlink"
   xmlns="http://www.w3.org/2000/svg"
   xmlns:svg="http://www.w3.org/2000/svg">
  <sodipodi:namedview
     id="namedview22"
     pagecolor="#ffffff"
     bordercolor="#000000"
     borderopacity="0.25"
     inkscape:showpageshadow="2"
     inkscape:pageopacity="0.0"
     inkscape:pagecheckerboard="0"
     inkscape:deskcolor="#d1d1d1"
     inkscape:zoom="23.96875"
     inkscape:cx="4.9647979"
     inkscape:cy="8.5528031"
     inkscape:window-width="1920"
     inkscape:window-height="994"
     inkscape:window-x="0"
     inkscape:window-y="0"
     inkscape:window-maximized="1"
     inkscape:current-layer="svg22" />
  <defs
     id="defs22">
    <linearGradient
       id="linearGradient22"
       inkscape:collect="always">
      <stop
         style="stop-color:#ff00ff;stop-opacity:1"
         offset="0"
         id="stop23" />
      <stop
         style="stop-color:#ffb380;stop-opacity:1"
         offset="1"
         id="stop24" />
    </linearGradient>
    <style
       id="current-color-scheme"
       type="text/css">
   .ColorScheme-Text { color:#d5c289; } .ColorScheme-Highlight { color:#5294e2; }
  </style>
    <linearGradient
       id="arrongin"
       x1="0"
       x2="0"
       y1="0"
       y2="1">
      <stop
         offset="0%"
         style="stop-color:#dd9b44; stop-opacity:1"
         id="stop1" />
      <stop
         offset="100%"
         style="stop-color:#ad6c16; stop-opacity:1"
         id="stop2" />
    </linearGradient>
    <linearGradient
       id="aurora"
       x1="0"
       x2="0"
       y1="0"
       y2="1">
      <stop
         offset="0%"
         style="stop-color:#09D4DF; stop-opacity:1"
         id="stop3" />
      <stop
         offset="100%"
         style="stop-color:#9269F4; stop-opacity:1"
         id="stop4" />
    </linearGradient>
    <linearGradient
       id="fitdance"
       x1="0"
       x2="0"
       y1="0"
       y2="1">
      <stop
         offset="0%"
         style="stop-color:#1AD6AB; stop-opacity:1"
         id="stop5" />
      <stop
         offset="100%"
         style="stop-color:#329DB6; stop-opacity:1"
         id="stop6" />
    </linearGradient>
    <linearGradient
       id="oomox"
       x1="0.49077517"
       x2="0.49077517"
       y1="0.55870891"
       y2="15.281947"
       gradientTransform="matrix(0.98483768,0,0,0.95087783,0.26666573,0.46873605)"
       gradientUnits="userSpaceOnUse">
      <stop
         offset="0%"
         style="stop-color:#303b3d; stop-opacity:1"
         id="stop7" />
      <stop
         offset="100%"
         style="stop-color:#bc985d; stop-opacity:1"
         id="stop8" />
    </linearGradient>
    <linearGradient
       id="rainblue"
       x1="0"
       x2="0"
       y1="0"
       y2="1">
      <stop
         offset="0%"
         style="stop-color:#00F260; stop-opacity:1"
         id="stop9" />
      <stop
         offset="100%"
         style="stop-color:#0575E6; stop-opacity:1"
         id="stop10" />
    </linearGradient>
    <linearGradient
       id="sunrise"
       x1="0"
       x2="0"
       y1="0"
       y2="1">
      <stop
         offset="0%"
         style="stop-color: #FF8501; stop-opacity:1"
         id="stop11" />
      <stop
         offset="100%"
         style="stop-color: #FFCB01; stop-opacity:1"
         id="stop12" />
    </linearGradient>
    <linearGradient
       id="telinkrin"
       x1="0"
       x2="0"
       y1="0"
       y2="1">
      <stop
         offset="0%"
         style="stop-color: #b2ced6; stop-opacity:1"
         id="stop13" />
      <stop
         offset="100%"
         style="stop-color: #6da5b7; stop-opacity:1"
         id="stop14" />
    </linearGradient>
    <linearGradient
       id="60spsycho"
       x1="0"
       x2="0"
       y1="0"
       y2="1">
      <stop
         offset="0%"
         style="stop-color: #df5940; stop-opacity:1"
         id="stop15" />
      <stop
         offset="25%"
         style="stop-color: #d8d15f; stop-opacity:1"
         id="stop16" />
      <stop
         offset="50%"
         style="stop-color: #e9882a; stop-opacity:1"
         id="stop17" />
      <stop
         offset="100%"
         style="stop-color: #279362; stop-opacity:1"
         id="stop18" />
    </linearGradient>
    <linearGradient
       id="90ssummer"
       x1="0"
       x2="0"
       y1="0"
       y2="1">
      <stop
         offset="0%"
         style="stop-color: #f618c7; stop-opacity:1"
         id="stop19" />
      <stop
         offset="20%"
         style="stop-color: #94ffab; stop-opacity:1"
         id="stop20" />
      <stop
         offset="50%"
         style="stop-color: #fbfd54; stop-opacity:1"
         id="stop21" />
      <stop
         offset="100%"
         style="stop-color: #0f83ae; stop-opacity:1"
         id="stop22" />
    </linearGradient>
    <linearGradient
       inkscape:collect="always"
       xlink:href="#linearGradient22"
       id="linearGradient24"
       x1="0.74999988"
       y1="0.99999988"
       x2="13.455997"
       y2="12.547588"
       gradientUnits="userSpaceOnUse"
       gradientTransform="matrix(1.1379311,0,0,1.142857,1.8965525,1.857143)" />
  </defs>
  <path
     class="ColorScheme-Text"
     d="m 10.401752,3.5927536 -0.0046,0.5216762 C 8.9654499,4.2233508 7.5996015,4.5616105 6.3655657,5.2609885 4.2645221,6.3937862 2.83845,9.6798206 2.7600453,11.966057 c 0.00451,0.208669 -0.044308,0.442594 0.039765,0.635193 0.1999923,0.260284 0.6772425,0.338205 0.8885974,0.04797 0.5442946,-0.634042 1.3874393,-1.07776 2.27149,-1.033046 0.8261008,-0.04218 1.5897031,0.409329 2.0714993,1.014702 0.1738564,0.22934 0.5442945,0.290072 0.7715569,0.09976 0.2738532,-0.259129 0.515886,-0.558382 0.852235,-0.756734 0.2397597,-0.151362 0.506794,-0.257964 0.7886,-0.309577 0.04885,1.991575 -0.0023,2.869828 0.0079,4.86141 0.01703,0.329085 -0.06704,0.655826 -0.296576,0.908064 -0.4068001,0.520514 -1.206766,0.713156 -1.8226484,0.4116 -0.48635,-0.220169 -0.8056515,-0.701701 -0.8317869,-1.205045 -0.023879,-0.248786 -0.1988524,-0.504485 -0.486343,-0.521667 -0.3227123,-0.04115 -0.6079273,0.246526 -0.5636113,0.545758 -0.019337,1.091523 0.8999613,2.07757 2.0215005,2.283937 1.2044925,0.254535 2.5260241,-0.458618 2.9066901,-1.559313 0.215897,-0.592767 0.1,-1.229106 0.136357,-1.843662 0.0091,-1.6671 -0.02497,-2.220889 0.02613,-3.887981 0.66133,0.12843 1.196534,0.572133 1.606745,1.052545 0.232928,0.210987 0.640884,0.163957 0.814732,-0.09284 0.388642,-0.480397 0.944279,-0.864506 1.584023,-0.966553 0.826104,-0.159375 1.669246,0.147935 2.295351,0.651249 0.244327,0.15479 0.426107,0.410488 0.701107,0.518249 0.354513,0.105505 0.785196,-0.200654 0.694282,-0.564107 C 19.249178,10.131385 18.118418,6.9382239 16.307143,5.6884756 15.051519,4.8090654 13.522039,4.3114564 11.9687,4.1589656 11.824384,4.1336601 11.677802,4.1431496 11.550536,4.1072981 l -0.01024,-0.5182484 c 0.0057,-0.7911227 -1.11245,-0.7796559 -1.136313,0 m 5.522479,3.374322 c 0.703387,0.5411763 1.649928,2.4066244 1.881753,3.6781583 -0.693182,-0.411594 -1.264741,-0.410487 -2.094242,-0.332512 -0.826106,0.05504 -1.605616,0.729206 -2.197636,1.26694 -0.712467,-0.651242 -1.702189,-1.341466 -2.705554,-1.270383 -0.8760972,0.02161 -1.7067412,0.404741 -2.3362594,0.964254 C 7.5188821,10.378957 6.0189508,10.054479 4.7394624,10.471825 4.4610625,10.556655 4.1690314,10.595668 4.1428971,10.35605 4.4928851,8.6855182 6.4552951,6.6847714 7.2075336,6.2513729 7.9938609,5.8432048 9.6665146,5.208005 11.053953,5.2584534 c 1.81355,-0.096321 4.077084,0.9688414 4.872507,1.7072268"
     id="path22"
     style="fill:url(#linearGradient24);fill-opacity:1;stroke-width:1.14041" />
</svg>
