<?xml version="1.0" encoding="UTF-8" standalone="no"?>
<svg
   viewBox="0 0 22 22"
   version="1.1"
   id="svg1"
   sodipodi:docname="drive-removable-media.svg"
   inkscape:version="1.3.2 (091e20ef0f, 2023-11-25)"
   xmlns:inkscape="http://www.inkscape.org/namespaces/inkscape"
   xmlns:sodipodi="http://sodipodi.sourceforge.net/DTD/sodipodi-0.dtd"
   xmlns="http://www.w3.org/2000/svg"
   xmlns:svg="http://www.w3.org/2000/svg">
  <sodipodi:namedview
     id="namedview1"
     pagecolor="#ffffff"
     bordercolor="#999999"
     borderopacity="1"
     inkscape:showpageshadow="2"
     inkscape:pageopacity="0"
     inkscape:pagecheckerboard="0"
     inkscape:deskcolor="#d1d1d1"
     inkscape:zoom="34.727273"
     inkscape:cx="11"
     inkscape:cy="11"
     inkscape:window-width="1920"
     inkscape:window-height="996"
     inkscape:window-x="0"
     inkscape:window-y="0"
     inkscape:window-maximized="1"
     inkscape:current-layer="svg1" />
  <defs
     id="defs3051">
    <style
       type="text/css"
       id="current-color-scheme">.ColorScheme-Text { color: #fcfcfc; } </style>
  </defs>
  <path
     style="fill:#00ccff;fill-opacity:1;stroke:none"
     d="m 7,1033.3622 0,8 -1,0 0,1 0,7 1,0 9,0 0,-1 0,-6 0,-1 -1,0 0,-8 -8,0 z m 1,2 1,0 0,4 -1,0 0,-4 z m 5,0 1,0 0,4 -1,0 0,-4 z m -3,2 2,0 0,2 -2,0 0,-2 z m -3,5 8,0 0,6 -8,0 0,-6 z m 4,1 -1,1 2,0 -1,-1 z m -3,3 0,1 6,0 0,-1 -6,0 z"
     transform="translate(0,-1030.3622)"
     class="ColorScheme-Text"
     id="path1" />
</svg>
