<?xml version="1.0" encoding="UTF-8" standalone="no"?>
<svg
   fill="none"
   viewBox="0 0 22 22"
   version="1.1"
   id="svg3"
   sodipodi:docname="input-touchscreen-symbolic.svg"
   inkscape:version="1.3.2 (091e20ef0f, 2023-11-25)"
   xmlns:inkscape="http://www.inkscape.org/namespaces/inkscape"
   xmlns:sodipodi="http://sodipodi.sourceforge.net/DTD/sodipodi-0.dtd"
   xmlns="http://www.w3.org/2000/svg"
   xmlns:svg="http://www.w3.org/2000/svg">
  <defs
     id="defs3" />
  <sodipodi:namedview
     id="namedview3"
     pagecolor="#ffffff"
     bordercolor="#999999"
     borderopacity="1"
     inkscape:showpageshadow="2"
     inkscape:pageopacity="0"
     inkscape:pagecheckerboard="0"
     inkscape:deskcolor="#d1d1d1"
     inkscape:zoom="34.727273"
     inkscape:cx="11"
     inkscape:cy="11"
     inkscape:window-width="1920"
     inkscape:window-height="996"
     inkscape:window-x="0"
     inkscape:window-y="0"
     inkscape:window-maximized="1"
     inkscape:current-layer="svg3" />
  <style
     type="text/css"
     id="current-color-scheme">.ColorScheme-Text { color: #fcfcfc; } </style>
  <g
     class="ColorScheme-Text"
     style="fill:currentColor;fill-opacity:1;stroke:none"
     id="g3">
    <path
       d="m2 18v-15h18v14.5h-1v-13.5h-16v13h3v1z"
       id="path1"
       style="fill:#00ccff" />
    <path
       d="m10 20.9999h6.5l1.5-6c-2-1.4999-4.5-2-6-2v-3.69991c0-1.29999-2-2.00008-2 0v7.70001l-1.5-2.0001c-1.5-2-3 0-3 0z"
       id="path2"
       style="fill:#00ccff" />
    <path
       d="m9.0001 12.3726c-.9068-.6325-1.5001-1.6833-1.5001-2.87272 0-1.933 1.567-3.5 3.5-3.5s3.5 1.567 3.5 3.5c0 .97932-.4022 1.86482-1.0505 2.50002h1.2927c.4787-.715.7578-1.5749.7578-2.50002 0-2.48528-2.0147-4.5-4.5-4.5-2.48528 0-4.5 2.01472-4.5 4.5 0 1.76692 1.01833 3.29592 2.5001 4.03232z"
       id="path3"
       style="fill:#d35f8d" />
  </g>
</svg>
