<?xml version="1.0" encoding="UTF-8" standalone="no"?>
<svg
   viewBox="0 0 22 22"
   version="1.1"
   id="svg1"
   sodipodi:docname="network-bluetooth.svg"
   inkscape:version="1.3.2 (091e20ef0f, 2023-11-25)"
   xmlns:inkscape="http://www.inkscape.org/namespaces/inkscape"
   xmlns:sodipodi="http://sodipodi.sourceforge.net/DTD/sodipodi-0.dtd"
   xmlns="http://www.w3.org/2000/svg"
   xmlns:svg="http://www.w3.org/2000/svg">
  <sodipodi:namedview
     id="namedview1"
     pagecolor="#ffffff"
     bordercolor="#999999"
     borderopacity="1"
     inkscape:showpageshadow="2"
     inkscape:pageopacity="0"
     inkscape:pagecheckerboard="0"
     inkscape:deskcolor="#d1d1d1"
     inkscape:zoom="34.727273"
     inkscape:cx="11"
     inkscape:cy="11"
     inkscape:window-width="1920"
     inkscape:window-height="996"
     inkscape:window-x="0"
     inkscape:window-y="0"
     inkscape:window-maximized="1"
     inkscape:current-layer="svg1" />
  <defs
     id="defs3051">
    <style
       type="text/css"
       id="current-color-scheme">.ColorScheme-Text { color: #fcfcfc; } </style>
  </defs>
  <g
     transform="translate(0,-1030.3622)"
     id="g1">
    <g
       transform="translate(0,39.500035)"
       id="g4644">
      <path
         style="fill:#00ccff;fill-opacity:1;stroke:none"
         d="m 10.999023,993.86403 0,7.03907 -3.2936118,-3.29298 -0.00195,0.002 C 7.3477147,997.25616 6.7071694,996.61603 6.7071694,996.61603 L 6,997.32306 l 4.54581,4.54114 -4.54581,4.541 0.7071694,0.707 c 0,0 0.6405453,-0.6401 0.9962883,-0.9961 l 0.00195,0 3.2936143,-3.293 0,7.0391 1.000197,0 4.000781,-4 -4.000781,-4 L 16,997.86208 l -4.000781,-4 -1.000196,0 z m 1.000196,1.41406 2.586443,2.58594 -2.586443,2.58597 0,-5.17191 z m 0,8.00001 2.586443,2.586 -2.586443,2.5859 0,-5.1719 z"
         class="ColorScheme-Text"
         id="path1" />
    </g>
  </g>
</svg>
