<?xml version="1.0" encoding="UTF-8" standalone="no"?>
<svg
   viewBox="0 0 22 22"
   version="1.1"
   id="svg1"
   sodipodi:docname="network-vpn.svg"
   inkscape:version="1.3.2 (091e20ef0f, 2023-11-25)"
   xmlns:inkscape="http://www.inkscape.org/namespaces/inkscape"
   xmlns:sodipodi="http://sodipodi.sourceforge.net/DTD/sodipodi-0.dtd"
   xmlns="http://www.w3.org/2000/svg"
   xmlns:svg="http://www.w3.org/2000/svg">
  <sodipodi:namedview
     id="namedview1"
     pagecolor="#ffffff"
     bordercolor="#999999"
     borderopacity="1"
     inkscape:showpageshadow="2"
     inkscape:pageopacity="0"
     inkscape:pagecheckerboard="0"
     inkscape:deskcolor="#d1d1d1"
     inkscape:zoom="34.727273"
     inkscape:cx="11"
     inkscape:cy="11"
     inkscape:window-width="1920"
     inkscape:window-height="996"
     inkscape:window-x="0"
     inkscape:window-y="0"
     inkscape:window-maximized="1"
     inkscape:current-layer="svg1" />
  <defs
     id="defs3051">
    <style
       type="text/css"
       id="current-color-scheme">.ColorScheme-Text { color: #fcfcfc; } </style>
  </defs>
  <path
     transform="translate(0,-1030.3622)"
     d="m 11,1033.3622 c 0,0 -2,2.6581 -8,3.3248 0,0 0,9.3333 8,12.6752 8,-3.3419 8,-12.6752 8,-12.6752 -6,-0.6667 -8,-3.3248 -8,-3.3248 z m 0,4.6667 c 1.104566,0 2,0.8954 2,2 0,0.8284 -0.511334,1.5297 -1.229166,1.8333 l 0.5625,2.8333 -2.666668,0 0.5625,-2.8333 C 9.511334,1041.5586 9,1040.8573 9,1040.0289 c 0,-1.1046 0.895434,-2 2,-2 z"
     style="fill:#de87aa;fill-opacity:1;stroke:none"
     class="ColorScheme-Text"
     id="path1" />
</svg>
