<?xml version="1.0" encoding="UTF-8" standalone="no"?>
<svg
   viewBox="0 0 24 24"
   width="24"
   height="24"
   version="1.1"
   id="svg3"
   sodipodi:docname="auth-sim-locked.svg"
   inkscape:version="1.3.2 (091e20ef0f, 2023-11-25)"
   xmlns:inkscape="http://www.inkscape.org/namespaces/inkscape"
   xmlns:sodipodi="http://sodipodi.sourceforge.net/DTD/sodipodi-0.dtd"
   xmlns="http://www.w3.org/2000/svg"
   xmlns:svg="http://www.w3.org/2000/svg">
  <defs
     id="defs3" />
  <sodipodi:namedview
     id="namedview3"
     pagecolor="#ffffff"
     bordercolor="#999999"
     borderopacity="1"
     inkscape:showpageshadow="2"
     inkscape:pageopacity="0"
     inkscape:pagecheckerboard="0"
     inkscape:deskcolor="#d1d1d1"
     inkscape:zoom="31.833333"
     inkscape:cx="12"
     inkscape:cy="12"
     inkscape:window-width="1920"
     inkscape:window-height="996"
     inkscape:window-x="0"
     inkscape:window-y="0"
     inkscape:window-maximized="1"
     inkscape:current-layer="svg3" />
  <style
     type="text/css"
     id="current-color-scheme">.ColorScheme-Text { color: #fcfcfc; } </style>
  <g
     transform="translate(1,1)"
     id="g3">
    <g
       class="ColorScheme-Text"
       fill="currentColor"
       id="g2">
      <path
         d="m5 3v16h8v-1h-4v-3h5v-1h-6.2929688l-1-1h-.7070312v-3h.7070312l1-1h6.5859378l1 1h.707031v2h1v-6.7070312l-2.292969-2.2929688zm2 2h1v3h-.7070312l-1.2929688 1.2929688v-3.2929688c0-.554.446-1 1-1zm2 0h4v3h-4zm5 0h1c.554 0 1 .446 1 1v3.2929688l-1.292969-1.2929688h-.707031zm-8 8.707031 1.2929688 1.292969h.7070312v3h-1c-.554 0-1-.446-1-1z"
         id="path1" />
      <path
         d="m16.5 13a1.5 1.5 0 0 0 -1.5 1.5v1.5h-1v3h5v-3h-1v-1.5a1.5 1.5 0 0 0 -1.5-1.5zm0 1a.5.5 0 0 1 .5.5v1.5h-1v-1.5a.5.5 0 0 1 .5-.5z"
         fill-rule="evenodd"
         id="path2"
         style="fill:#c83771" />
    </g>
  </g>
</svg>
