<?xml version="1.0" encoding="UTF-8" standalone="no"?>
<svg
   viewBox="0 0 24 24"
   width="24"
   height="24"
   version="1.1"
   id="svg3"
   sodipodi:docname="call-incoming.svg"
   inkscape:version="1.3.2 (091e20ef0f, 2023-11-25)"
   xmlns:inkscape="http://www.inkscape.org/namespaces/inkscape"
   xmlns:sodipodi="http://sodipodi.sourceforge.net/DTD/sodipodi-0.dtd"
   xmlns="http://www.w3.org/2000/svg"
   xmlns:svg="http://www.w3.org/2000/svg">
  <defs
     id="defs3" />
  <sodipodi:namedview
     id="namedview3"
     pagecolor="#ffffff"
     bordercolor="#999999"
     borderopacity="1"
     inkscape:showpageshadow="2"
     inkscape:pageopacity="0"
     inkscape:pagecheckerboard="0"
     inkscape:deskcolor="#d1d1d1"
     inkscape:zoom="31.833333"
     inkscape:cx="12"
     inkscape:cy="12"
     inkscape:window-width="1920"
     inkscape:window-height="996"
     inkscape:window-x="0"
     inkscape:window-y="0"
     inkscape:window-maximized="1"
     inkscape:current-layer="svg3" />
  <style
     type="text/css"
     id="current-color-scheme">.ColorScheme-Text { color: #fcfcfc; } </style>
  <g
     transform="translate(1,1)"
     id="g3">
    <g
       class="ColorScheme-Text"
       fill="currentColor"
       id="g2">
      <path
         d="m389.76455 557.04066c1.81605 1.81605 4.35942 2.40526 6.67057 1.81471l.40051-.40052.7071-.70709s.7071-.70711-.00001-1.41423l-3.04035-3.04035c-.70711-.70711-1.41422 0-1.41422 0l-.35355.35355c-.58761.58761-1.53372.5876-2.12132 0l-3.32624-3.32622c-.58759-.58759-.58761-1.53372 0-2.12134l.35356-.35355s.70709-.7071-.00001-1.41421l-3.04055-3.04055c-.70711-.7071-1.41421 0-1.41421 0l-.7071.7071-.40051.40051c-.59055 2.31115-.0001 4.85476 1.81472 6.67056z"
         transform="translate(-378.85714 -540.07647)"
         id="path1"
         style="fill:#00ccff" />
      <path
         d="m18.5 2.7929688-5.5 5.5v-3.2929688h-1v5h5v-1h-3.292969l5.5-5.5z"
         id="path2"
         style="fill:#00ffcc" />
    </g>
  </g>
</svg>
