<?xml version="1.0" encoding="UTF-8" standalone="no"?>
<svg
   id="svg11"
   version="1.1"
   viewBox="0 0 24 24"
   width="24"
   height="24"
   sodipodi:docname="rotation-allowed.svg"
   inkscape:version="1.3.2 (091e20ef0f, 2023-11-25)"
   xmlns:inkscape="http://www.inkscape.org/namespaces/inkscape"
   xmlns:sodipodi="http://sodipodi.sourceforge.net/DTD/sodipodi-0.dtd"
   xmlns="http://www.w3.org/2000/svg"
   xmlns:svg="http://www.w3.org/2000/svg">
  <defs
     id="defs1" />
  <sodipodi:namedview
     id="namedview1"
     pagecolor="#ffffff"
     bordercolor="#999999"
     borderopacity="1"
     inkscape:showpageshadow="2"
     inkscape:pageopacity="0"
     inkscape:pagecheckerboard="0"
     inkscape:deskcolor="#d1d1d1"
     inkscape:zoom="31.833333"
     inkscape:cx="12"
     inkscape:cy="12"
     inkscape:window-width="1920"
     inkscape:window-height="996"
     inkscape:window-x="0"
     inkscape:window-y="0"
     inkscape:window-maximized="1"
     inkscape:current-layer="svg11" />
  <style
     type="text/css"
     id="current-color-scheme">.ColorScheme-Text { color: #fcfcfc; } </style>
  <g
     transform="translate(1,1)"
     id="g1">
    <path
       id="rect3983"
       d="m9 2.2929688-6.7070312 6.7070312 10.707031 10.707031 6.707031-6.707031-10.707031-10.707031zm3 0.7089843a7 7 0 0 0-0.806641 0.0722657l0.933594 0.9335937a6 6 0 0 1 5.041016 2.9941406h-1.169922-0.998047v0.2910157 0.7070312h0.707031 0.291016 1.640625 0.359375 0.699219 0.300781l0.001953-4h-1v2.4257812a7 7 0 0 0-6-3.4238281zm-3 0.7050781 9.292969 9.2929688-5.292969 5.292969-9.2929688-9.292969 5.2929688-5.2929688zm-5.9980469 10.292969-0.0019531 4h1v-2.425781a7 7 0 0 0 6 3.423828 7 7 0 0 0 0.806641-0.072266l-0.9335941-0.933593a6 6 0 0 1-5.0410157-2.994141h1.1699219 1v-0.291016-0.707031h-0.7089843-0.2910157-1.640625-0.359375-0.6992187-0.3007813z"
       class="ColorScheme-Text"
       fill="currentColor"
       stroke-linecap="square"
       style="paint-order:markers fill stroke;fill:#00d455" />
  </g>
</svg>
