<?xml version="1.0" encoding="UTF-8" standalone="no"?>
<svg
   width="22"
   height="22"
   version="1.1"
   id="svg12"
   sodipodi:docname="akonadi.svg"
   inkscape:version="1.3.2 (091e20ef0f, 2023-11-25)"
   xmlns:inkscape="http://www.inkscape.org/namespaces/inkscape"
   xmlns:sodipodi="http://sodipodi.sourceforge.net/DTD/sodipodi-0.dtd"
   xmlns:xlink="http://www.w3.org/1999/xlink"
   xmlns="http://www.w3.org/2000/svg"
   xmlns:svg="http://www.w3.org/2000/svg"
   xmlns:rdf="http://www.w3.org/1999/02/22-rdf-syntax-ns#"
   xmlns:cc="http://creativecommons.org/ns#"
   xmlns:dc="http://purl.org/dc/elements/1.1/">
  <g
     id="22-22-akonadi">
    <path
       style="opacity:0.00100002;fill:#e5e9ef;fill-opacity:1"
       d="M 0,0 H 22 V 22 H 0 Z"
       id="path2" />
    <path
       id="rect4192-3"
       inkscape:connector-curvature="0"
       d="M 11.000025,3 C 6.567959,3 3,6.56802 3,11.000026 c 0,0.04947 0.0064,0.09693 0.0074,0.145907 C 3.0054,11.200733 3,11.253954 3,11.309193 3,12.029646 3.128349,12.71888 3.352505,13.361246 4.35553,16.633234 7.39089,19 11.000025,19 15.432291,19 19.000049,15.43214 19.000049,11.00008 19.000049,6.56802 15.432291,3 11.000025,3 Z m 0,1.777799 c 3.44715,0 6.222134,2.775171 6.222134,6.222227 0,3.420361 -2.732729,6.176028 -6.142299,6.218841 2.105231,-0.664901 3.719724,-2.414513 4.185781,-4.602407 -1.13528,1.30896 -2.808755,2.13866 -4.685932,2.13866 -2.654429,0 -4.901476,-1.654013 -5.78971,-3.98946 0.123579,-3.336421 2.842186,-5.987861 6.210026,-5.987861 z"
       style="fill:url(#linearGradient4);fill-opacity:1;stroke-width:0.0513398"
       sodipodi:nodetypes="sscscsssssccscs" />
  </g>
  <metadata
     id="metadata18">
    <rdf:RDF>
      <cc:Work
         rdf:about="">
        <dc:format>image/svg+xml</dc:format>
        <dc:type
           rdf:resource="http://purl.org/dc/dcmitype/StillImage" />
      </cc:Work>
    </rdf:RDF>
  </metadata>
  <defs
     id="defs16">
    <linearGradient
       id="linearGradient1"
       inkscape:collect="always">
      <stop
         style="stop-color:#00aad4;stop-opacity:1"
         offset="0"
         id="stop1" />
      <stop
         style="stop-color:#80e5ff;stop-opacity:1"
         offset="1"
         id="stop2" />
    </linearGradient>
    <linearGradient
       inkscape:collect="always"
       xlink:href="#linearGradient1"
       id="linearGradient4"
       x1="3"
       y1="11"
       x2="19.00005"
       y2="11"
       gradientUnits="userSpaceOnUse" />
  </defs>
  <sodipodi:namedview
     pagecolor="#02334b"
     bordercolor="#000000"
     borderopacity="1"
     objecttolerance="10"
     gridtolerance="10"
     guidetolerance="10"
     inkscape:pageopacity="0"
     inkscape:pageshadow="2"
     inkscape:window-width="1920"
     inkscape:window-height="994"
     id="namedview14"
     showgrid="true"
     inkscape:zoom="11.313708"
     inkscape:cx="-4.8613593"
     inkscape:cy="7.8665633"
     inkscape:window-x="0"
     inkscape:window-y="0"
     inkscape:window-maximized="1"
     inkscape:current-layer="svg12"
     inkscape:document-rotation="0"
     showguides="false"
     inkscape:pagecheckerboard="true"
     inkscape:showpageshadow="true"
     inkscape:deskcolor="#02334b">
    <inkscape:grid
       type="xygrid"
       id="grid862"
       originx="-32.000001"
       originy="-10.000001"
       spacingy="1"
       spacingx="1"
       units="px"
       visible="true" />
  </sodipodi:namedview>
</svg>
