<?xml version="1.0" encoding="UTF-8" standalone="no"?>
<svg
   fill="none"
   viewBox="0 0 22 22"
   version="1.1"
   id="svg53"
   sodipodi:docname="kdesrc-build.svg"
   width="22"
   height="22"
   inkscape:version="1.3.2 (091e20ef0f, 2023-11-25)"
   xmlns:inkscape="http://www.inkscape.org/namespaces/inkscape"
   xmlns:sodipodi="http://sodipodi.sourceforge.net/DTD/sodipodi-0.dtd"
   xmlns="http://www.w3.org/2000/svg"
   xmlns:svg="http://www.w3.org/2000/svg">
  <defs
     id="defs53" />
  <sodipodi:namedview
     id="namedview53"
     pagecolor="#ffffff"
     bordercolor="#999999"
     borderopacity="1"
     inkscape:showpageshadow="2"
     inkscape:pageopacity="0"
     inkscape:pagecheckerboard="0"
     inkscape:deskcolor="#d1d1d1"
     showgrid="true"
     inkscape:zoom="16.83798"
     inkscape:cx="7.720641"
     inkscape:cy="10.155612"
     inkscape:window-width="1920"
     inkscape:window-height="994"
     inkscape:window-x="0"
     inkscape:window-y="0"
     inkscape:window-maximized="1"
     inkscape:current-layer="svg53">
    <inkscape:grid
       id="grid53"
       units="px"
       originx="0"
       originy="0"
       spacingx="1"
       spacingy="1"
       empcolor="#0099e5"
       empopacity="0.30196078"
       color="#0099e5"
       opacity="0.14901961"
       empspacing="5"
       dotted="false"
       gridanglex="30"
       gridanglez="30"
       visible="true" />
  </sodipodi:namedview>
  <linearGradient
     id="a"
     x1="8"
     x2="8"
     y2="16"
     gradientUnits="userSpaceOnUse">
    <stop
       stop-color="#34495e"
       offset="0"
       id="stop1" />
    <stop
       stop-color="#391847"
       offset="1"
       id="stop2" />
  </linearGradient>
  <linearGradient
     id="b"
     x1="8"
     x2="8"
     y1="11.6"
     y2="16"
     gradientUnits="userSpaceOnUse">
    <stop
       stop-color="#494d76"
       offset="0"
       id="stop3" />
    <stop
       stop-color="#552968"
       offset="1"
       id="stop4" />
  </linearGradient>
  <linearGradient
     id="c"
     x1="3.9997599"
     x2="3.6349199"
     y1="5"
     y2="14.1916"
     gradientUnits="userSpaceOnUse"
     gradientTransform="matrix(1.4615164,0,0,1.4545459,-1.423035,-1.3636356)">
    <stop
       stop-color="#538094"
       offset="0"
       id="stop5" />
    <stop
       stop-color="#136b2f"
       offset="1"
       id="stop6" />
  </linearGradient>
  <linearGradient
     id="d"
     x1="2.8"
     x2="2.3756001"
     y1="5"
     y2="14.1804"
     gradientUnits="userSpaceOnUse"
     gradientTransform="matrix(1.4615164,0,0,1.4545459,-1.423035,-1.3636356)">
    <stop
       stop-color="#6599af"
       offset="0"
       id="stop7" />
    <stop
       stop-color="#1da848"
       offset="1"
       id="stop8" />
  </linearGradient>
  <linearGradient
     id="e"
     x1="3.7997999"
     x2="3.7997999"
     y1="8.2000704"
     y2="14.2001"
     gradientUnits="userSpaceOnUse"
     gradientTransform="matrix(1.4615164,0,0,1.4545459,-1.423035,-1.3636356)">
    <stop
       stop-color="#2ecc71"
       offset="0"
       id="stop9" />
    <stop
       stop-color="#cef829"
       offset="1"
       id="stop10" />
  </linearGradient>
  <linearGradient
     id="f"
     x1="3.8002901"
     x2="3.8002901"
     y1="9.8000202"
     y2="14.2"
     gradientUnits="userSpaceOnUse"
     gradientTransform="matrix(1.4615164,0,0,1.4545459,-1.423035,-1.3636356)">
    <stop
       stop-color="#84fe9f"
       offset="0"
       id="stop11" />
    <stop
       stop-color="#84fe9f"
       stop-opacity="0"
       offset="1"
       id="stop12" />
  </linearGradient>
  <linearGradient
     id="g"
     x1="7.04737"
     x2="6.78863"
     y1="3"
     y2="14.194"
     gradientUnits="userSpaceOnUse"
     gradientTransform="matrix(1.4615164,0,0,1.4545459,-1.423035,-1.3636356)">
    <stop
       stop-color="#537594"
       offset="0"
       id="stop13" />
    <stop
       stop-color="#11686d"
       offset="1"
       id="stop14" />
  </linearGradient>
  <linearGradient
     id="h"
     x1="5.9997602"
     x2="5.5015502"
     y1="3.3999801"
     y2="14.1769"
     gradientUnits="userSpaceOnUse"
     gradientTransform="matrix(1.4615164,0,0,1.4545459,-1.423035,-1.3636356)">
    <stop
       stop-color="#5d8da8"
       offset="0"
       id="stop15" />
    <stop
       stop-color="#0e957d"
       offset="1"
       id="stop16" />
  </linearGradient>
  <linearGradient
     id="i"
     x1="6.9997602"
     x2="6.9997602"
     y1="8.2000198"
     y2="14.2"
     gradientUnits="userSpaceOnUse"
     gradientTransform="matrix(1.4615164,0,0,1.4545459,-1.423035,-1.3636356)">
    <stop
       stop-color="#3daee9"
       offset="0"
       id="stop17" />
    <stop
       stop-color="#1cdc9a"
       offset="1"
       id="stop18" />
  </linearGradient>
  <linearGradient
     id="j"
     x1="6.9997602"
     x2="6.9997602"
     y1="8.2000198"
     y2="14.2"
     gradientUnits="userSpaceOnUse"
     gradientTransform="matrix(1.4615164,0,0,1.4545459,-1.423035,-1.3636356)">
    <stop
       stop-color="#55def0"
       offset="0"
       id="stop19" />
    <stop
       stop-color="#55def0"
       stop-opacity="0"
       offset="1"
       id="stop20" />
  </linearGradient>
  <linearGradient
     id="k"
     x1="6"
     x2="8"
     y1="3.5"
     y2="3.5"
     gradientUnits="userSpaceOnUse"
     gradientTransform="matrix(1.4615164,0,0,1.4545459,-1.423035,-1.3636356)">
    <stop
       stop-color="#70a2b9"
       offset="0"
       id="stop21" />
    <stop
       stop-color="#507694"
       offset="1"
       id="stop22" />
  </linearGradient>
  <linearGradient
     id="l"
     x1="11.0004"
     x2="11.062"
     y1="3.2000699"
     y2="14.3997"
     gradientUnits="userSpaceOnUse"
     gradientTransform="matrix(1.4615164,0,0,1.4545459,-1.423035,-1.3636356)">
    <stop
       stop-color="#537594"
       offset="0"
       id="stop23" />
    <stop
       stop-color="#9a265e"
       offset="1"
       id="stop24" />
  </linearGradient>
  <linearGradient
     id="m"
     x1="9.5002403"
     x2="9.5002403"
     y1="2.79245"
     y2="14"
     gradientUnits="userSpaceOnUse"
     gradientTransform="matrix(1.4615164,0,0,1.4545459,-1.423035,-1.3636356)">
    <stop
       stop-color="#7998be"
       stop-opacity=".8"
       offset="0"
       id="stop25" />
    <stop
       stop-color="#9265a2"
       offset=".5"
       id="stop26" />
    <stop
       stop-color="#622e2e"
       offset="1"
       id="stop27" />
  </linearGradient>
  <linearGradient
     id="n"
     x1="10.9838"
     x2="10.9838"
     y1="10.4244"
     y2="13.5153"
     gradientUnits="userSpaceOnUse"
     gradientTransform="matrix(1.4615164,0,0,1.4545459,-1.423035,-1.3636356)">
    <stop
       stop-color="#e74c3c"
       offset="0"
       id="stop28" />
    <stop
       stop-color="#da4453"
       offset=".5"
       id="stop29" />
    <stop
       stop-color="#9b59b6"
       offset="1"
       id="stop30" />
  </linearGradient>
  <linearGradient
     id="o"
     x1="9.0000401"
     x2="9.0000401"
     y1="10.5244"
     y2="13.0002"
     gradientUnits="userSpaceOnUse"
     gradientTransform="matrix(1.4615164,0,0,1.4545459,-1.423035,-1.3636356)">
    <stop
       stop-color="#fa8e6c"
       offset="0"
       id="stop31" />
    <stop
       stop-color="#fa8e6c"
       stop-opacity="0"
       offset="1"
       id="stop32" />
  </linearGradient>
  <linearGradient
     id="p"
     x1="9.3999004"
     x2="12.1999"
     y1="3.40007"
     y2="3.40007"
     gradientUnits="userSpaceOnUse"
     gradientTransform="matrix(1.4615164,0,0,1.4545459,-1.423035,-1.3636356)">
    <stop
       stop-color="#99afd2"
       offset="0"
       id="stop33" />
    <stop
       stop-color="#6a87ab"
       offset="1"
       id="stop34" />
  </linearGradient>
  <path
     d="M 1.5,5.9091 H 5.884466 L 5.884235,17.545449 C 5.884219,18.348799 5.229888,19 4.42272,19 3.61553,19 2.961189,18.3488 2.961209,17.545449 l 3.12e-4,-8.72726 z"
     fill="url(#c)"
     id="path38"
     style="fill:url(#c);stroke-width:1.45798" />
  <path
     d="M 4.423383,5.9091 H 1.5 L 2.961863,6.636355 V 17.545449 C 2.961863,18.348799 3.616208,19 4.423383,19 Z"
     clip-rule="evenodd"
     fill="url(#d)"
     fill-rule="evenodd"
     id="path39"
     style="fill:url(#d);stroke-width:1.45798" />
  <path
     d="m 2.961521,13.181955 c 0.919907,-0.457696 2.003199,-0.457894 2.923036,0 v 4.363494 C 5.884557,18.348799 5.23021,19 4.423041,19 3.615862,19 2.961521,18.3488 2.961521,17.545449 Z"
     fill="url(#e)"
     id="path40"
     style="fill:url(#e);stroke-width:1.45798" />
  <path
     d="m 4.423533,12.838595 c -0.500788,-2.6e-5 -1.001586,0.114516 -1.46167,0.34336 l 1.14e-4,2.909095 c 2.5e-5,0.80335 0.654367,1.45455 1.461556,1.45455 z"
     clip-rule="evenodd"
     fill="url(#f)"
     fill-rule="evenodd"
     id="path41"
     style="fill:url(#f);stroke-width:1.45798" />
  <path
     d="m 2.961521,16.0909 v 1.454549 C 2.961521,18.348799 3.615862,19 4.423041,19 5.23021,19 5.884557,18.3488 5.884557,17.545449 V 16.0909 c 0,0.80335 -0.654347,1.454549 -1.461516,1.454549 -0.807179,0 -1.46152,-0.651199 -1.46152,-1.454549 z"
     fill="#99ad1d"
     id="path42"
     style="stroke-width:1.45798" />
  <path
     d="M 7.3460695,3 H 10.269097 V 17.545449 C 10.269097,18.348799 9.6147471,19 8.8075789,19 8.0004162,19 7.3460695,18.3488 7.3460695,17.545449 Z"
     fill="url(#g)"
     id="path43"
     style="fill:url(#g);stroke-width:1.45798" />
  <path
     d="M 8.8079005,5.909011 7.3463911,5.181811 7.3460695,17.54501 C 7.3460574,18.348649 8.0005367,19 8.8079005,19 Z"
     clip-rule="evenodd"
     fill="url(#h)"
     fill-rule="evenodd"
     id="path44"
     style="fill:url(#h);stroke-width:1.45798" />
  <path
     d="m 7.3460695,10.272541 2.9233765,0.727289 -2.78e-4,6.545469 c -2.9e-5,0.803351 -0.6543791,1.454551 -1.4615449,1.454551 -0.8071939,0 -1.4615421,-0.6512 -1.4615421,-1.454551 z"
     fill="url(#i)"
     id="path45"
     style="fill:url(#i);stroke-width:1.45798" />
  <path
     d="M 8.8075075,10.63618 7.3459866,10.272541 7.3457054,16.09034 c -4.03e-5,0.803471 0.6544435,1.45496 1.4618021,1.45496 z"
     fill="url(#j)"
     id="path46"
     style="fill:url(#j);stroke-width:1.45798" />
  <path
     d="M 7.3460695,16.090755 V 17.5453 c 0,0.803349 0.6543597,1.45455 1.461539,1.45455 0.8071681,0 1.4615155,-0.6512 1.4615445,-1.45455 V 16.090755 C 10.269124,16.8941 9.6147766,17.5453 8.8076085,17.5453 c -0.8071793,0 -1.461539,-0.6512 -1.461539,-1.454545 z"
     fill="#149b8b"
     id="path47"
     style="stroke-width:1.45798" />
  <path
     d="m 6.615298,3 h 4.384555 V 4.45455 H 6.615298 Z"
     fill="url(#k)"
     id="path48"
     style="fill:url(#k);stroke-width:1.45798" />
  <path
     d="m 13.192421,3 h 2.923031 V 9.545475 L 20.5,17.5456 C 20.5,18.3488 19.845825,19 19.03863,19 H 10.269374 C 9.4622507,19 8.80793,18.3488 8.80793,17.5456 l 4.384491,-8.000125 z"
     fill="url(#l)"
     id="path49"
     style="fill:url(#l);stroke-width:1.45798" />
  <path
     d="M 14.653936,5.90927 13.192129,5.181981 13.192421,9.545475 8.8075789,17.5456 h 5.8460661 z"
     clip-rule="evenodd"
     fill="url(#m)"
     fill-rule="evenodd"
     id="path50"
     style="fill:url(#m);stroke-width:1.45798" />
  <path
     d="M 20.5,17.5456 18.108522,13.181955 10.800869,13.909245 8.8075789,17.5456 Z"
     clip-rule="evenodd"
     fill="url(#n)"
     fill-rule="evenodd"
     id="path51"
     style="fill:url(#n);stroke-width:1.45798" />
  <path
     d="M 14.653791,13.525955 10.800869,13.90939 8.8075789,17.54575 H 14.653645 Z"
     fill="url(#o)"
     id="path52"
     style="fill:url(#o);stroke-width:1.45798" />
  <path
     d="m 12.461369,3 h 4.384548 v 1.45455 h -4.384548 z"
     fill="url(#p)"
     id="path53"
     style="fill:url(#p);stroke-width:1.45798" />
</svg>
