<?xml version="1.0" encoding="UTF-8" standalone="no"?>
<svg
   height="16"
   width="16"
   version="1.1"
   id="svg260"
   sodipodi:docname="preferences-system-bluetooth.svg"
   inkscape:version="1.3.2 (091e20ef0f, 2023-11-25)"
   xmlns:inkscape="http://www.inkscape.org/namespaces/inkscape"
   xmlns:sodipodi="http://sodipodi.sourceforge.net/DTD/sodipodi-0.dtd"
   xmlns:xlink="http://www.w3.org/1999/xlink"
   xmlns="http://www.w3.org/2000/svg"
   xmlns:svg="http://www.w3.org/2000/svg">
  <defs
     id="defs264">
    <linearGradient
       id="linearGradient1"
       inkscape:collect="always">
      <stop
         style="stop-color:#de87cd;stop-opacity:1"
         offset="0"
         id="stop1" />
      <stop
         style="stop-color:#ffb380;stop-opacity:1"
         offset="1"
         id="stop2" />
    </linearGradient>
    <linearGradient
       id="a-3"
       x1="428.81601"
       x2="388.86499"
       y1="547.63397"
       y2="499.67899"
       gradientTransform="matrix(0.84065802,0,0,0.83479053,-384.50193,-423.04309)"
       gradientUnits="userSpaceOnUse">
      <stop
         stop-color="#bdc3c7"
         offset="0"
         id="stop2193" />
      <stop
         stop-color="#eff0f1"
         offset="1"
         id="stop2195" />
    </linearGradient>
    <linearGradient
       id="c-3"
       gradientUnits="userSpaceOnUse"
       x1="5"
       x2="5"
       y1="18"
       y2="14"
       gradientTransform="translate(-28.733457,-19.255704)">
      <stop
         offset="0"
         stop-color="#208c4e"
         id="stop230" />
      <stop
         offset="1"
         stop-color="#6dbd7f"
         id="stop232" />
    </linearGradient>
    <linearGradient
       id="b-6"
       gradientUnits="userSpaceOnUse"
       x1="8"
       x2="8"
       y1="13"
       y2="9"
       gradientTransform="translate(-28.733457,-19.255704)">
      <stop
         offset="0"
         stop-color="#8e44ad"
         id="stop225" />
      <stop
         offset="1"
         stop-color="#b08bc4"
         id="stop227" />
    </linearGradient>
    <linearGradient
       id="a-7"
       gradientUnits="userSpaceOnUse"
       x1="11"
       x2="11"
       y1="7"
       y2="3"
       gradientTransform="translate(-28.733457,-19.255704)">
      <stop
         offset="0"
         stop-color="#da4453"
         id="stop220" />
      <stop
         offset="1"
         stop-color="#e4848f"
         id="stop222" />
    </linearGradient>
    <linearGradient
       id="a-5"
       gradientTransform="matrix(1.4999984,0,0,1.4999984,-493.33114,-732.03509)"
       gradientUnits="userSpaceOnUse"
       x2="0"
       y1="545.79797"
       y2="517.79797">
      <stop
         offset="0"
         stop-color="#197cf1"
         id="stop237-3" />
      <stop
         offset="1"
         stop-color="#20bcfa"
         id="stop239-5"
         style="stop-color:#059fdc;stop-opacity:1;" />
    </linearGradient>
    <linearGradient
       id="linearGradient1128"
       gradientUnits="userSpaceOnUse"
       x1="6"
       x2="20"
       y1="6"
       y2="20"
       gradientTransform="matrix(1.8888881,0,0,1.8888881,-51.930324,-41.676074)">
      <stop
         offset="0"
         stop-color="#292c2f"
         id="stop247-6" />
      <stop
         offset="1"
         stop-opacity="0"
         id="stop249-2" />
    </linearGradient>
    <linearGradient
       id="linearGradient1132"
       gradientUnits="userSpaceOnUse"
       x1="11"
       x2="11"
       y1="16"
       y2="6"
       gradientTransform="matrix(1.8888881,0,0,1.8888881,-51.930324,-41.676074)">
      <stop
         offset="0"
         stop-color="#7cbaf8"
         id="stop242-9" />
      <stop
         offset="1"
         stop-color="#f4fcff"
         id="stop244-1" />
    </linearGradient>
    <linearGradient
       inkscape:collect="always"
       xlink:href="#linearGradient1"
       id="linearGradient2"
       x1="1.9999981"
       y1="14.000001"
       x2="8.6988096"
       y2="6.8886733"
       gradientUnits="userSpaceOnUse"
       gradientTransform="matrix(1.0833332,0,0,1.0833332,-0.6666583,-0.66666911)" />
  </defs>
  <sodipodi:namedview
     id="namedview262"
     pagecolor="#ffffff"
     bordercolor="#000000"
     borderopacity="0.25"
     inkscape:showpageshadow="2"
     inkscape:pageopacity="0.0"
     inkscape:pagecheckerboard="0"
     inkscape:deskcolor="#d1d1d1"
     showgrid="false"
     inkscape:zoom="15.170655"
     inkscape:cx="7.8440911"
     inkscape:cy="11.436553"
     inkscape:window-width="1920"
     inkscape:window-height="994"
     inkscape:window-x="0"
     inkscape:window-y="0"
     inkscape:window-maximized="1"
     inkscape:current-layer="svg260" />
  <linearGradient
     id="a"
     gradientTransform="matrix(1.2142844,0,0,1.2142844,-517.56022,-666.6523)"
     gradientUnits="userSpaceOnUse"
     x2="0"
     y1="545.79797"
     y2="517.79797">
    <stop
       offset="0"
       stop-color="#197cf1"
       id="stop237" />
    <stop
       offset="1"
       stop-color="#20bcfa"
       id="stop239" />
  </linearGradient>
  <linearGradient
     id="b"
     gradientUnits="userSpaceOnUse"
     x1="11"
     x2="11"
     y1="16"
     y2="6"
     gradientTransform="matrix(1.8888881,0,0,1.8888881,-51.930324,-41.676074)">
    <stop
       offset="0"
       stop-color="#7cbaf8"
       id="stop242" />
    <stop
       offset="1"
       stop-color="#f4fcff"
       id="stop244" />
  </linearGradient>
  <linearGradient
     id="c"
     gradientUnits="userSpaceOnUse"
     x1="6"
     x2="20"
     y1="6"
     y2="20"
     gradientTransform="matrix(1.8888881,0,0,1.8888881,-51.930324,-41.676074)">
    <stop
       offset="0"
       stop-color="#292c2f"
       id="stop247" />
    <stop
       offset="1"
       stop-opacity="0"
       id="stop249" />
  </linearGradient>
  <path
     d="M 5.7666411,1.5854933 C 5.6174128,1.6858204 5.4831063,1.8541122 5.4461223,1.9874522 5.4286161,2.0502422 5.4188768,2.882634 5.4188768,4.394671 V 6.7054466 L 3.9668195,5.6193176 C 3.1681225,5.0218818 2.4641517,4.5066499 2.4031626,4.4749329 2.2649648,4.4030868 2.0437168,4.396608 1.9223868,4.4613371 1.703735,4.5765529 1.5000059,4.8878919 1.5000059,5.1060247 c 0,0.163761 0.046711,0.2686199 0.1758301,0.3954859 0.05774,0.05696 0.8240007,0.6395089 1.7025026,1.2945517 0.8785019,0.6550438 1.597393,1.196813 1.597393,1.2039339 0,0.00713 -0.7182421,0.5488901 -1.596096,1.2039329 -0.8778519,0.6550449 -1.6441077,1.2375919 -1.7025017,1.2945519 -0.1304129,0.126866 -0.177128,0.231728 -0.177128,0.395485 0,0.317813 0.3549051,0.702946 0.6488189,0.704239 0.049961,0 0.150526,-0.02783 0.2238429,-0.06147 0.07267,-0.03367 0.7883178,-0.552132 1.5896078,-1.152154 L 5.4188768,9.2939021 v 2.3114209 c 0,1.512036 0.00972,2.344433 0.027248,2.407219 0.036984,0.133341 0.1712907,0.301635 0.3205187,0.401959 0.1466331,0.09841 0.3081899,0.111983 0.4885611,0.04014 0.1336567,-0.05309 4.1018364,-3.015657 4.2088944,-3.142524 a 0.6682843,0.66669442 0 0 0 0.170637,-0.41944 C 10.635385,10.730858 10.588688,10.625349 10.45826,10.498483 10.399862,10.441517 9.6336068,9.858972 8.7557531,9.203927 7.8778999,8.5488831 7.1596567,8.0071124 7.1596567,7.9999931 c 0,-0.00719 0.7188932,-0.5488906 1.597394,-1.2039345 C 9.6355528,6.141016 10.401807,5.5584667 10.459557,5.5015072 10.588671,5.3746415 10.635384,5.2697822 10.634734,5.1073158 A 0.6682843,0.66669442 0 0 0 10.464098,4.6878809 C 10.35705,4.5610149 6.3888584,1.5984324 6.2552021,1.5453554 6.0748306,1.4735093 5.9132742,1.4871045 5.7666411,1.5854824 M 8.8394512,5.0607077 C 8.8666971,5.0852986 8.6584306,5.2529485 7.7948517,5.89893 L 6.7165129,6.7054356 V 3.4684081 L 7.761112,4.2490238 c 0.5742058,0.4291439 1.0595237,0.7942075 1.0783392,0.8116839 m 3.8585278,0.1197461 c -0.210866,0.110684 -0.40551,0.3508234 -0.440548,0.5437119 -0.03565,0.1928888 0.01364,0.2860963 0.378263,0.7223599 0.223195,0.2666778 0.413945,0.6408038 0.495048,0.9709147 0.04542,0.182532 0.05773,0.3093979 0.05773,0.5825481 0,0.4149038 -0.05773,0.6887019 -0.21476,1.0239906 -0.122626,0.2602058 -0.210218,0.3896609 -0.461308,0.681582 -0.301703,0.350175 -0.330899,0.55148 -0.122626,0.834987 0.209569,0.284797 0.501538,0.399369 0.752629,0.295156 0.187507,-0.0783 0.593024,-0.526883 0.82011,-0.906835 0.207624,-0.347585 0.323759,-0.6291504 0.421733,-1.022047 A 3.7093022,3.7004775 0 0 0 13.962541,6.0711055 C 13.735454,5.6911546 13.329936,5.2425918 13.142429,5.1642718 a 0.57096133,0.56960299 0 0 0 -0.444443,0.016181 m -1.718074,0.9696194 a 0.96998541,0.96767776 0 0 0 -0.397724,0.4077849 c -0.101228,0.2220151 -0.04993,0.4110199 0.182965,0.6783456 0.07458,0.08544 0.172587,0.2310771 0.217355,0.3236371 0.07528,0.1559943 0.08108,0.188358 0.08108,0.4401483 0,0.2427286 -0.0082,0.2880377 -0.07199,0.4246126 a 1.9256967,1.9211155 0 0 1 -0.213462,0.3262272 c -0.162849,0.1980668 -0.220598,0.3191077 -0.220598,0.4589195 0.0012,0.2990416 0.380858,0.6776996 0.681912,0.6796406 0.197889,0.0012 0.378258,-0.113923 0.599506,-0.383189 a 2.5323435,2.5263186 0 0 0 0.510622,-1.1029573 c 0.05124,-0.293216 0.01946,-0.8110364 -0.06551,-1.0764196 -0.18298,-0.5683069 -0.58655,-1.1010151 -0.919392,-1.2129939 -0.135604,-0.045955 -0.239418,-0.036248 -0.384753,0.036248 M 8.8394655,10.8862 c 0.027249,0.0246 -0.1810209,0.192236 -1.0445998,0.838217 L 6.7165269,12.530922 V 9.293898 l 1.0445994,0.780617 c 0.5742055,0.429142 1.0595234,0.794205 1.0783392,0.811685"
     fill-rule="evenodd"
     id="path1"
     style="fill:url(#linearGradient2);stroke-width:0.648048" />
</svg>
