<?xml version="1.0" encoding="UTF-8" standalone="no"?>
<svg
   version="1.1"
   viewBox="0 0 22 22"
   id="svg1"
   sodipodi:docname="view-refresh.svg"
   inkscape:version="1.3.2 (091e20ef0f, 2023-11-25)"
   xmlns:inkscape="http://www.inkscape.org/namespaces/inkscape"
   xmlns:sodipodi="http://sodipodi.sourceforge.net/DTD/sodipodi-0.dtd"
   xmlns="http://www.w3.org/2000/svg"
   xmlns:svg="http://www.w3.org/2000/svg">
  <sodipodi:namedview
     id="namedview1"
     pagecolor="#ffffff"
     bordercolor="#999999"
     borderopacity="1"
     inkscape:showpageshadow="2"
     inkscape:pageopacity="0"
     inkscape:pagecheckerboard="0"
     inkscape:deskcolor="#d1d1d1"
     inkscape:zoom="34.727273"
     inkscape:cx="11"
     inkscape:cy="11"
     inkscape:window-width="1920"
     inkscape:window-height="996"
     inkscape:window-x="0"
     inkscape:window-y="0"
     inkscape:window-maximized="1"
     inkscape:current-layer="svg1" />
  <defs
     id="defs1">
    <style
       type="text/css"
       id="current-color-scheme">.ColorScheme-Text { color: #fcfcfc; } </style>
  </defs>
  <path
     d="m11 3a8 8 0 0 0-7.9277344 7h1.0058594a7 7 0 0 1 6.921875-6 7 7 0 0 1 6.320312 4h-3.320312v1h5v-1-4h-1v3.1679688a8 8 0 0 0-7-4.1679688zm6.921875 9a7 7 0 0 1-6.921875 6 7 7 0 0 1-6.3105469-4h3.3105469v-1h-5v1 4h1v-3.195312a8 8 0 0 0 7 4.195312 8 8 0 0 0 7.927734-7h-1.005859z"
     class="ColorScheme-Text"
     fill="currentColor"
     id="path1"
     style="fill:#00ccff" />
</svg>
